<svg xmlns="http://www.w3.org/2000/svg" viewBox="0 0 19200 10800">
    <g fill="none" stroke="rgb(0, 0, 0)" stroke-width="10" style="transform: none;">
        <g style="transform: none;">
            <path d="M0 5400 l0 -5400 9600 0 9600 0 0 5400 0 5400 -9600 0 -9600 0 0 -5400z m9326 5028 c29 -23 46 -45 54 -73 7 -22 16 -44 20 -50 4 -5 13 -28 20 -50 7 -22 16 -44 20 -50 4 -5 17 -41 30 -80 12 -38 35 -95 50 -125 15 -30 30 -68 34 -84 4 -15 14 -35 21 -43 8 -8 15 -30 15 -49 0 -19 5 -34 10 -34 6 0 10 -11 10 -25 0 -14 5 -25 10 -25 6 0 10 -11 10 -24 0 -13 7 -26 15 -30 8 -3 15 -16 15 -30 0 -14 5 -28 10 -31 6 -3 10 -17 10 -31 0 -13 4 -24 9 -24 5 0 12 -14 16 -31 8 -35 56 -132 67 -137 5 -2 8 -13 8 -24 0 -10 7 -26 15 -34 8 -9 18 -27 22 -42 3 -15 19 -39 35 -54 16 -15 28 -36 28 -51 0 -14 7 -27 15 -31 8 -3 15 -14 15 -24 0 -11 7 -25 15 -32 8 -7 15 -21 15 -31 0 -10 8 -23 19 -28 10 -6 30 -35 45 -65 32 -64 70 -96 118 -96 57 0 59 5 63 153 2 75 6 141 10 147 3 6 10 45 15 88 22 192 28 215 62 245 44 38 80 55 133 63 52 7 135 -13 143 -36 3 -8 12 -20 20 -26 8 -6 14 -31 15 -65 2 -41 7 -60 25 -79 12 -13 22 -28 22 -33 0 -4 6 -14 13 -22 71 -76 171 -194 271 -320 48 -60 107 -133 132 -162 24 -28 44 -56 44 -60 0 -5 14 -22 30 -38 17 -16 30 -33 30 -39 0 -5 11 -21 24 -35 13 -15 41 -59 62 -99 21 -41 49 -82 62 -93 34 -26 107 -25 151 2 41 25 50 22 66 -21 33 -90 42 -106 73 -133 17 -16 32 -35 32 -42 0 -7 6 -18 14 -24 13 -11 12 -16 -7 -37 -12 -14 -24 -35 -27 -47 -3 -12 -16 -26 -28 -32 -16 -7 -22 -18 -22 -42 0 -30 2 -32 53 -42 28 -5 83 -10 121 -10 37 0 89 -4 115 -10 25 -5 98 -15 161 -22 63 -6 140 -20 170 -30 30 -11 67 -19 83 -19 26 0 81 -11 202 -41 22 -6 51 -12 65 -15 40 -9 222 -65 258 -80 18 -8 40 -14 50 -14 20 0 77 -20 147 -50 28 -12 73 -29 100 -37 69 -21 278 -104 422 -167 45 -20 88 -36 95 -36 11 0 91 -38 215 -103 16 -8 46 -20 68 -27 48 -15 204 -91 243 -118 15 -11 42 -23 60 -27 17 -3 32 -10 32 -15 0 -4 11 -11 24 -14 14 -3 39 -18 56 -32 17 -15 60 -42 96 -60 36 -18 74 -44 84 -57 10 -13 38 -36 62 -53 24 -16 49 -35 56 -41 7 -7 19 -13 26 -13 18 0 256 -246 256 -265 0 -8 4 -15 9 -15 15 0 131 -148 131 -168 0 -10 13 -26 30 -35 26 -16 90 -95 90 -112 0 -4 33 -46 73 -94 77 -92 147 -191 147 -207 0 -6 14 -23 31 -40 38 -36 119 -144 119 -159 0 -6 12 -22 26 -36 27 -25 91 -116 124 -175 l20 -34 -25 0 c-22 0 -25 -4 -25 -40 0 -40 0 -40 39 -40 22 0 41 5 44 13 3 7 9 1 15 -15 6 -14 15 -29 21 -32 5 -4 16 -19 24 -34 7 -15 18 -36 24 -47 6 -11 23 -47 38 -80 14 -33 32 -73 39 -90 80 -179 77 -167 92 -279 7 -54 19 -105 27 -115 18 -19 24 -61 32 -200 3 -58 8 -107 10 -110 8 -14 -17 -336 -27 -342 -7 -5 -12 -54 -13 -138 -1 -75 -6 -135 -12 -143 -6 -7 -16 -73 -21 -146 -6 -74 -15 -139 -20 -145 -5 -7 -12 -39 -16 -72 -14 -126 -40 -242 -68 -299 -15 -32 -28 -69 -28 -82 0 -13 -4 -24 -10 -24 -5 0 -12 -11 -16 -25 -3 -14 -10 -25 -15 -25 -5 0 -9 -7 -9 -16 0 -14 -21 -65 -56 -138 -8 -17 -14 -60 -14 -106 0 -57 -4 -81 -15 -90 -9 -7 -15 -29 -15 -54 0 -27 -8 -54 -24 -76 -12 -19 -28 -57 -34 -85 -39 -176 -65 -279 -78 -303 -7 -15 -14 -35 -14 -45 0 -18 -89 -137 -125 -167 -21 -18 -288 -150 -294 -145 -8 8 13 25 67 55 31 18 59 35 62 39 3 3 17 12 33 20 21 11 27 22 27 47 0 32 0 32 41 27 47 -7 59 4 59 55 0 31 -1 32 -43 32 l-44 0 7 44 c4 25 12 51 19 59 6 8 14 39 17 68 8 79 11 92 31 114 18 20 73 149 73 172 0 6 11 34 25 61 14 28 25 57 25 65 0 8 9 17 20 20 15 4 20 13 20 39 0 39 59 168 77 168 8 0 13 14 13 38 0 35 32 135 50 157 5 6 11 28 15 50 4 22 11 45 15 50 12 17 37 114 59 230 11 61 28 148 37 195 20 105 21 109 34 250 17 175 15 170 61 170 38 0 39 1 39 35 0 33 -2 35 -34 35 -41 0 -45 10 -34 95 8 54 27 285 28 328 0 12 8 17 30 17 33 0 36 10 24 82 -6 32 -10 37 -38 40 l-31 3 -8 100 c-5 55 -11 102 -15 105 -7 5 -23 56 -42 130 -23 93 -34 126 -45 140 -7 8 -16 30 -20 48 -3 17 -11 32 -16 32 -5 0 -16 15 -23 33 -8 17 -21 48 -30 69 -9 20 -16 40 -16 45 0 6 -27 50 -61 99 -33 49 -68 102 -77 118 -9 15 -32 46 -49 68 -18 22 -33 45 -33 50 0 6 -19 34 -43 62 -23 28 -56 69 -72 91 -15 22 -45 59 -64 82 -67 79 -88 108 -121 166 -18 31 -41 62 -51 68 -10 5 -26 24 -35 41 -9 18 -37 53 -63 78 -25 25 -64 71 -85 103 -22 31 -43 57 -47 57 -4 0 -21 22 -39 49 -17 28 -34 51 -38 53 -4 2 -21 21 -39 43 -41 53 -119 131 -163 163 -19 15 -56 44 -81 67 -113 99 -169 137 -269 188 -25 12 -59 32 -77 45 -17 12 -36 22 -42 22 -12 0 -83 39 -91 49 -3 4 -21 13 -40 21 -19 7 -81 35 -137 61 -57 27 -109 49 -118 49 -9 0 -15 9 -15 25 0 22 -4 25 -37 25 -21 0 -63 12 -93 26 -30 14 -98 41 -150 60 -85 31 -129 48 -225 89 -16 7 -50 18 -75 26 -25 7 -56 18 -70 25 -14 7 -54 20 -90 29 -36 9 -66 20 -68 25 -2 5 -20 12 -40 16 -20 3 -63 15 -94 25 -32 11 -70 19 -86 19 -15 0 -32 4 -37 9 -15 15 -282 89 -345 96 -30 4 -72 13 -93 21 -20 8 -62 14 -91 14 -30 0 -92 9 -138 19 -46 11 -132 22 -193 26 -60 3 -112 10 -115 14 -3 4 -75 13 -160 20 -85 6 -207 16 -270 21 -180 16 -459 32 -530 31 -299 -3 -568 1 -635 11 -88 13 -622 17 -805 6 -205 -12 -363 -27 -435 -42 -38 -8 -122 -19 -185 -25 -63 -5 -153 -17 -200 -25 -93 -17 -464 -64 -600 -77 -47 -4 -116 -12 -155 -19 -38 -6 -92 -16 -120 -20 -27 -5 -86 -9 -130 -9 -45 -1 -85 -5 -90 -10 -11 -11 -151 -41 -188 -41 -58 0 -69 -50 -70 -310 0 -199 10 -326 38 -460 12 -62 15 -102 9 -150 -4 -36 -6 -114 -4 -175 1 -60 4 -182 6 -270 5 -254 13 -338 31 -352 30 -23 86 -16 119 16 33 32 101 71 124 71 9 0 21 5 28 12 9 9 31 9 94 -1 46 -8 88 -17 93 -21 6 -4 50 -10 99 -14 49 -3 96 -12 104 -19 10 -8 55 -12 141 -11 150 0 157 3 256 103 38 39 75 71 82 71 7 0 25 16 40 35 15 19 37 35 47 35 22 0 66 37 66 55 0 7 19 20 43 29 23 10 57 25 75 34 49 23 229 23 265 -1 15 -9 34 -17 44 -17 10 0 28 -6 39 -14 11 -8 37 -17 57 -21 20 -4 37 -13 37 -20 0 -7 23 -24 50 -36 28 -12 50 -26 50 -31 0 -4 9 -8 20 -8 17 0 96 -58 155 -113 17 -16 32 -18 94 -15 45 2 76 8 78 15 3 7 21 17 41 24 20 7 48 19 62 28 28 19 88 41 110 41 8 0 38 11 65 24 102 49 143 56 246 41 51 -8 95 -19 99 -25 3 -5 33 -19 65 -31 32 -11 91 -45 130 -75 40 -30 77 -54 82 -54 5 0 27 -18 48 -40 21 -22 43 -40 47 -40 4 0 20 -10 34 -22 60 -51 129 -114 148 -135 11 -13 26 -23 34 -23 8 0 54 -32 102 -71 70 -56 92 -81 110 -122 33 -75 82 -147 128 -188 46 -41 216 -129 249 -129 12 0 25 -4 28 -10 3 -5 25 -14 48 -20 23 -6 56 -17 72 -25 17 -7 51 -22 78 -34 64 -28 129 -59 147 -70 8 -5 36 -16 61 -25 49 -18 141 -89 157 -122 6 -12 32 -32 59 -45 66 -33 152 -32 208 1 22 13 42 27 45 30 3 3 16 11 31 18 14 7 40 27 57 43 48 45 83 52 162 33 l67 -17 6 -65 c4 -35 12 -78 19 -93 11 -25 18 -29 56 -29 38 0 43 3 48 28 3 15 21 38 40 52 26 19 34 32 34 58 0 37 -3 36 43 17 37 -15 104 -19 144 -9 28 8 44 60 49 156 4 81 14 104 53 111 21 5 34 16 46 41 15 32 16 49 6 148 -17 170 -21 181 -93 258 -34 37 -68 68 -74 69 -7 0 -19 12 -28 26 -13 20 -25 25 -61 25 -49 0 -48 2 -60 -90 -3 -25 -14 -60 -25 -78 -11 -18 -20 -38 -20 -45 0 -8 -15 -20 -32 -28 l-33 -14 3 -102 c3 -69 0 -103 -7 -103 -6 0 -20 -18 -31 -40 -20 -39 -32 -46 -90 -52 -38 -4 -86 55 -104 128 -18 78 -42 200 -60 304 -21 123 -46 220 -67 260 -36 68 -39 70 -127 70 -44 0 -83 -4 -86 -9 -3 -4 -19 -11 -36 -15 -49 -9 -178 -95 -257 -171 -40 -38 -73 -75 -73 -80 0 -6 -9 -18 -20 -28 -11 -9 -20 -22 -20 -29 -1 -20 -93 -78 -124 -78 -48 0 -94 35 -117 90 -7 15 -11 92 -10 188 0 149 -1 165 -19 185 -11 11 -20 26 -20 32 0 6 -11 22 -25 35 -14 13 -25 29 -25 35 0 6 -14 24 -30 40 -17 16 -47 53 -67 82 -20 29 -43 55 -52 58 -9 3 -25 18 -36 34 -25 36 -122 116 -153 125 -12 4 -22 11 -22 15 0 4 -19 13 -42 20 -24 7 -68 22 -98 33 -30 11 -89 24 -130 29 -118 15 -150 21 -150 29 0 4 -28 10 -62 14 -35 3 -94 10 -133 16 -38 5 -113 9 -165 10 -124 0 -457 19 -540 30 -36 5 -152 14 -259 19 -107 6 -197 15 -200 19 -3 5 -96 14 -206 20 -110 6 -231 16 -270 22 -39 5 -175 8 -308 6 -234 -4 -238 -4 -295 -31 -64 -31 -70 -34 -131 -71 l-44 -27 -26 32 c-30 36 -69 41 -101 14 -18 -16 -20 -30 -20 -165 0 -88 4 -149 10 -153 6 -4 16 -21 24 -38 7 -18 30 -50 50 -71 41 -45 42 -49 21 -70 -8 -8 -15 -19 -15 -25 0 -34 -98 -34 -107 1 -3 10 -14 18 -25 18 -23 0 -86 64 -109 112 -59 119 -71 280 -30 428 13 47 30 89 37 93 8 4 14 19 14 31 0 13 7 37 15 52 8 16 15 36 15 45 0 9 7 22 15 29 8 7 15 19 15 26 0 8 14 28 30 46 17 17 30 37 30 44 0 8 14 26 30 41 17 14 30 31 31 37 1 18 116 106 139 106 11 0 20 4 20 9 0 5 21 20 48 33 26 13 62 33 79 44 32 21 115 42 278 69 44 7 96 18 115 25 62 20 563 -1 720 -31 103 -20 366 -88 413 -108 16 -6 35 -11 43 -11 8 0 17 -7 20 -15 4 -10 20 -15 45 -15 21 0 39 -4 39 -10 0 -5 13 -10 28 -10 16 0 37 -7 48 -15 10 -8 34 -15 52 -15 17 0 32 -4 32 -9 0 -5 19 -12 42 -16 23 -4 49 -11 58 -15 38 -20 112 -49 195 -76 50 -16 92 -32 95 -36 3 -4 35 -18 70 -32 36 -13 103 -41 150 -61 132 -58 143 -63 175 -70 39 -8 201 -62 240 -80 17 -7 46 -20 65 -29 19 -8 82 -32 140 -52 58 -20 137 -52 175 -72 39 -19 79 -38 90 -43 11 -4 54 -22 95 -40 176 -75 213 -89 230 -89 10 0 20 -5 22 -11 2 -5 22 -13 46 -16 23 -3 42 -9 42 -13 0 -4 15 -13 33 -21 17 -7 43 -20 57 -29 14 -9 53 -24 88 -33 35 -10 82 -26 105 -37 23 -10 60 -26 82 -33 96 -35 257 -108 344 -155 51 -29 98 -52 103 -52 6 0 24 -12 42 -26 17 -14 45 -35 62 -47 61 -42 128 -93 183 -138 31 -25 81 -60 111 -77 47 -27 61 -41 87 -94 56 -111 62 -173 32 -343 -7 -38 -13 -128 -14 -200 -1 -132 -9 -214 -25 -250 -54 -121 -72 -244 -45 -315 9 -25 21 -63 27 -85 5 -22 16 -53 23 -70 17 -40 4 -189 -19 -214 -9 -10 -16 -27 -16 -38 0 -11 -7 -26 -15 -33 -8 -7 -15 -21 -15 -32 0 -20 -24 -72 -45 -98 -6 -8 -19 -36 -28 -61 -10 -25 -30 -59 -46 -75 -16 -16 -31 -43 -35 -59 -4 -17 -25 -57 -46 -89 -22 -32 -40 -65 -40 -72 0 -8 -3 -14 -7 -14 -10 0 -43 -58 -43 -75 0 -16 -49 -125 -65 -145 -7 -8 -23 -43 -35 -77 -12 -34 -31 -70 -41 -79 -11 -9 -19 -25 -19 -36 0 -10 -4 -26 -10 -36 -5 -9 -14 -36 -20 -59 -6 -24 -15 -43 -20 -43 -6 0 -10 -11 -10 -24 0 -14 -4 -28 -10 -31 -5 -3 -17 -21 -25 -39 -21 -44 -107 -143 -169 -194 -67 -56 -147 -94 -313 -151 -80 -27 -105 -31 -198 -31 -59 0 -116 5 -127 11 -12 6 -53 15 -92 20 -90 11 -255 92 -350 172 -28 23 -77 62 -109 86 -32 25 -74 68 -94 98 -19 29 -39 53 -44 53 -5 0 -9 8 -9 18 0 9 -18 36 -40 60 -22 24 -40 51 -40 61 0 11 -7 21 -15 25 -8 3 -26 29 -39 58 -14 29 -38 71 -55 92 -17 21 -31 44 -31 51 0 7 -8 23 -18 36 -10 13 -24 40 -32 59 -7 19 -19 42 -25 50 -7 8 -18 40 -25 70 -7 30 -15 62 -18 70 -3 8 -13 38 -23 65 -18 48 -25 99 -50 329 -10 98 -10 110 5 118 13 7 16 23 15 74 -1 48 2 69 15 83 9 10 20 36 23 57 3 21 12 49 19 63 20 37 94 111 113 111 20 1 55 29 64 52 6 18 151 118 169 118 5 0 29 9 54 21 38 17 68 20 187 22 147 1 215 -9 295 -44 23 -10 58 -19 76 -19 37 0 46 15 46 78 0 28 -5 35 -34 47 -19 8 -37 18 -39 22 -5 8 -203 108 -247 126 -14 5 -38 15 -55 23 -16 8 -57 19 -90 25 -33 6 -68 18 -78 27 -13 12 -45 18 -112 22 l-93 5 -46 49 c-25 26 -46 56 -46 66 0 9 -12 39 -27 66 -14 27 -32 61 -40 75 -7 14 -40 56 -73 92 -33 36 -60 69 -60 74 -1 13 -48 63 -61 63 -12 0 -48 29 -130 103 -88 80 -144 124 -193 148 -27 13 -51 32 -54 42 -2 9 -12 17 -22 17 -10 0 -20 7 -24 15 -3 8 -16 15 -28 15 -13 0 -44 8 -70 17 -41 15 -55 15 -100 5 -29 -7 -78 -18 -108 -24 -64 -12 -90 -35 -90 -77 0 -26 5 -32 38 -41 46 -12 119 -49 150 -75 40 -35 19 -95 -34 -95 -14 0 -68 5 -120 12 -96 11 -120 9 -304 -26 l-65 -12 -12 -99 c-15 -126 -17 -216 -9 -430 4 -93 8 -210 9 -260 2 -49 8 -106 14 -125 22 -65 43 -169 43 -213 0 -24 4 -57 9 -73 5 -16 16 -74 26 -129 9 -55 23 -121 31 -147 8 -26 14 -59 14 -75 0 -15 7 -41 15 -57 8 -15 15 -36 15 -45 1 -9 9 -34 20 -56 11 -22 19 -52 20 -66 0 -15 8 -37 18 -50 10 -13 25 -40 32 -59 8 -19 30 -52 48 -72 28 -31 33 -43 27 -65 -14 -56 -23 -56 -83 -5 -90 77 -172 162 -172 177 0 8 -4 15 -9 15 -14 0 -59 96 -97 208 -20 59 -39 109 -43 112 -18 14 -62 225 -61 292 0 26 -4 49 -9 52 -13 9 -40 102 -56 200 -8 45 -24 126 -35 181 -11 55 -25 163 -30 240 -6 77 -15 149 -20 160 -5 11 -14 62 -20 114 -6 52 -13 98 -16 103 -7 11 -80 10 -102 -1 -9 -5 -54 -26 -99 -47 -79 -37 -82 -40 -89 -78 -15 -91 -99 -117 -186 -59 -46 31 -59 74 -32 106 54 65 103 111 139 129 22 12 44 27 50 33 5 7 28 16 50 20 22 3 54 14 70 24 17 10 66 26 109 36 43 10 83 23 90 29 23 21 56 36 80 36 13 0 35 9 49 20 14 11 30 20 36 20 6 0 11 20 11 48 0 51 -5 57 -109 127 -25 17 -67 50 -93 74 -27 25 -61 52 -76 61 -43 26 -190 70 -234 70 -106 0 -246 -69 -328 -163 -23 -26 -48 -47 -56 -47 -17 0 -63 -28 -84 -52 -36 -39 -116 -89 -167 -104 -73 -21 -116 -20 -189 5 -32 11 -101 25 -153 30 -52 6 -98 15 -102 22 -12 19 -233 7 -257 -14 -10 -9 -25 -17 -34 -17 -8 0 -37 -12 -64 -26 -51 -27 -172 -63 -213 -64 -14 0 -40 -6 -59 -12 -29 -11 -35 -10 -43 5 -6 10 -22 17 -39 17 -43 0 -40 -13 -55 240 -2 36 -9 133 -15 215 -6 83 -11 249 -11 370 1 203 -4 273 -39 560 -5 39 -9 102 -9 141 -1 39 -4 73 -7 77 -4 3 -7 43 -8 89 l-1 83 -57 3 c-42 2 -67 -2 -97 -18 -22 -11 -49 -20 -60 -20 -11 0 -32 -11 -48 -24 -15 -13 -48 -33 -73 -46 -25 -12 -47 -26 -50 -30 -3 -4 -13 -11 -22 -16 -30 -16 -184 -170 -218 -218 -18 -25 -36 -46 -39 -46 -3 0 -12 -14 -19 -30 -8 -17 -21 -37 -29 -46 -9 -8 -22 -32 -28 -52 -7 -20 -21 -41 -31 -47 -34 -19 -44 -34 -44 -67 0 -40 -39 -160 -66 -205 -33 -55 -99 -60 -137 -10 -22 29 -24 39 -17 68 5 19 14 52 19 74 6 22 11 54 11 71 0 17 9 41 20 54 11 13 20 32 20 43 0 22 37 87 50 87 4 0 13 15 20 33 7 17 24 46 37 64 12 17 23 35 23 40 0 4 9 14 20 21 11 7 20 21 20 32 0 11 6 20 13 20 14 0 77 63 78 77 0 5 41 37 90 73 50 36 109 80 132 99 23 19 56 40 74 47 17 8 34 18 38 24 3 5 13 10 22 10 8 0 29 6 46 14 88 40 162 65 229 76 87 15 128 34 128 60 0 10 4 22 10 25 5 3 17 22 27 43 9 20 25 44 35 54 10 10 18 25 18 33 0 8 4 15 8 15 4 0 26 17 48 39 21 21 71 61 109 88 59 42 85 53 160 70 76 17 102 19 165 11 41 -6 88 -17 104 -25 16 -9 61 -18 99 -21 l70 -5 -6 69 c-4 39 -16 88 -27 111 -11 23 -20 59 -20 80 -1 49 -36 212 -60 278 -15 40 -33 121 -38 163 -2 23 -8 42 -13 42 -5 0 -9 24 -9 54 0 30 -5 56 -10 58 -9 3 -35 116 -75 328 -23 122 -43 194 -54 198 -6 2 -11 13 -11 25 0 22 -3 32 -50 174 -16 50 -30 99 -30 110 0 10 -7 31 -15 47 -8 15 -15 40 -15 55 0 15 -4 31 -9 36 -5 6 -19 55 -31 110 -13 55 -26 102 -30 105 -5 3 -11 21 -15 41 -6 34 -3 40 47 93 60 63 80 68 143 35 58 -30 75 -54 75 -106 0 -48 44 -189 66 -211 8 -7 14 -17 14 -22 0 -5 7 -16 16 -24 8 -9 18 -33 21 -53 3 -21 13 -47 23 -58 38 -45 79 -117 85 -149 9 -47 92 -126 133 -126 28 0 29 2 36 61 3 34 6 88 6 120 0 33 4 59 10 59 6 0 10 17 10 39 0 21 4 51 10 67 5 16 13 61 17 99 7 61 11 70 29 73 12 2 24 11 27 20 6 23 116 78 148 74 16 -2 31 -12 37 -28 7 -13 18 -24 26 -24 20 0 56 -39 56 -60 0 -9 11 -27 25 -40 14 -13 25 -31 25 -40 0 -10 21 -36 48 -59 90 -79 97 -86 116 -116 10 -16 34 -45 53 -63 18 -18 33 -37 33 -42 0 -6 4 -10 10 -10 5 0 12 -11 16 -25 3 -14 23 -38 43 -53 20 -15 48 -39 63 -54 14 -16 33 -28 41 -28 8 0 20 -7 27 -15 7 -8 20 -15 29 -15 9 0 29 -14 43 -30 27 -31 27 -31 8 -50 -11 -11 -28 -20 -39 -20 -30 0 -124 46 -150 73 -13 14 -37 29 -53 32 -29 7 -63 36 -266 227 -85 81 -96 88 -133 88 -70 0 -74 -10 -74 -194 0 -169 18 -350 40 -401 7 -16 20 -70 29 -118 9 -49 21 -96 25 -105 15 -29 29 -66 42 -107 7 -22 16 -44 20 -50 4 -5 10 -27 14 -48 4 -20 11 -40 16 -43 5 -3 9 -14 9 -25 0 -10 4 -19 8 -19 11 0 32 -69 32 -104 0 -14 4 -26 10 -26 5 0 16 -23 24 -51 9 -28 20 -57 24 -63 5 -6 22 -44 38 -85 15 -40 34 -75 41 -78 7 -3 13 -13 13 -22 0 -29 25 -88 53 -124 15 -20 27 -40 27 -45 0 -5 14 -30 31 -55 29 -44 34 -47 73 -47 23 0 80 5 126 11 165 20 327 32 500 36 198 4 210 9 210 75 0 21 -4 38 -10 38 -5 0 -10 5 -10 11 0 18 -44 109 -52 109 -5 0 -8 11 -8 25 0 14 -4 25 -10 25 -5 0 -10 11 -10 24 0 14 -7 31 -15 40 -8 8 -15 22 -15 30 0 17 -18 52 -37 73 -6 7 -14 23 -18 36 -3 12 -15 45 -27 72 -11 28 -25 61 -30 75 -5 14 -20 46 -34 73 -13 26 -24 54 -24 63 0 9 -6 37 -14 63 -75 242 -84 273 -91 331 -3 25 -12 58 -19 72 -8 15 -18 69 -21 120 -4 51 -13 103 -21 114 -32 52 -34 427 -2 554 6 25 13 80 15 122 4 65 7 78 24 83 10 4 19 12 19 20 0 17 67 52 104 54 19 1 44 -10 72 -31z m-3723 -3198 c4 -16 1 -41 -5 -55 -10 -22 -17 -25 -67 -25 -56 -1 -101 -23 -101 -49 0 -6 -4 -11 -9 -11 -5 0 -33 -42 -62 -92 -29 -51 -72 -116 -96 -145 -23 -28 -43 -58 -43 -67 0 -8 -9 -21 -20 -29 -11 -8 -23 -29 -26 -48 -4 -19 -14 -42 -22 -52 -18 -21 -34 -142 -33 -252 1 -106 21 -335 31 -360 5 -11 11 -62 14 -112 3 -51 10 -101 15 -110 14 -27 41 -136 41 -167 0 -15 11 -42 25 -60 14 -18 25 -44 26 -57 0 -30 22 -130 30 -144 4 -5 10 -32 13 -60 4 -27 14 -70 21 -95 7 -25 21 -72 30 -105 10 -33 21 -69 25 -80 5 -11 11 -31 15 -45 24 -98 58 -214 75 -260 11 -30 20 -63 20 -73 0 -10 9 -35 19 -55 11 -20 25 -62 31 -92 7 -30 17 -60 22 -67 6 -7 14 -27 18 -45 17 -66 44 -135 94 -238 14 -30 26 -61 26 -67 0 -11 16 -39 76 -131 16 -26 46 -74 64 -107 47 -83 256 -369 343 -469 10 -12 28 -35 40 -52 87 -122 168 -212 437 -484 322 -325 698 -612 1060 -807 41 -23 111 -60 155 -83 44 -23 85 -46 90 -50 6 -4 21 -11 35 -15 14 -4 48 -18 75 -31 28 -12 79 -35 115 -49 80 -32 92 -37 160 -65 30 -12 76 -30 103 -40 49 -18 69 -30 49 -30 -7 0 -12 -15 -12 -35 0 -33 2 -35 35 -35 31 0 35 3 35 25 0 32 12 32 97 -1 38 -14 91 -34 118 -43 28 -10 66 -24 85 -31 19 -7 60 -18 90 -25 30 -7 107 -30 170 -53 63 -22 153 -53 200 -67 47 -15 108 -36 135 -47 28 -10 75 -26 105 -34 30 -8 71 -21 90 -28 74 -30 229 -76 257 -76 15 0 38 7 50 15 18 13 22 12 38 -5 10 -11 28 -20 40 -20 12 0 32 -12 46 -26 30 -32 71 -54 102 -54 13 0 57 -9 98 -20 41 -11 86 -20 102 -20 15 0 27 -4 27 -9 0 -4 32 -11 71 -15 39 -3 78 -10 87 -15 10 -5 79 -12 155 -16 l137 -7 0 28 c0 16 -4 54 -9 86 -5 31 -7 65 -4 76 5 21 42 42 72 42 27 0 81 -94 88 -151 3 -27 14 -57 25 -69 18 -19 27 -20 116 -14 53 3 103 7 110 10 7 2 12 22 12 53 0 39 4 53 21 64 31 22 61 9 129 -57 l60 -59 83 -10 c93 -10 76 -10 450 -6 l277 3 11 36 c6 19 19 45 29 58 16 19 25 22 60 16 44 -7 70 -33 70 -71 0 -39 37 -53 136 -52 49 0 103 4 119 9 17 5 165 12 330 14 165 3 307 5 315 6 8 0 91 0 183 -1 158 0 271 13 283 33 3 4 20 8 39 8 19 0 49 9 67 19 18 10 56 24 85 31 29 6 57 18 64 26 6 8 19 14 28 14 9 0 31 9 49 20 18 11 38 20 45 20 7 0 29 9 50 19 20 10 49 22 64 26 15 3 38 14 52 24 14 10 44 24 66 32 52 18 82 40 164 119 37 36 75 72 86 81 21 17 50 51 56 65 14 32 57 84 69 84 9 0 45 29 80 65 45 45 72 65 89 65 24 0 21 -4 -30 -57 -64 -67 -129 -147 -129 -160 0 -5 -23 -26 -50 -48 -28 -22 -66 -59 -86 -82 -20 -24 -45 -43 -55 -43 -10 0 -29 -10 -42 -23 -13 -12 -36 -31 -51 -42 -14 -11 -32 -24 -39 -30 -6 -5 -37 -23 -67 -38 -30 -16 -77 -41 -105 -57 -27 -16 -59 -29 -70 -30 -11 0 -29 -7 -39 -15 -11 -8 -28 -15 -37 -15 -10 0 -22 -6 -26 -13 -4 -7 -19 -18 -33 -25 -14 -6 -32 -16 -40 -21 -8 -6 -27 -16 -41 -23 -15 -7 -48 -25 -75 -39 -27 -15 -65 -30 -84 -34 -19 -4 -41 -11 -50 -15 -8 -5 -46 -13 -85 -20 -38 -6 -83 -15 -100 -20 -16 -4 -80 -11 -142 -14 l-112 -5 -3 32 c-3 29 -6 32 -40 35 -37 3 -38 3 -38 -32 l0 -36 -252 -1 c-139 -1 -282 -2 -318 -2 l-65 -2 -3 -33 c-2 -24 4 -45 22 -71 26 -37 34 -71 17 -71 -5 0 -12 -14 -16 -30 -5 -21 -13 -30 -26 -30 -26 0 -138 38 -162 55 -29 20 -47 63 -47 110 0 25 -6 48 -15 55 -11 9 -122 12 -445 11 -237 0 -436 -3 -441 -7 -15 -9 0 -164 18 -193 24 -38 12 -156 -19 -181 -14 -12 -31 -17 -43 -13 -24 7 -64 52 -65 73 0 9 -7 26 -16 38 -9 13 -23 49 -31 80 -7 31 -17 71 -22 87 -4 17 -20 50 -35 73 l-27 43 -107 -3 -107 -3 -6 -43 c-5 -40 -18 -57 -63 -83 -28 -16 -101 25 -121 68 -27 57 -49 64 -176 61 l-114 -3 -2 -45 c-1 -25 -2 -50 -2 -56 -1 -7 -10 -14 -21 -17 -26 -7 -81 34 -151 112 -62 67 -91 81 -176 81 -53 0 -53 0 -53 -31 0 -22 13 -46 44 -82 28 -34 45 -65 49 -90 7 -44 -1 -46 -34 -11 -13 14 -36 32 -51 40 -15 8 -34 27 -43 43 -8 17 -29 35 -48 42 -19 6 -42 25 -53 41 -10 16 -29 34 -41 39 -13 4 -23 15 -23 23 0 9 -9 20 -20 26 -12 6 -25 22 -30 36 -5 13 -22 29 -37 35 -16 6 -41 17 -58 24 -16 8 -41 15 -55 17 -21 3 -25 9 -28 40 -3 37 -4 38 -43 38 -35 0 -39 -3 -39 -25 0 -23 -4 -25 -41 -25 l-42 0 7 -77 c5 -59 13 -87 32 -114 13 -19 24 -40 24 -47 0 -6 9 -16 21 -22 20 -11 20 -12 3 -31 -9 -10 -23 -19 -31 -19 -31 0 -114 33 -135 54 -32 32 -118 142 -118 152 0 4 -7 16 -17 26 -15 17 -15 18 5 18 15 0 22 6 22 18 0 11 11 24 25 30 21 10 25 19 25 52 0 35 -3 40 -27 45 -16 3 -60 15 -100 25 -39 11 -79 20 -88 20 -8 0 -33 9 -55 20 -22 11 -59 20 -85 20 -43 0 -47 -2 -61 -35 -8 -19 -17 -62 -20 -94 -7 -58 -6 -59 35 -103 34 -38 41 -52 41 -86 0 -22 4 -44 10 -47 13 -8 -18 -55 -36 -55 -8 0 -14 -3 -14 -7 0 -5 -14 -16 -30 -25 -29 -16 -32 -16 -73 1 -53 23 -88 55 -112 101 -9 19 -24 43 -33 52 -17 20 -41 138 -41 206 -1 50 24 112 45 112 10 0 14 12 14 38 0 36 -3 40 -37 54 -87 36 -205 78 -219 78 -14 0 -154 56 -259 104 -74 34 -198 83 -303 121 -51 19 -105 43 -121 54 -16 12 -33 21 -37 21 -4 0 -48 22 -96 50 -48 28 -93 50 -99 50 -7 0 -27 11 -45 25 -18 14 -36 25 -39 25 -8 0 -119 66 -160 96 -16 12 -52 33 -80 47 -27 14 -79 47 -114 74 -35 26 -81 59 -102 73 -21 14 -55 40 -76 57 -21 18 -83 69 -138 114 -122 100 -158 133 -357 323 -123 117 -158 157 -158 176 0 18 -9 31 -32 45 -18 10 -59 46 -90 80 -31 33 -75 78 -96 100 -21 22 -52 58 -68 80 -44 61 -224 284 -234 290 -5 3 -26 32 -47 63 -21 31 -57 81 -80 110 -24 29 -43 61 -43 71 0 9 -12 28 -26 42 -32 30 -94 139 -94 166 0 11 -7 26 -15 33 -8 7 -15 25 -15 40 0 16 -11 42 -25 58 -14 17 -25 37 -25 46 0 8 -9 30 -20 48 -11 18 -20 41 -20 51 0 9 -4 17 -10 17 -5 0 -10 9 -10 20 0 12 -6 31 -14 43 -8 12 -19 48 -26 80 -6 31 -16 57 -21 57 -5 0 -9 11 -9 24 0 13 -7 29 -15 36 -8 7 -15 25 -15 40 0 15 -7 44 -15 63 -8 20 -15 50 -15 66 0 16 -13 69 -29 118 -63 193 -151 535 -151 589 0 26 -23 105 -56 191 -13 34 -26 92 -30 130 -4 37 -10 73 -15 79 -14 18 -58 310 -69 459 -6 88 -7 164 -1 205 13 96 33 194 40 200 3 3 15 23 25 45 36 76 80 145 92 145 7 0 15 11 18 25 8 30 52 97 72 108 8 4 14 19 14 33 0 17 7 28 20 31 11 3 20 14 20 24 0 11 5 19 10 19 6 0 10 7 10 15 0 7 7 18 16 23 8 5 21 19 27 32 13 26 79 65 142 85 35 11 43 10 66 -6 15 -10 29 -32 32 -49z m3147 -2470 c0 -5 -6 -10 -13 -10 -7 0 -19 -15 -27 -34 -7 -19 -25 -40 -39 -47 -53 -26 -71 -50 -71 -93 0 -44 7 -59 30 -69 8 -4 23 -11 33 -17 27 -16 47 -27 118 -65 37 -20 75 -44 85 -53 11 -9 58 -43 104 -75 81 -55 125 -88 214 -160 139 -112 246 -247 246 -311 0 -19 -4 -37 -9 -40 -5 -3 -11 -20 -14 -38 -9 -59 -42 -133 -85 -193 -23 -33 -42 -65 -42 -71 0 -6 -9 -19 -20 -29 -11 -10 -20 -23 -20 -29 0 -36 -202 -276 -232 -276 -4 0 -26 -17 -50 -37 -38 -33 -64 -48 -153 -84 -92 -37 -195 -42 -298 -14 -55 15 -76 27 -136 82 -77 71 -141 171 -141 221 0 45 -9 62 -34 62 -16 0 -27 14 -48 63 -14 34 -31 81 -37 104 -6 23 -18 48 -25 56 -33 33 -38 349 -6 422 5 11 14 38 21 60 6 22 17 47 24 55 7 8 20 38 29 66 9 29 31 64 50 83 19 18 42 51 52 74 10 23 26 52 36 63 14 16 18 34 16 69 -3 55 -4 56 -108 85 -41 12 -86 27 -99 33 -35 17 -419 17 -429 0 -11 -17 -72 -29 -72 -14 0 6 -11 16 -25 21 l-25 9 25 26 c24 27 90 65 111 65 7 0 25 5 41 11 42 17 157 18 258 3 164 -24 200 -31 265 -57 150 -58 209 -63 249 -22 13 14 31 25 40 25 9 0 33 14 53 30 23 19 56 34 89 40 29 6 55 12 57 15 8 8 12 6 12 -5z m-10 -2144 c107 -18 306 -64 328 -76 9 -5 29 -11 45 -15 21 -4 27 -11 27 -30 0 -22 4 -25 35 -25 19 0 35 4 35 10 0 12 49 4 108 -17 110 -39 201 -55 334 -60 123 -5 137 -7 141 -24 7 -26 -53 -75 -101 -83 -57 -9 -161 -7 -206 4 -22 6 -70 19 -106 29 -76 22 -132 37 -215 58 -33 8 -94 25 -135 39 -96 30 -321 80 -425 93 -109 15 -259 16 -320 5 -38 -8 -58 -7 -84 3 -31 13 -32 15 -17 32 9 10 16 25 16 33 0 14 27 30 75 42 37 10 380 -3 465 -18z m2174 -396 c54 -5 113 -14 130 -19 17 -5 81 -15 141 -21 61 -6 141 -19 180 -30 38 -11 82 -20 97 -20 15 0 30 -4 33 -10 3 -5 18 -10 32 -10 30 0 163 -24 243 -44 75 -19 171 -36 203 -36 19 0 27 5 27 18 0 9 17 35 37 56 32 35 43 40 90 44 57 5 83 -7 83 -38 0 -11 -12 -22 -30 -29 -27 -9 -30 -15 -30 -50 0 -22 4 -42 9 -46 9 -5 64 -13 355 -51 65 -9 128 -13 139 -10 22 5 87 -18 87 -31 0 -16 -16 -29 -52 -46 -45 -21 -211 -27 -245 -9 -12 7 -43 12 -70 12 -26 0 -70 7 -97 15 -55 17 -132 19 -188 6 -28 -7 -38 -6 -38 4 0 26 -39 42 -145 59 -60 9 -114 21 -120 27 -5 5 -23 9 -40 9 -17 0 -35 4 -40 9 -6 5 -57 17 -115 25 -58 9 -130 20 -160 26 -82 15 -246 38 -320 45 -105 10 -118 14 -122 38 -2 18 -11 23 -45 25 -34 3 -43 0 -43 -13 0 -24 -117 -10 -147 17 l-21 20 20 34 c23 38 19 38 162 24z m914 -1455 c18 -13 112 -189 112 -211 0 -3 15 -23 33 -45 41 -48 87 -139 87 -173 0 -34 -25 -34 -89 -1 -48 24 -131 108 -131 132 0 7 -9 17 -19 22 -18 10 -68 88 -117 185 -22 42 -20 58 12 90 20 20 83 21 112 1z"></path>
            <path d="M9323 9612 c3 -65 11 -132 18 -148 6 -16 15 -38 20 -49 4 -11 15 -58 24 -105 9 -47 21 -89 26 -94 5 -6 9 -27 9 -48 0 -21 3 -38 8 -38 4 0 18 -39 30 -87 13 -49 28 -96 33 -105 5 -10 9 -26 9 -36 0 -10 12 -43 26 -73 32 -67 39 -83 54 -136 7 -24 17 -43 21 -43 4 0 24 -35 44 -77 55 -117 58 -123 66 -123 4 0 10 -13 14 -29 3 -16 13 -35 21 -42 8 -6 14 -19 14 -29 0 -10 7 -20 15 -24 8 -3 15 -14 15 -24 0 -11 7 -25 15 -32 8 -7 20 -30 27 -52 15 -52 43 -69 110 -68 29 0 134 -4 233 -9 99 -6 314 -13 478 -16 164 -2 303 -7 309 -11 5 -4 91 -8 189 -10 l179 -3 0 30 c0 23 -12 41 -57 82 -31 28 -66 63 -77 75 -12 13 -44 47 -72 75 -47 48 -86 99 -124 166 -8 14 -27 39 -42 55 -16 16 -28 35 -28 43 0 18 -93 157 -130 195 -17 16 -30 35 -30 42 0 7 -16 28 -36 47 -19 18 -41 48 -48 64 -7 17 -32 52 -55 78 -22 27 -41 51 -41 55 0 20 -69 52 -112 52 l-46 0 3 -182 c3 -210 12 -308 29 -308 6 0 20 -27 29 -60 18 -60 18 -61 -3 -105 -15 -31 -28 -45 -42 -45 -10 0 -27 -4 -37 -9 -12 -7 -25 -5 -42 4 -13 7 -43 23 -66 34 -24 11 -43 24 -43 29 0 5 -37 18 -81 28 -66 15 -84 23 -97 44 -48 79 -57 89 -90 95 -18 3 -42 15 -53 26 -10 10 -22 19 -25 19 -13 0 -45 44 -50 69 -14 65 -45 141 -56 141 -5 0 -8 8 -8 18 0 9 -11 34 -25 54 -14 20 -25 42 -25 49 0 7 -17 35 -38 63 -21 28 -60 91 -85 139 -26 49 -55 99 -66 112 -10 13 -24 39 -31 57 -26 69 -65 148 -72 148 -5 0 -8 12 -8 28 0 15 -9 42 -20 60 -11 18 -20 39 -20 47 0 11 -12 15 -47 15 l-46 0 6 -118z"></path>
            <path d="M7857 8893 c-13 -12 -7 -87 14 -203 38 -211 52 -275 65 -290 7 -8 20 -55 29 -105 9 -49 28 -113 41 -141 13 -28 24 -62 24 -76 0 -43 22 -52 107 -44 77 6 176 22 223 34 36 10 37 55 4 128 -14 32 -30 61 -35 62 -5 2 -9 10 -9 19 0 8 -9 27 -20 43 -11 15 -24 38 -30 51 -6 13 -23 44 -39 69 -16 25 -30 52 -30 61 -1 9 -19 41 -41 72 -22 30 -40 58 -40 61 0 3 -9 16 -21 28 -40 45 -109 146 -109 161 0 8 -7 17 -15 21 -8 3 -20 17 -27 31 -9 20 -18 25 -48 25 -20 0 -40 -3 -43 -7z"></path>
            <path d="M7375 8091 c-22 -11 -46 -20 -52 -21 -7 0 -13 -4 -13 -10 0 -5 -6 -10 -12 -10 -21 0 -58 -64 -58 -100 l0 -33 85 6 c46 3 93 11 104 16 10 6 63 13 117 17 55 3 116 10 137 15 33 9 37 13 37 43 0 32 -24 66 -47 66 -6 0 -13 5 -15 11 -3 8 -46 13 -123 16 -105 3 -125 1 -160 -16z"></path>
            <path d="M8620 7409 c-251 -13 -529 -116 -653 -242 -52 -53 -58 -62 -55 -95 l3 -37 55 1 c51 0 134 18 219 45 42 14 322 4 461 -16 52 -8 136 -16 185 -20 50 -3 135 -10 190 -16 55 -5 165 -14 245 -19 80 -5 195 -14 255 -20 124 -11 315 -25 545 -40 85 -5 188 -13 228 -16 l72 -7 0 35 c0 25 -5 38 -17 42 -10 3 -33 17 -52 31 -19 14 -50 29 -70 35 -20 5 -52 18 -72 29 -20 11 -62 27 -93 36 -30 9 -58 20 -61 25 -3 4 -23 11 -45 15 -22 4 -40 11 -40 16 0 5 -13 9 -28 9 -16 0 -39 9 -52 20 -13 11 -36 20 -52 20 -15 0 -28 4 -28 9 0 5 -20 12 -45 15 -25 4 -45 11 -45 17 0 5 -13 9 -30 9 -16 0 -30 5 -30 10 0 6 -12 10 -27 10 -16 0 -41 7 -57 15 -15 8 -43 15 -62 15 -18 0 -36 5 -39 10 -3 6 -22 10 -42 10 -20 0 -52 4 -72 9 -20 5 -69 15 -108 21 -40 7 -75 16 -79 21 -6 10 -308 9 -504 -2z"></path>
            <path d="M11393 6573 c-29 -11 -14 -70 32 -126 25 -31 45 -60 45 -65 0 -12 68 -90 137 -157 28 -27 54 -61 58 -74 7 -22 11 -23 67 -19 41 3 65 10 73 21 7 9 22 17 33 17 11 0 51 16 88 35 37 19 73 35 80 35 33 0 64 24 64 49 0 50 -11 71 -36 71 -12 0 -26 5 -29 10 -3 6 -14 10 -23 10 -10 0 -35 9 -57 20 -22 11 -45 20 -52 20 -8 0 -40 14 -73 30 -33 17 -69 30 -81 30 -12 0 -68 23 -124 50 -78 38 -113 50 -146 49 -24 0 -50 -3 -56 -6z"></path>
            <path d="M12245 4929 c-22 -12 -42 -25 -45 -28 -3 -4 -35 -13 -71 -20 -64 -12 -69 -12 -123 13 -60 28 -124 34 -144 14 -29 -29 -13 -68 56 -146 78 -88 142 -176 142 -195 0 -7 8 -22 18 -33 10 -11 22 -33 26 -49 4 -16 20 -44 36 -61 16 -18 43 -64 60 -101 17 -37 35 -76 41 -86 5 -10 12 -48 14 -85 2 -37 1 -55 -1 -40 -3 14 -12 32 -20 38 -8 7 -14 21 -14 31 0 10 -4 20 -9 24 -6 3 -22 43 -37 89 -21 64 -34 87 -54 99 -14 9 -36 37 -49 64 -13 26 -39 66 -57 89 -18 22 -39 55 -46 72 -7 17 -39 58 -71 91 -136 142 -224 186 -431 217 -82 12 -119 13 -145 6 -20 -6 -57 -14 -83 -17 -27 -4 -48 -11 -48 -16 0 -5 -8 -9 -17 -9 -10 0 -31 -7 -47 -15 -15 -8 -36 -15 -45 -15 -19 0 -89 -53 -175 -133 -84 -76 -138 -185 -156 -309 -14 -92 -8 -325 10 -403 18 -80 36 -135 48 -147 7 -7 12 -26 12 -42 0 -17 11 -53 24 -81 13 -27 29 -61 35 -75 6 -14 31 -52 56 -85 24 -33 57 -82 74 -110 16 -27 38 -61 50 -75 11 -14 25 -30 30 -36 5 -6 12 -21 16 -35 8 -29 158 -174 233 -226 28 -20 52 -40 52 -44 0 -5 23 -21 51 -36 28 -16 74 -41 103 -56 127 -71 314 -95 499 -63 116 20 263 85 278 123 5 13 12 23 16 23 14 0 143 119 143 131 0 5 11 25 25 45 14 20 25 44 25 52 0 8 13 36 29 61 16 25 32 61 36 80 7 31 43 116 66 151 5 8 14 26 20 40 24 57 164 337 180 360 16 23 63 106 80 140 4 8 24 48 44 89 69 136 100 206 113 251 18 62 24 158 13 207 -6 27 -13 60 -16 76 -5 27 -7 27 -74 26 -71 -2 -134 19 -145 47 -10 25 -80 18 -110 -12 -14 -15 -26 -33 -26 -42 0 -8 -13 -42 -29 -76 -16 -33 -34 -81 -41 -106 -7 -25 -21 -57 -31 -72 -11 -14 -19 -33 -19 -41 0 -8 -6 -19 -12 -25 -17 -13 -98 -26 -98 -15 0 5 -25 24 -55 42 -30 18 -57 41 -60 52 -11 35 -25 164 -30 273 -6 154 -9 166 -48 166 -18 0 -50 -10 -72 -21z m50 -899 c7 -22 6 -23 -9 -11 -9 7 -16 23 -16 34 0 26 15 12 25 -23z"></path>
            <path d="M8417 4391 c-20 -22 -42 -52 -50 -68 -8 -15 -24 -37 -36 -47 -12 -11 -21 -29 -21 -41 0 -11 -7 -30 -15 -41 -8 -10 -15 -28 -15 -40 0 -11 -7 -29 -15 -40 -8 -10 -15 -39 -15 -65 0 -25 -5 -50 -11 -56 -14 -14 -7 -306 9 -343 5 -14 16 -45 23 -70 7 -25 22 -65 34 -90 12 -25 28 -63 35 -85 13 -38 69 -126 122 -189 15 -18 52 -45 83 -60 51 -25 64 -27 119 -21 62 7 147 44 216 94 43 32 160 146 160 156 0 4 14 27 30 52 17 24 30 48 30 52 0 5 7 14 16 22 9 7 32 47 52 88 35 72 37 81 36 173 -2 134 -15 165 -116 265 -147 144 -274 244 -393 308 -49 26 -102 56 -117 67 -17 11 -44 18 -76 18 -45 0 -53 -4 -85 -39z"></path>
        </g>
    </g>
    <g fill="rgb(0, 0, 0)" style="transform: none;">
        <g style="transform: none;">
            <path d="M9215 10491 c-59 -22 -95 -43 -95 -55 0 -7 -10 -17 -22 -23 -21 -9 -23 -18 -25 -84 -1 -41 -7 -94 -13 -119 -6 -25 -14 -63 -16 -85 -8 -70 -11 -406 -3 -410 3 -3 7 -25 7 -50 1 -24 9 -56 18 -70 13 -20 13 -25 3 -25 -10 0 -10 -3 -3 -8 6 -4 14 -43 18 -88 3 -44 12 -94 20 -110 8 -16 18 -53 21 -83 4 -30 11 -63 16 -73 6 -10 7 -28 4 -38 -4 -11 -2 -20 3 -20 10 0 48 -109 44 -124 -2 -5 4 -27 14 -50 9 -23 18 -52 20 -66 2 -14 15 -47 28 -75 13 -27 29 -61 34 -75 5 -14 19 -47 30 -75 11 -27 26 -65 32 -82 7 -18 16 -33 20 -33 7 0 18 -25 26 -65 3 -10 9 -22 15 -25 5 -4 12 -20 15 -36 3 -16 9 -30 15 -32 5 -2 9 -15 9 -28 0 -13 3 -24 8 -24 8 0 52 -91 52 -108 0 -6 6 -12 13 -15 9 -3 7 -10 -6 -25 -18 -19 -32 -21 -200 -25 -183 -5 -317 -15 -501 -37 l-99 -12 -23 29 c-13 15 -29 42 -35 58 -7 17 -26 47 -42 68 -16 21 -27 41 -24 44 4 3 0 15 -8 27 -8 11 -15 30 -15 42 0 12 -6 24 -13 27 -7 3 -26 38 -41 78 -16 41 -33 79 -38 85 -4 6 -15 35 -24 63 -8 28 -20 51 -26 51 -5 0 -8 9 -5 20 6 22 -21 100 -38 112 -5 4 -6 8 -2 8 4 0 2 10 -5 23 -7 12 -11 26 -10 31 2 4 -3 15 -10 24 -11 13 -11 14 1 7 9 -5 7 3 -6 21 -20 29 -38 80 -34 100 0 6 -6 17 -14 24 -8 7 -15 20 -15 29 0 9 -4 21 -9 27 -5 5 -17 50 -26 99 -10 50 -23 104 -31 120 -7 17 -15 57 -18 90 -2 33 -7 74 -10 90 -19 96 -15 342 5 329 5 -3 9 2 9 10 0 32 32 14 122 -72 203 -191 237 -220 266 -227 16 -3 40 -18 53 -32 35 -37 123 -73 180 -73 53 0 95 28 96 65 0 11 2 27 4 35 2 8 -3 15 -11 15 -8 0 -27 13 -43 28 -15 16 -31 26 -36 23 -5 -3 -14 1 -21 9 -7 8 -19 15 -27 15 -8 0 -27 12 -41 28 -15 15 -44 40 -64 55 -21 15 -38 34 -38 42 0 7 -7 21 -16 29 -8 9 -12 16 -9 16 4 0 -11 17 -33 38 -21 20 -48 51 -58 67 -19 30 -26 37 -116 116 -27 23 -48 49 -48 59 0 9 -11 27 -25 40 -14 13 -25 31 -25 40 0 21 -36 60 -56 60 -8 0 -19 11 -25 24 -9 19 -22 26 -62 31 -44 6 -57 4 -115 -26 -35 -19 -68 -43 -72 -54 -4 -11 -9 -18 -11 -16 -2 2 -13 1 -24 -3 -17 -5 -20 -16 -22 -74 0 -38 -8 -85 -17 -106 -9 -22 -13 -49 -10 -63 4 -15 2 -28 -6 -33 -6 -4 -12 -24 -13 -44 -1 -20 -4 -36 -8 -36 -3 0 -6 -13 -5 -30 1 -16 4 -30 8 -30 10 0 -2 -62 -13 -75 -14 -14 -87 65 -92 100 -3 17 -22 57 -43 89 -22 33 -38 63 -37 68 2 4 -2 7 -9 5 -8 -1 -12 10 -12 31 0 17 -4 32 -8 32 -4 0 -8 7 -8 15 0 8 -4 15 -9 15 -5 0 -14 14 -21 30 -7 17 -16 30 -20 30 -13 0 -54 143 -54 190 -1 25 -8 57 -17 70 -23 36 -101 72 -159 74 -48 1 -51 -1 -104 -56 -31 -32 -58 -69 -62 -84 -6 -25 12 -103 27 -114 4 -3 10 -18 13 -35 13 -73 39 -171 48 -182 5 -7 7 -17 3 -22 -3 -6 3 -31 15 -55 11 -25 20 -53 20 -63 0 -10 14 -56 30 -102 16 -47 28 -87 25 -89 -2 -3 2 -17 10 -33 8 -15 15 -39 15 -53 0 -13 5 -26 10 -28 17 -5 60 -192 62 -266 1 -17 5 -29 10 -26 4 3 9 -5 9 -18 4 -65 37 -212 49 -216 6 -2 7 -8 4 -13 -7 -13 6 -110 14 -105 4 2 8 -10 9 -27 3 -52 7 -72 18 -79 5 -4 9 -25 9 -47 -1 -26 4 -42 13 -45 9 -4 12 -13 8 -26 -4 -12 -2 -26 3 -33 19 -23 47 -140 34 -145 -7 -2 -8 -11 -2 -27 5 -12 6 -26 3 -29 -4 -3 -1 -6 5 -6 7 0 12 -11 12 -24 0 -13 7 -41 17 -62 9 -22 17 -46 18 -54 1 -8 6 -28 10 -44 l8 -29 -43 7 c-24 4 -55 13 -69 20 -14 8 -70 20 -123 26 -77 10 -107 10 -149 0 -29 -7 -60 -14 -68 -15 -61 -6 -170 -73 -255 -156 -22 -22 -44 -39 -48 -39 -4 0 -8 -7 -8 -15 0 -8 -8 -23 -18 -33 -10 -10 -26 -34 -35 -54 -10 -21 -22 -40 -27 -43 -6 -3 -10 -15 -10 -25 0 -21 -47 -50 -68 -43 -7 3 -18 1 -25 -5 -7 -5 -33 -13 -59 -16 -43 -7 -124 -35 -205 -72 -17 -8 -38 -14 -46 -14 -9 0 -19 -5 -22 -10 -4 -6 -21 -16 -38 -24 -18 -7 -51 -28 -74 -47 -23 -19 -82 -63 -132 -99 -49 -36 -90 -68 -90 -73 -1 -14 -63 -76 -74 -74 -7 1 -13 -8 -15 -21 -2 -12 -12 -28 -23 -35 -10 -6 -19 -16 -19 -20 0 -5 -11 -23 -23 -40 -13 -18 -30 -47 -37 -64 -7 -18 -16 -33 -20 -33 -13 0 -50 -65 -50 -87 0 -11 -9 -30 -20 -43 -11 -13 -20 -28 -21 -34 -3 -77 -16 -136 -41 -192 -13 -28 -3 -57 39 -116 36 -50 56 -60 67 -32 3 8 10 13 14 10 5 -3 26 0 48 5 29 8 45 20 63 50 14 21 26 44 27 51 1 7 12 46 24 85 12 40 20 78 18 85 -5 14 6 26 36 43 10 6 24 27 31 47 6 20 19 44 28 52 8 9 21 29 29 46 7 16 16 30 19 30 3 0 21 21 39 46 34 48 188 202 218 218 9 5 19 12 22 16 3 4 25 18 50 30 25 13 58 33 73 46 16 13 37 24 48 24 11 0 38 9 60 21 22 11 53 19 67 17 27 -3 27 -3 25 -82 -2 -43 0 -83 4 -90 4 -6 8 -45 8 -86 0 -41 4 -80 8 -87 4 -6 5 -18 2 -26 -4 -8 1 -43 9 -77 8 -35 13 -72 11 -82 -2 -11 1 -31 7 -46 7 -17 12 -142 14 -327 5 -403 10 -539 22 -562 6 -11 8 -37 5 -59 -3 -21 -1 -62 4 -90 6 -32 6 -58 0 -72 -8 -17 -6 -32 6 -57 14 -28 22 -35 46 -35 17 0 34 -7 39 -16 9 -16 8 -16 152 0 19 2 44 6 55 10 11 3 43 12 70 20 28 7 72 25 99 40 27 14 57 26 66 26 10 0 23 7 30 15 7 9 21 13 31 10 9 -3 20 -1 24 5 8 12 145 14 145 1 0 -11 52 -24 106 -26 23 -1 46 -5 52 -9 5 -3 17 -4 24 -1 8 3 28 1 44 -6 55 -22 172 -46 186 -38 7 5 23 6 35 2 14 -3 23 -1 23 6 0 6 8 11 18 11 30 0 114 47 162 91 47 43 75 62 100 65 8 2 35 25 60 52 62 68 140 118 219 142 38 11 73 20 79 20 21 0 177 -54 204 -70 15 -9 49 -36 76 -61 26 -24 68 -57 93 -74 80 -54 109 -80 109 -97 0 -10 -5 -18 -11 -18 -6 0 -22 -9 -36 -20 -14 -11 -29 -17 -34 -14 -10 6 -80 -25 -90 -39 -4 -5 -12 -6 -19 -2 -9 5 -11 4 -6 -3 7 -12 -16 -17 -58 -12 -12 1 -16 -2 -11 -11 5 -7 4 -10 -2 -6 -10 7 -61 -10 -108 -35 -17 -9 -49 -19 -70 -23 -22 -4 -45 -13 -50 -20 -6 -6 -28 -21 -50 -33 -36 -18 -81 -61 -142 -132 -23 -27 -42 -77 -25 -66 5 3 12 -12 16 -34 4 -25 14 -43 26 -50 11 -6 18 -15 15 -21 -4 -5 -3 -9 2 -8 12 3 64 -10 98 -25 27 -12 35 -11 72 8 52 28 73 50 73 75 0 11 5 23 11 26 6 4 8 14 5 22 -3 8 -2 12 3 9 5 -3 14 0 20 8 6 7 39 26 74 40 34 15 72 32 85 38 14 7 26 8 32 2 5 -5 14 -54 21 -109 6 -55 16 -105 21 -112 5 -7 10 -64 11 -128 1 -63 5 -115 9 -115 5 0 8 -12 8 -27 0 -16 9 -73 20 -128 12 -55 28 -140 36 -190 16 -91 21 -116 24 -125 1 -3 3 -9 4 -15 0 -5 7 -21 15 -34 7 -13 14 -44 16 -70 5 -77 51 -279 66 -291 4 -3 23 -53 43 -112 38 -112 83 -208 97 -208 5 0 9 -7 9 -15 0 -30 219 -229 256 -232 27 -2 48 20 63 69 15 46 8 73 -33 118 -17 19 -38 51 -45 70 -8 19 -21 43 -29 52 -8 10 -16 31 -18 48 -2 17 -13 50 -24 75 -11 24 -20 50 -20 58 0 8 -7 28 -15 43 -8 16 -15 42 -15 57 0 16 -6 49 -14 75 -8 26 -21 90 -30 142 -10 52 -21 111 -26 130 -5 19 -10 62 -11 95 -2 33 -9 77 -16 98 -8 22 -11 48 -8 58 4 11 0 26 -9 35 -9 8 -16 25 -16 37 -1 12 -4 76 -7 142 -7 158 -7 168 1 249 4 45 3 73 -5 82 -6 7 -8 22 -4 34 4 11 2 20 -4 20 -6 0 -8 6 -6 13 5 14 17 118 19 165 0 17 3 32 6 32 3 0 5 19 5 42 l0 42 65 12 c181 34 181 34 305 19 157 -20 165 -17 180 80 5 36 3 43 -22 65 -34 30 -131 79 -156 80 -13 0 -17 6 -15 22 2 19 13 25 63 35 33 6 75 16 93 22 28 8 42 6 88 -14 35 -16 54 -20 54 -12 0 7 7 4 14 -5 7 -10 22 -18 32 -19 13 0 14 -2 5 -6 -9 -4 3 -16 33 -34 25 -16 50 -29 55 -29 10 0 62 -42 161 -129 30 -27 73 -64 95 -83 22 -19 46 -33 54 -30 8 3 12 -1 9 -9 -3 -8 31 -52 78 -101 45 -48 89 -100 96 -115 8 -15 27 -50 41 -77 15 -27 27 -57 27 -67 0 -10 22 -41 50 -69 52 -52 61 -56 153 -51 37 2 52 -1 62 -16 10 -13 14 -14 15 -4 0 11 3 11 18 -2 9 -8 47 -21 84 -27 37 -7 75 -20 86 -30 11 -10 23 -16 26 -13 7 7 14 4 159 -68 60 -30 111 -57 114 -62 2 -4 20 -14 39 -22 30 -12 34 -18 28 -37 -9 -32 -7 -31 -55 -9 -24 10 -66 24 -94 29 -50 11 -175 27 -186 24 -3 0 -54 -4 -113 -7 -77 -4 -120 -11 -151 -25 -24 -11 -48 -20 -53 -20 -18 0 -163 -100 -169 -118 -8 -20 -42 -47 -61 -47 -19 0 -101 -85 -120 -125 -9 -19 -15 -42 -14 -51 2 -9 -4 -19 -13 -22 -8 -4 -15 -11 -15 -17 0 -6 6 -8 13 -4 6 4 5 -1 -5 -12 -25 -29 -36 -84 -24 -117 9 -24 8 -31 -6 -41 -12 -9 -17 -28 -18 -72 -1 -82 0 -92 11 -121 6 -18 6 -28 0 -33 -7 -4 -7 -18 -1 -40 5 -19 11 -60 14 -90 7 -68 24 -137 56 -215 4 -11 13 -45 20 -75 7 -30 18 -62 25 -70 6 -8 18 -31 25 -50 8 -19 22 -46 32 -59 10 -13 18 -29 18 -36 0 -7 14 -30 31 -51 17 -21 41 -63 55 -92 13 -29 31 -55 39 -58 8 -4 15 -14 15 -25 0 -10 18 -37 40 -61 22 -24 40 -51 40 -60 0 -10 4 -18 9 -18 5 0 25 -24 44 -53 20 -30 62 -73 94 -98 32 -24 81 -63 109 -86 28 -24 78 -57 110 -74 32 -17 77 -42 100 -54 50 -28 152 -58 171 -51 8 3 31 -1 51 -10 29 -13 67 -16 171 -15 122 1 143 4 225 33 165 56 245 95 312 150 62 51 148 150 169 194 8 18 20 36 25 39 6 3 10 17 10 31 0 13 4 24 10 24 5 0 14 19 20 43 6 23 15 50 20 59 6 10 10 26 10 36 0 11 9 27 19 36 11 10 29 46 42 81 12 35 32 75 45 88 13 14 21 27 18 30 -3 3 4 23 15 46 12 22 21 47 21 55 0 18 32 76 43 76 4 0 7 6 7 14 0 7 18 40 40 72 21 32 42 72 46 89 4 16 19 43 35 59 16 16 36 50 46 75 9 25 22 53 28 61 21 26 45 78 45 98 0 11 7 25 15 32 8 7 15 23 15 35 0 12 6 28 14 34 29 24 45 222 23 273 -8 18 -20 51 -25 73 -6 22 -17 58 -26 80 -18 48 -20 85 -5 85 7 0 9 9 5 24 -3 12 -2 26 2 30 4 4 7 11 8 14 3 28 28 103 35 108 5 3 9 18 9 34 0 16 7 58 15 93 15 64 15 126 0 160 -7 17 -5 46 16 172 30 177 21 284 -34 393 -26 53 -40 67 -87 94 -30 17 -80 52 -111 77 -55 45 -122 96 -183 138 -17 12 -45 33 -62 47 -18 14 -36 26 -42 26 -5 0 -52 23 -103 52 -87 47 -248 120 -344 155 -22 7 -59 23 -82 33 -23 11 -70 27 -105 37 -35 9 -74 24 -88 33 -14 9 -40 22 -57 29 -18 8 -30 17 -27 22 3 5 -5 9 -18 10 -41 1 -73 9 -76 19 -2 6 -12 10 -22 10 -17 0 -54 14 -230 89 -105 45 -105 45 -210 94 -83 39 -129 59 -137 58 -5 0 -145 50 -161 58 -72 35 -230 91 -297 106 -16 4 -46 13 -65 22 -19 8 -50 21 -68 29 -17 7 -34 14 -37 14 -3 0 -27 11 -53 24 -27 14 -75 34 -107 45 -32 12 -61 24 -64 28 -3 5 -46 21 -96 37 -49 16 -110 38 -135 49 -25 10 -54 23 -65 27 -11 5 -36 12 -55 16 -19 3 -38 11 -41 16 -4 6 -19 11 -35 12 -16 1 -39 7 -51 14 -12 7 -33 12 -47 12 -13 0 -26 5 -28 11 -2 6 -20 11 -40 12 -21 0 -40 7 -42 14 -3 7 -13 13 -22 13 -9 0 -30 6 -47 14 -18 8 -70 23 -117 35 -47 12 -110 28 -140 37 -127 35 -244 51 -495 65 -220 13 -393 11 -438 -3 -18 -6 -68 -16 -112 -23 -164 -27 -246 -48 -278 -69 -17 -12 -55 -32 -84 -46 -28 -13 -49 -28 -47 -32 3 -4 -1 -5 -9 -2 -14 5 -152 -101 -152 -117 0 -5 -12 -20 -27 -34 -16 -14 -28 -32 -28 -39 0 -7 -13 -27 -30 -44 -16 -18 -30 -38 -30 -46 0 -7 -7 -19 -15 -26 -8 -7 -15 -20 -15 -29 0 -9 -7 -29 -15 -45 -8 -15 -15 -39 -15 -52 0 -12 -6 -27 -14 -31 -7 -4 -24 -46 -36 -93 -31 -113 -37 -263 -15 -351 9 -35 16 -72 16 -82 0 -21 59 -110 96 -144 13 -13 33 -23 44 -23 10 0 18 -5 16 -11 -1 -6 5 -14 13 -19 8 -4 29 -15 47 -24 34 -17 63 -21 63 -8 0 5 11 14 25 20 14 6 25 16 25 22 0 7 7 18 15 26 8 9 15 32 15 53 0 29 -8 46 -36 77 -20 21 -43 53 -50 71 -8 17 -18 35 -24 38 -6 4 -10 53 -9 124 1 102 3 120 19 134 18 15 21 14 39 -12 29 -41 66 -45 121 -14 25 14 52 32 61 40 9 8 20 13 25 11 5 -2 26 8 48 21 68 43 285 46 751 11 77 -6 170 -11 207 -12 36 -1 64 -6 62 -10 -3 -4 5 -8 18 -8 13 0 79 -5 148 -11 69 -5 157 -10 195 -10 39 -1 86 -5 105 -9 19 -5 87 -11 150 -15 63 -3 149 -8 190 -12 41 -3 131 -6 200 -6 69 0 112 -3 95 -7 -17 -3 8 -6 60 -6 56 0 111 -6 145 -17 59 -17 91 -23 210 -37 41 -5 100 -17 130 -28 30 -11 74 -26 98 -33 23 -7 42 -16 42 -20 0 -4 10 -11 22 -15 31 -9 128 -89 153 -125 11 -16 27 -31 36 -34 9 -3 32 -29 52 -58 20 -29 50 -66 67 -82 16 -16 30 -34 30 -40 0 -6 11 -22 25 -35 14 -13 25 -29 25 -35 0 -6 9 -20 19 -32 18 -18 19 -35 17 -184 -2 -167 0 -180 39 -230 30 -38 57 -49 122 -49 50 0 65 5 100 30 22 16 43 27 47 23 3 -3 6 3 6 15 0 12 9 30 20 39 11 10 20 22 20 28 0 5 33 42 73 80 77 73 203 159 253 171 16 4 34 10 39 13 6 4 33 8 60 9 49 3 51 2 78 -39 17 -27 25 -51 21 -64 -4 -14 -3 -16 4 -7 7 11 11 8 14 -12 3 -14 1 -23 -4 -20 -13 8 3 -50 16 -58 6 -4 7 -8 2 -8 -6 0 -5 -5 1 -11 6 -6 9 -18 6 -27 -5 -11 -3 -13 7 -7 8 5 11 4 6 -3 -3 -6 -2 -22 3 -35 6 -14 12 -51 15 -84 3 -32 8 -67 11 -78 9 -33 34 -148 38 -175 6 -39 23 -73 46 -94 11 -10 18 -23 14 -29 -3 -6 -1 -7 5 -3 7 4 12 2 12 -5 0 -8 18 -9 67 -4 87 9 90 11 113 55 11 21 25 40 32 42 11 4 14 89 5 178 -2 20 5 28 31 39 17 8 32 22 32 30 0 9 7 25 16 36 16 22 37 87 40 125 3 47 4 50 19 50 8 0 22 -11 31 -25 9 -14 21 -26 28 -26 6 -1 40 -32 74 -69 70 -75 76 -91 91 -237 10 -100 -3 -140 -49 -149 -15 -4 -38 -19 -50 -36 -18 -25 -20 -34 -11 -59 9 -28 3 -95 -15 -151 -7 -23 -62 -32 -99 -17 -34 14 -100 25 -225 37 -47 5 -95 14 -106 20 -12 6 -24 9 -27 5 -4 -3 -13 0 -22 7 -13 11 -43 9 -97 -5 -5 -2 -12 -3 -17 -4 -5 0 -26 -17 -47 -36 -22 -19 -50 -40 -64 -47 -14 -7 -27 -15 -30 -18 -17 -19 -90 -52 -115 -53 -38 0 -122 40 -136 65 -16 31 -81 86 -129 110 -25 13 -48 27 -51 31 -3 4 -13 5 -21 2 -9 -4 -19 -2 -23 4 -6 10 -24 20 -142 72 -27 12 -61 27 -78 34 -16 8 -49 19 -72 25 -23 6 -45 15 -48 20 -3 6 -16 10 -28 10 -33 0 -203 88 -249 129 -43 38 -94 108 -110 150 -5 15 -8 26 -7 26 1 0 -7 15 -18 33 -24 38 -199 186 -212 178 -9 -6 -57 45 -53 56 1 5 -2 7 -6 5 -8 -2 -102 73 -130 105 -9 9 -19 15 -22 13 -4 -2 -24 14 -45 35 -22 22 -43 40 -48 40 -5 0 -42 24 -82 54 -39 30 -98 64 -130 75 -32 12 -62 25 -65 31 -7 11 -83 26 -182 36 -63 7 -139 -11 -223 -52 -27 -13 -57 -24 -65 -24 -22 0 -82 -22 -110 -41 -14 -9 -42 -21 -62 -28 -21 -7 -38 -16 -38 -21 0 -17 -69 -23 -87 -9 -14 12 -16 12 -8 -1 8 -13 7 -13 -11 0 -10 8 -21 18 -24 21 -21 24 -124 99 -136 99 -8 0 -20 4 -27 10 -63 51 -78 60 -88 54 -8 -4 -9 -3 -5 5 4 6 0 14 -11 17 -10 3 -25 8 -33 12 -8 3 -19 4 -23 3 -4 -1 -18 5 -30 14 -12 8 -30 15 -40 15 -10 0 -30 8 -44 18 -38 24 -273 25 -324 0 -19 -9 -53 -24 -76 -34 -24 -9 -43 -22 -43 -29 0 -18 -44 -55 -65 -55 -10 0 -33 -17 -53 -37 -19 -21 -28 -29 -21 -18 7 11 -30 -21 -82 -71 -52 -51 -105 -97 -118 -104 -31 -16 -213 -19 -232 -3 -18 14 -82 25 -143 24 -27 -1 -55 4 -63 11 -8 6 -26 12 -41 14 -157 15 -200 16 -206 5 -4 -6 -15 -11 -24 -11 -25 0 -92 -38 -126 -71 -33 -32 -35 -33 -55 -20 -11 7 -16 34 -18 93 -4 105 -5 108 -15 108 -5 0 -7 60 -4 138 3 75 1 180 -3 232 -5 67 -3 110 6 145 13 52 7 148 -18 265 -6 30 -13 86 -15 124 -2 38 -8 85 -13 105 -10 37 -6 291 5 371 7 53 28 80 61 80 29 0 174 29 188 38 5 4 42 8 80 9 65 3 122 10 265 34 30 5 89 11 130 14 41 3 98 10 125 15 28 5 73 12 100 14 109 10 315 37 395 52 47 8 137 20 200 25 63 5 136 14 161 20 26 6 64 12 85 14 81 9 263 25 374 32 151 10 666 6 755 -7 79 -11 578 -17 640 -8 22 3 50 2 63 -3 13 -5 83 -12 155 -15 73 -3 164 -7 202 -10 39 -2 97 -6 130 -8 33 -2 119 -9 190 -16 72 -7 146 -13 165 -12 19 0 37 -3 40 -8 3 -5 55 -12 115 -15 61 -4 147 -15 193 -26 46 -10 99 -19 118 -19 19 0 34 -4 34 -10 0 -6 9 -6 23 -1 15 6 34 4 57 -6 19 -8 53 -17 75 -18 63 -5 103 -13 123 -24 11 -6 22 -7 26 -4 3 3 6 2 6 -3 0 -5 14 -10 32 -11 17 -1 34 -6 37 -10 3 -5 19 -9 35 -10 16 -1 33 -7 37 -14 4 -6 11 -9 16 -6 5 3 22 -1 37 -9 16 -7 40 -14 55 -14 14 -1 51 -10 81 -21 30 -11 70 -22 89 -24 19 -2 37 -8 40 -13 7 -11 68 -32 113 -39 17 -3 41 -10 52 -17 12 -7 41 -19 66 -26 25 -7 59 -18 75 -25 75 -33 155 -64 218 -86 37 -12 67 -26 67 -30 0 -4 8 -7 18 -7 9 1 50 -15 90 -35 40 -20 70 -32 67 -27 -4 6 6 10 22 9 15 0 22 -3 16 -6 -19 -7 -16 -31 6 -42 10 -6 21 -8 23 -5 8 8 178 -75 178 -87 0 -6 4 -8 9 -4 10 6 92 -23 101 -36 8 -11 79 -49 92 -49 6 0 25 -10 42 -23 17 -12 50 -31 73 -41 25 -11 40 -23 36 -30 -3 -6 -3 -8 1 -4 16 14 108 -48 235 -157 25 -23 62 -52 81 -67 44 -32 122 -110 163 -163 18 -22 35 -41 39 -43 4 -2 21 -25 38 -53 18 -27 35 -49 39 -49 4 0 25 -26 47 -57 21 -32 60 -78 85 -103 26 -25 54 -60 63 -78 9 -17 25 -36 35 -41 10 -6 33 -37 51 -68 33 -58 54 -87 121 -166 19 -23 49 -60 64 -82 16 -22 49 -63 72 -91 24 -28 43 -56 43 -62 0 -5 15 -28 33 -50 17 -22 40 -53 49 -68 9 -16 44 -69 77 -118 34 -49 61 -94 61 -100 0 -6 6 -23 14 -37 7 -14 16 -38 20 -52 3 -15 16 -37 27 -48 11 -11 21 -30 21 -42 1 -12 9 -31 18 -42 16 -19 37 -80 45 -135 2 -14 11 -42 20 -62 8 -21 15 -52 15 -70 0 -22 3 -29 9 -20 6 10 8 5 9 -15 2 -64 15 -169 22 -178 12 -18 3 -240 -18 -415 -6 -47 -11 -107 -11 -133 0 -26 -3 -51 -5 -56 -3 -4 -8 -37 -11 -72 -2 -35 -8 -86 -11 -113 -3 -26 -7 -65 -9 -85 -3 -41 -34 -218 -42 -241 -3 -8 -7 -25 -9 -38 -1 -12 -8 -48 -15 -80 -7 -31 -13 -64 -14 -72 -3 -27 -27 -105 -35 -115 -4 -5 -11 -28 -15 -50 -4 -22 -10 -44 -15 -50 -9 -12 -70 -166 -70 -178 0 -5 -18 -45 -41 -90 -28 -56 -39 -87 -34 -104 4 -19 1 -26 -15 -30 -11 -3 -20 -12 -20 -20 0 -8 -11 -37 -25 -65 -14 -27 -25 -55 -25 -61 0 -19 -54 -151 -67 -165 -25 -26 -34 -53 -37 -110 -1 -32 -10 -69 -18 -82 -9 -14 -19 -47 -23 -73 -4 -36 -13 -55 -33 -72 l-27 -23 23 -31 c28 -39 28 -45 -5 -62 -16 -8 -30 -17 -33 -20 -3 -4 -31 -21 -63 -39 -32 -18 -61 -39 -64 -46 -3 -8 -12 -14 -19 -14 -24 0 -64 -31 -64 -49 0 -11 -9 -17 -27 -19 -19 -1 -49 -23 -93 -67 -36 -36 -72 -65 -80 -65 -13 -1 -65 -64 -72 -88 -4 -11 -31 -43 -53 -61 -11 -9 -49 -45 -86 -81 -82 -79 -112 -101 -164 -119 -22 -8 -52 -22 -66 -32 -14 -10 -37 -21 -52 -24 -15 -4 -44 -16 -64 -26 -21 -10 -43 -19 -50 -19 -7 0 -27 -9 -45 -20 -18 -11 -40 -20 -49 -20 -9 0 -22 -6 -28 -14 -7 -8 -35 -20 -64 -26 -29 -7 -67 -21 -85 -31 -18 -10 -48 -19 -67 -19 -19 0 -36 -4 -39 -9 -13 -20 -193 -36 -244 -22 -25 7 -32 7 -32 -4 0 -9 -9 -11 -32 -6 -18 4 -69 5 -113 4 -44 -1 -93 -2 -110 -2 -16 1 -37 1 -45 0 -132 -5 -253 -4 -257 1 -7 12 -51 9 -59 -3 -3 -6 -20 -8 -38 -5 -17 3 -67 1 -111 -4 -213 -26 -265 -19 -265 33 0 40 -26 64 -77 71 -27 4 -59 9 -73 12 -19 3 -28 -1 -35 -18 -6 -13 -17 -22 -24 -20 -8 2 -11 -3 -8 -12 4 -9 2 -28 -4 -43 l-9 -28 -268 1 c-147 1 -274 -2 -284 -7 -9 -5 -28 -5 -45 1 -15 5 -56 11 -91 13 -61 4 -63 6 -127 68 -59 58 -69 63 -115 67 -43 3 -53 0 -75 -22 -22 -22 -26 -34 -23 -69 l3 -42 -80 -5 c-84 -5 -106 4 -110 47 -4 46 -19 89 -47 134 -30 48 -32 49 -80 49 -51 0 -113 -24 -103 -40 4 -6 1 -10 -6 -10 -8 0 -9 -12 -4 -42 4 -24 8 -54 10 -68 1 -14 5 -34 9 -46 6 -20 4 -20 -101 -16 -60 2 -115 8 -125 13 -9 5 -48 12 -87 15 -39 4 -71 11 -71 15 0 5 -12 9 -27 9 -16 0 -62 10 -103 21 -41 12 -85 21 -98 20 -30 -1 -70 20 -101 53 -14 14 -33 26 -44 26 -11 0 -35 13 -53 30 l-35 30 -37 -25 -37 -24 -95 30 c-52 17 -111 37 -130 45 -19 7 -60 20 -90 28 -30 8 -77 23 -105 34 -67 27 -409 141 -460 154 -22 6 -60 17 -85 25 -25 8 -58 18 -75 23 -16 5 -68 23 -115 40 -47 17 -106 38 -132 45 -25 7 -57 19 -70 26 -13 7 -43 21 -68 30 -25 9 -70 27 -100 39 -68 28 -80 33 -160 65 -36 14 -89 37 -118 51 -29 13 -56 24 -60 24 -4 0 -18 6 -32 13 -38 20 -176 94 -260 140 -362 195 -738 482 -1060 807 -269 272 -350 362 -437 484 -12 17 -30 40 -40 52 -87 100 -296 386 -343 469 -18 33 -48 81 -64 106 -44 66 -70 112 -71 124 0 6 -13 38 -29 70 -51 105 -78 175 -95 241 -5 18 -12 38 -17 45 -5 8 -10 19 -11 24 -1 6 -7 30 -14 55 -6 25 -19 62 -30 82 -10 20 -19 45 -19 55 0 10 -9 43 -20 73 -17 46 -51 162 -75 260 -4 14 -10 34 -15 45 -4 11 -15 47 -25 80 -9 33 -23 80 -30 105 -7 25 -17 68 -21 95 -3 28 -11 55 -16 62 -5 7 -7 16 -4 21 3 4 -1 26 -9 48 -8 21 -14 52 -15 68 0 16 -11 44 -25 62 -14 18 -25 45 -25 60 0 24 -22 121 -37 164 -9 24 -12 50 -18 130 -4 41 -10 84 -15 95 -18 43 -39 372 -25 395 4 7 9 42 10 77 2 39 8 71 17 81 9 9 18 32 22 51 3 19 15 40 26 48 11 8 20 21 20 29 0 9 20 39 43 67 24 29 67 94 96 145 29 50 57 92 62 92 5 0 9 5 9 11 0 26 45 48 100 49 52 0 56 2 73 33 27 52 20 104 -21 145 -33 33 -38 34 -85 28 -64 -7 -178 -63 -194 -95 -6 -14 -19 -28 -27 -33 -9 -5 -16 -16 -16 -23 0 -8 -4 -15 -10 -15 -5 0 -10 -9 -10 -20 0 -11 -7 -20 -15 -20 -17 0 -38 -34 -27 -45 4 -3 -1 -12 -11 -19 -24 -18 -65 -81 -73 -111 -3 -14 -11 -25 -18 -25 -12 0 -53 -62 -81 -122 -9 -21 -22 -38 -27 -38 -6 0 -8 -7 -4 -15 3 -8 1 -15 -3 -15 -5 0 -12 -24 -16 -52 -4 -29 -14 -70 -21 -92 -8 -22 -12 -47 -9 -56 3 -9 -1 -30 -9 -45 -11 -20 -12 -34 -5 -47 6 -10 12 -62 14 -116 3 -92 11 -166 34 -313 6 -35 12 -80 15 -99 6 -51 17 -93 28 -107 6 -7 8 -18 5 -26 -7 -18 18 -131 43 -193 12 -30 20 -61 16 -69 -3 -8 -1 -15 4 -15 13 0 31 -71 25 -100 -2 -13 -1 -28 4 -34 5 -6 16 -42 24 -81 32 -146 83 -331 123 -453 14 -40 22 -77 19 -82 -3 -6 -3 -10 2 -10 4 0 9 -16 11 -35 1 -20 9 -52 17 -72 8 -19 15 -48 15 -63 0 -15 7 -33 15 -40 8 -7 15 -23 15 -36 0 -13 4 -24 9 -24 5 0 15 -26 21 -57 7 -32 17 -67 23 -78 6 -11 11 -29 12 -39 1 -11 7 -22 13 -24 7 -2 12 -10 12 -18 0 -8 8 -29 17 -47 9 -18 18 -40 20 -51 2 -10 15 -32 28 -48 15 -18 23 -37 20 -48 -3 -9 4 -28 15 -43 11 -14 20 -33 20 -43 0 -25 56 -123 92 -161 17 -17 28 -35 24 -41 -3 -5 16 -35 42 -68 26 -32 64 -85 85 -116 21 -31 42 -60 47 -63 10 -6 190 -229 234 -290 16 -22 47 -58 68 -80 21 -22 65 -67 96 -100 31 -34 72 -70 90 -80 23 -14 32 -27 32 -45 0 -19 35 -59 158 -176 199 -190 235 -223 357 -323 55 -45 117 -96 138 -114 21 -17 55 -43 76 -57 21 -14 67 -47 102 -73 35 -27 87 -60 114 -74 28 -14 64 -35 80 -47 41 -30 152 -96 160 -96 3 0 21 -11 39 -25 18 -14 38 -25 45 -25 6 0 51 -22 99 -50 48 -27 92 -50 96 -50 4 0 21 -9 37 -21 16 -11 70 -35 121 -54 105 -38 229 -87 303 -121 105 -48 245 -104 259 -104 14 0 132 -42 219 -78 37 -15 49 -32 23 -32 -25 0 -46 -64 -45 -142 0 -93 21 -213 41 -236 9 -9 24 -33 33 -52 10 -19 29 -46 43 -59 32 -29 105 -61 142 -61 29 0 90 29 90 43 0 4 5 7 11 7 7 0 22 11 35 25 18 19 22 32 17 55 -3 17 -10 33 -14 36 -5 3 -9 24 -9 46 0 34 -7 48 -40 84 -43 47 -45 66 -14 142 15 37 30 39 84 12 22 -11 47 -20 56 -20 9 0 47 -9 83 -20 36 -10 79 -21 95 -24 16 -3 31 -7 33 -10 10 -10 -9 -26 -40 -34 -18 -5 -31 -14 -29 -21 1 -6 -4 -14 -12 -17 -18 -7 -11 -60 10 -84 7 -8 13 -19 14 -25 3 -12 87 -120 118 -151 21 -20 117 -56 177 -66 12 -2 27 6 38 19 10 13 24 23 31 23 22 0 6 60 -20 77 -13 8 -24 21 -24 28 0 7 -10 25 -22 40 -12 15 -22 42 -24 59 -1 17 -5 41 -9 54 -7 22 -6 22 36 16 24 -4 52 -11 61 -15 9 -5 26 -9 37 -9 10 0 32 -6 48 -14 15 -8 40 -19 56 -25 15 -6 32 -22 37 -35 5 -14 18 -30 30 -36 11 -6 20 -17 20 -26 0 -8 10 -19 23 -23 12 -5 31 -23 41 -39 11 -16 34 -35 53 -41 19 -7 40 -25 48 -41 8 -16 25 -35 38 -41 12 -7 39 -27 60 -45 43 -39 68 -43 96 -13 18 20 19 24 6 50 -8 15 -15 38 -15 50 0 12 -21 46 -46 75 -42 50 -44 54 -22 54 55 0 91 -20 154 -89 85 -92 123 -115 176 -108 50 7 59 19 56 77 l-3 45 85 1 c96 1 121 -9 145 -58 8 -18 32 -43 53 -55 39 -22 139 -43 129 -26 -3 5 8 18 24 28 31 22 52 62 47 91 -3 17 5 19 75 20 l78 2 26 -41 c14 -23 30 -55 34 -72 5 -16 15 -56 22 -87 8 -31 22 -67 31 -80 9 -12 16 -29 16 -38 1 -8 11 -28 24 -44 46 -56 165 -41 166 22 0 12 4 22 10 22 5 0 8 22 6 50 -2 27 0 50 5 50 5 0 19 -20 32 -44 49 -96 100 -177 118 -187 10 -5 19 -15 19 -22 0 -25 84 -109 134 -134 52 -26 133 -34 146 -13 25 40 -21 173 -87 249 -18 22 -33 42 -33 45 0 15 -91 194 -104 205 -7 6 -37 18 -65 25 -45 11 -56 11 -85 -2 -18 -8 -41 -28 -51 -45 l-17 -29 -21 20 c-14 15 -21 35 -22 69 0 26 -3 55 -5 63 -4 13 26 15 220 18 124 2 308 2 410 2 207 -1 221 -5 202 -57 -8 -24 -6 -34 8 -53 10 -14 16 -28 14 -31 -14 -24 146 -89 222 -91 55 -1 59 2 63 47 0 8 8 15 17 15 24 0 11 85 -21 129 -13 19 -22 37 -20 40 1 3 169 7 371 9 379 4 562 13 649 32 28 6 68 13 90 16 22 3 44 9 50 14 5 4 24 10 40 13 17 2 55 18 84 33 30 16 65 35 80 42 14 7 33 17 41 23 8 5 26 15 40 21 14 7 29 18 33 25 4 7 16 13 26 13 9 0 26 7 37 15 10 8 28 15 39 15 11 1 43 14 70 30 28 16 75 41 105 57 30 15 61 33 67 38 7 6 25 19 39 30 15 11 37 29 49 41 12 11 27 18 33 16 6 -2 43 29 82 68 39 39 82 78 96 86 13 9 24 21 24 26 0 18 108 144 181 211 62 57 99 81 224 142 96 47 161 85 181 107 60 66 104 127 104 145 0 10 6 30 14 45 16 30 63 212 70 270 3 21 10 47 16 58 6 11 8 20 5 20 -3 0 6 17 20 38 13 20 26 57 28 80 3 23 11 50 20 60 12 13 14 33 10 91 -5 64 -3 76 12 87 10 8 15 17 12 21 -4 3 0 17 8 30 9 13 13 23 9 23 -4 0 0 7 7 16 7 9 15 28 17 42 2 15 7 29 11 32 5 3 11 15 15 28 4 12 12 22 17 22 5 0 9 11 9 24 0 13 13 50 29 82 16 33 32 79 37 104 4 25 8 47 9 50 8 33 21 120 28 180 2 14 6 32 9 40 14 33 21 78 22 132 1 31 4 59 7 63 4 3 5 23 2 44 -3 23 -1 41 6 45 6 4 11 21 11 37 0 17 4 38 8 47 5 9 6 49 3 89 -4 41 -2 69 3 66 5 -4 6 5 2 20 -3 14 -2 27 3 29 13 4 32 343 25 438 -3 41 -7 98 -9 125 -6 81 -16 129 -34 149 -10 11 -17 38 -18 70 0 28 -2 53 -3 56 -1 3 -2 8 -1 12 1 13 -32 113 -56 167 -31 70 -45 100 -78 176 -15 33 -32 69 -38 80 -6 11 -17 32 -24 47 -8 15 -18 30 -23 33 -5 3 -17 23 -27 43 -9 20 -27 51 -40 68 -13 17 -23 34 -23 38 0 12 -98 150 -124 175 -14 14 -26 30 -26 36 0 15 -81 123 -119 159 -17 17 -31 34 -31 40 0 15 -69 113 -145 206 -39 47 -77 98 -85 114 -8 16 -31 46 -50 65 -19 20 -39 45 -46 57 -19 35 -135 174 -145 174 -5 0 -9 7 -9 15 0 19 -238 265 -256 265 -7 0 -19 6 -26 13 -7 6 -32 25 -56 41 -24 17 -52 40 -62 53 -10 13 -48 39 -84 57 -36 18 -79 45 -96 60 -17 14 -42 29 -56 32 -13 3 -24 10 -24 14 0 6 -39 21 -60 22 -3 0 -17 9 -32 20 -38 27 -194 103 -243 118 -22 7 -52 19 -68 27 -124 65 -204 103 -215 103 -7 0 -50 16 -95 36 -144 63 -353 146 -422 167 -27 8 -72 25 -100 37 -70 30 -127 50 -147 50 -10 0 -32 6 -50 14 -36 15 -218 71 -258 80 -14 3 -43 9 -65 15 -121 30 -176 41 -202 41 -16 0 -53 8 -83 19 -30 10 -107 24 -170 30 -63 7 -136 17 -161 22 -39 9 -140 17 -236 19 -27 0 -31 25 -6 38 9 5 14 16 10 24 -3 8 5 26 17 39 33 35 40 82 15 97 -10 7 -19 18 -19 26 0 8 -15 27 -32 43 -31 27 -40 43 -73 133 -8 21 -25 41 -45 51 -31 17 -65 16 -54 -2 6 -10 -54 -49 -77 -49 -30 0 -65 38 -103 112 -21 40 -49 84 -62 99 -13 14 -24 30 -24 35 0 6 -13 23 -30 39 -16 16 -30 33 -30 38 0 5 -17 29 -37 51 -37 41 -172 212 -174 220 0 3 -25 31 -56 64 -30 33 -55 64 -56 69 0 4 -23 31 -51 60 -64 65 -86 91 -86 101 0 5 -10 19 -22 31 -24 27 -28 78 -7 92 10 6 10 9 2 9 -7 0 -13 6 -13 14 0 8 -8 21 -18 28 -11 7 -21 19 -23 26 -7 22 -104 51 -163 49 -30 -1 -52 -5 -50 -9 3 -5 -6 -7 -19 -4 -16 3 -27 -1 -31 -10 -3 -8 -11 -14 -18 -14 -8 0 -36 -21 -63 -46 -28 -25 -44 -43 -37 -39 19 10 14 -13 -5 -24 -15 -8 -15 -13 -5 -36 14 -30 15 -38 4 -32 -7 5 -12 -26 -14 -105 -1 -27 -4 -48 -8 -48 -9 0 -12 -39 -21 -282 -1 -30 -7 -49 -16 -53 -25 -9 -71 33 -99 91 -15 30 -35 59 -45 65 -11 5 -19 18 -19 28 0 10 -7 24 -15 31 -8 7 -14 18 -14 24 3 18 -12 46 -22 40 -5 -3 -9 -2 -8 3 5 26 -4 48 -29 71 -16 15 -32 39 -35 54 -4 15 -14 33 -22 42 -8 8 -15 24 -15 35 0 12 -3 21 -8 21 -7 0 -33 52 -33 67 0 4 -7 16 -16 25 -8 10 -13 24 -10 33 4 8 2 15 -4 15 -6 0 -9 7 -5 15 3 9 0 15 -9 15 -9 0 -15 10 -15 24 0 14 -4 28 -10 31 -5 3 -10 17 -10 31 0 14 -7 27 -15 30 -8 4 -15 17 -15 30 0 13 -4 24 -8 24 -4 0 -9 10 -9 22 -1 13 -7 24 -13 26 -5 2 -10 19 -10 37 0 19 -7 40 -15 49 -9 8 -16 18 -16 21 1 10 -12 42 -44 115 -18 41 -41 98 -50 125 -9 28 -22 64 -30 81 -8 17 -16 41 -18 52 -2 11 -8 26 -15 34 -6 8 -13 23 -16 34 -10 46 -20 61 -61 92 -45 35 -102 48 -140 33z m165 -801 c0 -5 -4 -10 -10 -10 -5 0 -10 -4 -10 -10 0 -5 7 -10 15 -10 18 0 37 -34 39 -72 1 -16 7 -33 13 -36 11 -7 57 -99 58 -117 2 -17 36 -79 59 -103 11 -13 19 -24 16 -25 -2 -1 10 -27 27 -57 17 -30 33 -62 35 -70 2 -8 10 -22 19 -32 37 -42 79 -108 70 -108 -6 0 5 -21 24 -46 19 -25 35 -54 35 -65 0 -10 4 -19 9 -19 5 0 12 -10 16 -22 4 -13 8 -25 9 -28 18 -39 26 -64 26 -75 0 -22 26 -76 33 -68 4 3 7 1 7 -5 0 -7 5 -12 10 -12 6 0 19 -9 29 -19 11 -11 35 -23 53 -26 33 -6 42 -16 90 -95 13 -21 31 -29 97 -44 44 -10 81 -23 81 -28 0 -5 19 -18 43 -29 23 -11 57 -29 76 -40 29 -17 38 -18 70 -7 20 6 43 11 52 10 21 -3 55 50 67 104 7 30 5 52 -9 94 -10 30 -19 63 -19 72 0 11 -5 15 -15 12 -12 -5 -15 2 -14 38 1 25 -2 51 -7 59 -4 8 -8 85 -9 171 0 131 2 158 14 158 17 0 81 -41 81 -52 0 -4 18 -28 40 -53 47 -54 70 -92 48 -80 -7 4 11 -17 40 -47 29 -30 50 -57 47 -59 -3 -3 11 -22 30 -42 44 -45 135 -181 135 -201 0 -8 14 -28 31 -45 17 -17 32 -37 33 -45 1 -7 14 -28 29 -45 15 -18 27 -37 27 -42 0 -5 28 -38 63 -73 34 -36 71 -75 83 -88 11 -13 46 -47 78 -75 64 -60 68 -57 -73 -44 -47 5 -96 5 -110 1 -14 -4 -38 -3 -53 1 -15 4 -119 10 -230 14 -112 3 -232 8 -267 11 -44 3 -67 1 -72 -8 -6 -9 -19 -9 -61 0 -46 11 -201 20 -415 26 -56 2 -86 13 -89 34 -2 15 -26 67 -37 80 -6 8 -12 21 -14 30 -1 9 -9 22 -17 28 -19 13 -21 28 -3 18 6 -4 -1 7 -17 24 -15 17 -25 35 -22 41 4 6 2 11 -3 11 -6 0 -11 7 -11 15 0 8 -3 15 -8 15 -4 0 -13 9 -20 21 -11 17 -11 20 0 13 7 -5 5 3 -5 16 -10 14 -31 53 -47 88 -17 34 -36 62 -43 63 -9 0 -9 2 0 5 7 3 9 12 6 20 -3 7 -9 11 -14 8 -5 -3 -9 -2 -10 3 -3 37 -11 59 -51 135 -10 21 -21 50 -23 66 -2 16 -8 38 -13 48 -13 24 -52 167 -52 189 0 9 -5 13 -11 9 -8 -5 -10 3 -6 27 3 23 -1 40 -12 53 -10 12 -11 16 -2 11 9 -5 9 -1 -3 16 -8 14 -17 40 -20 59 -8 58 -18 104 -26 115 -16 22 -28 86 -35 188 -3 54 -1 67 10 67 8 0 15 -4 15 -10z m-1462 -845 c7 -14 19 -28 27 -31 8 -4 15 -13 15 -21 0 -15 69 -116 109 -161 12 -12 21 -25 21 -28 0 -3 18 -31 40 -61 22 -31 40 -63 41 -72 0 -9 14 -36 30 -61 16 -25 33 -56 39 -69 6 -13 19 -36 30 -51 11 -16 20 -35 20 -44 0 -9 5 -16 11 -16 6 0 8 -7 5 -17 -4 -10 -4 -14 0 -10 11 11 54 -86 43 -97 -5 -5 -30 -13 -56 -17 -27 -3 -83 -12 -126 -18 -83 -13 -114 -5 -103 26 3 8 -7 42 -23 76 -16 34 -37 103 -46 152 -9 50 -23 98 -32 107 -9 10 -13 26 -10 38 3 11 0 20 -6 20 -6 0 -7 3 -4 6 3 4 2 15 -4 25 -5 10 -12 40 -14 66 -3 27 -10 73 -17 103 -6 30 -12 62 -13 70 -1 8 -5 32 -10 52 -11 57 12 80 33 33z m-290 -785 c2 -6 9 -10 16 -10 7 0 21 -9 30 -19 17 -19 17 -20 -21 -30 -21 -6 -63 -11 -93 -12 -55 0 -108 -8 -208 -29 -78 -16 -87 -12 -60 27 13 18 29 33 36 33 6 0 12 5 12 10 0 6 6 10 13 10 6 1 30 9 52 20 33 15 56 18 130 14 50 -2 92 -9 93 -14z m1468 -681 c2 -4 37 -12 77 -19 39 -6 88 -16 108 -21 20 -5 52 -9 71 -9 19 0 38 -4 44 -10 5 -5 25 -10 44 -12 19 -1 50 -10 69 -21 19 -10 43 -16 53 -14 10 3 16 1 12 -4 -3 -5 12 -9 33 -9 25 0 33 -3 24 -9 -8 -6 6 -11 43 -15 31 -4 54 -12 51 -17 -4 -5 4 -9 17 -9 13 0 30 -6 37 -12 11 -10 12 -10 7 -1 -5 9 -2 11 9 7 9 -4 14 -9 11 -12 -10 -10 59 -39 108 -45 27 -4 54 -12 61 -17 7 -6 36 -17 65 -26 30 -9 70 -24 89 -35 20 -11 52 -24 71 -29 19 -5 50 -20 69 -32 19 -13 44 -29 55 -35 25 -15 22 -15 -74 -3 -41 6 -108 10 -150 11 -41 1 -79 4 -84 7 -5 3 -57 7 -115 9 -58 2 -126 5 -151 7 -25 2 -79 6 -120 10 -41 3 -124 10 -185 16 -60 5 -150 12 -200 15 -49 3 -135 10 -190 15 -55 6 -143 13 -195 16 -52 3 -135 12 -185 20 -49 8 -124 14 -165 15 -41 0 -98 4 -127 8 -81 11 -214 -2 -328 -35 -91 -25 -102 -27 -109 -15 -4 5 19 36 51 68 124 126 398 227 648 239 66 4 122 8 125 11 8 7 321 -1 326 -8z m2469 -879 c56 -27 112 -50 124 -50 23 0 124 -47 129 -61 2 -4 10 -5 17 -2 8 3 35 -5 60 -17 25 -12 51 -23 57 -24 7 -1 20 -6 28 -11 8 -5 23 -8 34 -6 10 1 15 -2 12 -7 -4 -6 -1 -14 5 -18 13 -8 -26 -33 -52 -34 -8 0 -42 -14 -75 -31 -32 -17 -72 -33 -89 -36 -16 -3 -34 -11 -40 -19 -5 -7 -24 -17 -41 -20 -28 -5 -33 -3 -39 17 -4 13 -30 47 -58 74 -69 67 -137 145 -137 157 0 5 -20 35 -46 65 -34 42 -42 58 -32 64 23 15 38 10 143 -41z m1103 -1394 c13 -13 11 -18 -14 -40 -16 -14 -32 -26 -35 -26 -4 0 -9 -13 -12 -30 -8 -35 -32 -40 -42 -7 -4 12 -8 24 -9 27 -9 26 -16 83 -10 91 9 16 104 4 122 -15z m-342 -263 c5 -91 12 -186 19 -253 4 -30 6 -66 7 -79 0 -28 18 -49 71 -80 21 -13 45 -30 53 -38 15 -15 28 -17 106 -13 37 2 68 25 72 53 1 8 9 26 19 40 9 14 22 48 29 74 7 26 19 56 27 66 8 9 11 17 8 17 -4 0 2 17 13 37 11 21 20 45 20 54 0 9 12 28 27 43 26 26 44 30 45 11 1 -23 83 -49 151 -49 65 0 68 -1 72 -25 3 -14 9 -44 14 -66 8 -38 1 -127 -14 -170 -13 -38 -54 -126 -110 -236 -20 -41 -40 -81 -44 -89 -17 -34 -64 -117 -80 -140 -16 -23 -156 -303 -180 -360 -6 -14 -15 -32 -20 -40 -24 -38 -64 -128 -68 -155 -2 -16 -17 -50 -33 -75 -15 -25 -30 -57 -34 -72 -3 -14 -17 -40 -31 -56 -13 -16 -22 -31 -20 -34 5 -4 -9 -19 -70 -75 -12 -10 -37 -31 -58 -47 -20 -15 -35 -32 -34 -38 2 -10 -124 -80 -132 -73 -2 2 -9 -2 -17 -10 -22 -21 -150 -40 -269 -39 -125 1 -192 17 -289 69 -33 19 -82 45 -108 60 -27 14 -48 29 -48 34 0 4 -24 24 -52 44 -75 52 -225 197 -233 226 -7 23 -14 34 -43 66 -8 8 -28 39 -45 68 -35 57 -77 119 -119 174 -15 19 -25 40 -22 45 3 5 0 15 -6 23 -29 35 -49 88 -40 105 7 13 4 25 -13 46 -19 25 -29 50 -52 139 -23 84 -27 271 -10 400 12 84 79 206 150 272 82 76 151 128 173 129 9 1 31 9 47 18 17 9 38 16 48 16 9 0 17 4 17 8 0 5 6 9 13 9 6 1 37 6 67 13 66 14 60 14 140 5 36 -4 70 -11 77 -17 7 -5 16 -7 21 -4 21 13 165 -51 229 -101 65 -52 156 -151 171 -185 7 -17 28 -50 46 -72 18 -23 44 -63 57 -89 13 -27 35 -55 50 -64 18 -11 31 -32 43 -72 10 -31 26 -74 36 -96 10 -22 20 -47 24 -55 3 -8 10 -22 15 -30 5 -8 15 -35 22 -60 7 -25 18 -52 24 -60 21 -26 44 -81 51 -118 4 -19 13 -47 20 -61 8 -14 14 -34 14 -44 0 -24 28 -65 53 -78 27 -15 40 8 21 35 -8 11 -14 33 -14 48 0 28 -2 34 -34 95 -9 17 -16 47 -16 66 0 20 -4 39 -10 42 -5 3 -10 21 -10 39 0 42 -19 98 -31 90 -5 -3 -6 2 -3 10 6 16 -11 118 -26 151 -45 103 -76 161 -100 189 -16 18 -31 44 -34 59 -2 14 -14 36 -25 49 -12 12 -21 28 -21 35 0 19 -64 107 -141 194 -51 57 -65 79 -56 88 15 15 19 15 81 -14 30 -14 59 -25 65 -25 5 0 11 -5 13 -11 3 -8 23 -5 67 10 35 12 70 20 77 17 17 -7 46 3 39 13 -5 9 77 53 84 46 2 -3 6 -35 7 -72z m3028 -2717 c-3 -8 -12 -12 -20 -9 -21 8 -17 23 6 23 13 0 18 -5 14 -14z"></path>
            <path d="M10407 7807 c-4 -10 -7 -31 -6 -45 l0 -27 10 25 c5 13 8 33 7 45 -3 19 -4 19 -11 2z"></path>
            <path d="M8706 4794 c-21 -7 -42 -12 -46 -9 -11 7 -70 -21 -105 -50 -16 -14 -37 -25 -46 -25 -8 0 -26 -10 -39 -22 -38 -35 -54 -34 -190 19 -35 14 -89 30 -120 35 -159 27 -252 37 -316 36 -39 -1 -75 1 -80 4 -5 4 -27 -2 -49 -12 -22 -11 -49 -20 -60 -20 -11 0 -28 -7 -38 -15 -11 -7 -25 -11 -33 -8 -8 3 -14 1 -14 -5 0 -5 -18 -28 -41 -51 -22 -23 -39 -47 -37 -53 3 -7 19 -17 37 -23 17 -6 36 -16 40 -23 10 -17 137 -12 134 4 -3 15 77 20 255 16 15 0 43 0 62 -1 19 0 43 -4 55 -10 11 -5 54 -19 95 -31 41 -11 82 -25 90 -29 23 -12 23 -45 0 -66 -11 -10 -20 -24 -20 -32 0 -7 -5 -13 -10 -13 -6 0 -9 -3 -9 -7 4 -22 -5 -37 -41 -76 -38 -42 -59 -80 -67 -121 -2 -11 -10 -27 -17 -35 -8 -9 -20 -36 -27 -61 -7 -25 -17 -51 -22 -58 -6 -7 -10 -29 -9 -50 1 -20 -4 -45 -11 -57 -25 -39 -1 -343 29 -372 7 -8 18 -33 25 -56 15 -59 89 -228 110 -252 9 -11 31 -46 48 -77 18 -32 62 -84 103 -121 59 -55 80 -67 137 -83 110 -30 259 -24 356 15 89 36 115 51 153 84 24 20 46 37 50 37 30 0 232 240 232 276 0 6 9 19 20 29 11 10 20 23 20 30 0 6 20 39 45 73 25 34 45 67 45 74 0 7 11 36 23 63 13 28 22 56 19 63 -2 7 1 18 6 25 6 7 12 40 13 73 2 60 1 63 -53 140 -78 110 -200 219 -408 361 -46 32 -93 66 -104 75 -10 9 -48 33 -85 53 -64 35 -90 49 -121 67 -8 5 -23 11 -32 14 -10 4 -20 15 -24 26 -7 24 15 49 66 77 19 10 36 22 36 27 4 27 17 53 25 49 10 -7 29 28 29 54 0 16 -28 43 -42 40 -2 0 -20 -7 -42 -15z m-158 -412 c15 -11 68 -41 117 -67 164 -88 445 -331 486 -422 13 -27 20 -67 21 -116 1 -66 -2 -82 -34 -149 -20 -41 -43 -80 -52 -87 -9 -8 -16 -17 -16 -22 0 -4 -13 -28 -30 -52 -16 -25 -30 -48 -30 -52 0 -10 -117 -124 -160 -156 -39 -29 -137 -81 -160 -86 -72 -13 -151 16 -198 73 -53 64 -109 151 -122 190 -7 21 -22 56 -32 76 -11 21 -21 43 -22 50 -1 7 -6 27 -12 43 -34 94 -38 118 -39 230 -1 66 2 125 6 130 4 6 8 30 10 55 1 25 9 54 16 65 7 11 13 28 13 38 0 10 7 28 15 40 8 13 16 33 18 45 2 12 12 32 24 44 11 13 26 34 33 46 21 42 82 102 102 102 11 0 32 -8 46 -18z"></path>
            <path d="M8440 2677 c-3 -3 -52 -6 -110 -8 -95 -3 -116 -8 -158 -35 -2 -1 -4 -8 -6 -16 -1 -7 -10 -25 -20 -40 -24 -36 -13 -65 32 -83 43 -19 61 -19 132 -5 66 14 158 13 265 -1 103 -13 329 -63 425 -93 41 -14 102 -31 135 -39 86 -22 141 -36 215 -58 36 -10 86 -24 113 -30 55 -13 182 -16 247 -5 51 9 107 47 120 81 18 48 -33 121 -66 94 -10 -8 -45 -10 -117 -6 -95 5 -181 22 -302 60 -27 8 -90 28 -140 43 -49 15 -98 31 -107 35 -17 9 -203 53 -292 70 -28 5 -102 14 -166 19 -63 6 -133 13 -155 16 -22 3 -42 3 -45 1z"></path>
            <path d="M10729 2238 c-6 -13 -20 -33 -31 -45 -20 -22 -20 -22 0 -51 31 -43 43 -50 96 -56 28 -3 88 -12 135 -20 47 -8 115 -17 151 -21 83 -8 270 -34 291 -41 10 -2 30 -7 45 -9 16 -2 58 -9 94 -15 36 -6 85 -13 110 -16 24 -2 49 -9 54 -14 6 -6 24 -10 41 -10 17 0 35 -4 40 -9 6 -6 37 -14 70 -20 33 -6 71 -13 85 -16 14 -4 37 -8 51 -9 35 -4 49 -13 59 -42 10 -24 52 -34 64 -15 10 16 102 23 142 11 22 -7 71 -16 109 -20 39 -5 92 -13 120 -19 100 -22 279 3 307 43 4 6 8 28 8 49 0 34 -4 40 -34 52 -19 8 -61 14 -93 14 -32 -1 -94 4 -138 9 -44 6 -131 18 -193 27 -62 8 -118 17 -123 20 -18 12 -9 25 27 40 31 13 36 19 32 40 -3 13 -1 26 5 28 5 1 -1 15 -14 30 -21 24 -32 27 -89 28 -36 1 -76 -1 -88 -6 -31 -9 -91 -75 -92 -99 0 -12 -5 -16 -16 -12 -9 3 -34 8 -57 11 -23 3 -67 12 -97 20 -77 20 -210 47 -243 50 -15 1 -30 5 -34 8 -3 4 -18 7 -32 7 -15 0 -58 9 -96 20 -39 11 -119 24 -180 31 -60 6 -126 15 -145 20 -54 15 -157 26 -247 28 -76 2 -83 0 -94 -21z"></path>
        </g>
    </g>
</svg>