<svg
  version="1.0"
  xmlns="http://www.w3.org/2000/svg"
  width="1110.000000pt"
  height="1110.000000pt"
  viewBox="0 0 1110.000000 1110.000000"
  preserveAspectRatio="xMidYMid meet"
>
  <g
    transform="translate(0.000000,1110.000000) scale(0.100000,-0.100000)"
    fill="#000000"
    stroke="none"
  >
    <path
      d="M8133 10882 c-10 -11 -26 -33 -35 -51 -20 -36 -104 -81 -153 -81 -16 0 -52 -7 -78 -15 -72 -22 -314 -22 -397 0 -74 20 -199 14 -234 -11 -11 -8 -35 -14 -54 -14 -30 0 -84 -18 -167 -55 -67 -30 -178 -52 -300 -60 -83 -5 -185 -21 -295 -46 -25 -6 -65 -13 -89 -16 -85 -11 -145 -36 -160 -67 -15 -32 -30 -190 -30 -330 l-1 -88 72 -80 c40 -44 83 -84 96 -89 32 -12 60 4 64 38 3 24 9 29 58 41 30 7 71 15 90 17 19 2 49 6 65 9 56 11 320 37 415 41 52 3 145 8 205 11 61 4 130 8 155 9 89 4 187 17 304 41 162 33 278 47 430 50 139 3 170 10 228 51 32 21 44 25 80 19 24 -4 55 -19 75 -36 19 -17 38 -30 44 -30 6 0 76 -31 155 -70 93 -46 156 -70 178 -70 19 0 46 -5 60 -11 21 -10 30 -7 69 21 73 52 92 114 55 179 -13 23 -28 41 -34 41 -5 0 -23 20 -39 46 -30 47 -71 86 -121 116 -50 30 -68 42 -108 76 -22 17 -45 32 -51 32 -6 0 -96 83 -199 185 -167 164 -193 186 -238 200 -68 20 -94 19 -115 -3z"
    />
    <path
      d="M3130 10868 c-126 -8 -159 -19 -228 -72 -29 -23 -68 -51 -85 -63 -52 -36 -58 -43 -63 -73 l-6 -28 -84 1 c-84 0 -85 0 -207 -63 -141 -71 -152 -80 -168 -127 -9 -28 -8 -37 5 -52 25 -28 20 -40 -41 -101 -73 -72 -109 -113 -153 -175 -61 -84 -63 -90 -46 -130 16 -37 47 -55 94 -55 25 0 40 8 121 62 14 9 53 31 86 47 33 17 67 35 75 39 8 5 33 17 55 28 22 10 47 23 55 30 8 7 55 33 103 59 l89 46 59 -20 c50 -17 68 -18 117 -10 31 5 82 14 112 19 91 15 515 5 580 -14 30 -9 85 -23 122 -31 37 -8 76 -19 85 -24 27 -15 183 -61 206 -61 11 0 36 -4 56 -9 20 -5 70 -16 111 -25 263 -54 326 -68 335 -76 11 -9 130 -26 158 -22 11 1 40 -5 65 -13 25 -9 62 -18 81 -20 20 -2 62 -7 93 -11 66 -8 88 3 88 45 0 39 29 119 48 134 43 32 62 95 77 257 6 72 5 76 -22 108 -40 47 -90 63 -140 45 -65 -24 -67 -23 -73 32 -7 64 -11 70 -69 99 l-47 24 -320 -3 c-178 -2 -348 0 -384 6 -36 5 -85 11 -110 13 -252 21 -332 40 -429 104 -34 23 -84 47 -109 53 -25 5 -52 15 -59 21 -16 13 -95 15 -233 6z"
    />
    <path
      d="M1398 10489 c-18 -21 -29 -49 -38 -97 -6 -37 -18 -89 -27 -117 -8 -27 -19 -66 -23 -85 -7 -32 -21 -74 -41 -125 -4 -11 -10 -33 -14 -50 -10 -52 -95 -318 -116 -363 -10 -23 -19 -52 -19 -64 0 -12 -13 -45 -29 -73 -16 -29 -33 -70 -36 -91 -4 -21 -20 -64 -36 -96 -15 -31 -31 -72 -35 -92 -3 -20 -10 -39 -15 -42 -5 -3 -9 -15 -9 -27 0 -12 -6 -33 -13 -47 -29 -56 -52 -127 -53 -165 -1 -22 -5 -80 -9 -130 -5 -65 -3 -101 7 -130 20 -62 33 -44 33 48 0 45 4 88 8 95 14 22 27 2 27 -41 0 -75 27 -180 70 -267 8 -16 50 -27 50 -13 0 5 -7 19 -16 31 -18 27 -32 68 -44 137 -4 28 -11 62 -15 76 -5 19 -2 28 10 33 20 7 95 -66 95 -94 0 -10 5 -22 11 -26 6 -3 9 -18 6 -33 -3 -14 1 -42 9 -60 23 -54 14 -98 -61 -321 -73 -214 -82 -253 -84 -342 -2 -86 11 -125 24 -68 8 34 24 40 32 10 3 -12 18 -27 34 -36 36 -18 37 -40 5 -158 -14 -48 -22 -94 -19 -102 3 -8 1 -20 -5 -27 -7 -8 -7 -28 -2 -58 5 -25 8 -83 8 -130 0 -46 3 -99 6 -116 4 -17 3 -34 -2 -37 -5 -3 -7 -44 -4 -94 3 -55 0 -102 -7 -125 -7 -19 -14 -62 -17 -94 -3 -32 -7 -76 -8 -98 -5 -49 8 -69 35 -54 10 5 19 17 19 27 -1 16 -1 16 -14 0 -7 -10 -16 -15 -19 -12 -3 4 0 13 8 20 8 8 12 21 9 29 -4 9 0 15 10 15 9 0 16 -7 16 -15 0 -16 25 -29 72 -39 26 -6 27 -8 25 -76 -2 -72 -10 -89 -21 -45 -4 14 -10 23 -15 21 -5 -3 -14 1 -21 9 -11 13 -10 14 4 9 15 -6 17 -2 10 32 -8 48 -10 50 -29 34 -11 -9 -13 -16 -5 -24 5 -5 10 -15 10 -21 0 -5 -5 -3 -11 5 -7 11 -8 4 -3 -25 3 -22 10 -44 15 -50 5 -5 9 -15 9 -23 0 -31 43 -110 66 -120 34 -16 69 0 47 21 -3 4 -8 17 -9 30 -2 12 -6 37 -10 56 -8 40 14 138 32 145 25 10 73 -43 89 -99 15 -49 14 -58 -4 -126 -11 -41 -22 -95 -26 -120 -6 -41 -5 -46 12 -44 10 0 24 4 31 9 8 5 12 1 12 -12 0 -27 -8 -31 -39 -22 -27 8 -29 6 -52 -58 -13 -36 -26 -70 -28 -75 -2 -6 1 -7 8 -3 6 4 11 2 11 -3 0 -6 -6 -11 -13 -11 -8 0 -18 -16 -24 -35 l-11 -34 29 14 c16 9 32 27 35 40 3 14 10 25 14 25 5 0 4 -12 0 -27 -18 -56 -40 -169 -42 -218 -1 -27 -6 -56 -11 -62 -14 -20 13 -16 35 4 17 15 21 15 29 3 5 -8 8 -35 7 -60 -3 -37 -6 -45 -21 -43 -14 1 -17 -4 -14 -18 3 -10 1 -21 -4 -24 -10 -7 10 -53 34 -77 22 -23 22 -39 0 -31 -13 5 -15 2 -11 -15 3 -12 0 -26 -7 -32 -16 -13 -12 -134 5 -155 10 -12 10 -15 -4 -15 -21 0 -20 -28 1 -53 10 -11 12 -17 6 -13 -9 5 -11 2 -7 -8 3 -9 11 -16 16 -16 5 0 8 -6 5 -12 -5 -15 23 -59 65 -103 16 -16 29 -33 28 -37 0 -5 10 -33 21 -63 18 -48 20 -68 14 -148 l-7 -92 31 -23 c23 -17 31 -31 32 -55 0 -27 3 -23 16 23 8 30 15 66 15 80 0 13 7 34 15 47 11 16 12 27 4 42 -10 18 -7 22 18 36 46 23 49 20 39 -37 -5 -29 -10 -103 -13 -165 -2 -62 -8 -120 -13 -129 -6 -11 -6 -29 -1 -48 12 -40 3 -66 -22 -66 -18 0 -20 -4 -14 -33 4 -17 11 -36 15 -42 18 -24 31 -88 33 -161 2 -71 4 -80 24 -89 19 -8 21 -15 16 -54 -4 -32 -3 -42 5 -37 7 4 12 17 12 30 0 12 10 32 23 44 l23 22 17 -77 17 -77 -27 -28 c-30 -32 -73 -38 -73 -10 0 14 -2 14 -9 3 -6 -10 -4 -25 5 -42 19 -37 18 -56 -4 -87 -31 -45 -59 -114 -78 -192 -9 -41 -30 -102 -46 -136 -16 -33 -30 -70 -31 -82 0 -11 -6 -20 -12 -19 -5 1 -9 -4 -7 -12 4 -19 -16 -40 -55 -56 -40 -17 -51 -39 -28 -61 13 -14 21 -15 41 -5 33 14 32 15 36 -12 4 -29 37 -33 91 -12 38 15 42 15 53 0 7 -9 28 -19 48 -22 46 -7 42 -21 -14 -52 -41 -23 -113 -33 -150 -21 -24 8 -17 -21 10 -42 21 -15 33 -17 75 -9 27 5 55 17 62 28 8 10 16 17 18 16 14 -8 30 2 87 53 63 57 124 94 153 94 24 0 18 -13 -31 -60 -53 -51 -93 -109 -111 -160 -14 -40 -10 -60 16 -84 15 -14 24 -15 40 -6 26 14 27 30 2 30 -11 0 -23 4 -26 10 -14 23 74 154 92 137 4 -5 8 -43 8 -85 1 -86 10 -122 31 -122 8 0 14 -2 14 -5 0 -14 -112 -224 -125 -235 -20 -16 -19 -49 1 -57 10 -4 26 7 46 31 16 20 33 34 38 31 5 -3 11 -27 15 -53 8 -69 23 -109 65 -184 l39 -67 -26 -48 c-28 -53 -38 -131 -24 -192 12 -53 -7 -85 -64 -106 -45 -18 -45 -18 -85 9 -43 28 -50 31 -50 17 0 -24 55 -71 101 -86 35 -12 47 -20 38 -26 -10 -6 -9 -10 6 -15 11 -4 24 -13 28 -21 4 -7 13 -13 19 -13 23 0 88 -34 88 -46 0 -29 -77 -32 -136 -5 -22 10 -50 30 -61 45 -12 14 -26 26 -32 26 -16 0 -14 -33 4 -56 22 -29 18 -37 -15 -30 -17 3 -30 2 -30 -2 0 -5 25 -31 55 -58 30 -27 55 -52 55 -56 0 -17 -37 -7 -62 17 -16 14 -30 21 -33 15 -9 -15 -27 0 -21 17 5 11 1 13 -17 7 -12 -4 -25 -11 -29 -17 -11 -18 26 -56 82 -83 58 -28 170 -101 182 -117 3 -6 3 -20 -2 -32 -5 -12 -8 -30 -7 -41 2 -17 -5 -19 -73 -19 -91 0 -131 23 -161 93 -25 57 -46 46 -30 -16 12 -41 72 -105 114 -121 47 -17 143 -20 207 -7 41 9 70 11 81 5 10 -5 27 -9 38 -9 15 0 20 -8 23 -32 2 -27 9 -35 35 -43 31 -8 32 -11 27 -46 -9 -53 9 -77 83 -111 65 -29 213 -67 265 -68 35 0 42 -36 14 -68 -38 -43 3 -68 184 -113 93 -23 113 -34 81 -44 -14 -4 -21 -15 -21 -31 0 -31 9 -30 83 7 69 34 69 34 162 -21 28 -17 55 -32 60 -34 6 -1 26 -9 45 -15 80 -29 140 -42 235 -51 111 -12 135 -17 135 -30 0 -16 -86 -67 -135 -79 -62 -15 -90 -33 -107 -68 -11 -21 -20 -28 -41 -26 -29 2 -37 -11 -12 -21 8 -3 15 -14 15 -25 0 -11 12 -33 26 -48 l26 -28 -32 -5 -31 -5 19 -21 c20 -21 316 -124 355 -124 10 0 16 -4 13 -9 -7 -10 -151 -5 -213 8 -24 4 -49 14 -58 21 -18 15 -20 0 -2 -21 32 -40 97 -62 230 -79 98 -13 117 -10 117 21 0 16 3 19 13 12 41 -33 254 -33 382 1 50 13 99 27 110 31 19 6 19 6 3 -8 -46 -37 -2 -49 64 -17 45 21 58 19 58 -11 0 -12 7 -19 18 -19 32 0 136 62 242 143 95 72 104 77 120 62 24 -21 39 -13 94 51 26 29 53 54 61 54 17 0 28 -52 23 -105 -2 -24 2 -40 9 -42 14 -5 16 0 33 65 9 33 15 42 33 42 12 0 35 9 52 20 l29 19 22 -57 c22 -59 46 -75 52 -34 2 13 -2 37 -8 52 -9 21 -9 34 0 49 12 24 28 26 52 8 15 -12 15 -24 7 -113 -11 -104 -11 -118 -7 -174 4 -45 31 -52 51 -13 l15 27 15 -37 c12 -29 23 -39 47 -44 46 -9 37 -41 -20 -69 -56 -29 -66 -29 -73 -4 -6 22 -14 24 -36 11 -9 -6 -11 -18 -6 -40 8 -36 29 -44 95 -36 25 3 60 5 78 5 25 -1 43 10 81 45 26 25 53 45 58 45 5 0 18 9 28 20 11 12 25 18 36 15 36 -12 96 54 154 166 17 33 28 21 22 -26 -7 -45 8 -72 19 -38 4 10 20 46 35 79 16 34 29 67 29 72 0 10 61 62 72 62 7 0 -32 -113 -54 -158 -15 -29 -15 -34 -2 -39 8 -3 20 0 27 5 7 6 23 9 35 5 26 -6 59 19 74 56 12 32 29 15 31 -30 2 -32 0 -34 -30 -31 -36 2 -38 0 -23 -29 6 -11 21 -19 36 -19 14 0 33 -9 42 -20 16 -19 21 -19 82 -9 37 7 70 19 77 28 6 9 15 13 19 9 10 -10 -35 -47 -66 -54 -37 -8 -55 -20 -55 -35 0 -25 58 -22 98 6 21 14 41 25 44 25 3 0 21 11 40 26 l33 25 0 -24 c0 -45 -103 -117 -166 -117 -13 0 -24 -4 -24 -9 0 -14 47 -22 73 -12 17 7 35 6 55 -1 30 -12 99 -2 227 31 22 6 57 13 77 16 21 3 50 16 65 29 16 13 49 26 78 31 27 4 61 15 75 24 14 9 44 26 68 36 24 10 67 44 98 78 31 33 86 83 122 111 90 69 232 210 232 229 0 17 59 67 78 67 21 0 13 -18 -38 -85 -28 -36 -50 -69 -50 -72 0 -9 -92 -137 -108 -150 -9 -7 -28 -13 -44 -13 -18 0 -28 -5 -28 -15 0 -22 72 -20 109 3 34 21 106 105 124 145 6 15 15 27 19 27 4 0 23 24 42 53 19 28 51 68 70 86 l36 35 0 -31 c0 -32 -14 -52 -56 -80 -28 -18 -32 -43 -6 -43 27 0 118 99 142 154 56 133 77 164 177 262 143 141 203 243 203 345 0 41 -19 59 -60 59 -19 0 -21 -3 -14 -27 25 -84 -18 -196 -89 -235 -18 -9 -18 -8 -1 16 11 17 14 36 11 56 -5 22 4 51 32 112 21 46 44 101 51 123 19 62 54 115 110 169 37 35 54 46 62 38 6 -6 13 -55 14 -108 4 -109 8 -115 88 -139 24 -7 40 -18 40 -26 -5 -42 -30 -117 -47 -135 -25 -30 -5 -40 33 -18 17 11 37 36 49 63 24 57 61 170 61 187 0 7 5 24 11 38 13 28 33 25 24 -4 -6 -19 21 -54 35 -45 8 5 7 54 -5 147 -7 52 -4 65 29 142 41 95 45 126 18 126 -10 0 -23 -5 -29 -11 -9 -9 -9 -3 -4 23 11 47 26 73 55 92 14 9 34 32 44 52 l18 35 36 -53 c57 -84 62 -99 63 -173 0 -69 0 -70 28 -73 15 -2 27 1 27 7 0 6 5 11 10 11 6 0 10 -19 10 -43 0 -87 55 -105 95 -30 12 24 33 51 45 61 19 15 23 29 24 73 1 30 6 53 11 52 6 -1 17 -40 26 -87 9 -46 19 -91 22 -100 8 -19 27 -21 27 -3 0 17 38 53 46 44 8 -8 -14 -122 -31 -164 -9 -22 -21 -33 -34 -33 -14 0 -21 -7 -21 -20 0 -25 2 -25 50 5 88 56 115 174 106 479 -4 169 -7 191 -24 210 -32 34 -45 146 -28 235 8 40 21 80 29 89 8 9 17 25 18 35 2 10 8 19 13 20 12 3 34 -60 35 -100 1 -27 5 -33 22 -33 20 0 21 4 16 48 -19 148 -19 188 -4 200 11 9 14 24 10 45 -6 40 27 132 47 132 10 0 17 -15 20 -45 4 -34 18 -61 54 -108 53 -69 69 -80 90 -63 17 14 26 4 26 -28 0 -14 9 -44 19 -66 19 -44 86 -108 104 -102 24 8 18 40 -11 71 -40 41 -53 78 -53 151 0 69 12 135 42 238 19 68 25 83 48 140 6 12 11 31 13 42 2 11 12 21 22 23 30 6 56 43 49 71 -4 17 -2 22 8 19 9 -3 15 -24 17 -65 3 -56 0 -64 -33 -108 -24 -31 -33 -51 -27 -57 7 -7 14 -2 23 13 6 13 27 41 45 61 46 51 52 114 46 421 -2 107 -5 129 -18 134 -9 3 -25 1 -34 -5 -24 -14 -30 -6 -24 32 12 72 29 125 65 198 46 92 36 112 -25 47 -37 -39 -41 -41 -44 -21 -3 16 21 49 89 122 51 55 103 107 117 116 l24 16 -6 -38 c-12 -80 -15 -88 -30 -96 -16 -9 -23 -48 -8 -48 27 1 74 68 91 130 7 25 22 64 33 87 11 22 21 65 23 95 2 29 13 106 24 171 22 127 26 187 13 202 -5 6 -14 29 -21 53 -7 23 -28 69 -46 101 -39 67 -43 104 -20 191 8 30 15 68 15 84 0 24 2 26 15 16 24 -20 32 -4 40 76 4 41 11 90 17 107 5 18 11 41 13 52 2 11 9 49 16 85 6 38 23 84 40 111 27 42 29 52 23 103 -6 48 -4 61 13 84 20 27 45 121 58 217 8 67 15 86 26 80 5 -3 9 -32 8 -63 0 -111 8 -213 19 -224 6 -6 18 -8 26 -5 13 5 15 44 11 309 -2 167 -8 333 -14 371 -8 46 -8 89 -1 137 11 78 3 135 -30 210 -10 25 -44 104 -75 175 -66 152 -81 221 -60 271 17 41 42 44 50 7 3 -16 15 -50 25 -78 11 -27 22 -63 26 -78 7 -32 30 -45 46 -29 8 8 4 35 -15 99 -29 100 -34 131 -42 261 -4 65 -3 98 6 108 18 22 29 16 29 -17 0 -20 4 -29 12 -27 36 12 37 194 2 366 -48 236 -52 257 -54 307 -4 81 -2 89 15 75 8 -7 15 -9 16 -4 3 30 -5 97 -18 149 -27 110 -31 139 -34 230 -2 88 -3 91 -36 120 -33 30 -34 32 -43 148 -5 64 -6 143 -2 175 8 60 -1 112 -21 112 -6 0 -19 -7 -29 -16 -21 -20 -24 -15 -32 66 -3 30 -10 89 -16 130 -24 176 -29 258 -31 490 -1 135 -1 288 0 341 2 140 -28 218 -90 231 -13 3 -28 6 -34 8 -5 1 -34 2 -63 1 -47 -1 -54 -4 -71 -32 -13 -21 -21 -61 -26 -118 -4 -49 -10 -94 -15 -101 -7 -12 5 -53 31 -106 8 -15 6 -34 -7 -74 -15 -45 -16 -61 -5 -114 6 -33 13 -164 15 -291 2 -126 10 -267 17 -312 15 -98 -2 -637 -25 -793 -8 -52 -20 -153 -26 -225 -11 -120 -50 -275 -90 -360 -6 -11 -21 -51 -35 -88 -30 -81 -53 -127 -110 -222 -23 -38 -55 -95 -71 -125 -30 -60 -77 -130 -111 -168 -13 -14 -23 -33 -23 -43 0 -23 -99 -219 -111 -219 -5 0 -9 -7 -9 -16 0 -20 -68 -84 -90 -84 -21 0 -40 -20 -40 -41 0 -28 -47 -76 -80 -82 -24 -5 -30 -12 -30 -32 0 -59 -42 -119 -84 -120 -18 0 -22 -9 -32 -61 -13 -77 -20 -87 -52 -81 -35 7 -52 -1 -52 -24 0 -23 -15 -25 -24 -4 -3 8 -13 15 -22 15 -24 0 -54 -29 -48 -45 3 -8 -5 -21 -19 -30 -15 -10 -29 -32 -35 -58 -16 -66 -40 -176 -52 -241 -5 -33 -19 -69 -29 -80 -26 -29 -50 -91 -44 -114 2 -11 0 -23 -6 -26 -6 -4 -11 -17 -11 -30 0 -13 -10 -31 -21 -42 -12 -10 -26 -30 -31 -44 l-9 -24 -13 24 c-9 20 -19 25 -47 24 l-34 -1 -2 136 c-3 192 -10 240 -44 300 -17 29 -37 55 -44 58 -8 3 -15 10 -15 17 0 6 -29 36 -64 66 -36 30 -65 60 -65 65 -2 15 -62 69 -93 83 -16 6 -28 16 -28 22 0 5 -8 10 -18 10 -10 0 -22 4 -27 9 -6 5 -39 5 -75 1 -56 -7 -69 -6 -97 12 -18 11 -33 24 -33 29 0 12 -91 69 -112 69 -9 0 -18 5 -20 11 -4 11 -67 14 -119 7 -14 -3 -39 -13 -55 -24 -23 -16 -42 -20 -92 -18 -35 2 -70 8 -78 15 -20 16 -103 22 -119 9 -14 -11 -61 -4 -82 12 -7 6 -21 7 -30 3 -21 -9 -56 -6 -63 4 -3 4 -33 13 -67 20 -62 12 -120 8 -157 -11 -18 -10 -30 -6 -88 23 -20 10 -186 32 -196 25 -4 -2 -51 0 -104 5 -113 11 -137 4 -168 -45 -16 -28 -20 -46 -16 -76 6 -45 -9 -56 -68 -45 -24 5 -36 3 -42 -8 -10 -15 -46 -37 -63 -37 -6 0 -11 12 -11 26 0 28 -52 82 -85 89 -11 2 -58 6 -105 9 -77 6 -141 21 -188 45 -35 19 -121 31 -148 21 -40 -15 -134 -13 -140 4 -3 8 -18 19 -34 26 -16 7 -31 18 -34 25 -2 7 -28 21 -57 30 -88 30 -291 9 -344 -35 -11 -9 -50 -26 -87 -39 -54 -18 -70 -20 -88 -11 -19 10 -27 9 -49 -8 -28 -20 -64 -29 -161 -37 -30 -3 -63 -8 -72 -11 -10 -3 -26 5 -40 19 -40 42 -94 41 -178 -3 -19 -10 -57 -21 -85 -25 -27 -4 -57 -14 -66 -21 -8 -8 -38 -21 -65 -29 -59 -18 -54 -17 -54 -5 0 6 5 10 12 10 6 0 20 8 30 17 11 10 33 22 51 28 38 12 48 35 15 35 -12 0 -50 -7 -83 -15 -33 -8 -86 -14 -118 -15 -40 0 -56 -3 -51 -11 4 -8 0 -9 -15 -4 -15 5 -21 2 -21 -9 0 -9 -8 -16 -17 -16 -9 0 -24 -7 -33 -15 -9 -8 -37 -16 -64 -18 -43 -4 -52 -10 -101 -63 l-53 -59 -30 17 c-25 15 -31 16 -50 3 -11 -9 -22 -25 -24 -37 -2 -16 -12 -24 -37 -29 -38 -8 -67 -39 -76 -82 -4 -15 -12 -33 -19 -40 -16 -16 -96 -183 -125 -264 -21 -56 -26 -63 -50 -63 -27 0 -27 1 -38 99 -8 70 -18 110 -34 139 -22 39 -27 41 -74 44 l-50 3 -3 48 c-2 29 -9 50 -17 53 -8 3 -17 19 -20 35 -7 33 -14 38 -52 45 -31 6 -41 17 -50 57 -3 15 -9 27 -13 27 -12 0 -41 86 -35 102 4 9 2 19 -4 23 -6 3 -11 13 -11 21 0 8 -15 29 -32 47 -18 18 -42 51 -54 73 -11 21 -33 62 -49 89 -85 149 -155 279 -191 355 -90 189 -105 222 -125 282 -11 35 -26 70 -33 78 -7 8 -22 47 -35 85 -13 39 -29 80 -37 93 -8 12 -24 53 -35 90 -11 37 -26 78 -33 92 -8 14 -23 57 -34 95 -48 167 -86 285 -111 350 -67 171 -92 263 -112 410 -7 50 -18 105 -25 123 -19 47 -43 222 -44 322 -2 100 16 299 30 335 6 15 10 43 10 63 0 20 7 72 15 114 13 72 18 232 16 523 -1 121 -3 125 -66 124 -32 0 -46 -6 -67 -30z m-318 -2417 c0 -22 -33 -102 -42 -102 -6 0 -8 6 -5 14 3 8 11 32 18 55 11 36 29 56 29 33z m57 -514 c-3 -8 -6 -5 -6 6 -1 11 2 17 5 13 3 -3 4 -12 1 -19z m7 -75 c3 -45 -3 -65 -15 -57 -10 6 -12 87 -2 97 10 11 15 1 17 -40z m8887 -46 c-8 -8 -11 -7 -11 4 0 9 3 19 7 23 4 4 9 2 11 -4 3 -7 -1 -17 -7 -23z m-4381 -806 c0 -14 -18 -23 -30 -16 -6 4 -8 11 -5 16 8 12 35 12 35 0z m2451 -794 c-8 -8 -11 -7 -11 4 0 9 3 19 7 23 4 4 9 2 11 -4 3 -7 -1 -17 -7 -23z m-1021 -70 c0 -7 -5 -18 -12 -25 -9 -9 -9 -15 0 -24 7 -7 12 -25 12 -41 0 -19 6 -30 18 -34 10 -2 24 -14 31 -25 11 -18 11 -23 -3 -33 -23 -17 -20 -49 10 -109 37 -71 40 -145 10 -228 -13 -35 -24 -75 -24 -89 -1 -13 -7 -58 -15 -99 -13 -72 -15 -75 -40 -73 -30 2 -43 -23 -33 -63 5 -17 2 -24 -7 -24 -8 0 -30 -16 -50 -35 -36 -35 -66 -110 -68 -172 -1 -15 -5 -37 -10 -48 -18 -44 -38 -143 -32 -164 7 -28 -24 -53 -49 -40 -13 7 -15 17 -11 45 5 28 2 39 -10 46 -9 5 -25 28 -35 51 -11 24 -34 60 -52 80 -30 35 -31 39 -20 68 10 23 10 33 1 42 -21 21 -11 52 24 77 19 14 39 37 44 53 6 15 15 27 20 27 6 0 11 5 11 12 0 6 10 31 21 56 12 24 18 47 13 51 -5 5 -28 11 -50 14 -39 4 -45 2 -85 -39 -35 -36 -50 -44 -79 -44 -37 0 -144 -22 -220 -46 -25 -8 -54 -14 -66 -14 -11 0 -54 -9 -95 -21 -41 -11 -96 -22 -122 -24 -27 -3 -74 -9 -105 -16 -73 -14 -545 -22 -637 -11 -46 6 -76 5 -87 -1 -12 -8 -42 -2 -119 23 -57 18 -113 38 -124 45 -11 7 -46 18 -78 25 -32 7 -60 17 -63 22 -3 4 -22 8 -43 8 -21 0 -41 3 -45 8 -4 4 -29 7 -54 7 -44 0 -47 2 -50 28 -2 18 -9 27 -21 27 -44 0 -53 -153 -13 -205 12 -15 22 -33 22 -40 0 -7 14 -42 31 -78 l30 -66 -16 -83 c-9 -46 -19 -93 -21 -105 -3 -15 -13 -23 -32 -25 -21 -2 -32 -13 -49 -48 -13 -24 -30 -48 -38 -53 -8 -4 -22 -24 -30 -43 -15 -37 -41 -48 -30 -13 4 11 2 41 -4 67 -14 58 -27 286 -21 357 2 17 -12 42 -44 79 -26 30 -53 71 -61 90 -8 19 -22 39 -31 44 -15 8 -31 53 -41 120 -4 26 -10 32 -29 32 -26 0 -41 33 -29 68 3 11 1 23 -5 27 -7 4 -7 12 0 25 16 30 1 99 -26 116 -25 17 -25 3 -4 214 6 58 13 113 16 123 4 11 0 17 -10 17 -9 0 -16 -4 -16 -10 0 -17 -16 -11 -44 15 -15 14 -24 30 -21 35 3 6 27 20 53 31 l46 21 21 -26 c18 -23 30 -27 71 -28 27 0 63 2 79 6 25 6 32 4 40 -16 9 -20 17 -23 57 -21 29 1 54 8 64 18 14 14 31 15 100 11 46 -3 92 -11 103 -18 15 -9 25 -9 43 0 13 6 41 11 62 9 36 -3 41 -6 49 -37 5 -19 14 -38 20 -42 15 -10 66 0 95 19 22 13 25 13 39 -6 18 -26 29 -26 84 -1 24 11 56 20 70 20 14 0 34 9 44 20 23 26 129 29 139 5 8 -22 43 -18 56 5 7 13 21 20 39 20 15 0 36 -9 46 -20 10 -11 23 -20 30 -20 7 0 20 9 30 20 21 23 67 26 84 6 18 -21 59 -25 75 -7 11 12 35 16 105 16 79 0 92 -3 113 -23 32 -29 59 -28 93 4 16 15 45 29 66 31 30 4 39 2 48 -16 14 -26 45 -27 63 -2 9 12 34 21 83 28 39 6 71 9 73 8 2 -2 -9 -15 -25 -29 -20 -19 -24 -29 -16 -37 16 -16 48 -3 85 37 42 44 89 47 130 7 26 -24 30 -25 54 -13 14 8 36 24 48 37 23 22 23 22 40 4 28 -31 65 -35 91 -11 l22 21 31 -30 c17 -17 40 -31 51 -31 27 0 39 39 17 55 -27 20 -18 31 37 42 28 5 55 11 60 11 4 1 7 -4 7 -11z m-2942 -14 c-5 -26 -38 -29 -38 -4 0 15 6 21 21 21 14 0 19 -5 17 -17z m917 -83 c-3 -5 -13 -10 -21 -10 -8 0 -12 5 -9 10 3 6 13 10 21 10 8 0 12 -4 9 -10z m-1070 -30 c-3 -5 -11 -10 -16 -10 -6 0 -7 5 -4 10 3 6 11 10 16 10 6 0 7 -4 4 -10z m-2632 -120 c-3 -11 -9 -20 -14 -20 -10 0 -12 24 -2 33 13 13 21 7 16 -13z m2852 -71 c-5 -35 -10 -48 -16 -38 -8 15 9 104 18 95 3 -3 2 -28 -2 -57z m-2849 -51 c2 -38 -1 -57 -7 -51 -5 5 -10 28 -11 51 -1 24 -6 45 -11 49 -5 3 -3 9 4 14 20 12 23 4 25 -63z m2791 50 c-3 -8 -6 -5 -6 6 -1 11 2 17 5 13 3 -3 4 -12 1 -19z m-10 -40 c-3 -8 -6 -5 -6 6 -1 11 2 17 5 13 3 -3 4 -12 1 -19z m5695 -78 c-2 -16 -8 -30 -13 -30 -10 0 -12 53 -3 63 13 13 21 -3 16 -33z m-8227 -180 l20 -1 -20 -11 c-11 -6 -24 -17 -28 -25 -11 -19 -35 -16 -46 5 -13 24 6 45 34 38 11 -3 29 -6 40 -6z m-85 -215 c0 -8 -4 -15 -10 -15 -5 0 -10 7 -10 15 0 8 5 15 10 15 6 0 10 -7 10 -15z m8210 -71 c0 -8 -4 -12 -10 -9 -5 3 -10 10 -10 16 0 5 5 9 10 9 6 0 10 -7 10 -16z m-8035 -114 c-3 -5 -10 -10 -16 -10 -5 0 -9 5 -9 10 0 6 7 10 16 10 8 0 12 -4 9 -10z m-26 -105 c7 -19 10 -43 7 -53 -3 -9 -8 -75 -10 -146 -5 -124 -14 -163 -31 -135 -5 7 -7 33 -6 58 3 60 3 70 -5 173 -7 94 -1 138 19 138 7 0 19 -16 26 -35z m8073 -307 c-7 -7 -12 -8 -12 -2 0 14 12 26 19 19 2 -3 -1 -11 -7 -17z m-8048 -430 c-9 -18 -23 -37 -29 -43 -7 -5 -15 -22 -19 -37 -4 -16 -13 -28 -21 -28 -11 0 -12 5 -5 23 5 12 11 35 15 51 7 33 66 97 72 79 2 -6 -4 -27 -13 -45z m7883 -180 c-3 -8 -6 -5 -6 6 -1 11 2 17 5 13 3 -3 4 -12 1 -19z m-7777 -66 c0 -13 -23 -32 -39 -32 -11 0 -10 4 4 20 19 21 35 26 35 12z m136 -508 c-3 -9 -6 -18 -6 -20 0 -3 -4 -3 -10 1 -11 7 -2 35 12 35 6 0 7 -7 4 -16z m7119 -123 c-3 -6 -10 -36 -16 -67 -6 -33 -23 -76 -40 -100 -16 -24 -29 -50 -29 -58 0 -9 -5 -16 -11 -16 -29 0 19 136 84 238 9 14 21 17 12 3z m285 -118 c-1 -42 -2 -46 -14 -30 -7 9 -21 17 -30 17 -37 0 -11 37 42 59 1 1 2 -20 2 -46z m-7285 -283 c3 -11 3 -24 0 -30 -16 -26 -60 4 -49 34 9 22 41 20 49 -4z m109 -38 c7 -11 -20 -86 -32 -90 -19 -6 -23 37 -7 68 15 30 29 38 39 22z m-114 -88 c0 -8 -4 -14 -10 -14 -5 0 -10 9 -10 21 0 11 5 17 10 14 6 -3 10 -13 10 -21z m10 -134 c0 -23 -59 -100 -76 -100 -8 0 -14 8 -14 18 0 15 2 15 11 2 8 -12 9 -9 5 12 -7 30 7 74 32 101 16 17 17 17 29 1 7 -10 13 -25 13 -34z m6890 -111 c0 -10 -4 -19 -10 -19 -5 0 -10 12 -10 26 0 14 4 23 10 19 6 -3 10 -15 10 -26z m-211 -71 c14 -9 21 -23 21 -45 0 -37 -17 -53 -27 -26 -4 10 -20 39 -35 65 -21 34 -27 53 -22 73 6 26 7 26 25 -14 9 -22 27 -46 38 -53z m-6912 -54 c-3 -3 -12 -4 -19 -1 -8 3 -5 6 6 6 11 1 17 -2 13 -5z m100 -39 c0 -11 -4 -12 -14 -4 -7 6 -13 13 -13 15 0 2 6 4 13 4 8 0 14 -7 14 -15z m-72 -125 c3 -5 -1 -10 -9 -10 -9 0 -16 5 -16 10 0 6 4 10 9 10 6 0 13 -4 16 -10z m6430 -92 c-1 -41 -10 -89 -19 -108 -16 -35 -16 -34 -11 55 2 50 7 100 11 112 12 43 22 13 19 -59z m-5485 58 c0 -7 7 -19 15 -26 15 -13 11 -35 -6 -25 -5 4 -19 -1 -31 -9 -32 -23 -39 -20 -32 12 11 44 54 83 54 48z m-870 -38 c0 -13 -23 -5 -28 10 -2 7 2 10 12 6 9 -3 16 -11 16 -16z m126 -9 c17 -19 12 -39 -10 -39 -17 0 -49 36 -42 48 9 14 35 10 52 -9z m-101 -9 c3 -5 1 -10 -4 -10 -6 0 -11 5 -11 10 0 6 2 10 4 10 3 0 8 -4 11 -10z m105 -191 c0 -10 -30 -20 -41 -13 -5 3 -9 14 -9 24 0 17 3 18 25 8 14 -6 25 -15 25 -19z m838 -45 c7 -2 10 -9 7 -14 -8 -12 -123 -11 -131 1 -13 22 69 31 124 13z m-509 -277 c81 -46 73 -62 -14 -32 -60 20 -94 45 -95 69 0 23 10 19 109 -37z m271 -143 c0 -2 -9 -4 -20 -4 -11 0 -20 4 -20 9 0 5 9 7 20 4 11 -3 20 -7 20 -9z m219 -108 c8 -9 13 -18 10 -21 -10 -9 -92 20 -97 34 -6 19 66 8 87 -13z m951 14 c0 -13 -48 -32 -69 -27 -11 2 -7 8 14 19 36 19 55 22 55 8z m-628 -30 c27 0 38 -4 35 -12 -5 -18 -127 -19 -127 -2 0 15 20 24 38 18 8 -2 32 -4 54 -4z m1938 -140 c0 -5 -5 -10 -11 -10 -5 0 -7 5 -4 10 3 6 8 10 11 10 2 0 4 -4 4 -10z m-1492 -32 c-5 -15 -58 -24 -58 -9 0 9 20 17 48 20 8 0 12 -5 10 -11z m252 -26 c0 -18 -44 -57 -65 -57 -6 0 -20 -8 -29 -18 -10 -9 -22 -15 -27 -12 -12 8 20 55 37 55 7 0 26 11 41 25 33 29 43 31 43 7z m1305 -112 c8 -13 -14 -42 -26 -34 -5 3 -9 0 -9 -5 0 -6 -7 -11 -15 -11 -18 0 -18 1 -5 34 10 27 43 36 55 16z m-725 -107 c-1 -14 -30 -47 -36 -41 -8 8 14 48 26 48 6 0 10 -3 10 -7z m530 -12 c0 -5 -7 -14 -15 -21 -13 -10 -15 -9 -15 9 0 12 6 21 15 21 8 0 15 -4 15 -9z m-620 -160 c0 -5 -25 -35 -56 -68 l-55 -58 -14 26 c-20 37 -40 42 -83 20 -20 -10 -50 -21 -65 -25 -48 -11 -27 17 24 32 24 8 58 20 74 27 30 14 154 54 168 55 4 0 7 -4 7 -9z m-345 -111 c-3 -5 -16 -10 -28 -10 -18 0 -19 2 -7 10 20 13 43 13 35 0z m2351 -102 c5 -16 1 -27 -16 -40 -25 -20 -68 -34 -77 -24 -10 10 16 50 45 68 36 22 40 22 48 -4z"
    />
    <path
      d="M1178 5934 c3 -17 8 -22 15 -15 11 11 3 41 -11 41 -5 0 -7 -12 -4 -26z"
    />
    <path
      d="M1630 4103 c0 -22 2 -25 10 -13 13 20 13 40 0 40 -5 0 -10 -12 -10 -27z"
    />
  </g>
</svg>
