<?xml version="1.0" standalone="no"?>
<!DOCTYPE svg PUBLIC "-//W3C//DTD SVG 20010904//EN"
 "http://www.w3.org/TR/2001/REC-SVG-20010904/DTD/svg10.dtd">
<svg version="1.0" xmlns="http://www.w3.org/2000/svg"
 width="1110.000000pt" height="1110.000000pt" viewBox="0 0 1110.000000 1110.000000"
 preserveAspectRatio="xMidYMid meet">
<metadata>
Created by potrace 1.14, written by Peter Selinger 2001-2017
</metadata>
<g transform="translate(0.000000,1110.000000) scale(0.100000,-0.100000)"
fill="#000000" stroke="none">
<path d="M8160 10901 c0 -7 -4 -10 -8 -7 -10 6 -42 -29 -42 -45 0 -16 -72 -80
-85 -76 -5 2 -16 -3 -24 -10 -7 -8 -20 -12 -27 -9 -8 3 -14 1 -14 -5 0 -6 -7
-6 -20 1 -11 6 -20 7 -20 2 0 -4 -8 -9 -17 -10 -30 -3 -57 -9 -76 -17 -10 -4
-21 -5 -24 -1 -3 3 -12 1 -20 -5 -8 -8 -13 -8 -13 -1 0 11 -18 11 -37 -1 -7
-5 -13 -4 -13 0 0 10 -72 9 -88 -1 -6 -3 -13 -2 -17 4 -4 6 -12 7 -18 3 -16
-10 -61 -11 -67 -1 -3 3 -17 8 -30 10 -14 2 -29 6 -35 9 -5 3 -22 5 -37 4 -16
0 -28 4 -28 9 0 6 -5 5 -11 -1 -8 -8 -20 -8 -35 -3 -14 6 -24 6 -24 1 0 -5
-13 -8 -30 -7 -16 1 -30 -2 -30 -7 0 -5 -7 -7 -15 -3 -8 3 -18 -1 -22 -8 -10
-17 -105 -29 -97 -12 3 6 -1 3 -9 -6 -8 -10 -17 -15 -20 -11 -4 3 -7 0 -7 -7
0 -7 -3 -10 -7 -7 -3 4 -12 2 -18 -3 -7 -6 -24 -11 -38 -12 -14 -1 -23 -6 -21
-10 5 -7 -11 -12 -19 -5 -2 1 -11 -4 -20 -11 -9 -8 -21 -11 -26 -8 -5 4 -12 2
-16 -3 -3 -5 -15 -8 -27 -6 -12 3 -27 0 -34 -6 -6 -5 -26 -11 -43 -14 -17 -2
-36 -7 -42 -11 -6 -3 -15 0 -20 7 -6 10 -11 11 -19 3 -7 -7 -27 -10 -46 -7
-24 3 -34 1 -34 -9 0 -10 -3 -9 -10 2 -5 8 -10 10 -10 3 0 -13 -18 -12 -39 1
-9 6 -12 5 -8 -1 4 -6 -3 -11 -16 -12 -49 -2 -67 -6 -67 -14 0 -5 -9 -7 -20
-4 -11 3 -22 2 -25 -3 -2 -4 -18 -6 -35 -4 -16 2 -30 0 -30 -5 0 -4 -10 -7
-22 -7 -13 1 -28 -1 -33 -5 -6 -4 -20 -6 -30 -5 -11 2 -25 0 -31 -5 -6 -5 -28
-11 -50 -15 -21 -3 -41 -10 -42 -15 -2 -5 -7 -7 -12 -4 -4 3 -13 -9 -19 -25
-5 -17 -7 -30 -4 -30 3 0 0 -6 -6 -14 -8 -10 -14 -75 -16 -196 -4 -177 -1
-215 15 -205 5 3 11 -4 15 -15 3 -11 13 -20 21 -20 8 0 14 -4 14 -10 0 -5 1
-13 2 -17 4 -13 69 -73 79 -73 5 0 9 -4 9 -8 0 -14 46 -8 61 8 8 8 14 24 14
35 0 13 6 20 18 19 9 -1 17 3 17 8 0 6 6 8 14 5 7 -3 19 0 26 6 10 9 11 9 5
-2 -6 -10 -3 -10 16 1 26 16 37 17 56 5 6 -4 14 -3 18 3 4 6 11 8 16 4 5 -3
16 -1 23 6 8 6 41 12 73 13 32 2 64 7 71 11 7 4 12 2 12 -4 0 -8 6 -8 21 0 11
7 26 9 34 7 7 -3 18 0 24 6 8 8 11 8 11 -1 0 -9 6 -10 18 -4 9 4 24 8 32 7 8
0 18 4 21 9 4 5 15 5 25 1 11 -5 24 -7 29 -5 26 7 71 10 205 15 80 2 157 7
173 9 15 2 27 0 27 -6 0 -6 6 -5 15 2 8 7 26 10 40 8 13 -3 22 -1 19 3 -2 4 9
6 26 4 16 -2 32 0 35 5 3 5 19 5 35 0 18 -5 32 -5 36 1 3 5 10 7 15 4 5 -4 9
-2 9 4 0 6 7 8 15 5 8 -4 15 -2 15 3 0 5 12 8 28 8 15 -1 33 3 40 8 8 6 12 5
12 -2 0 -8 6 -7 16 4 12 12 19 13 30 4 11 -9 18 -8 30 2 14 11 54 17 142 20
17 1 32 6 32 13 0 6 5 4 10 -4 7 -12 10 -12 10 -1 0 7 6 11 15 7 8 -3 15 0 15
7 0 7 3 8 8 2 11 -15 32 -17 32 -3 0 10 2 10 9 0 4 -8 12 -14 16 -14 4 0 12 6
16 14 5 7 9 8 9 2 0 -6 15 -9 33 -8 17 1 32 3 32 4 0 1 8 3 18 5 9 2 15 -1 12
-6 -4 -5 9 -6 27 -3 18 3 41 6 50 7 9 1 16 6 15 11 -2 9 2 11 34 15 5 0 8 5 5
10 -7 11 22 23 35 15 5 -3 8 0 7 8 -3 15 43 12 53 -4 4 -7 9 -6 13 1 5 8 17 2
36 -16 42 -42 60 -55 60 -43 0 6 7 6 19 -2 11 -7 18 -15 15 -19 -2 -5 5 -6 16
-4 11 2 26 -3 34 -11 8 -8 19 -14 23 -13 20 3 34 -2 28 -11 -4 -6 -3 -9 2 -8
14 4 53 -13 53 -23 0 -6 4 -8 9 -5 5 3 14 -1 21 -10 7 -8 19 -13 27 -10 7 3
13 2 13 -2 0 -13 49 -31 53 -19 2 7 9 7 18 2 8 -5 23 -10 34 -10 11 0 31 -6
44 -14 13 -7 21 -9 18 -4 -3 5 8 18 26 28 40 24 77 63 78 84 7 81 4 105 -12
95 -5 -3 -9 4 -9 16 0 11 -8 24 -17 27 -23 9 -34 21 -52 56 -8 15 -18 27 -23
27 -5 0 -6 5 -3 10 3 6 -1 10 -9 10 -9 0 -16 6 -16 14 0 8 -10 18 -22 21 -32
10 -89 55 -83 65 3 4 -3 6 -14 3 -18 -5 -61 30 -61 49 0 5 -4 7 -9 3 -6 -3
-14 3 -20 12 -6 11 -11 13 -11 5 0 -10 -4 -10 -16 2 -8 9 -20 16 -25 16 -6 0
-8 4 -5 9 6 9 -22 26 -36 23 -5 -1 -8 2 -8 7 0 5 -18 28 -39 52 -22 23 -38 46
-35 51 3 4 0 8 -6 8 -16 0 -40 26 -32 35 4 4 2 5 -3 4 -15 -5 -55 24 -55 38 0
7 -3 12 -8 11 -4 -2 -31 19 -59 47 -36 34 -49 52 -40 57 7 5 -1 8 -20 8 -18 0
-33 4 -33 10 0 5 -6 7 -14 4 -8 -3 -29 2 -46 11 -23 12 -30 13 -24 3 6 -10 4
-10 -9 1 -12 9 -17 10 -17 2z"/>
<path d="M3306 10882 c-5 -8 -29 -11 -72 -9 -35 1 -64 0 -64 -3 0 -8 -44 -5
-58 4 -7 4 -12 3 -12 -2 0 -5 -14 -8 -30 -7 -17 1 -33 -2 -36 -7 -4 -6 -10 -5
-15 3 -6 10 -9 11 -9 2 0 -7 -9 -13 -20 -13 -11 0 -31 -9 -44 -21 -13 -12 -26
-19 -29 -18 -3 2 -17 -9 -31 -24 -14 -15 -26 -25 -26 -21 0 4 -9 -5 -21 -20
-11 -14 -24 -24 -28 -22 -12 8 -52 -24 -46 -35 4 -5 1 -9 -4 -9 -6 0 -11 -11
-11 -25 0 -20 -5 -25 -26 -25 -17 0 -23 -4 -18 -12 4 -7 -5 -2 -19 11 -19 17
-27 20 -27 10 0 -12 -2 -11 -10 1 -7 12 -10 12 -10 1 0 -7 -6 -11 -14 -8 -8 3
-17 3 -20 0 -6 -6 -42 -13 -78 -16 -9 -1 -16 -6 -15 -12 1 -5 -6 -9 -15 -9
-10 1 -18 -2 -18 -6 0 -5 -21 -19 -47 -32 -78 -39 -97 -51 -125 -82 -23 -24
-26 -32 -15 -45 9 -12 9 -13 0 -7 -17 9 -17 -9 0 -26 20 -21 19 -47 -3 -70
-11 -12 -20 -25 -20 -30 0 -4 -7 -8 -15 -8 -8 0 -15 -4 -15 -10 0 -5 -7 -10
-16 -10 -10 0 -14 -6 -11 -14 4 -11 1 -13 -10 -9 -13 5 -14 3 -4 -16 7 -12 8
-21 4 -20 -22 4 -44 -2 -39 -10 3 -5 -1 -11 -9 -14 -7 -3 -21 -21 -30 -39 -10
-18 -31 -46 -49 -63 -26 -25 -31 -36 -28 -68 1 -22 9 -46 17 -54 9 -8 12 -19
9 -25 -4 -5 4 -5 16 2 15 8 20 8 16 1 -12 -19 55 -13 70 7 12 14 13 15 8 1 -3
-10 0 -20 6 -24 6 -4 9 -1 8 7 -2 7 3 12 10 11 6 -2 12 2 12 8 0 5 6 7 13 3 7
-5 6 0 -3 11 -9 11 -10 16 -2 11 7 -4 12 -2 12 6 0 9 3 9 10 -2 8 -13 10 -13
10 2 0 11 5 15 14 12 8 -3 17 0 22 7 5 8 3 10 -6 4 -9 -5 -11 -4 -6 4 4 6 11
9 16 6 5 -3 12 0 15 6 4 5 14 8 22 5 8 -4 11 -1 8 5 -4 6 -1 9 6 7 22 -4 86
45 82 62 -3 10 -2 11 4 3 14 -19 48 -20 47 -1 -1 12 5 15 22 12 15 -3 27 2 33
15 6 10 8 20 6 23 -3 3 2 5 10 5 8 0 12 -4 9 -9 -3 -4 2 -5 11 -2 9 4 14 13
11 21 -5 11 -2 11 17 2 20 -11 21 -11 9 4 -11 13 -10 15 12 13 14 -2 23 0 21
5 -3 4 -1 10 5 14 5 3 10 1 10 -6 0 -8 6 -5 13 5 13 18 92 52 81 35 -3 -5 2
-9 10 -9 9 0 16 -6 16 -12 0 -9 4 -8 10 2 5 8 10 10 10 4 0 -7 7 -15 16 -18
10 -4 13 -2 8 7 -5 8 -2 7 9 -2 9 -7 17 -10 17 -6 0 4 7 2 15 -5 13 -10 19 -9
37 6 12 11 18 13 14 7 -4 -7 -2 -13 3 -13 6 0 11 5 11 11 0 5 4 8 9 5 5 -4 12
0 14 6 4 9 6 8 7 -2 0 -10 6 -6 16 10 8 14 13 17 10 8 -2 -9 1 -19 9 -22 9 -3
12 0 9 8 -3 7 2 13 10 13 8 0 13 -4 10 -9 -9 -13 4 -9 20 8 9 8 16 10 16 4 0
-8 6 -8 21 0 14 8 24 8 33 1 7 -6 16 -7 20 -3 11 10 30 9 38 -2 3 -5 28 -9 53
-7 36 1 45 -1 40 -11 -3 -7 0 -5 8 4 8 10 17 15 20 11 4 -3 14 0 24 8 15 12
16 12 8 -1 -8 -13 -7 -13 8 -1 10 8 17 9 17 3 0 -11 78 -10 97 1 6 4 15 3 18
-3 4 -6 20 -9 36 -6 16 2 29 1 29 -2 0 -4 10 -8 23 -8 35 -2 68 -12 85 -26 13
-11 14 -11 7 1 -9 16 7 8 39 -18 13 -10 17 -11 11 -2 -6 10 -2 12 15 6 17 -5
21 -4 16 6 -4 8 0 5 8 -5 9 -11 16 -14 16 -8 0 7 5 12 11 12 5 0 8 -4 5 -9 -3
-5 1 -12 10 -15 10 -4 13 -2 9 7 -4 6 -1 5 7 -4 7 -9 23 -15 35 -14 12 1 25
-5 28 -13 3 -8 8 -12 12 -9 3 4 13 1 21 -6 13 -10 14 -9 7 3 -7 12 -6 13 7 3
8 -7 18 -10 21 -6 4 3 7 1 7 -6 0 -7 4 -10 8 -7 5 3 20 -1 34 -8 14 -7 41 -12
61 -11 21 1 37 -2 37 -6 0 -5 7 -5 17 -2 9 4 14 2 10 -3 -3 -5 7 -9 21 -8 15
1 42 -5 60 -12 24 -10 31 -10 25 -1 -4 8 -1 7 10 -2 9 -7 23 -11 32 -8 8 4 17
2 20 -2 3 -5 14 -7 25 -4 11 3 20 1 20 -5 0 -5 14 -9 30 -8 17 1 30 -2 30 -7
0 -4 5 -5 10 -2 6 3 10 3 10 -2 0 -4 19 -9 43 -10 50 -3 97 -21 97 -37 0 -7 3
-7 8 -1 10 14 34 12 52 -4 8 -8 16 -9 17 -4 2 6 15 8 28 5 15 -2 22 -9 18 -16
-3 -6 3 -2 15 8 17 14 22 16 22 5 0 -11 2 -12 9 -1 7 11 9 11 14 -2 4 -9 17
-16 30 -16 13 0 27 -3 31 -7 4 -4 28 -8 54 -9 56 -2 75 -6 84 -19 5 -7 8 -7 8
0 0 6 17 9 38 9 23 -1 39 3 39 10 4 86 24 138 70 183 23 22 48 106 38 124 -4
5 -2 9 4 9 5 0 8 8 6 18 -1 9 0 22 4 27 3 6 6 43 7 83 1 60 -1 72 -15 73 -9 0
-11 3 -4 5 7 3 2 14 -14 30 -17 17 -31 23 -46 19 -15 -4 -18 -3 -9 3 10 7 5
11 -19 16 -19 4 -35 2 -39 -4 -4 -6 -14 -8 -22 -5 -10 4 -22 -2 -32 -17 -9
-12 -16 -17 -16 -10 0 7 -4 11 -10 7 -5 -3 -8 13 -7 39 2 56 -22 90 -83 118
-25 11 -48 26 -52 32 -6 8 -8 8 -8 -1 0 -8 -22 -11 -75 -10 -41 1 -75 -1 -75
-4 0 -3 -11 -5 -25 -4 -14 2 -25 0 -25 -4 0 -9 -31 -8 -48 3 -7 4 -12 2 -12
-6 0 -9 -3 -9 -10 2 -5 8 -10 11 -10 5 0 -11 -95 -13 -106 -3 -3 4 -11 5 -17
2 -25 -9 -77 -11 -77 -3 0 11 -23 7 -32 -6 -5 -7 -8 -6 -8 0 0 7 -26 11 -62
12 -107 2 -147 6 -142 15 8 12 -19 5 -28 -7 -5 -6 -8 -5 -8 3 0 8 -14 12 -37
12 -78 -1 -86 0 -101 12 -11 9 -14 9 -9 1 8 -13 -29 -13 -50 0 -6 4 -13 3 -15
-3 -2 -6 -12 -5 -28 3 -14 7 -34 12 -45 12 -11 0 -23 4 -26 8 -3 4 -17 9 -30
11 -31 3 -72 21 -90 38 -8 7 -36 24 -62 38 -26 13 -47 27 -47 31 0 3 -11 5
-24 4 -13 -2 -36 3 -51 11 -15 8 -33 14 -40 14 -7 0 -15 5 -17 12 -3 9 -6 9
-12 0z m-416 -672 c0 -5 -5 -10 -11 -10 -5 0 -7 5 -4 10 3 6 8 10 11 10 2 0 4
-4 4 -10z"/>
<path d="M1422 10523 c-6 -3 -10 -9 -6 -14 3 -5 0 -9 -6 -9 -6 0 -9 -4 -5 -9
3 -5 -4 -12 -15 -16 -11 -4 -18 -10 -15 -15 3 -5 1 -11 -3 -14 -5 -3 -8 -21
-7 -41 1 -19 -3 -35 -8 -35 -5 0 -7 -7 -3 -15 3 -8 1 -15 -5 -15 -6 0 -8 -4
-5 -9 3 -5 -1 -28 -10 -52 -17 -49 -25 -81 -29 -119 -1 -14 -7 -24 -15 -22 -8
2 -10 -3 -7 -13 4 -8 2 -15 -2 -15 -5 0 -7 -9 -4 -20 3 -11 1 -20 -5 -20 -6 0
-9 -9 -7 -20 2 -11 0 -20 -5 -20 -5 0 -9 -8 -10 -17 -3 -70 -5 -81 -11 -77 -6
3 -15 -19 -24 -56 0 -3 -7 -16 -14 -29 -11 -20 -11 -22 1 -15 11 6 11 5 -1 -9
-7 -9 -10 -17 -6 -17 4 0 2 -7 -5 -15 -7 -8 -10 -20 -7 -27 5 -14 -17 -40 -27
-32 -3 2 -2 -1 3 -7 12 -15 -9 -80 -23 -72 -6 3 -8 3 -4 -2 4 -4 2 -17 -4 -29
-16 -27 -19 -48 -7 -40 5 3 0 -11 -11 -30 -11 -20 -17 -36 -13 -36 4 0 -1 -6
-10 -12 -9 -7 -18 -24 -19 -38 -2 -14 -7 -28 -12 -32 -6 -4 -4 -13 4 -22 11
-14 10 -16 -4 -10 -12 5 -15 2 -10 -10 3 -9 1 -16 -4 -16 -6 0 -9 -9 -7 -20 2
-12 -2 -23 -10 -27 -8 -3 -12 -9 -9 -14 3 -5 0 -9 -6 -9 -6 0 -8 -4 -5 -10 3
-5 1 -10 -5 -10 -6 0 -9 -4 -5 -9 3 -5 1 -12 -5 -16 -6 -4 -8 -10 -6 -14 3 -4
-4 -31 -15 -60 -10 -29 -17 -56 -14 -61 3 -4 -2 -10 -10 -14 -8 -3 -15 -16
-15 -29 0 -14 -10 -37 -22 -53 -13 -15 -16 -24 -8 -19 12 7 13 6 5 -6 -6 -8
-10 -36 -9 -64 0 -27 -3 -58 -9 -69 -7 -14 -6 -17 5 -10 11 6 11 5 -1 -9 -7
-9 -10 -17 -6 -17 4 0 3 -6 -3 -13 -7 -8 -7 -18 -2 -27 5 -9 5 -19 -2 -27 -7
-9 -7 -13 2 -13 10 0 10 -3 0 -15 -11 -13 -8 -18 10 -17 3 0 6 -11 7 -24 4
-47 7 -53 25 -57 10 -3 16 -1 12 4 -10 17 -10 89 1 89 5 0 3 5 -5 10 -8 5 -12
10 -8 10 4 0 3 11 -2 25 -6 17 -6 25 1 25 6 0 7 5 4 10 -3 6 -1 10 5 10 6 0 8
5 5 10 -3 6 -2 10 3 10 5 0 14 -11 20 -25 9 -19 9 -25 -1 -26 -6 0 -3 -4 8 -9
11 -5 15 -9 9 -9 -13 -1 -10 -75 5 -114 8 -19 7 -27 -1 -27 -6 0 -2 -8 9 -17
11 -10 19 -26 17 -35 -1 -11 4 -18 14 -18 15 0 15 -2 2 -10 -11 -7 -11 -10 -2
-10 7 0 10 -4 7 -10 -3 -5 -1 -10 5 -10 6 0 8 -4 5 -10 -6 -10 7 -14 34 -11 8
2 10 -2 5 -10 -4 -8 -3 -10 4 -5 13 8 5 36 -12 36 -6 0 -4 5 4 10 13 8 12 10
-2 10 -15 0 -25 23 -16 33 2 1 -7 16 -19 33 -15 21 -19 35 -12 45 12 19 11 32
-1 24 -5 -3 -7 8 -5 27 3 21 -2 39 -13 52 -9 11 -12 16 -6 13 7 -4 14 3 18 16
l6 22 25 -27 c14 -15 25 -32 25 -38 0 -5 3 -9 8 -9 20 3 28 -3 29 -23 1 -13 7
-33 14 -45 10 -18 9 -26 -2 -40 -12 -14 -12 -16 0 -8 11 6 13 3 9 -13 -4 -12
-2 -22 4 -22 5 0 6 -4 3 -10 -3 -5 -2 -10 2 -10 15 0 7 -115 -10 -150 -10 -18
-17 -44 -17 -57 0 -13 -4 -22 -8 -19 -5 3 -8 -5 -7 -17 3 -28 -5 -48 -15 -42
-5 3 -6 -4 -3 -15 3 -11 1 -20 -4 -20 -5 0 -9 -8 -10 -17 -2 -34 -13 -67 -24
-74 -6 -4 -8 -12 -5 -18 4 -6 2 -11 -5 -11 -7 0 -9 -3 -6 -6 3 -4 2 -14 -3
-24 -5 -9 -11 -28 -14 -41 -3 -13 -8 -35 -11 -49 -5 -19 -4 -22 4 -10 6 8 11
10 11 4 0 -6 -3 -14 -7 -18 -5 -4 -9 -37 -10 -72 -1 -53 1 -64 15 -65 11 -1 8
-4 -8 -10 l-25 -8 25 2 c25 2 27 8 15 37 -3 11 1 16 13 17 10 1 19 -5 19 -12
0 -8 -5 -11 -11 -8 -6 3 -2 -4 10 -16 11 -12 33 -24 49 -27 16 -3 32 -8 35
-11 3 -3 -5 -3 -17 0 -13 3 -23 1 -23 -4 0 -5 5 -9 10 -9 6 0 10 -9 10 -21 0
-15 5 -19 16 -15 8 3 12 2 9 -4 -3 -6 -16 -10 -28 -10 -12 0 -17 -4 -12 -8 13
-9 18 -35 5 -27 -6 4 -10 -5 -10 -22 0 -16 -6 -35 -13 -42 -10 -11 -9 -12 3
-6 12 7 13 6 3 -6 -10 -12 -10 -18 0 -28 9 -10 8 -11 -7 -5 -13 5 -17 4 -12
-4 3 -6 1 -14 -4 -17 -7 -5 -5 -11 5 -19 15 -11 15 -13 1 -25 -18 -15 -22 -36
-5 -26 6 4 5 -3 -3 -14 -11 -18 -11 -23 2 -31 8 -5 11 -10 6 -10 -5 0 -2 -8 5
-17 8 -9 10 -14 4 -11 -6 4 -10 -22 -10 -70 0 -51 4 -77 13 -79 6 -3 12 -12
12 -21 0 -14 -2 -15 -10 -2 -6 10 -9 5 -8 -18 1 -27 3 -30 17 -19 8 6 3 -4
-11 -23 -20 -27 -24 -39 -17 -53 6 -9 7 -22 3 -29 -4 -7 -3 -8 4 -4 7 4 12 1
12 -9 0 -11 -5 -15 -15 -11 -13 5 -13 2 1 -19 12 -19 13 -25 3 -25 -10 0 -10
-3 -1 -12 7 -7 8 -17 1 -30 -5 -10 -6 -18 -2 -18 4 0 3 -4 -4 -8 -7 -4 -13
-23 -15 -41 -1 -18 -6 -35 -11 -38 -4 -2 -4 -10 1 -16 7 -10 9 -32 2 -39 -1
-2 -4 -16 -6 -33 -3 -25 -2 -27 6 -12 6 9 8 22 4 29 -4 7 -3 8 4 4 17 -10 15
-23 -8 -46 -10 -10 -16 -22 -11 -24 4 -3 21 8 36 25 28 32 44 30 49 -7 2 -11
10 -18 19 -16 10 2 15 -4 14 -16 0 -10 -7 -19 -14 -19 -8 0 -10 4 -3 12 7 8 6
12 -3 12 -7 0 -14 -11 -15 -24 -1 -14 3 -23 11 -22 33 4 41 -1 21 -16 -19 -14
-18 -15 4 -21 15 -4 20 -9 12 -14 -8 -5 -7 -9 5 -13 9 -4 14 -3 11 1 -3 5 1 9
8 9 9 0 12 -7 8 -16 -5 -14 -3 -14 11 -2 9 7 15 17 12 21 -2 4 1 15 8 24 12
16 13 16 13 -3 0 -11 -4 -17 -8 -15 -5 3 -7 2 -6 -3 2 -5 -8 -22 -20 -38 -22
-28 -25 -29 -37 -12 -9 13 -14 14 -17 6 -3 -9 -7 -7 -11 5 -4 10 -3 15 3 11
13 -8 13 5 0 25 -7 11 -10 11 -10 2 0 -7 -5 -10 -11 -6 -6 3 -4 -7 5 -24 8
-16 12 -33 8 -37 -4 -5 0 -6 9 -3 13 5 15 1 12 -20 -4 -22 -2 -24 7 -12 10 13
11 13 6 -2 -7 -24 3 -49 18 -41 6 4 4 -2 -4 -12 -9 -11 -10 -16 -2 -11 7 4 12
2 12 -6 0 -9 3 -9 10 2 8 13 10 12 10 -2 0 -25 46 -20 47 4 2 22 -14 24 -19 3
-2 -10 -7 -6 -15 11 -11 23 -10 24 4 12 15 -11 16 -11 10 6 -6 15 -5 17 6 7
12 -9 13 -7 9 14 -4 21 -16 29 -42 27 -10 -1 -9 37 1 43 5 3 6 0 3 -8 -3 -8
-1 -18 5 -22 7 -4 11 7 11 29 0 20 4 36 8 36 17 0 11 59 -6 63 -12 3 -10 5 6
6 16 1 21 5 16 14 -5 7 0 6 11 -3 14 -11 17 -12 11 -1 -6 9 -5 12 5 9 8 -3 13
-11 11 -18 -2 -11 0 -11 12 -1 11 9 16 9 22 0 4 -7 3 -9 -4 -5 -6 4 -10 -1 -9
-13 1 -14 5 -17 13 -10 15 13 25 -10 13 -32 -5 -11 -3 -16 6 -16 8 0 11 5 8
11 -3 6 -2 7 2 3 12 -10 15 -38 4 -31 -5 3 -9 0 -9 -5 0 -10 14 -15 33 -12 4
0 7 -4 7 -10 0 -6 -7 -9 -15 -6 -8 4 -17 1 -21 -5 -4 -7 -3 -8 4 -4 7 4 12 1
12 -8 0 -9 -6 -16 -12 -16 -10 0 -10 -2 0 -9 11 -7 11 -9 -1 -14 -9 -3 -13
-14 -10 -30 3 -14 0 -28 -6 -31 -15 -10 -14 -29 2 -20 9 6 9 4 0 -7 -7 -7 -13
-25 -13 -39 0 -14 -7 -36 -16 -48 -15 -22 -15 -24 5 -29 25 -6 28 -21 4 -19
-10 0 -18 -6 -18 -15 0 -9 -6 -24 -14 -33 -7 -9 -10 -16 -6 -16 4 0 2 -7 -5
-15 -10 -12 -10 -18 0 -30 10 -13 10 -19 -4 -34 -10 -11 -13 -21 -9 -24 10 -6
35 7 34 17 -1 3 1 6 4 6 4 0 6 -6 4 -12 -5 -18 -11 -47 -12 -60 -2 -24 -11
-23 -31 5 -10 14 -14 16 -10 5 4 -10 2 -18 -4 -18 -6 0 -9 8 -8 18 2 11 10 16
25 14 12 -2 21 2 21 9 0 7 -3 9 -7 6 -3 -4 -12 -2 -20 4 -10 9 -10 15 -2 25
15 19 1 18 -17 -1 -9 -9 -11 -15 -4 -15 6 0 8 -5 5 -10 -4 -6 -11 -7 -17 -4
-6 4 -6 -2 1 -15 11 -19 8 -25 -11 -22 -4 0 -5 -8 -3 -19 2 -11 -4 -24 -13
-30 -9 -5 -13 -10 -8 -10 5 0 3 -7 -4 -15 -11 -13 -10 -14 4 -9 9 3 16 13 16
22 0 18 13 8 16 -13 1 -9 -8 -18 -22 -21 -16 -4 -23 -12 -20 -20 3 -7 1 -16
-4 -19 -13 -8 -8 -39 9 -59 13 -15 15 -15 32 0 20 18 15 41 -10 49 -21 6 -24
32 -5 39 8 3 11 0 8 -8 -3 -8 0 -17 7 -22 9 -5 10 -2 6 9 -3 10 -2 17 4 17 6
0 8 4 4 9 -3 5 -1 13 5 16 8 5 7 12 -2 23 -11 13 -10 15 5 9 12 -4 16 -3 11 4
-4 6 -1 15 7 19 15 10 29 4 29 -11 0 -6 -6 -7 -13 -3 -9 6 -9 4 1 -8 10 -13
10 -17 0 -21 -10 -4 -10 -6 0 -6 10 -1 9 -5 -3 -17 -12 -12 -13 -19 -4 -30 9
-11 8 -14 -2 -14 -9 -1 -8 -5 5 -15 17 -13 17 -15 3 -15 -9 0 -21 8 -26 18 -6
9 -11 12 -11 5 0 -6 5 -15 10 -18 6 -4 7 -11 4 -17 -5 -7 -1 -9 9 -5 11 4 14
2 10 -8 -3 -8 -8 -13 -12 -11 -4 3 -7 -4 -7 -15 0 -10 9 -22 19 -25 15 -5 17
-8 6 -15 -8 -5 -17 -3 -21 4 -5 7 -7 1 -6 -15 2 -20 7 -25 22 -22 24 4 38 26
26 38 -17 17 -11 29 8 15 15 -13 16 -12 3 4 -10 13 -17 14 -27 7 -9 -8 -12 -8
-10 2 2 19 9 22 34 14 17 -6 22 -13 19 -27 -3 -10 -2 -21 3 -24 4 -2 5 -16 3
-30 -3 -13 -9 -22 -14 -19 -5 3 -6 11 -3 17 5 8 3 8 -7 0 -7 -7 -21 -13 -31
-13 -10 0 -18 -4 -18 -9 0 -10 32 -10 40 0 3 4 12 0 20 -9 13 -14 12 -15 -3
-9 -9 3 -19 2 -22 -3 -4 -6 0 -10 7 -10 9 0 10 -3 2 -8 -6 -4 -10 -15 -8 -25
1 -9 -1 -15 -6 -12 -4 2 -6 18 -5 35 1 16 -2 27 -6 24 -13 -8 -5 -55 12 -68
16 -13 20 -58 4 -68 -6 -5 -5 -8 4 -8 11 0 11 -3 0 -17 -12 -14 -12 -16 0 -9
9 6 12 5 9 -5 -3 -8 -11 -13 -17 -11 -7 1 -10 -2 -6 -8 3 -6 12 -8 18 -4 7 3
3 -2 -7 -10 -11 -9 -15 -16 -9 -16 7 0 10 -11 7 -26 -3 -16 -1 -23 6 -19 5 3
8 0 5 -7 -7 -18 10 -42 24 -34 6 4 9 13 5 19 -3 7 1 4 9 -5 8 -10 17 -15 20
-12 6 6 3 -7 -8 -43 -7 -23 -25 -32 -25 -13 0 5 -3 9 -7 9 -22 -4 -33 2 -27
14 4 6 3 9 -1 4 -11 -9 -14 -48 -4 -41 4 2 19 0 32 -5 18 -7 27 -7 30 2 2 7 8
8 13 4 5 -4 2 -12 -5 -16 -9 -6 -10 -11 -2 -15 6 -4 8 -12 5 -18 -5 -7 -10 -4
-15 9 -9 24 -41 35 -60 21 -11 -8 -10 -9 4 -4 9 3 17 1 17 -5 0 -6 5 -7 12 -3
7 4 8 3 4 -4 -4 -6 -14 -8 -23 -5 -11 4 -14 3 -9 -5 4 -7 14 -12 22 -12 8 0
12 -5 9 -10 -4 -6 -11 -8 -16 -5 -5 3 -6 -1 -3 -9 3 -9 16 -16 28 -17 20 0 20
-1 1 -9 -15 -7 -16 -9 -4 -9 28 -1 44 -28 29 -47 -8 -8 -9 -14 -4 -13 29 5 53
-3 59 -21 4 -11 11 -17 17 -14 7 5 8 2 3 -6 -6 -10 -13 -7 -27 11 l-19 24 12
-25 c7 -14 12 -32 11 -40 -3 -13 -2 -13 7 0 10 13 11 13 11 0 0 -13 1 -13 10
0 6 9 10 10 10 3 0 -6 -5 -15 -10 -18 -6 -3 -10 -11 -10 -16 0 -6 4 -7 10 -4
5 3 10 1 10 -4 0 -6 -6 -11 -12 -11 -9 0 -8 -3 2 -9 8 -6 18 -7 24 -4 5 4 6 1
1 -8 -13 -20 -15 -59 -3 -59 6 0 6 -6 -2 -15 -7 -8 -10 -22 -6 -30 3 -8 0 -15
-6 -15 -6 0 -5 -6 3 -17 10 -11 10 -14 2 -9 -10 5 -11 1 -3 -19 6 -15 6 -24 1
-20 -5 3 -13 0 -17 -6 -4 -8 -3 -9 4 -5 8 5 12 -1 13 -16 0 -22 1 -22 9 -3 8
18 9 18 9 2 1 -10 4 -16 9 -14 21 14 40 -68 20 -89 -4 -4 -3 -13 3 -21 9 -9 8
-13 0 -13 -7 0 -2 -10 9 -22 11 -12 18 -28 16 -35 -7 -17 7 -24 24 -12 11 6
12 9 2 9 -8 0 -10 5 -6 12 11 17 11 58 1 51 -5 -3 -7 -14 -4 -24 5 -20 -7 -26
-18 -9 -4 6 1 22 9 35 12 18 13 25 4 25 -6 0 -3 6 8 14 19 14 19 14 -1 13 -15
-2 -20 4 -19 20 1 13 -3 20 -9 16 -6 -3 -7 -1 -3 5 13 21 27 13 22 -13 -3 -14
-1 -23 3 -20 5 2 11 18 13 34 3 21 1 28 -9 24 -9 -4 -11 0 -7 11 3 9 10 13 15
10 5 -3 9 -2 8 3 -1 4 0 11 1 16 1 4 4 16 5 27 1 11 3 21 5 23 6 7 4 55 -2 51
-4 -3 -8 0 -8 6 0 6 -5 8 -12 4 -7 -5 -8 -3 -4 5 5 7 14 10 22 7 9 -3 14 1 14
12 0 15 2 15 10 2 9 -13 14 -7 11 12 0 4 5 5 13 2 14 -5 16 -28 3 -40 -4 -4
-1 -14 6 -22 10 -13 9 -14 -1 -8 -10 6 -13 3 -10 -10 2 -11 -3 -25 -12 -32 -8
-8 -9 -10 -2 -7 16 8 13 -26 -3 -37 -6 -5 -5 -8 3 -8 6 0 12 -5 12 -11 0 -5
-6 -7 -12 -3 -9 6 -9 3 0 -9 8 -9 11 -25 7 -38 -5 -14 -4 -19 4 -15 7 5 9 1 5
-8 -3 -9 -11 -16 -18 -16 -7 0 -7 -3 -1 -8 14 -10 17 -32 5 -32 -6 0 -10 -5
-10 -11 0 -5 4 -8 9 -5 5 4 7 -3 4 -14 -3 -11 -9 -18 -13 -15 -4 3 -11 -2 -14
-11 -9 -23 -7 -31 3 -16 6 10 10 9 14 -7 3 -14 1 -19 -6 -14 -9 5 -9 3 -1 -8
6 -8 10 -25 8 -38 -3 -13 1 -31 8 -39 12 -13 10 -14 -9 -2 -12 8 -19 18 -16
22 2 5 0 14 -5 21 -5 7 -8 20 -7 29 2 11 -2 15 -12 11 -8 -3 -12 -12 -8 -21 3
-8 1 -20 -5 -27 -8 -9 -6 -14 5 -19 9 -3 13 -11 9 -17 -3 -6 0 -15 7 -20 10
-6 10 -9 2 -9 -8 0 -5 -12 9 -35 11 -20 18 -39 14 -42 -3 -3 2 -12 12 -19 14
-11 15 -15 3 -23 -11 -7 -11 -9 0 -14 10 -4 11 -8 3 -14 -9 -6 -9 -11 0 -18
18 -15 39 -18 30 -3 -11 17 -12 68 -3 74 4 2 6 -5 4 -16 -2 -11 0 -18 5 -15
12 8 6 31 -14 54 -11 12 -14 21 -7 26 6 3 11 13 11 21 0 8 -4 12 -10 9 -6 -3
-7 1 -4 9 3 9 10 14 14 11 5 -3 7 3 6 12 -2 10 2 22 8 26 6 5 2 6 -10 3 -17
-5 -20 -2 -18 16 1 13 3 27 3 31 1 5 6 5 13 1 7 -4 8 -3 4 5 -4 6 -11 9 -15 7
-3 -3 -7 4 -7 14 0 18 1 18 20 2 18 -16 18 -16 5 5 -17 29 0 53 21 28 10 -12
10 -15 -1 -15 -9 0 -10 -3 -4 -8 17 -12 36 -52 25 -52 -5 0 -8 -14 -6 -30 2
-17 1 -30 -3 -30 -9 0 -7 -143 2 -157 4 -6 2 -13 -5 -15 -14 -5 -20 -38 -7
-38 5 0 9 -5 9 -11 0 -5 -4 -7 -10 -4 -5 3 -10 1 -10 -5 0 -7 -6 -10 -14 -7
-8 3 -17 1 -20 -6 -3 -9 -5 -9 -5 1 -1 19 -18 14 -18 -5 0 -18 23 -47 39 -49
4 -1 11 -2 14 -3 4 0 1 -8 -6 -16 -9 -10 -9 -15 -1 -15 6 0 11 -5 11 -11 0 -6
-6 -9 -13 -6 -9 3 -12 -4 -11 -22 2 -42 3 -43 17 -38 8 3 14 -1 14 -8 0 -7 -7
-10 -16 -8 -13 3 -16 -6 -16 -51 0 -51 5 -61 27 -57 4 0 7 -9 5 -22 -2 -25
-27 -48 -42 -40 -5 3 -5 0 2 -7 12 -13 6 -43 -7 -35 -5 3 -12 0 -16 -6 -4 -7
-3 -9 3 -6 6 4 14 0 17 -9 4 -10 2 -13 -6 -8 -7 5 -9 2 -5 -9 4 -11 2 -14 -7
-11 -8 3 -17 0 -22 -7 -5 -8 -3 -10 6 -4 8 5 11 3 8 -6 -3 -8 -11 -13 -17 -11
-9 2 -9 -3 -3 -15 7 -11 6 -21 -4 -31 -17 -17 -18 -32 -1 -32 6 0 1 -10 -13
-21 -14 -11 -20 -18 -13 -15 8 4 11 -2 8 -21 -2 -16 -4 -32 -4 -36 -1 -5 -6
-5 -13 -1 -7 5 -8 3 -4 -5 5 -7 0 -19 -10 -27 -11 -9 -13 -13 -6 -9 6 3 12 2
12 -3 0 -6 -7 -13 -16 -16 -8 -3 -12 -10 -9 -16 3 -5 1 -10 -4 -10 -6 0 -10
-3 -9 -7 0 -5 -2 -15 -5 -23 -3 -8 -7 -26 -9 -40 -2 -14 -9 -24 -15 -23 -7 2
-10 -4 -7 -12 4 -10 0 -15 -11 -15 -9 0 -13 -5 -10 -10 4 -7 -3 -9 -18 -6 -21
4 -27 -1 -36 -26 -13 -38 -14 -48 -1 -28 8 12 10 11 10 -7 0 -12 4 -25 10 -28
6 -3 7 1 4 10 -5 13 -1 15 19 11 20 -3 25 -1 20 11 -5 11 -3 14 6 9 7 -5 11
-17 8 -27 -3 -10 0 -22 5 -26 7 -4 8 -1 4 8 -6 10 -4 10 6 -1 15 -17 69 -24
65 -8 -1 6 8 12 20 14 12 2 28 5 35 6 7 2 12 -3 10 -9 -1 -7 4 -13 10 -13 9 0
8 -4 -2 -10 -8 -5 -10 -10 -4 -10 6 0 14 3 18 7 10 11 36 12 36 2 0 -4 6 -6
14 -3 8 3 17 1 21 -5 3 -6 -5 -15 -19 -21 -14 -5 -26 -14 -26 -19 0 -6 -7 -8
-15 -5 -8 4 -15 1 -15 -6 0 -6 -4 -8 -10 -5 -5 3 -10 1 -10 -5 0 -6 -5 -8 -10
-5 -6 4 -17 1 -25 -5 -11 -10 -15 -10 -15 -1 0 7 -5 9 -10 6 -6 -4 -22 0 -35
9 -13 9 -26 12 -29 8 -7 -12 5 -52 15 -52 11 0 7 23 -6 32 -19 14 9 8 35 -8
24 -14 24 -15 2 -9 -21 6 -22 5 -10 -14 7 -12 16 -21 21 -21 4 0 5 5 1 12 -5
7 -3 8 7 3 21 -14 50 -14 39 0 -6 7 -3 11 10 11 10 0 17 -3 14 -7 -8 -14 22
-3 64 24 23 15 42 32 42 37 0 5 7 7 15 4 11 -4 15 0 15 17 0 12 3 20 6 17 3
-4 14 1 23 10 37 35 59 50 65 45 3 -4 6 -1 6 6 0 7 4 10 9 6 5 -3 12 -1 16 5
4 6 11 8 16 5 5 -4 9 -1 9 5 0 6 5 8 10 5 19 -11 10 -34 -19 -51 -17 -10 -28
-21 -25 -26 3 -4 -2 -8 -11 -8 -9 0 -14 -4 -11 -8 3 -5 -6 -15 -20 -22 -13 -8
-27 -24 -30 -37 -4 -13 -10 -23 -16 -23 -5 0 -7 -4 -4 -9 3 -5 -1 -12 -10 -15
-16 -6 -16 -36 0 -48 6 -4 4 -13 -4 -23 -11 -13 -10 -18 6 -33 26 -23 42 -25
62 -10 18 13 30 44 13 34 -10 -7 -24 22 -16 34 3 5 1 11 -3 14 -11 6 -10 -44
1 -61 4 -6 2 -15 -4 -19 -7 -4 -9 -3 -5 4 3 6 -4 18 -16 26 -12 9 -18 16 -11
16 8 0 20 30 27 72 1 3 5 10 10 15 5 5 6 3 2 -4 -4 -7 -2 -13 3 -13 6 0 11 7
11 16 0 9 5 12 12 8 7 -4 8 -3 4 4 -3 6 2 16 13 21 15 9 20 7 24 -9 3 -11 0
-20 -6 -20 -8 0 -8 -3 -2 -8 6 -4 10 -18 10 -32 0 -14 -4 -28 -10 -32 -6 -5
-4 -8 5 -9 10 0 8 -3 -5 -9 -16 -7 -17 -9 -3 -9 9 -1 20 -6 24 -13 4 -6 3 -8
-4 -4 -22 13 -7 -37 15 -51 17 -12 20 -19 13 -33 -5 -9 -6 -21 -2 -25 4 -5 1
-5 -5 -1 -7 4 -14 2 -14 -3 -1 -6 -2 -17 -3 -23 -1 -7 -7 -12 -13 -11 -7 2
-10 -6 -8 -17 2 -11 -1 -20 -6 -20 -6 0 -8 -4 -4 -9 3 -6 -3 -14 -12 -20 -10
-6 -12 -11 -5 -11 7 0 4 -8 -8 -20 -12 -12 -18 -25 -15 -30 4 -6 -1 -10 -10
-10 -10 0 -13 -5 -9 -12 5 -7 2 -9 -8 -6 -9 4 -15 0 -15 -8 0 -8 5 -14 10 -14
5 0 3 -8 -4 -17 -8 -9 -9 -14 -2 -10 6 4 14 1 16 -5 4 -10 6 -10 6 -1 1 7 8
10 18 6 11 -4 14 -3 9 5 -4 7 -1 12 9 12 11 0 15 5 11 15 -7 18 29 41 39 24 4
-6 4 -13 1 -16 -3 -3 2 -12 12 -20 9 -8 12 -12 6 -9 -8 4 -11 -3 -10 -19 0
-14 3 -25 6 -25 3 0 6 -14 7 -32 1 -17 8 -35 14 -39 6 -4 8 -12 5 -18 -4 -6 0
-14 8 -17 9 -3 16 -13 16 -21 0 -8 7 -21 16 -30 8 -9 13 -22 10 -30 -3 -8 -2
-11 3 -8 16 9 22 -12 7 -25 -8 -6 -13 -20 -11 -31 2 -10 -1 -19 -6 -19 -6 0
-8 -10 -4 -22 4 -17 4 -19 -3 -9 -7 10 -12 5 -18 -20 -12 -54 -12 -68 3 -73 7
-3 13 -11 12 -18 0 -10 -2 -10 -6 0 -2 6 -9 10 -13 7 -13 -8 0 -36 14 -28 8 4
8 2 -1 -7 -14 -15 -6 -42 11 -34 6 3 3 -1 -6 -9 -14 -11 -15 -16 -5 -27 7 -7
7 -10 1 -7 -11 6 -46 -28 -37 -37 3 -3 -7 -3 -22 0 -23 4 -26 2 -21 -12 6 -15
4 -15 -11 -3 -15 12 -16 12 -11 -2 4 -9 2 -21 -4 -27 -13 -13 -40 -4 -31 11 3
6 1 7 -5 3 -7 -4 -12 -2 -12 4 0 6 -4 9 -9 5 -5 -3 -13 0 -17 7 -4 7 -4 10 1
6 4 -4 15 -2 23 5 9 6 13 8 11 2 -7 -12 28 -48 35 -36 3 4 -5 17 -17 28 -28
26 -52 40 -44 26 4 -6 0 -13 -8 -16 -11 -5 -12 -1 -5 18 7 18 5 23 -5 21 -8
-1 -18 -6 -22 -11 -4 -4 -2 -5 6 0 10 6 12 2 7 -13 -5 -14 0 -26 18 -40 14
-10 23 -22 21 -26 -3 -3 -2 -4 1 -1 4 2 19 -2 35 -10 19 -10 30 -11 34 -4 4 5
12 8 18 6 7 -2 23 0 37 4 24 9 24 8 6 -6 -11 -8 -29 -13 -40 -9 -15 4 -17 3
-8 -4 8 -5 13 -12 13 -16 -3 -19 0 -29 6 -23 3 4 12 -1 20 -11 8 -9 12 -11 8
-5 -3 7 -3 13 0 13 10 0 35 -27 30 -32 -3 -3 2 -5 10 -5 8 0 12 5 9 11 -3 6 0
4 8 -5 7 -9 18 -14 25 -12 6 2 17 -5 23 -16 12 -23 13 -23 -59 -25 -25 -1 -46
-7 -49 -14 -2 -7 2 -10 11 -6 8 3 17 1 21 -4 3 -5 -5 -8 -17 -7 -14 1 -21 8
-20 19 1 11 -11 23 -32 32 -18 7 -35 19 -37 25 -2 7 -10 10 -17 8 -9 -3 -7
-10 7 -27 10 -12 23 -18 27 -14 5 4 5 2 1 -5 -3 -6 -2 -14 4 -18 6 -4 8 -11 5
-16 -4 -5 -1 -9 4 -9 6 0 11 5 11 12 0 6 2 9 5 6 9 -8 -6 -38 -16 -32 -5 3 -6
-2 -3 -10 3 -9 1 -16 -6 -16 -6 0 -8 -5 -5 -10 4 -6 10 -8 14 -6 4 3 8 -1 8
-9 0 -12 -3 -12 -15 -2 -13 10 -14 8 -7 -11 6 -21 5 -23 -13 -13 -28 15 -31
14 -27 -9 2 -11 0 -18 -5 -15 -4 3 -11 -1 -13 -7 -3 -8 -6 -6 -6 5 -1 9 3 17
7 17 4 0 8 9 9 20 1 11 -4 20 -13 20 -8 0 -14 -4 -14 -10 0 -5 -5 -10 -11 -10
-5 0 -8 4 -5 9 3 5 -1 11 -9 15 -8 3 -15 11 -15 17 0 8 7 5 19 -5 11 -10 21
-13 25 -7 11 18 -33 35 -66 25 -14 -4 -15 -9 -6 -24 7 -10 15 -17 19 -14 4 2
10 0 13 -5 4 -5 -2 -8 -11 -7 -9 2 -19 8 -21 14 -5 17 -19 15 -19 -3 0 -8 4
-12 9 -9 4 3 11 -2 14 -10 3 -9 13 -16 20 -16 8 0 17 -7 20 -15 4 -8 10 -12
15 -9 5 3 9 0 9 -5 0 -6 9 -11 20 -11 11 0 20 -5 20 -11 0 -5 5 -7 10 -4 6 3
13 -1 16 -9 3 -9 10 -13 15 -10 5 3 17 -3 27 -13 9 -11 13 -12 8 -3 -5 8 5 0
21 -18 34 -35 47 -39 69 -18 14 15 54 11 54 -6 0 -5 4 -6 10 -3 6 3 7 -1 4 -9
-4 -10 -12 -13 -22 -8 -10 4 -24 7 -32 6 -8 -1 -21 -2 -28 -3 -7 0 -11 -5 -7
-10 3 -5 1 -12 -4 -15 -4 -3 -9 -17 -9 -31 0 -13 4 -22 9 -19 5 3 9 0 9 -7 0
-6 -8 -9 -20 -6 -10 3 -21 0 -24 -7 -3 -7 -5 -6 -5 3 -1 11 -5 10 -20 -3 -14
-13 -21 -14 -27 -5 -5 8 -3 10 6 4 8 -5 11 -4 7 3 -4 5 -16 8 -27 5 -24 -6
-80 15 -80 31 0 6 -5 4 -10 -4 -8 -13 -10 -13 -10 2 0 9 -9 20 -21 23 -11 4
-18 9 -15 13 3 3 -2 14 -11 24 -16 18 -16 18 3 12 16 -7 17 -5 7 8 -7 8 -9 18
-5 23 4 4 -3 3 -14 -3 -12 -6 -25 -8 -29 -4 -4 4 -3 -3 3 -14 6 -12 8 -24 5
-28 -3 -3 -1 -6 5 -6 7 0 11 -3 11 -7 -4 -22 2 -44 9 -39 5 3 15 -6 22 -19 7
-14 21 -27 30 -30 10 -3 25 -14 34 -24 14 -15 24 -17 47 -11 20 6 29 5 30 -3
0 -7 4 -3 9 8 6 14 9 15 9 5 1 -18 61 -22 73 -5 5 6 8 5 8 -3 0 -7 5 -10 10
-7 6 4 8 10 5 15 -3 4 11 4 30 0 22 -5 38 -4 42 3 4 6 1 7 -7 2 -8 -5 -11 -4
-6 3 4 6 13 9 21 6 8 -4 13 -9 10 -13 -2 -4 6 -7 18 -6 12 1 25 -3 29 -9 5 -8
8 -7 8 2 0 10 3 10 14 0 9 -8 11 -19 5 -29 -6 -12 -1 -23 19 -40 20 -18 23
-19 12 -4 -14 20 -14 20 7 1 13 -11 30 -16 40 -12 16 5 15 4 -1 -9 -11 -8 -16
-15 -10 -15 5 0 2 -5 -6 -10 -9 -6 -10 -10 -3 -10 6 0 10 -9 8 -20 -2 -11 1
-22 6 -25 5 -4 7 -10 4 -15 -3 -5 -1 -11 4 -14 5 -4 13 -1 17 5 5 8 3 9 -7 4
-8 -5 -11 -4 -6 0 4 5 20 10 35 11 15 1 20 0 10 -2 -29 -9 -27 -30 3 -41 27
-11 43 0 17 10 -10 4 -10 6 0 6 8 1 16 -8 19 -19 7 -24 11 -25 36 -3 19 17 20
17 9 -3 -9 -16 -7 -22 10 -33 16 -10 18 -10 12 0 -5 9 -2 10 12 5 10 -4 24 -8
29 -9 6 -1 13 -6 18 -12 4 -5 5 2 3 18 -5 32 -31 61 -46 52 -6 -4 -1 -14 12
-26 21 -19 21 -19 2 -10 -15 7 -25 7 -34 -2 -10 -10 -11 -9 -4 3 14 25 13 36
-8 49 -12 7 -17 8 -13 2 3 -6 1 -11 -4 -11 -6 0 -11 6 -11 13 0 8 -4 7 -10 -3
-8 -13 -10 -12 -10 4 0 11 -3 17 -6 13 -8 -7 -27 11 -42 40 -10 18 -9 21 6 18
9 -2 21 -4 25 -4 5 -1 6 -5 2 -10 -3 -6 4 -8 15 -6 13 2 23 -2 27 -11 4 -12 8
-13 13 -4 5 9 10 6 15 -9 4 -13 12 -20 20 -17 16 6 85 -40 85 -57 0 -7 -5 -4
-11 6 -15 26 -32 21 -18 -5 7 -13 12 -24 11 -25 -5 -8 -1 -25 5 -20 3 4 12 2
20 -4 10 -9 13 -8 13 2 1 10 5 9 14 -4 13 -17 14 -17 21 0 6 17 7 17 20 0 8
-11 14 -14 17 -6 2 6 9 0 15 -14 10 -22 9 -30 -8 -50 -17 -23 -28 -70 -12 -54
3 4 12 -1 20 -11 10 -11 12 -12 8 -2 -4 9 -1 8 8 -3 10 -12 17 -14 22 -8 4 8
12 6 22 -4 9 -9 22 -14 29 -11 8 3 14 0 14 -5 0 -7 11 -9 25 -7 15 3 25 1 25
-6 0 -12 20 -17 75 -18 28 -1 44 -12 45 -30 0 -5 -5 -8 -11 -8 -5 0 -7 4 -4
10 3 5 4 10 1 10 -3 0 -12 -13 -20 -29 -14 -26 -14 -30 0 -35 21 -8 26 -8 20
2 -3 5 8 8 23 7 21 -1 28 2 24 12 -4 9 0 11 11 7 10 -4 18 0 22 10 3 9 10 13
15 10 6 -3 17 0 26 8 14 11 16 11 11 -3 -5 -13 -2 -16 12 -12 21 5 54 -20 42
-32 -4 -4 -2 -6 3 -5 25 5 56 -1 50 -10 -3 -5 1 -10 10 -10 9 0 14 -4 11 -9
-3 -5 8 -8 24 -7 21 2 30 -2 30 -13 0 -14 1 -14 10 -1 8 13 10 13 10 -2 0 -12
5 -15 17 -11 12 5 14 3 8 -8 -6 -11 -5 -12 5 -2 10 9 17 10 27 2 7 -7 13 -8
13 -4 0 5 10 0 22 -11 22 -19 22 -19 8 0 -14 18 -14 19 5 9 11 -6 26 -8 34 -5
8 3 11 0 7 -7 -5 -7 3 -10 23 -7 17 2 39 -3 50 -10 15 -11 22 -11 27 -3 5 8 3
9 -6 4 -8 -5 -11 -4 -7 3 4 5 16 8 27 5 11 -3 17 -10 13 -17 -4 -6 0 -5 9 2
13 10 17 10 20 0 4 -10 9 -10 23 2 15 12 17 12 10 1 -6 -11 -4 -13 8 -8 11 4
17 1 17 -9 0 -8 -7 -17 -15 -20 -8 -4 -12 -11 -8 -17 4 -6 0 -8 -10 -4 -14 5
-41 -13 -34 -24 1 -2 0 -3 -2 -2 -2 1 -12 -7 -24 -18 -11 -10 -26 -19 -31 -19
-6 0 -4 5 4 10 8 5 12 10 8 11 -27 5 -37 3 -71 -14 -37 -17 -38 -19 -20 -33
17 -14 17 -14 -4 -5 -29 15 -33 14 -33 -7 0 -10 -7 -27 -16 -38 -8 -10 -13
-14 -9 -7 3 8 -1 11 -15 8 -11 -2 -20 1 -20 6 0 6 -4 7 -10 4 -6 -3 -10 -1
-10 4 0 6 -5 11 -12 11 -6 0 -3 -9 7 -20 10 -11 24 -20 32 -20 8 0 11 -4 8
-10 -4 -6 1 -7 12 -4 16 5 16 4 3 -8 -21 -18 -25 -42 -5 -35 9 4 15 1 15 -7 0
-8 7 -16 15 -20 18 -6 10 -33 -10 -33 -8 0 -12 3 -10 7 2 3 -7 7 -21 8 -13 1
-24 -3 -24 -8 0 -6 6 -9 13 -8 6 2 11 -3 9 -11 -2 -10 5 -12 23 -9 19 4 23 2
15 -7 -13 -16 12 -28 37 -18 11 4 14 3 9 -5 -5 -8 0 -12 13 -12 11 0 22 -4 25
-9 3 -5 16 -9 28 -9 36 -2 63 -7 68 -12 15 -15 52 -30 60 -25 6 4 10 2 10 -3
0 -5 6 -9 13 -9 6 -1 29 -4 50 -8 26 -4 37 -3 37 6 0 7 3 9 6 6 4 -4 1 -13 -6
-22 -14 -16 -55 -20 -64 -6 -7 10 -25 9 -43 -2 -6 -4 -14 -1 -16 5 -4 9 -8 10
-14 3 -12 -15 -63 -13 -63 3 0 10 -5 10 -20 2 -15 -8 -20 -8 -20 1 0 6 -7 8
-16 5 -8 -3 -13 -2 -10 3 3 5 -1 11 -9 15 -8 3 -17 1 -20 -4 -4 -6 -1 -10 4
-10 6 0 11 -7 11 -16 0 -8 5 -12 10 -9 5 3 10 1 10 -5 0 -7 7 -10 15 -6 8 3
15 1 15 -4 0 -5 10 -14 21 -21 17 -8 20 -8 14 1 -4 7 4 5 17 -4 14 -9 28 -13
31 -9 4 3 7 2 7 -3 0 -5 16 -10 35 -10 22 -1 33 3 29 10 -3 6 0 4 8 -4 7 -8
25 -14 41 -12 16 2 27 -1 27 -9 0 -8 4 -9 13 0 10 8 17 7 25 -1 9 -9 12 -9 12
1 0 7 4 10 9 7 5 -3 11 3 14 13 3 12 -1 22 -9 25 -8 3 -14 11 -14 18 0 9 3 8
10 -2 5 -8 10 -10 10 -5 0 6 5 3 10 -5 5 -8 17 -16 27 -17 32 -4 52 -9 59 -15
3 -4 17 -3 30 2 15 6 24 6 24 0 0 -6 9 -10 21 -10 11 0 17 5 14 10 -7 12 17 9
26 -3 3 -4 18 -3 32 2 20 8 27 7 27 -2 0 -8 2 -9 8 -1 4 6 15 10 25 8 9 -1 17
2 17 8 0 6 6 5 15 -2 12 -10 15 -10 15 0 0 8 3 10 7 7 3 -4 13 -1 21 6 13 10
14 9 8 -1 -6 -11 -4 -11 13 -3 12 6 30 16 42 22 15 7 19 7 14 0 -9 -16 1 -13
19 5 15 14 16 14 17 -3 1 -10 1 -24 0 -31 -3 -17 9 -15 26 6 8 9 12 12 9 5 -4
-7 1 -11 13 -10 11 0 17 5 15 9 -3 4 2 9 10 9 9 1 21 2 27 3 7 0 15 10 20 21
4 11 8 16 9 10 6 -44 13 -62 26 -75 13 -13 15 -13 12 -1 -2 8 6 17 17 19 11 2
29 11 40 21 19 15 19 15 5 -3 -10 -13 -3 -10 25 8 22 15 43 33 47 39 4 7 8 9
8 5 0 -4 15 9 34 27 33 35 54 46 40 23 -5 -9 -3 -9 9 1 9 7 15 17 12 21 -4 7
18 22 37 24 4 1 14 10 22 21 11 14 15 16 16 6 0 -11 3 -10 13 3 13 18 15 18
37 -5 13 -13 20 -18 16 -12 -4 7 -2 14 3 14 6 1 17 2 24 3 6 0 12 7 12 14 0 8
8 19 17 26 10 7 15 16 11 19 -3 4 1 7 11 7 9 0 14 5 11 10 -6 10 7 14 32 11 7
-1 10 4 7 12 -2 7 1 14 8 14 7 0 14 -11 15 -25 0 -14 7 -28 15 -33 10 -7 8 -9
-7 -10 -11 0 -14 -3 -7 -6 6 -2 10 -8 7 -12 -2 -5 -6 -25 -9 -45 -4 -33 -3
-35 15 -26 10 6 18 14 18 18 -1 4 0 10 1 15 1 4 4 12 5 17 1 6 3 11 5 13 2 3
11 40 12 55 1 8 8 7 21 -5 13 -11 17 -12 12 -4 -6 11 -4 13 8 8 10 -3 17 -2
17 4 0 6 5 7 12 3 7 -5 9 -2 6 8 -4 9 0 15 8 15 8 0 14 -5 14 -11 0 -6 5 -4
10 4 9 13 10 13 10 -1 0 -8 -6 -21 -12 -28 -11 -10 -10 -11 3 -6 9 3 16 1 16
-7 1 -38 19 -65 43 -65 9 0 16 9 16 19 0 10 -5 18 -10 18 -5 0 -6 3 -3 7 4 3
1 13 -6 21 -10 13 -9 14 1 8 11 -7 12 -4 3 12 -14 27 -14 35 2 26 7 -5 6 0 -3
11 -12 15 -12 17 -1 10 11 -6 13 -4 7 10 -5 15 -4 16 8 6 8 -7 19 -10 23 -8 5
3 16 -1 26 -8 11 -8 14 -16 8 -19 -6 -4 -8 -13 -4 -21 3 -8 0 -15 -7 -15 -10
0 -10 -3 -1 -14 9 -11 9 -15 -1 -19 -9 -4 -10 -6 -1 -6 8 -1 10 -8 6 -18 -4
-10 -7 -32 -6 -50 0 -18 -3 -33 -6 -33 -4 0 -7 -9 -8 -20 -1 -11 2 -20 6 -20
4 0 7 -11 7 -25 0 -14 -4 -25 -9 -25 -5 0 -5 -6 1 -12 10 -12 12 -19 12 -34 0
-4 6 -1 13 5 8 6 18 7 22 3 5 -4 5 -2 1 5 -3 6 2 16 11 22 13 7 14 10 4 11 -8
0 -12 2 -9 5 3 3 13 3 22 -1 13 -5 14 -9 5 -20 -9 -11 -9 -14 0 -14 7 0 9 -5
5 -12 -5 -8 -2 -9 10 -5 9 4 15 3 12 -2 -3 -5 5 -16 19 -25 22 -15 25 -15 34
2 9 14 10 13 7 -8 -3 -14 -5 -27 -6 -30 -2 -3 -2 -8 -1 -12 0 -4 -6 -5 -14 -2
-8 4 -15 1 -15 -7 0 -7 -3 -9 -7 -6 -3 4 -12 2 -20 -4 -7 -6 -13 -8 -13 -5 0
4 -8 0 -17 -10 -11 -11 -18 -13 -21 -5 -2 6 -9 8 -14 5 -6 -4 -8 -2 -5 4 4 5
4 17 1 26 -11 28 -45 0 -42 -34 1 -17 6 -30 11 -30 4 0 5 -6 1 -12 -4 -7 -4
-10 0 -6 5 4 19 3 32 -2 16 -6 24 -6 24 1 0 6 4 8 9 5 5 -4 12 0 14 6 4 8 6 7
6 -4 1 -11 7 -15 21 -11 11 3 18 9 15 12 -2 4 2 8 10 8 8 0 15 -4 15 -9 0 -4
5 -8 11 -8 5 0 7 6 3 13 -5 9 -4 9 5 1 16 -15 63 5 56 23 -2 7 -1 12 3 12 21
-3 32 3 32 17 0 8 5 12 10 9 10 -6 15 9 10 30 -1 6 4 4 11 -3 15 -14 33 -16
24 -2 -3 6 1 10 10 10 9 0 14 4 11 9 -3 5 2 15 11 22 9 8 14 9 10 3 -4 -7 0
-15 9 -18 17 -6 49 7 49 21 0 4 6 7 13 7 6 -1 12 4 12 12 0 8 7 14 15 14 11 0
14 7 11 24 -3 18 -1 23 10 19 9 -3 14 2 14 16 0 11 9 26 19 33 10 6 17 17 14
24 -2 6 1 15 6 19 6 3 8 11 5 17 -4 6 -2 8 4 4 5 -3 12 -1 14 6 3 7 7 5 11 -6
5 -11 3 -15 -5 -10 -7 5 -9 -1 -6 -20 3 -14 1 -26 -5 -26 -5 0 -4 -7 3 -15 11
-13 10 -14 -6 -8 -16 6 -17 4 -7 -9 7 -8 10 -17 7 -21 -3 -3 3 -3 14 0 12 3
18 11 16 18 -3 7 0 16 5 20 6 3 9 11 6 16 -4 5 -2 9 4 9 6 0 8 7 5 15 -4 8 1
17 10 21 9 3 13 10 10 15 -3 5 1 9 8 9 9 0 9 3 -2 10 -12 8 -12 10 5 11 11 0
14 3 8 6 -10 3 -9 8 2 20 8 8 12 19 9 25 -4 7 -2 8 5 4 13 -8 44 12 37 23 -3
4 5 8 17 8 12 1 17 -1 11 -5 -6 -4 -10 -15 -8 -25 2 -13 -2 -17 -12 -13 -10 4
-13 2 -7 -7 11 -18 13 -38 2 -31 -5 3 -6 10 -3 16 4 7 2 8 -4 4 -6 -4 -9 -13
-5 -21 3 -8 0 -15 -6 -15 -6 0 -11 -5 -11 -11 0 -5 5 -7 10 -4 6 4 5 -5 -2
-19 -6 -14 -15 -26 -19 -26 -5 0 -5 -7 -2 -17 4 -11 3 -14 -5 -9 -7 4 -12 1
-12 -9 0 -9 4 -13 10 -10 6 3 10 0 10 -7 0 -9 3 -9 10 2 5 8 10 11 10 5 0 -5
4 -4 9 4 6 9 16 11 32 5 13 -4 27 -7 30 -6 4 1 12 -12 19 -27 11 -29 23 -33
48 -18 6 5 12 5 12 1 0 -4 7 1 16 12 15 18 15 18 5 -3 -22 -44 -15 -51 42 -46
28 2 54 9 55 14 2 5 8 6 13 3 6 -3 18 1 27 8 25 22 46 33 38 20 -3 -5 -1 -12
5 -14 7 -2 -1 -12 -17 -23 l-29 -18 20 23 c14 16 16 22 5 18 -8 -2 -21 -17
-28 -31 -13 -27 -23 -33 -36 -20 -10 11 -46 11 -39 0 3 -5 0 -13 -7 -17 -9 -6
-7 -11 9 -19 16 -9 21 -9 21 1 0 6 7 3 15 -8 8 -11 15 -14 15 -6 0 6 7 12 16
12 9 0 12 5 8 13 -5 7 0 6 11 -3 10 -8 16 -10 14 -5 -6 10 26 47 34 39 8 -8
57 23 49 31 -4 5 -1 5 6 1 7 -4 12 -2 12 5 0 7 3 9 7 6 3 -4 16 1 27 10 l21
18 -20 -25 c-11 -13 -27 -31 -35 -38 -8 -7 -10 -11 -3 -8 6 4 15 2 18 -4 4 -6
3 -9 -2 -8 -4 1 -18 -3 -29 -10 -12 -6 -25 -8 -29 -4 -3 4 -6 2 -5 -3 6 -26
-2 -41 -22 -42 -11 -1 -25 -8 -29 -15 -7 -10 -9 -10 -9 2 0 9 -3 11 -8 4 -4
-5 -22 -9 -39 -8 -18 0 -33 -3 -33 -7 0 -5 5 -9 11 -9 5 0 8 -4 5 -8 -3 -5 1
-9 9 -9 8 0 11 5 8 11 -4 6 4 2 16 -9 16 -13 21 -15 19 -5 -2 8 5 14 17 15 11
0 26 4 33 9 7 4 16 5 19 2 4 -3 1 -6 -5 -6 -7 0 -12 -4 -12 -9 0 -12 91 -11
107 1 7 5 14 5 18 -2 5 -8 11 -8 21 1 8 6 23 9 34 6 11 -3 18 -1 14 4 -3 5 2
9 10 9 9 0 16 6 16 13 0 8 4 7 10 -3 7 -12 10 -12 10 -1 0 7 6 11 15 8 8 -4
17 -2 20 3 4 7 13 6 25 0 14 -7 23 -6 34 5 18 18 30 20 21 3 -4 -7 0 -5 8 4 8
10 18 14 22 10 5 -4 6 0 2 10 -4 12 0 15 18 13 15 -1 22 2 18 8 -4 6 0 8 10 4
10 -4 17 -1 17 6 0 8 4 6 10 -3 8 -12 10 -12 10 5 0 15 2 17 9 6 7 -11 9 -11
14 0 3 8 6 9 6 2 1 -6 10 -9 20 -6 12 3 17 11 14 19 -4 10 0 12 11 8 11 -4 16
-1 16 11 0 14 3 15 15 5 14 -11 19 -7 16 12 0 4 8 5 18 3 11 -2 22 3 25 11 3
8 13 14 22 14 11 0 14 5 10 16 -4 11 -2 15 8 11 7 -3 23 5 35 19 11 13 18 24
13 24 -4 0 1 5 11 11 9 6 15 14 12 20 -3 5 1 6 10 3 10 -4 15 -2 13 7 -2 8 3
13 10 11 6 -1 12 5 12 14 0 14 3 14 16 4 8 -8 14 -9 13 -4 -3 20 2 34 12 34 7
0 22 12 35 26 13 14 29 22 34 19 9 -6 14 8 11 28 0 4 4 6 11 5 7 -2 12 4 13
12 0 8 8 14 18 14 9 -1 14 2 11 7 -3 5 2 12 10 15 9 3 16 12 16 20 0 8 5 14
11 14 5 0 7 -5 3 -12 -4 -7 -3 -8 4 -4 7 4 12 14 12 22 0 8 7 14 16 14 8 0 13
4 9 9 -3 5 -1 12 5 16 5 3 10 15 10 27 0 14 5 18 16 14 8 -3 12 -2 9 4 -3 6 1
13 9 16 9 3 13 11 9 18 -4 6 2 4 12 -4 11 -9 16 -10 11 -2 -9 14 3 16 24 2 11
-7 11 -10 2 -10 -7 0 -11 -4 -7 -9 3 -5 0 -13 -6 -17 -8 -5 -9 -3 -4 6 5 9 4
11 -3 6 -7 -4 -12 -14 -12 -22 0 -9 5 -12 12 -8 7 4 8 3 4 -4 -4 -6 -13 -9
-20 -6 -9 3 -17 -3 -21 -15 -3 -12 -10 -19 -15 -16 -5 3 -12 0 -16 -6 -4 -8
-3 -9 4 -5 7 4 12 3 12 -3 0 -5 -8 -14 -17 -20 -15 -8 -15 -11 -3 -28 14 -16
13 -17 -2 -5 -14 11 -17 10 -23 -8 -4 -11 -11 -17 -17 -14 -6 4 -8 2 -5 -3 4
-6 -2 -22 -13 -36 -22 -28 -26 -42 -8 -31 7 4 8 3 4 -5 -6 -9 -11 -9 -24 1
-13 11 -15 10 -9 -5 9 -25 -48 -60 -75 -46 -13 7 -18 6 -18 -3 0 -29 22 -41
47 -25 6 4 13 2 15 -4 3 -8 9 -7 19 3 8 8 21 12 29 10 12 -4 13 -3 2 10 -10
13 -9 15 13 10 14 -2 26 0 26 7 4 32 6 36 16 34 7 -2 15 6 18 17 4 11 11 20
17 20 6 0 9 3 6 6 -4 3 3 15 14 26 11 11 17 26 14 33 -3 8 0 17 6 21 7 4 8 3
4 -4 -4 -7 -2 -12 3 -12 6 0 11 6 11 14 0 8 7 16 15 20 8 3 15 9 14 13 -3 20
2 24 16 13 8 -7 12 -16 9 -21 -6 -10 26 -12 50 -3 9 3 13 11 9 17 -4 6 0 8 10
4 9 -3 16 -3 16 1 -3 18 2 32 12 32 6 0 18 7 26 16 14 13 14 17 2 26 -11 8
-10 9 4 4 12 -4 20 0 23 12 13 40 15 47 14 51 -1 2 4 7 10 11 7 4 13 19 13 33
1 14 4 25 7 24 3 -1 6 2 7 7 0 5 8 13 17 18 8 5 13 15 10 23 -4 8 -1 15 6 15
6 0 8 4 5 10 -3 5 -2 10 4 10 6 0 7 7 4 17 -4 11 -3 14 5 9 13 -8 43 5 45 20
1 5 5 8 10 6 4 -1 7 5 7 14 0 10 6 14 15 10 8 -3 14 -2 14 2 -3 21 2 32 13 26
8 -5 9 -2 5 10 -4 10 -3 15 3 11 6 -3 10 -1 10 4 0 6 6 11 14 11 16 0 29 27
21 41 -4 5 2 6 11 2 10 -3 15 -2 12 3 -7 12 38 55 48 46 4 -4 4 -2 1 5 -4 6
-1 18 7 26 8 8 12 18 8 22 -4 3 0 12 9 18 16 12 19 18 19 38 0 5 4 8 9 5 4 -3
7 7 5 22 -1 14 1 31 5 37 11 13 10 45 -1 45 -5 0 -6 5 -3 11 11 17 -23 47 -49
42 -19 -4 -22 -10 -19 -31 2 -15 4 -35 4 -45 0 -9 5 -15 11 -11 6 4 5 -2 -2
-16 -6 -12 -9 -28 -6 -36 3 -9 1 -12 -4 -9 -6 3 -10 0 -10 -7 0 -8 -15 -34
-32 -58 -18 -24 -28 -41 -21 -37 6 4 15 3 18 -3 4 -6 1 -9 -7 -8 -7 2 -12 -3
-10 -11 3 -12 1 -12 -14 0 -16 12 -17 12 -11 -3 3 -10 1 -20 -5 -24 -7 -4 -8
-3 -4 4 4 7 3 12 -3 12 -5 0 -11 -5 -13 -12 -3 -8 -6 -7 -10 3 -4 10 6 28 23
47 19 20 24 32 16 35 -9 4 -9 6 0 6 7 1 10 8 7 16 -4 8 -11 12 -18 8 -7 -4 -7
-1 1 9 7 8 10 18 6 21 -3 4 2 7 13 7 16 0 16 2 4 10 -12 8 -12 10 3 16 9 3 15
10 12 15 -6 9 14 49 29 60 5 4 6 11 2 17 -3 6 -2 13 4 17 6 4 8 10 5 15 -3 5
2 16 11 24 8 9 12 16 8 16 -3 0 0 8 7 17 12 14 12 16 -1 9 -9 -4 -8 -2 2 7 10
8 15 17 11 20 -3 4 0 7 8 7 10 0 11 2 2 8 -8 5 -4 14 12 28 13 12 27 19 30 16
3 -4 3 2 -1 12 -5 14 -4 17 4 12 8 -5 12 1 12 15 0 22 0 22 15 3 14 -18 14
-18 10 4 -4 20 -2 22 11 11 12 -10 13 -9 9 3 -3 8 1 21 9 28 9 7 13 16 10 21
-3 5 2 6 11 2 13 -4 14 -7 3 -14 -11 -7 -10 -10 1 -21 12 -11 13 -10 6 2 -5 8
-4 11 0 7 14 -12 15 -37 2 -37 -7 0 -5 -5 3 -10 8 -5 11 -10 5 -10 -5 0 -4 -4
4 -9 11 -7 12 -13 3 -23 -9 -11 -9 -18 1 -28 7 -8 7 -10 1 -7 -7 4 -11 -3 -11
-18 0 -14 3 -23 7 -20 3 2 7 -2 7 -10 0 -8 -5 -12 -10 -8 -5 3 -4 -5 3 -17 6
-12 14 -19 17 -16 3 3 14 -4 25 -16 13 -16 28 -21 52 -20 26 2 35 -2 39 -17 3
-12 0 -19 -6 -18 -6 1 -12 -11 -13 -26 -2 -16 -8 -35 -14 -42 -6 -7 -10 -22
-8 -32 2 -10 -2 -17 -8 -16 -7 1 -14 -7 -17 -17 -3 -13 0 -20 10 -20 8 0 11 5
7 11 -4 8 0 8 15 0 17 -10 20 -9 15 4 -6 14 6 20 30 16 5 -1 6 5 3 14 -4 8 -1
15 4 15 6 0 9 9 6 20 -3 11 0 23 5 27 7 4 8 1 3 -7 -6 -9 -4 -11 4 -6 7 5 10
14 7 22 -3 7 -1 16 5 19 5 4 7 11 4 16 -4 5 -1 9 5 9 6 0 8 5 5 10 -3 6 0 10
7 10 10 0 10 2 -1 9 -9 6 -10 11 -2 15 6 4 9 12 6 17 -4 5 -1 9 5 9 6 0 8 5 5
10 -4 6 -2 16 3 23 5 7 8 20 7 30 -2 9 1 17 6 17 6 0 8 4 4 9 -9 15 12 22 23
8 7 -8 7 -18 2 -27 -8 -13 -10 -13 -10 -1 0 8 -3 12 -6 8 -9 -9 29 -54 42 -50
16 5 8 124 -8 135 -10 6 -10 8 2 8 9 0 11 3 5 8 -12 8 -13 32 -2 49 5 8 3 13
-4 13 -7 0 -2 9 11 20 15 13 18 20 9 20 -8 0 -10 3 -4 8 16 12 41 47 28 38 -9
-5 -11 -2 -7 8 3 9 14 16 23 16 14 0 14 2 1 10 -12 8 -12 10 -1 10 8 0 11 3 8
6 -3 4 -2 15 3 25 7 13 5 22 -8 35 -16 17 -17 17 -21 -1 -2 -15 -5 -15 -13 -4
-7 11 -9 9 -5 -7 2 -12 -1 -21 -8 -21 -10 0 -11 7 -5 23 5 12 6 25 2 30 -4 4
-1 4 7 -1 9 -5 12 -3 9 6 -3 8 4 25 16 39 14 17 15 20 3 11 -15 -12 -17 -12
-11 3 3 9 10 16 15 16 5 0 18 9 29 20 12 12 26 18 33 13 7 -4 7 0 -2 10 -11
14 -11 17 0 18 8 1 18 1 22 0 5 -1 6 3 2 9 -3 6 -11 7 -17 4 -7 -4 -8 -2 -4 4
4 7 16 12 27 12 11 0 17 -4 14 -10 -3 -5 -1 -10 4 -10 6 0 10 -3 10 -7 -3 -20
2 -33 13 -31 7 2 13 -3 14 -9 1 -7 2 -18 3 -24 0 -5 5 -7 11 -4 6 3 7 -1 4 -9
-4 -10 -1 -16 9 -16 10 0 13 -7 10 -20 -3 -13 0 -20 8 -20 11 0 11 -2 -1 -10
-8 -5 -11 -10 -6 -10 5 0 3 -6 -3 -14 -9 -11 -10 -20 -1 -35 8 -16 8 -21 -2
-22 -7 0 -4 -4 7 -9 l20 -9 -20 -1 -20 -1 20 -12 c11 -6 27 -12 35 -12 8 0 22
-4 30 -9 10 -6 9 -2 -3 11 -11 13 -14 23 -8 27 14 9 24 -13 23 -51 -1 -19 3
-31 7 -28 5 3 7 -4 4 -15 -4 -14 1 -22 18 -29 27 -9 52 -4 43 10 -3 5 0 9 7 9
7 0 10 3 7 6 -4 3 3 15 14 26 16 16 18 22 7 29 -11 7 -10 9 3 9 9 0 20 5 24
12 5 7 3 8 -6 3 -9 -5 -11 -4 -6 4 5 8 12 9 20 2 8 -7 12 -4 13 12 1 12 7 23
13 25 5 2 10 8 10 13 0 6 -5 7 -10 4 -7 -4 -9 3 -6 19 3 14 0 28 -5 32 -14 8
0 24 16 18 8 -4 12 -10 9 -15 -3 -5 0 -9 6 -9 7 0 10 -6 7 -12 -2 -7 0 -21 5
-30 6 -12 5 -18 -3 -18 -8 0 -6 -7 4 -18 13 -14 14 -21 5 -30 -9 -9 -9 -12 0
-12 6 0 9 -6 6 -13 -2 -7 2 -21 10 -32 12 -16 17 -18 27 -7 10 10 10 12 0 12
-7 0 -9 5 -6 10 4 6 9 8 13 6 9 -5 32 20 25 28 -4 3 -1 6 5 6 7 0 12 -12 12
-26 0 -14 -4 -22 -10 -19 -6 3 -7 -1 -4 -9 3 -9 11 -13 18 -9 6 4 4 -1 -4 -11
-14 -17 -20 -39 -23 -81 -1 -11 -8 -24 -15 -28 -7 -5 -10 -13 -6 -18 3 -5 2
-9 -3 -8 -4 1 -11 0 -15 -1 -5 -1 -14 -3 -20 -4 -22 -2 -20 -32 2 -33 11 -1
18 2 15 8 -4 5 2 9 12 9 10 0 26 7 36 14 21 16 68 106 61 118 -3 4 0 8 6 8 6
0 8 4 5 10 -3 5 -3 10 2 10 4 0 8 28 7 63 0 34 4 68 9 75 6 8 5 12 -2 12 -7 0
-9 5 -6 11 11 17 13 59 2 59 -5 0 -4 7 3 15 10 12 10 15 0 15 -10 0 -10 3 0
15 9 11 10 15 1 15 -8 0 -10 8 -6 20 4 12 1 28 -7 37 -9 12 -9 15 0 9 8 -5 12
0 12 14 0 13 -4 19 -12 14 -7 -5 -8 -3 -2 7 12 19 12 52 -1 61 -6 5 -5 8 3 8
18 0 6 62 -17 81 -11 9 -21 29 -23 45 -1 16 -7 32 -13 36 -6 5 -5 8 4 8 11 0
11 3 1 15 -10 12 -10 15 1 15 10 0 10 3 3 8 -14 8 -15 60 -3 68 5 3 4 14 -1
25 -8 15 -7 21 4 25 12 5 13 10 5 26 -8 15 -8 19 1 13 7 -4 11 -1 9 6 -3 24 1
40 9 36 4 -3 13 1 20 9 8 9 9 14 2 14 -7 0 -8 6 -1 19 6 10 7 21 3 25 -3 4 1
4 10 1 9 -4 14 -13 11 -21 -3 -8 0 -14 6 -14 6 0 11 -9 11 -20 0 -11 5 -20 11
-20 8 0 8 -5 -1 -15 -10 -12 -10 -15 0 -15 7 0 10 -7 6 -16 -8 -21 1 -34 20
-27 12 4 12 8 2 21 -8 10 -8 13 -2 9 7 -4 14 0 18 8 3 8 1 15 -5 15 -6 0 -9
18 -7 42 2 29 -2 47 -12 56 -8 8 -9 11 -2 7 14 -7 17 11 2 20 -7 4 -7 13 0 24
6 12 5 22 -3 31 -10 10 -9 12 5 7 9 -3 19 0 22 9 4 10 2 13 -7 8 -9 -5 -9 -4
1 7 14 15 16 43 3 34 -6 -3 -9 4 -8 15 1 11 4 20 7 20 3 0 6 10 7 22 1 11 7
24 14 28 6 4 8 13 5 19 -4 6 -2 11 4 11 6 0 9 4 5 9 -3 5 -1 12 5 16 5 3 10 1
10 -5 0 -6 5 -8 12 -4 7 5 9 2 5 -9 -3 -9 -1 -18 6 -21 7 -2 3 -5 -8 -5 -16
-1 -17 -3 -5 -10 8 -6 18 -7 22 -5 4 3 8 0 8 -5 0 -6 -7 -11 -16 -11 -13 0
-14 -3 -5 -13 6 -8 8 -17 4 -20 -3 -4 -1 -7 6 -7 20 0 47 -35 51 -68 1 -4 11
-12 23 -19 12 -6 21 -15 20 -20 -2 -4 0 -8 5 -8 4 0 13 -4 20 -8 8 -5 12 -3
12 8 0 9 4 14 9 11 5 -4 11 -1 13 6 3 8 7 6 11 -5 3 -9 2 -17 -4 -17 -6 0 -6
-6 -1 -17 5 -10 7 -23 5 -30 -2 -6 0 -14 6 -17 6 -4 8 -13 4 -21 -3 -9 1 -15
11 -15 9 0 16 -6 16 -14 0 -17 46 -67 54 -59 3 4 12 -2 20 -12 9 -12 15 -14
20 -7 12 20 15 52 5 52 -12 0 -49 37 -49 50 0 6 -5 10 -11 10 -5 0 -8 4 -4 9
3 5 1 12 -5 16 -6 4 -8 11 -5 16 4 5 3 15 -2 21 -11 18 -13 40 -5 52 9 15 10
46 1 40 -6 -3 -5 19 1 36 1 3 2 8 1 13 0 4 3 7 9 7 6 0 6 9 0 26 -6 14 -6 23
-1 20 5 -3 11 1 15 9 3 8 0 15 -7 15 -8 0 -6 4 3 10 8 5 11 10 6 10 -4 0 -1
12 9 26 11 18 12 24 4 18 -12 -7 -12 -5 -1 9 8 9 10 22 6 29 -6 11 -5 11 8 0
14 -12 15 -9 8 23 -6 29 -5 35 5 31 9 -3 12 2 10 15 -2 10 0 19 5 19 5 0 7 7
4 15 -4 9 1 18 11 21 11 5 13 9 5 14 -8 5 -7 11 4 22 8 9 12 19 8 22 -3 4 1 4
11 0 22 -8 76 45 57 56 -9 6 -9 13 -1 26 10 18 10 18 11 1 0 -10 4 -16 9 -13
12 8 9 -27 -3 -36 -6 -4 -4 -14 5 -24 12 -16 12 -17 -1 -9 -13 8 -13 7 -1 -8
9 -12 10 -17 2 -17 -7 0 -9 -5 -6 -10 3 -6 1 -10 -5 -10 -6 0 -9 -4 -5 -9 3
-5 -5 -17 -17 -25 -12 -9 -19 -16 -15 -16 5 0 1 -7 -7 -16 -20 -20 -20 -28 1
-45 10 -8 14 -9 10 -2 -4 6 -3 14 3 18 6 4 8 11 5 16 -4 5 1 12 10 15 13 6 14
8 3 15 -10 7 -9 9 5 9 9 0 17 5 17 10 0 6 7 10 15 10 13 0 17 12 14 36 0 4 5
11 13 15 10 7 10 9 -2 9 -13 0 -13 2 0 10 9 5 13 22 12 45 -2 28 0 35 10 29
10 -6 10 -4 2 7 -8 12 -12 68 -4 77 1 1 3 5 4 10 1 4 5 13 9 19 6 9 3 11 -7 7
-11 -4 -14 0 -11 15 2 12 0 21 -5 21 -4 0 -4 15 0 34 4 18 3 41 -2 50 -7 12
-5 16 9 16 17 1 17 1 0 11 -9 6 -15 15 -11 20 11 19 11 74 0 88 -8 11 -8 13 2
7 6 -4 12 -2 12 3 0 6 -7 11 -15 11 -8 0 -15 4 -15 10 0 5 -7 7 -15 4 -8 -4
-12 -10 -9 -15 3 -5 -2 -6 -10 -3 -17 7 -22 -11 -6 -21 6 -3 10 -12 9 -18 0
-9 -2 -8 -6 1 -2 6 -8 10 -12 8 -12 -8 -12 56 0 70 9 11 9 14 0 14 -9 0 -9 5
-1 20 6 11 7 20 3 20 -4 0 0 5 10 11 14 8 16 14 6 25 -9 11 -9 14 1 14 6 0 10
6 7 13 -2 6 3 18 12 25 11 9 11 11 2 6 -9 -4 -6 6 8 24 12 18 19 32 15 32 -4
0 1 7 12 16 10 8 14 13 7 10 -7 -4 -9 1 -6 14 3 11 10 20 15 20 5 0 6 -5 2
-12 -4 -7 -3 -8 4 -4 9 5 9 12 0 25 -10 16 -13 17 -26 5 -7 -8 -17 -12 -22 -9
-4 3 -14 -3 -21 -13 -13 -16 -13 -16 6 -2 18 14 19 14 7 -2 -8 -10 -10 -23 -6
-30 5 -8 1 -8 -11 2 -10 8 -16 10 -12 4 4 -6 -1 -19 -11 -27 -17 -15 -18 -14
-17 13 0 18 5 30 13 30 8 0 12 5 10 11 -5 15 42 69 60 69 7 0 10 5 7 10 -3 6
-2 10 2 10 5 0 18 7 29 16 10 8 12 12 4 8 -13 -7 -13 -5 -1 9 7 9 17 14 22 11
5 -3 8 0 7 8 -2 7 2 12 9 11 7 -2 10 3 7 11 -3 8 0 17 7 22 8 5 10 3 5 -7 -4
-8 -1 -5 8 5 8 10 13 22 11 27 -3 4 3 5 14 2 10 -3 22 0 25 6 4 6 12 11 19 11
6 0 2 -7 -9 -16 -19 -15 -19 -16 1 -10 17 5 16 3 -5 -15 -14 -11 -18 -18 -10
-14 13 6 13 5 0 -7 -17 -15 -19 -27 -6 -47 6 -10 5 -12 -2 -7 -8 5 -12 -2 -13
-21 0 -15 -3 -22 -6 -15 -7 19 -23 4 -23 -24 0 -29 14 -31 33 -4 8 11 18 17
23 12 4 -4 3 0 -4 10 -10 12 -10 18 -1 24 8 5 10 3 4 -7 -4 -8 1 -5 12 6 15
14 18 24 10 33 -7 9 -6 11 8 6 15 -6 16 -4 5 16 -8 15 -8 20 -1 16 6 -4 12 -2
12 3 1 6 2 17 3 24 1 6 7 11 14 10 6 -2 9 4 6 12 -4 8 -10 12 -16 9 -5 -3 -4
3 4 15 7 12 16 21 20 21 5 0 8 6 8 14 0 8 6 17 13 19 9 4 8 8 -3 16 -8 6 -10
11 -5 11 6 0 11 9 12 20 1 13 -2 18 -10 14 -9 -5 -9 -4 0 6 6 7 9 19 6 28 -5
11 -3 13 8 7 11 -7 11 -5 -1 10 -14 17 -13 18 4 12 14 -6 16 -4 9 5 -13 16
-13 48 0 48 5 0 7 7 3 15 -3 8 0 15 7 15 8 0 6 4 -3 10 -12 7 -12 10 -1 10 7
0 11 6 8 14 -3 7 0 19 6 26 9 10 9 11 -1 5 -12 -6 -12 -3 -2 15 10 18 9 24 -1
31 -8 5 -9 9 -4 9 6 0 16 9 23 21 10 16 10 19 1 13 -8 -5 -11 -2 -6 8 3 9 0
21 -6 28 -9 10 -9 11 3 5 13 -8 13 -7 1 8 -7 9 -10 17 -5 17 4 0 -1 7 -12 15
-13 10 -14 14 -5 15 10 0 11 3 2 13 -6 8 -8 17 -4 20 3 4 0 7 -9 7 -11 0 -13
9 -11 32 3 25 2 30 -6 18 -10 -13 -11 -13 -12 0 -1 8 -1 18 0 22 0 5 -3 8 -9
8 -5 0 -10 7 -10 15 0 8 -5 15 -12 15 -6 0 -8 3 -5 7 4 3 0 17 -8 29 -9 14
-11 25 -5 29 7 4 6 13 0 26 -7 12 -7 19 -1 19 5 0 10 8 10 18 1 40 5 52 15 52
6 0 4 5 -4 10 -11 7 -11 10 -2 10 7 0 10 5 7 10 -3 6 -1 10 5 10 8 0 8 6 0 20
-9 16 -8 19 6 13 12 -4 15 -3 10 6 -6 9 -2 12 14 9 18 -2 24 2 25 22 1 14 -3
28 -9 32 -8 6 -7 8 1 8 7 0 10 6 7 14 -3 7 3 17 13 20 17 7 17 8 -1 21 -17 13
-17 15 -3 21 9 3 14 10 11 15 -3 5 -11 7 -17 3 -7 -3 -5 0 3 8 9 7 15 20 15
28 -1 8 3 20 8 27 5 7 6 17 3 22 -4 5 -1 13 5 16 5 4 8 13 5 21 -3 8 0 14 7
14 8 0 6 4 -3 10 -10 6 -11 10 -2 10 6 0 12 5 12 11 0 5 -6 7 -12 3 -10 -6
-10 -5 -1 7 6 8 14 27 17 42 2 15 12 34 20 43 9 8 16 20 16 25 0 18 3 24 19
36 12 9 12 12 3 13 -8 0 -12 6 -9 13 2 6 0 20 -5 30 -6 12 -5 17 4 17 9 0 9 3
-2 10 -9 6 -11 10 -3 10 7 0 10 6 7 14 -3 8 0 17 5 21 6 3 8 11 5 17 -5 7 -1
9 8 5 12 -4 15 0 13 19 -1 13 2 27 7 30 4 3 6 9 3 14 -3 4 2 11 10 14 13 4 14
10 5 26 -7 14 -7 20 0 20 6 0 8 11 6 25 -3 14 -1 25 3 25 4 0 8 7 8 15 0 8 -5
15 -11 15 -6 0 -5 4 3 9 9 6 14 24 13 45 -1 26 3 36 14 36 9 0 14 -7 12 -17
-1 -10 1 -23 5 -30 4 -6 0 -19 -9 -27 -14 -15 -14 -17 1 -22 13 -6 14 -8 3
-15 -7 -5 -8 -9 -3 -9 6 0 11 -27 11 -60 1 -33 -2 -60 -7 -60 -5 0 -4 -9 3
-19 7 -11 17 -17 23 -13 5 3 4 -2 -4 -11 -12 -15 -11 -17 14 -17 24 0 27 3 23
25 -3 14 -1 25 6 25 7 0 7 3 1 8 -16 11 -19 45 -3 37 10 -6 10 -5 1 5 -8 9 -9
19 -3 31 7 12 6 20 0 24 -13 8 -10 94 2 101 5 3 5 11 0 17 -13 16 -12 67 0 67
6 0 6 6 -1 14 -9 10 -9 16 -1 21 8 5 7 11 -2 23 -11 13 -11 14 2 7 12 -7 13
-6 3 7 -7 8 -11 17 -8 19 8 9 12 79 4 79 -5 0 -9 7 -9 16 0 9 5 12 13 8 9 -6
9 -5 1 7 -7 8 -13 34 -14 59 -1 25 -2 57 -3 73 -1 15 -4 27 -8 27 -4 0 -5 10
-1 22 4 16 2 19 -8 13 -9 -6 -11 -4 -5 6 21 32 26 191 9 225 -7 13 -9 22 -4
19 6 -4 10 -1 10 4 0 6 -8 11 -17 12 -11 0 -13 3 -6 6 10 3 9 8 -2 20 -8 8
-13 19 -10 24 4 5 2 9 -3 9 -9 0 -26 55 -23 73 0 4 -3 7 -8 7 -10 0 -27 39
-23 53 1 4 -3 7 -9 7 -5 0 -7 5 -4 10 3 6 1 10 -5 10 -7 0 -10 7 -6 15 3 8 1
15 -4 15 -6 0 -10 7 -10 15 0 8 -6 15 -12 15 -9 0 -8 4 2 10 11 7 11 10 2 10
-7 0 -10 5 -7 10 3 6 1 10 -5 10 -7 0 -10 7 -6 15 3 8 1 15 -4 15 -5 0 -9 8
-9 18 0 9 -2 31 -4 47 -4 33 11 86 27 97 14 9 35 -22 36 -54 0 -15 5 -30 10
-33 6 -4 8 -10 5 -15 -3 -5 1 -14 8 -22 8 -7 13 -21 11 -31 -1 -9 2 -17 7 -17
6 0 8 -4 4 -9 -3 -5 0 -13 6 -16 5 -4 8 -13 5 -21 -6 -15 22 -7 42 12 9 10 9
16 -4 28 -12 12 -12 16 -2 16 10 0 9 3 -2 10 -8 5 -11 10 -6 10 5 0 3 6 -3 14
-6 8 -13 28 -14 45 -1 17 -6 31 -12 31 -5 0 -3 5 5 10 13 8 13 10 -1 10 -16 0
-19 26 -5 48 4 6 2 12 -3 12 -7 0 -10 17 -8 40 2 22 -1 40 -5 40 -5 0 -6 5 -3
10 4 6 1 18 -7 27 -10 13 -10 15 0 9 10 -6 12 5 9 46 -3 43 0 57 16 72 19 18
20 18 13 1 -4 -11 -2 -22 6 -27 10 -6 10 -10 -2 -18 -13 -9 -13 -11 0 -20 26
-17 27 -16 31 38 1 9 6 23 12 30 6 8 6 12 -2 12 -7 0 -9 5 -4 13 10 16 11 117
0 117 -4 0 -5 6 0 13 12 19 12 38 1 30 -7 -4 -9 2 -6 15 4 12 3 22 -1 22 -4 0
-7 16 -6 35 1 20 -3 35 -9 35 -6 0 -5 4 2 9 11 7 11 9 -2 14 -9 4 -13 13 -10
22 3 8 1 15 -5 15 -7 0 -7 8 -1 26 7 16 7 23 0 19 -10 -6 -11 0 -14 60 0 17
-7 35 -15 41 -10 8 -11 13 -2 18 6 4 8 13 4 19 -16 26 -22 99 -9 116 8 11 8
13 0 8 -8 -4 -11 2 -10 18 1 19 4 22 11 13 6 -7 15 -14 22 -15 14 -3 7 100 -8
129 -5 9 -9 31 -9 48 0 17 -4 29 -9 26 -5 -3 -9 4 -9 17 -2 55 -8 106 -14 112
-3 4 -3 19 2 35 5 18 4 32 -3 40 -9 10 -9 11 2 5 10 -6 12 -4 5 6 -5 8 -9 26
-10 42 -1 31 -6 38 -28 41 -9 1 -16 6 -15 11 0 4 -4 11 -9 14 -6 3 -12 20 -13
36 -2 17 -8 33 -14 37 -7 5 -6 8 1 8 12 0 12 29 0 48 -4 7 -2 12 6 12 8 0 9 3
3 8 -14 10 -18 75 -4 67 6 -4 5 2 -3 14 -10 17 -10 25 -1 41 9 13 9 21 2 25
-7 5 -7 11 0 19 16 19 8 69 -14 89 -18 17 -20 17 -23 3 -2 -9 -8 -13 -14 -9
-7 4 -9 0 -5 -10 3 -10 2 -17 -3 -17 -6 0 -10 7 -10 15 0 8 -5 15 -10 15 -7 0
-7 6 0 20 8 15 8 20 -1 20 -9 0 -9 3 0 14 9 10 9 16 1 21 -6 4 -9 13 -6 20 3
8 0 16 -7 19 -9 3 -9 5 0 5 7 1 10 8 7 16 -4 8 -10 13 -14 10 -5 -3 -5 8 0 25
5 19 5 32 -2 36 -6 4 -5 10 3 15 8 5 9 9 3 9 -6 0 -11 6 -12 13 -1 6 -3 37 -5
68 -2 31 -8 62 -12 69 -6 9 -4 11 6 5 11 -7 12 -6 2 7 -7 8 -13 37 -12 64 2
198 -2 314 -11 314 -7 0 -4 131 3 150 4 8 8 27 11 42 3 15 8 33 12 39 5 8 3 9
-6 4 -9 -6 -12 -4 -8 7 4 8 3 21 -2 28 -4 7 -4 26 0 41 6 19 5 29 -2 29 -6 0
-6 6 2 15 10 12 9 16 -4 21 -11 4 -15 13 -11 25 4 11 2 19 -4 19 -6 0 -11 7
-11 15 0 9 -7 18 -15 21 -8 4 -15 13 -15 20 0 11 -5 12 -18 6 -19 -10 -45 -5
-37 7 7 12 -49 8 -57 -4 -5 -6 -8 -5 -8 3 0 10 -5 10 -20 2 -14 -8 -20 -8 -20
0 0 7 -6 8 -19 1 -16 -9 -22 -21 -36 -73 -2 -5 -4 -9 -5 -10 -1 -2 -4 -23 -6
-48 -8 -97 -10 -116 -17 -127 -4 -6 0 -19 9 -27 11 -12 12 -16 2 -16 -10 0 -9
-3 2 -10 12 -8 12 -10 1 -10 -9 0 -6 -7 10 -20 19 -17 21 -24 12 -39 -7 -11
-8 -23 -3 -32 6 -9 2 -21 -12 -36 -13 -14 -17 -23 -9 -23 8 0 11 -6 7 -15 -3
-8 -9 -23 -12 -32 -5 -15 -4 -16 6 -3 9 12 11 9 7 -17 -2 -18 0 -33 4 -33 5 0
6 -18 4 -40 -2 -22 0 -40 5 -40 5 0 5 -13 0 -30 -6 -21 -5 -30 3 -30 7 0 6 -4
-3 -10 -10 -7 -11 -10 -2 -10 12 0 11 -38 -2 -59 -4 -5 -2 -12 4 -16 8 -5 8
-36 0 -70 -1 -5 -1 -12 0 -15 7 -20 7 -40 -1 -40 -6 0 -7 -6 -2 -12 13 -21 13
-42 0 -50 -9 -6 -9 -8 0 -8 6 0 10 -13 9 -31 -1 -16 1 -32 4 -34 4 -2 6 -14 5
-27 -1 -13 2 -31 7 -40 6 -12 5 -18 -3 -18 -8 0 -8 -4 -1 -13 6 -7 10 -58 10
-118 0 -59 2 -112 6 -118 4 -6 3 -11 -2 -11 -5 0 -9 -31 -8 -69 1 -38 0 -68
-4 -66 -7 5 -5 -83 3 -91 3 -4 3 -14 -2 -23 -4 -9 -7 -38 -7 -64 1 -27 -2 -51
-7 -54 -5 -3 -3 -9 4 -14 8 -5 10 -9 4 -9 -5 0 -10 -20 -9 -45 0 -25 -3 -45
-8 -45 -5 0 -6 -6 -1 -12 10 -18 13 -38 4 -38 -4 0 -8 -6 -9 -12 -6 -67 -11
-99 -17 -108 -3 -5 -1 -10 5 -10 6 0 8 -5 3 -12 -4 -7 -8 -22 -9 -33 -6 -79
-8 -101 -13 -110 -10 -18 -8 -45 3 -45 7 0 8 -3 1 -8 -6 -4 -12 -20 -14 -37
-1 -16 -8 -33 -15 -37 -6 -4 -7 -8 -2 -8 6 0 5 -5 -1 -11 -6 -6 -9 -18 -6 -25
3 -8 0 -14 -7 -14 -6 0 -9 -4 -5 -9 3 -5 0 -13 -6 -16 -5 -4 -8 -13 -5 -21 3
-8 -1 -17 -8 -20 -8 -3 -12 -14 -9 -25 3 -10 0 -19 -6 -19 -6 0 -11 -11 -11
-25 0 -14 -5 -25 -11 -25 -5 0 -8 -4 -4 -9 3 -5 -2 -17 -11 -25 -10 -10 -11
-16 -3 -16 9 0 9 -3 -1 -15 -6 -8 -9 -19 -5 -25 3 -5 1 -10 -4 -10 -12 0 -48
-79 -43 -93 1 -5 -2 -6 -7 -3 -5 3 -15 -9 -22 -27 -7 -17 -21 -41 -31 -51 -9
-10 -15 -23 -12 -28 3 -4 -2 -11 -10 -14 -9 -3 -14 -10 -11 -14 3 -5 -1 -14
-8 -22 -7 -7 -22 -33 -34 -58 -12 -25 -43 -75 -71 -111 -41 -56 -54 -80 -67
-129 -8 -30 -18 -50 -26 -50 -6 0 -7 -4 -4 -10 3 -5 2 -10 -3 -10 -5 0 -12 -8
-14 -17 -8 -31 -11 -38 -22 -50 -29 -32 -36 -43 -36 -51 0 -13 -52 -67 -62
-64 -4 1 -8 -2 -8 -8 0 -5 -11 -10 -25 -10 -25 0 -27 -3 -28 -37 -1 -10 -10
-24 -20 -32 -10 -7 -16 -20 -13 -28 3 -8 1 -11 -4 -8 -6 3 -10 2 -10 -3 0 -5
-6 -9 -12 -10 -7 0 -22 -3 -33 -6 -11 -2 -24 -5 -28 -5 -4 -1 -3 -9 2 -19 7
-14 6 -25 -6 -42 -12 -18 -13 -21 -2 -15 11 7 11 5 -1 -11 -8 -10 -21 -25 -27
-32 -7 -7 -13 -19 -13 -25 0 -7 -4 -6 -10 3 -5 8 -10 10 -10 3 0 -6 -9 -9 -22
-5 -14 3 -19 2 -14 -6 4 -7 4 -18 0 -24 -5 -7 -9 -28 -11 -46 -1 -18 -7 -41
-12 -51 -11 -20 -51 -35 -51 -20 0 12 -33 7 -42 -6 -4 -5 -2 -13 5 -17 8 -5 6
-8 -5 -8 -10 0 -18 5 -18 11 0 6 -6 9 -14 6 -8 -3 -17 -1 -19 6 -2 7 -12 2
-25 -13 -24 -28 -28 -45 -9 -34 6 4 1 -5 -12 -19 -14 -15 -30 -27 -36 -27 -7
0 -11 -13 -10 -30 1 -20 -3 -30 -13 -30 -12 0 -12 -3 -2 -15 10 -12 9 -15 -6
-15 -12 0 -15 -3 -8 -8 12 -7 14 -83 3 -76 -4 2 -10 -3 -13 -12 -3 -8 -2 -13
2 -10 5 3 9 -1 9 -9 0 -8 -4 -12 -8 -9 -4 2 -10 0 -14 -6 -3 -5 -1 -10 6 -10
8 0 7 -5 -2 -17 -9 -11 -10 -14 -2 -9 9 5 11 2 7 -8 -3 -9 -11 -13 -17 -9 -6
4 -7 1 -1 -8 13 -21 14 -40 2 -32 -7 4 -9 -2 -6 -15 4 -12 2 -20 -3 -16 -5 3
-9 -2 -9 -10 0 -8 -5 -18 -12 -22 -7 -5 -8 -3 -3 6 5 9 4 11 -3 6 -7 -4 -12
-14 -12 -22 0 -8 -5 -14 -11 -14 -8 0 -7 -6 2 -17 8 -10 9 -14 2 -10 -6 4 -14
3 -18 -3 -3 -5 0 -10 7 -10 10 0 10 -2 1 -8 -7 -5 -11 -23 -9 -44 3 -27 0 -35
-10 -31 -9 3 -12 -3 -8 -22 4 -21 0 -28 -16 -32 -11 -3 -20 -12 -20 -20 0 -8
-4 -11 -10 -8 -5 3 -7 0 -4 -8 3 -8 -2 -20 -11 -27 -14 -12 -16 -10 -10 13 6
23 -3 35 -18 25 -2 -2 -11 3 -20 11 -11 9 -17 10 -17 2 0 -6 -7 -11 -16 -11
-10 0 -14 6 -11 14 3 7 0 19 -6 26 -9 9 -9 11 -1 7 14 -8 27 20 14 28 -11 7
-10 46 2 62 6 7 4 14 -3 19 -8 5 -9 3 -4 -6 6 -9 4 -11 -4 -5 -9 5 -10 10 -2
18 13 13 15 31 2 23 -4 -3 -7 6 -5 19 2 14 6 36 8 50 2 14 -2 25 -8 25 -7 0
-7 3 -1 8 14 10 17 32 4 32 -5 0 -8 4 -5 9 4 5 0 12 -6 14 -8 3 -9 6 -2 6 12
1 6 51 -6 51 -4 0 -11 7 -14 16 -3 8 -2 13 3 10 5 -4 7 4 3 16 -3 12 -7 17
-10 10 -2 -6 -8 -12 -13 -12 -6 0 -8 4 -4 9 7 12 -15 61 -28 61 -5 0 -3 -8 4
-17 11 -15 10 -15 -9 1 -16 14 -19 23 -12 31 10 12 -4 24 -38 31 -18 3 -41 36
-35 49 2 5 -3 1 -12 -10 -17 -20 -17 -20 -10 4 6 20 4 23 -9 18 -10 -4 -15 -3
-11 2 11 18 -9 44 -49 62 -23 11 -33 17 -23 15 21 -6 22 1 2 20 -12 12 -15 12
-15 2 0 -7 -12 -1 -25 15 -27 30 -46 38 -24 9 8 -10 4 -7 -8 6 -21 21 -28 21
-24 -1 1 -5 -3 -6 -9 -2 -6 3 -8 10 -5 15 9 15 -15 22 -30 10 -12 -10 -15 -9
-15 6 -1 18 -1 18 -11 1 -5 -9 -7 -22 -3 -29 5 -7 3 -8 -5 -3 -7 4 -11 15 -8
25 4 14 1 15 -18 6 -13 -6 -21 -14 -19 -18 3 -5 -6 -4 -19 1 -14 6 -28 7 -33
3 -4 -4 -5 0 -1 10 4 12 0 15 -18 13 -14 -1 -22 2 -19 6 3 5 -1 9 -8 9 -9 0
-9 3 2 10 13 8 12 10 -3 10 -11 0 -15 4 -11 12 5 7 1 9 -13 6 -12 -3 -27 -1
-34 4 -10 7 -9 8 6 4 20 -6 20 -6 1 9 -11 8 -28 13 -37 10 -13 -4 -23 3 -35
26 -16 31 -17 32 -30 14 -8 -10 -14 -13 -14 -6 0 7 -4 10 -9 7 -5 -4 -12 0
-14 6 -4 10 -8 9 -16 -2 -6 -8 -11 -11 -11 -6 0 6 -7 1 -16 -10 -8 -10 -12
-12 -8 -4 7 13 5 13 -9 1 -16 -13 -21 -9 -18 14 1 6 -5 2 -12 -7 -8 -10 -18
-14 -22 -10 -5 4 -5 2 -2 -4 4 -7 -1 -18 -10 -25 -12 -10 -14 -10 -9 -1 4 6 2
12 -3 12 -6 0 -11 -5 -11 -12 0 -6 -3 -8 -7 -5 -3 4 -13 1 -21 -6 -11 -8 -14
-8 -9 0 9 15 -13 23 -35 11 -13 -6 -18 -5 -18 4 0 6 -7 3 -15 -8 -15 -19 -15
-19 -8 1 6 18 5 18 -10 6 -15 -12 -17 -12 -11 4 5 13 4 16 -4 11 -7 -4 -12 -2
-12 4 0 6 -4 8 -10 5 -5 -3 -10 0 -11 7 -1 7 -5 2 -9 -12 -5 -17 -8 -19 -9 -7
-1 16 -6 19 -33 20 -22 1 -48 -15 -42 -24 3 -5 -2 -6 -10 -3 -9 3 -13 11 -10
18 3 6 -2 2 -10 -8 -15 -18 -16 -18 -16 -2 0 10 -5 14 -11 10 -6 -3 -15 0 -20
7 -7 11 -12 12 -29 2 -25 -17 -43 -17 -34 0 5 7 2 7 -10 -2 -15 -12 -17 -12
-14 0 2 8 -3 13 -9 12 -7 -2 -13 2 -13 7 0 6 -5 10 -11 10 -5 0 -8 -4 -5 -8 2
-4 -4 -8 -14 -8 -10 0 -17 3 -14 7 13 22 -145 18 -161 -4 -11 -15 -55 -6 -55
11 0 13 -30 11 -31 -2 0 -6 -5 0 -10 14 -8 18 -12 21 -18 11 -6 -9 -10 -10
-16 -2 -4 7 -22 10 -46 7 -21 -3 -39 -2 -39 2 0 13 -62 13 -78 0 -9 -7 -13 -8
-9 -2 4 7 -10 11 -40 13 -25 0 -49 4 -54 7 -5 3 -9 -1 -9 -8 0 -8 -3 -9 -8 -3
-11 16 -75 13 -90 -4 -8 -9 -11 -10 -7 -3 4 7 0 12 -10 12 -9 0 -13 -4 -10
-10 3 -5 1 -10 -4 -10 -6 0 -11 -7 -11 -16 0 -8 -4 -12 -10 -9 -11 7 -21 -29
-19 -70 3 -44 0 -55 -12 -55 -5 0 -7 6 -4 13 4 6 1 5 -7 -3 -16 -18 -38 -24
-38 -10 0 6 -9 10 -20 10 -11 0 -20 -5 -20 -11 0 -5 -5 -7 -10 -4 -6 4 -9 1
-8 -7 2 -7 -5 -12 -14 -12 -10 1 -15 -2 -12 -7 3 -5 0 -10 -5 -10 -34 -4 -41
-3 -38 6 1 6 7 9 14 9 9 -1 9 3 0 17 -7 11 -15 19 -20 19 -4 0 -5 5 -2 10 3 6
1 10 -5 10 -6 0 -8 5 -4 12 4 6 3 8 -4 4 -6 -3 -22 5 -36 19 -14 14 -26 21
-26 16 0 -7 -8 -7 -24 -1 -16 6 -27 5 -35 -3 -9 -9 -14 -9 -19 0 -5 8 -13 9
-22 3 -10 -6 -20 -4 -32 7 -12 10 -18 12 -18 4 0 -9 -5 -9 -21 0 -17 9 -20 8
-13 -3 4 -7 -2 -4 -14 6 -12 11 -22 15 -22 10 0 -5 -5 -2 -10 6 -9 13 -11 13
-20 0 -8 -13 -10 -13 -10 2 0 11 -5 15 -15 12 -9 -4 -15 0 -15 7 0 11 -3 11
-10 -1 -8 -12 -10 -12 -10 -1 0 11 -3 11 -17 0 -9 -8 -14 -9 -11 -4 9 14 -21
32 -49 30 -13 -1 -23 3 -24 9 0 6 -4 2 -9 -9 -5 -11 -9 -14 -9 -7 -1 9 -7 9
-25 -3 -16 -11 -26 -13 -31 -6 -4 8 -12 8 -26 1 -14 -8 -19 -7 -19 1 0 6 -6 9
-14 6 -7 -3 -19 0 -26 6 -10 9 -11 9 -5 -2 5 -9 4 -12 -3 -7 -7 4 -12 14 -12
22 0 8 -4 13 -9 10 -4 -3 -21 8 -37 24 -16 16 -39 30 -51 30 -12 0 -24 4 -28
9 -6 11 -200 9 -211 -2 -4 -4 -14 -1 -23 5 -9 7 -13 8 -9 4 12 -14 -34 -35
-49 -23 -9 6 -13 6 -13 -2 0 -6 -7 -11 -16 -11 -8 0 -12 -4 -9 -10 6 -9 -8
-14 -27 -11 -5 0 -8 -4 -8 -10 0 -5 -4 -7 -10 -4 -5 3 -10 1 -10 -5 0 -6 -5
-8 -10 -5 -6 4 -18 1 -27 -7 -14 -11 -16 -11 -9 2 6 12 4 11 -6 -1 -7 -9 -19
-14 -25 -12 -7 3 -13 -1 -13 -9 0 -9 -2 -10 -8 -1 -7 12 -75 26 -69 15 10 -18
-33 -37 -87 -39 -33 -1 -63 -8 -67 -14 -5 -8 -8 -7 -12 2 -5 12 -7 12 -15 0
-7 -9 -11 -10 -17 -2 -5 9 -10 9 -20 1 -8 -7 -20 -8 -26 -4 -8 4 -9 3 -5 -4 4
-7 2 -12 -3 -12 -6 0 -11 9 -11 21 0 11 -4 17 -10 14 -5 -3 -10 -1 -10 5 0 6
-5 8 -12 4 -7 -5 -9 -2 -5 8 6 17 -23 20 -35 3 -5 -6 -8 -5 -8 3 0 6 -7 12
-16 12 -14 0 -15 -2 -3 -17 12 -15 12 -15 -4 -7 -21 12 -77 6 -77 -8 0 -5 5
-6 12 -2 6 4 8 3 4 -4 -3 -6 -15 -9 -26 -7 -11 2 -20 -1 -20 -6 0 -6 -4 -7
-10 -4 -5 3 -10 1 -10 -6 0 -9 -3 -9 -14 0 -11 10 -17 8 -25 -6 -6 -10 -11
-12 -11 -5 0 6 -5 12 -11 12 -5 0 -8 -4 -5 -9 3 -5 0 -9 -7 -8 -34 1 -48 -4
-41 -15 4 -6 3 -8 -3 -5 -6 4 -16 0 -23 -8 -7 -9 -23 -13 -36 -11 -13 3 -24 1
-24 -4 0 -4 -7 -11 -16 -14 -8 -3 -12 -2 -9 4 3 6 1 10 -5 10 -6 0 -8 5 -5 10
4 6 12 10 18 9 25 -3 37 2 37 14 0 8 7 14 15 15 8 1 22 3 30 4 8 1 15 5 15 10
0 5 4 7 9 3 5 -3 12 -1 15 4 8 12 -24 37 -32 25 -4 -5 -16 -10 -27 -11 -11 -2
-33 -5 -50 -8 -16 -3 -36 -6 -42 -7 -7 -1 -13 -6 -13 -11 0 -5 -7 -6 -16 -3
-9 4 -22 2 -29 -4 -9 -7 -16 -6 -23 3 -12 14 -72 11 -72 -4 0 -5 8 -6 18 -2
14 5 15 3 5 -7 -10 -11 -15 -11 -29 1 -10 8 -15 9 -11 3 8 -14 -20 -27 -36
-17 -7 4 -6 -1 2 -10 12 -15 12 -17 -4 -11 -13 5 -16 4 -11 -4 4 -7 2 -12 -3
-12 -20 0 -26 -2 -38 -12 -8 -6 -19 -6 -32 1 -17 9 -25 6 -51 -19 -16 -16 -30
-34 -30 -41 0 -6 -7 -9 -14 -6 -10 4 -13 1 -9 -9 4 -10 -2 -17 -16 -21 -11 -3
-21 -10 -21 -17 0 -6 -5 -4 -10 4 -5 8 -10 11 -10 5 0 -5 -5 -3 -10 5 -5 8
-15 15 -22 15 -20 0 -61 -43 -53 -56 10 -16 -16 -30 -32 -17 -9 7 -13 7 -13
-2 0 -10 -3 -10 -15 0 -13 11 -14 10 -9 -5 5 -13 4 -16 -5 -11 -6 4 -11 4 -10
-1 4 -18 -24 -73 -33 -67 -7 5 -9 -2 -6 -19 3 -15 1 -24 -3 -21 -5 3 -9 0 -9
-6 0 -6 -5 -8 -11 -4 -7 4 -7 -1 1 -16 7 -12 8 -20 2 -16 -5 3 -18 -4 -28 -16
-11 -12 -13 -18 -6 -14 11 7 11 4 0 -15 -7 -13 -17 -27 -23 -31 -6 -5 -5 -8 4
-8 8 0 4 -8 -10 -21 -13 -11 -17 -17 -9 -13 13 7 13 5 2 -9 -8 -9 -10 -22 -6
-28 4 -7 3 -9 -3 -6 -6 4 -14 0 -17 -9 -4 -10 -2 -13 7 -9 6 4 3 -1 -7 -9 -11
-9 -16 -16 -12 -16 5 0 3 -6 -3 -13 -6 -8 -8 -17 -4 -20 3 -4 1 -7 -5 -7 -6 0
-9 -6 -6 -14 3 -8 0 -18 -8 -22 -19 -12 -48 -12 -41 -1 4 6 0 8 -10 4 -11 -4
-17 -1 -17 9 0 9 5 12 13 8 9 -6 9 -5 0 7 -10 12 -10 18 -1 27 9 9 9 12 -3 12
-12 0 -12 2 1 10 10 6 11 10 3 10 -8 0 -11 11 -9 30 2 16 0 30 -5 30 -5 0 -6
7 -3 15 4 8 1 15 -6 15 -9 0 -9 4 1 17 12 14 12 16 0 8 -11 -6 -13 -4 -8 8 4
11 1 17 -8 17 -15 0 -19 11 -16 38 2 11 -2 11 -21 1 -20 -11 -21 -10 -11 3 11
13 6 15 -37 12 l-50 -2 0 49 c0 31 -4 48 -10 44 -6 -3 -10 3 -10 14 0 12 -4
21 -10 21 -5 0 -9 3 -8 8 1 4 -6 20 -16 35 -13 20 -22 25 -29 18 -17 -17 -24
-13 -46 29 -11 22 -18 40 -14 40 4 0 -2 7 -13 16 -10 8 -13 13 -7 9 21 -10 3
24 -19 36 -15 8 -17 13 -7 25 9 11 9 14 0 14 -7 0 -9 5 -6 10 4 6 11 7 17 4 6
-4 6 2 -1 15 -7 11 -14 21 -17 21 -3 0 -2 -4 1 -10 3 -6 -1 -7 -10 -3 -9 3
-12 9 -7 12 11 7 12 42 0 35 -4 -3 -8 0 -8 7 0 7 -3 9 -6 6 -9 -9 -45 33 -38
44 3 5 0 9 -5 9 -6 0 -11 7 -11 16 0 9 -5 12 -12 8 -8 -5 -7 0 2 11 9 11 10
16 3 11 -9 -5 -13 0 -13 16 0 18 -2 20 -10 8 -8 -12 -10 -9 -10 11 0 16 -13
40 -32 60 -18 18 -24 27 -13 19 18 -14 19 -13 8 1 -7 9 -10 19 -6 23 4 4 -1 4
-11 0 -14 -5 -17 -4 -12 4 4 7 2 12 -6 12 -9 0 -9 3 2 10 10 6 11 10 3 10 -7
0 -13 7 -13 15 0 9 -6 18 -14 21 -9 3 -12 12 -9 21 4 11 2 14 -5 9 -8 -5 -12
0 -12 13 0 12 -4 21 -10 21 -5 0 -10 7 -10 16 0 9 -8 28 -19 42 -10 15 -21 39
-24 53 -4 14 -17 31 -29 38 -13 6 -16 10 -7 7 14 -4 15 -1 5 20 -6 13 -14 24
-18 24 -5 0 -8 7 -8 15 0 8 -4 15 -8 15 -7 0 -11 16 -14 58 -1 8 -9 10 -22 6
-21 -6 -21 -6 -1 10 18 14 18 15 2 16 -9 0 -16 3 -16 8 4 23 -2 52 -12 52 -5
0 -7 -5 -3 -12 4 -7 3 -8 -5 -4 -9 6 -9 11 0 22 9 11 9 14 0 14 -7 0 -9 5 -6
10 4 6 1 24 -7 40 -10 23 -17 28 -33 24 -20 -6 -20 -6 0 10 l20 15 -20 1 c-17
0 -17 2 -5 10 10 6 11 10 3 10 -7 0 -13 7 -13 16 0 9 -5 12 -12 8 -9 -5 -8 -2
1 9 8 10 11 21 7 24 -4 4 -11 1 -17 -7 -6 -10 -7 -5 -3 18 4 17 2 32 -3 32 -5
0 -10 12 -11 26 -1 14 -14 41 -28 60 -18 23 -22 34 -13 35 8 0 -1 7 -18 15
-39 16 -45 28 -8 14 16 -6 25 -6 25 0 0 6 -5 10 -11 10 -5 0 -7 5 -4 10 3 6
-1 10 -9 10 -9 0 -16 5 -16 11 0 5 5 7 10 4 6 -3 10 1 10 9 0 9 -4 16 -10 16
-5 0 -10 8 -10 19 0 10 -10 26 -22 35 -20 13 -20 15 -3 9 17 -6 18 -4 8 9 -7
8 -9 19 -5 24 4 4 -2 2 -12 -6 -18 -14 -19 -14 -9 4 11 21 6 59 -7 51 -5 -3
-12 -1 -15 5 -4 6 -3 10 2 9 21 -4 24 3 11 24 -8 12 -14 30 -12 40 1 9 -2 17
-7 17 -6 0 -7 5 -4 10 3 6 1 10 -5 10 -7 0 -9 8 -5 21 5 16 4 19 -6 14 -9 -6
-11 -3 -6 10 4 9 2 24 -5 33 -7 8 -12 17 -10 19 1 1 2 4 1 6 0 1 -3 13 -5 27
-2 13 -8 27 -12 30 -7 5 -14 27 -15 48 0 6 -4 12 -9 12 -4 0 -8 9 -8 20 0 11
-4 20 -10 20 -5 0 -10 11 -10 25 0 15 -7 39 -15 56 -9 16 -13 33 -10 38 2 5
-2 12 -11 15 -8 3 -12 11 -9 16 4 6 3 19 -1 28 -8 19 -12 36 -16 72 -2 14 -7
28 -13 33 -7 4 -7 10 0 15 14 10 17 32 5 32 -5 0 -10 18 -10 41 0 24 -4 38
-10 34 -6 -4 -7 2 -2 16 9 23 -6 69 -22 69 -5 0 -3 7 4 15 10 12 8 16 -11 24
-13 5 -19 10 -12 10 14 1 13 41 0 41 -5 0 -4 7 3 15 9 10 9 15 1 15 -6 0 -11
19 -11 46 0 30 -4 43 -11 38 -7 -4 -7 1 1 16 9 18 9 24 0 30 -9 6 -9 9 1 13
12 5 12 6 0 6 -11 1 -11 4 0 18 11 12 11 17 2 20 -8 3 -9 12 -3 29 5 13 6 24
2 24 -4 0 -7 15 -6 33 1 17 3 32 4 32 3 0 10 68 10 90 -2 51 4 85 15 85 5 0 3
5 -5 10 -13 9 -13 12 1 23 9 6 15 20 13 29 -1 10 1 20 5 22 4 3 6 28 5 56 -2
34 0 49 7 44 8 -4 8 0 0 14 -8 15 -7 23 4 32 12 10 13 16 4 26 -8 10 -8 14 -1
14 6 0 9 9 7 20 -2 11 -1 20 3 20 4 0 6 32 4 71 -2 54 0 69 9 63 8 -5 9 -3 3
7 -11 18 -12 40 -1 62 4 9 4 17 -1 17 -5 0 -9 7 -9 15 0 8 4 12 9 9 10 -7 10
-1 -2 31 -5 14 -6 24 -1 21 5 -4 7 3 4 14 -3 11 -9 23 -14 25 -4 3 -6 12 -3
20 3 7 1 23 -5 34 -7 12 -7 22 -2 26 6 3 8 14 6 25 -2 11 0 20 4 20 4 0 7 10
6 23 -2 12 -8 21 -14 20 -6 -2 -11 2 -11 7 0 6 7 10 15 10 32 0 7 42 -27 46
-12 1 -23 3 -23 4 0 5 -41 7 -53 3z m68 -623 c0 -5 -4 -10 -10 -10 -5 0 -10 5
-10 10 0 6 5 10 10 10 6 0 10 -4 10 -10z m-365 -389 c3 -5 2 -12 -3 -15 -5 -3
-9 1 -9 9 0 17 3 19 12 6z m-202 -646 c-3 -9 -8 -14 -10 -11 -3 3 -2 9 2 15 9
16 15 13 8 -4z m642 -205 c3 -5 1 -10 -4 -10 -6 0 -11 5 -11 10 0 6 2 10 4 10
3 0 8 -4 11 -10z m99 -286 c3 -8 2 -12 -4 -9 -6 3 -10 10 -10 16 0 14 7 11 14
-7z m57 -161 c13 -16 12 -17 -3 -4 -17 13 -22 21 -14 21 2 0 10 -8 17 -17z
m-667 -128 c3 -8 10 -15 16 -15 6 0 9 4 5 9 -3 5 -1 12 4 15 11 7 9 -13 -2
-31 -5 -8 -3 -13 3 -13 6 0 2 -10 -9 -22 -15 -15 -18 -25 -10 -34 7 -8 7 -14
0 -18 -6 -4 -8 -13 -4 -21 3 -9 0 -21 -6 -29 -6 -7 -7 -16 -3 -21 4 -4 -3 -2
-15 6 -12 7 -20 16 -17 20 2 4 -2 10 -8 12 -10 4 -10 6 0 6 7 1 15 -6 18 -14
7 -18 24 -10 24 11 0 8 -4 12 -10 9 -5 -3 -10 -1 -10 5 0 6 -4 8 -10 5 -6 -3
-7 1 -4 9 3 9 10 16 15 16 5 0 9 7 9 16 0 8 -4 13 -9 9 -5 -3 -13 0 -17 6 -4
8 -3 9 4 5 7 -4 12 -2 12 3 0 6 6 11 14 11 15 0 16 16 3 38 -5 7 -13 9 -19 6
-7 -4 -8 -2 -4 4 10 16 23 15 30 -3z m-24 -25 c0 -5 -5 -10 -11 -10 -5 0 -7 5
-4 10 3 6 8 10 11 10 2 0 4 -4 4 -10z m737 -25 c0 -8 -4 -12 -9 -9 -5 3 -6 10
-3 15 9 13 12 11 12 -6z m-600 -270 c0 -8 -4 -15 -9 -15 -10 0 -11 14 -1 23 9
10 10 9 10 -8z m-24 -187 c-4 -38 -4 -45 0 -78 2 -14 -3 -31 -12 -38 -14 -12
-14 -13 3 -8 14 5 17 2 12 -10 -3 -8 -6 -20 -6 -25 0 -6 -4 -8 -9 -5 -5 4 -11
2 -13 -4 -1 -5 -8 2 -15 15 -6 14 -7 23 -2 19 5 -3 9 -3 9 0 0 2 3 12 6 20 5
12 2 15 -12 10 -14 -5 -12 -1 5 11 l24 18 -23 19 c-12 10 -20 22 -16 25 4 4
11 1 15 -6 7 -11 10 -11 17 0 4 7 3 14 -4 17 -7 2 -12 11 -12 20 0 15 2 15 10
2 5 -8 10 -12 11 -7 1 4 3 12 4 17 1 6 3 12 4 15 0 3 3 5 5 5 2 0 2 -15 -1
-32z m802 22 c3 -5 1 -10 -4 -10 -6 0 -11 5 -11 10 0 6 2 10 4 10 3 0 8 -4 11
-10z m8098 -150 c-6 -22 -18 -26 -29 -9 -3 6 0 15 7 20 22 14 28 11 22 -11z
m-8941 -89 c6 10 7 7 3 -10 -4 -14 -3 -21 2 -18 5 4 10 0 10 -8 0 -8 -4 -15
-9 -15 -5 0 -6 -4 -3 -10 3 -5 1 -10 -5 -10 -7 0 -9 8 -4 22 6 20 5 21 -10 9
-9 -8 -16 -9 -16 -3 0 6 6 13 13 16 9 5 9 7 -1 12 -6 3 -9 11 -5 17 5 8 8 7
11 -2 4 -11 6 -11 14 0z m1029 -138 c13 -16 12 -17 -3 -4 -10 7 -18 15 -18 17
0 8 8 3 21 -13z m-1070 -296 c-10 -9 -11 -8 -5 6 3 10 9 15 12 12 3 -3 0 -11
-7 -18z m4 -27 c-3 -5 -11 -10 -16 -10 -6 0 -7 5 -4 10 3 6 11 10 16 10 6 0 7
-4 4 -10z m15 -41 c0 -4 -6 -9 -13 -12 -8 -3 -14 0 -14 7 0 7 6 13 14 13 7 0
13 -4 13 -8z m128 -115 c8 5 10 2 6 -8 -3 -9 -9 -14 -13 -11 -4 2 -8 -2 -8
-10 0 -8 4 -12 9 -9 4 3 8 0 8 -5 0 -6 -5 -11 -11 -11 -5 0 -7 -4 -4 -10 8
-12 -15 -13 -34 -1 -9 6 -10 11 -2 15 6 4 8 13 4 19 -11 17 -11 30 0 45 8 9
12 9 22 -4 6 -10 17 -14 23 -10z m4446 -119 c3 -10 0 -12 -11 -8 -10 4 -14 2
-9 -5 3 -6 1 -14 -5 -18 -7 -4 -9 -3 -6 3 4 6 0 14 -9 17 -8 3 -13 9 -10 14 8
13 44 11 50 -3z m2972 -65 c0 -12 -4 -16 -9 -11 -5 5 -6 14 -3 20 10 15 12 14
12 -9z m-753 -23 c3 -8 -1 -14 -8 -14 -7 0 -11 6 -8 14 3 7 6 13 8 13 2 0 5
-6 8 -13z m687 8 c0 -2 -6 -8 -13 -14 -10 -8 -14 -7 -14 2 0 8 6 14 14 14 7 0
13 -1 13 -2z m-7 -37 c-4 -7 -8 -16 -8 -20 0 -14 -15 -21 -15 -7 0 8 5 20 12
27 16 16 21 15 11 0z m-568 -77 c3 -5 2 -12 -3 -15 -5 -3 -9 1 -9 9 0 17 3 19
12 6z m-6631 -92 c-3 -5 0 -9 5 -9 6 0 11 8 11 17 0 19 13 10 16 -12 3 -19
-26 -28 -40 -11 -6 7 -18 16 -26 19 -12 4 -11 6 3 6 12 1 16 5 11 14 -5 8 -3
8 9 -2 9 -7 14 -17 11 -22z m-49 -127 c-3 -3 -11 0 -18 7 -9 10 -8 11 6 5 10
-3 15 -9 12 -12z m-61 -131 c3 -5 -1 -14 -8 -20 -12 -10 -14 -9 -11 6 2 10 4
19 4 21 2 5 10 2 15 -7z m-20 -150 c3 -5 -1 -14 -8 -20 -11 -9 -16 -9 -22 0
-4 7 -2 15 5 17 8 3 6 9 -6 19 -17 13 -16 13 4 3 12 -5 24 -14 27 -19z m6896
-76 c0 -22 -28 -25 -33 -4 -5 17 -3 18 11 7 14 -11 15 -10 9 5 -4 11 -3 16 3
12 6 -3 10 -12 10 -20z m-6830 -30 c-7 -9 -15 -13 -19 -10 -3 3 1 10 9 15 21
14 24 12 10 -5z m5784 -71 c-10 -8 -12 -12 -4 -8 13 7 13 6 1 -9 -12 -15 -12
-20 2 -35 10 -11 13 -22 7 -32 -6 -11 0 -21 18 -35 21 -15 24 -15 13 -2 -7 9
-11 17 -8 17 3 0 16 -14 28 -32 13 -17 19 -29 13 -26 -5 3 -15 0 -22 -8 -7 -8
-9 -14 -5 -14 4 0 1 -5 -7 -10 -8 -5 -10 -10 -3 -10 6 0 9 -9 5 -22 -3 -15 -2
-19 7 -14 8 5 10 0 7 -18 -3 -14 -2 -25 2 -23 4 1 9 -2 10 -8 2 -5 8 -15 12
-20 17 -20 22 -78 8 -86 -10 -7 -10 -9 0 -9 6 0 12 -5 12 -11 0 -5 -5 -7 -11
-4 -6 4 -5 -3 3 -15 11 -18 11 -23 -2 -33 -8 -7 -16 -21 -17 -32 -3 -32 -8
-48 -21 -72 -8 -14 -9 -24 -2 -28 6 -4 7 -12 3 -18 -4 -7 -9 -19 -10 -27 -9
-58 -14 -98 -14 -113 0 -9 -4 -15 -10 -12 -5 4 -9 0 -9 -7 0 -8 -3 -9 -8 -3
-10 14 -32 17 -32 4 0 -5 -5 -7 -11 -3 -8 5 -9 2 -1 -12 7 -12 7 -25 1 -36 -7
-14 -6 -18 6 -18 9 0 14 -4 10 -9 -3 -6 -14 -8 -25 -6 -11 2 -20 -1 -20 -6 0
-6 -5 -7 -12 -3 -7 4 -8 3 -4 -4 3 -6 -3 -16 -14 -22 -11 -6 -18 -15 -15 -21
4 -5 -2 -9 -12 -9 -14 0 -15 -2 -5 -9 11 -7 11 -9 -2 -14 -10 -4 -13 -13 -9
-23 4 -10 2 -15 -3 -11 -6 3 -9 -9 -9 -28 1 -21 -4 -36 -13 -40 -12 -4 -12 -8
-1 -22 12 -14 12 -17 0 -21 -11 -4 -11 -6 0 -13 11 -7 10 -9 -3 -9 -9 0 -20
-5 -24 -12 -4 -7 -3 -8 4 -4 8 4 11 -3 9 -24 -1 -16 -5 -30 -9 -30 -4 0 -5 -9
-3 -20 2 -11 -1 -20 -6 -20 -6 0 -7 -9 -4 -21 6 -16 4 -20 -6 -13 -11 6 -12 5
-3 -7 6 -8 14 -22 17 -32 6 -15 4 -16 -13 -7 -15 8 -20 8 -18 -1 2 -6 -5 -13
-14 -14 -21 -4 -33 25 -16 37 11 6 10 8 0 8 -8 0 -10 5 -5 13 14 23 11 37 -7
37 -16 0 -26 15 -35 50 -6 22 -23 49 -43 70 -30 32 -47 73 -33 78 14 5 14 42
0 42 -5 0 -7 5 -4 10 3 6 1 10 -5 10 -6 0 -4 12 5 31 9 17 19 29 21 26 3 -3
17 6 31 19 14 13 24 27 20 30 -3 3 4 17 16 31 12 13 22 28 22 31 1 4 7 18 15
32 20 35 21 51 4 67 -9 10 -14 11 -14 2 0 -8 -5 -8 -17 2 -15 12 -16 12 -8 -1
7 -12 6 -13 -6 -4 -8 5 -18 10 -24 9 -12 -1 -53 -24 -43 -25 4 0 -3 -10 -15
-23 -12 -13 -25 -22 -29 -20 -5 2 -8 -1 -8 -7 0 -6 -4 -8 -10 -5 -5 3 -10 1
-10 -6 0 -9 -3 -9 -14 0 -8 7 -17 8 -19 4 -3 -5 -18 -8 -34 -7 -15 0 -30 -3
-33 -7 -3 -5 -29 -11 -58 -14 -29 -2 -62 -10 -73 -15 -11 -6 -23 -8 -28 -6 -5
3 -12 -2 -15 -11 -5 -12 -10 -13 -18 -5 -8 8 -17 8 -30 1 -10 -5 -18 -7 -18
-3 0 3 -7 1 -15 -6 -12 -10 -15 -10 -15 1 0 11 -2 11 -8 2 -4 -7 -23 -14 -42
-15 -19 -2 -38 -7 -42 -12 -4 -6 -33 -11 -65 -13 -80 -5 -83 -5 -83 -13 0 -4
-25 -7 -55 -6 -30 1 -55 -2 -55 -5 0 -4 -17 -6 -37 -4 -21 1 -44 -2 -50 -7 -7
-6 -13 -6 -13 -2 0 5 -49 9 -110 8 -72 0 -110 3 -110 10 0 7 -3 7 -8 0 -8 -13
-209 -13 -229 -1 -6 4 -15 2 -19 -4 -5 -9 -11 -7 -21 6 -7 11 -13 13 -13 6 0
-7 -4 -9 -10 -6 -5 3 -10 -1 -10 -10 0 -10 -5 -13 -12 -9 -7 4 -24 9 -37 10
-14 2 -27 8 -29 14 -2 5 -7 8 -12 5 -12 -8 -100 26 -100 38 0 7 -5 5 -10 -3
-7 -11 -10 -11 -10 -2 0 7 -4 11 -9 7 -5 -3 -16 1 -23 8 -8 8 -27 17 -43 20
-17 3 -41 8 -55 12 -14 4 -31 7 -37 7 -7 1 -13 8 -13 15 0 10 -5 11 -16 5 -23
-13 -64 -2 -65 17 0 10 -2 11 -6 4 -3 -10 -10 -10 -25 -2 -16 9 -19 8 -13 -2
6 -9 3 -10 -10 -5 -11 4 -22 2 -26 -6 -13 -21 -23 0 -28 65 -1 4 -9 3 -20 -2
-10 -6 -22 -7 -26 -3 -5 4 -5 2 -2 -4 3 -6 0 -22 -8 -37 -7 -15 -10 -29 -5
-32 11 -7 9 -46 -3 -62 -6 -9 -5 -13 3 -13 6 0 10 -6 8 -12 -3 -7 4 -22 14
-32 10 -11 16 -26 13 -34 -2 -7 0 -10 5 -7 6 3 11 -1 11 -9 2 -24 4 -29 17
-54 7 -12 10 -28 6 -34 -4 -7 -3 -8 4 -4 7 4 14 -3 18 -19 3 -14 10 -25 14
-25 4 0 5 -11 2 -25 -2 -14 -8 -23 -11 -20 -4 2 -7 -6 -6 -18 1 -12 0 -26 -4
-32 -3 -5 -7 -23 -7 -40 -1 -16 -3 -34 -4 -40 -1 -5 -3 -16 -4 -24 0 -8 -8
-15 -16 -16 -37 -6 -45 -12 -62 -42 -10 -18 -19 -38 -20 -45 -2 -7 -15 -19
-30 -26 -15 -8 -24 -20 -22 -27 3 -7 0 -16 -5 -20 -6 -3 -9 -10 -6 -15 3 -4
-1 -10 -9 -13 -8 -3 -17 1 -20 9 -3 9 -2 12 5 9 11 -7 4 79 -10 125 -5 14 -5
35 0 48 5 12 5 22 1 22 -5 0 -7 26 -7 58 1 31 -4 69 -12 84 -8 17 -9 29 -3 33
6 4 8 11 4 16 -3 5 0 17 7 25 9 12 8 21 -7 49 -10 19 -22 35 -26 35 -5 0 -8 7
-8 16 0 8 -4 12 -10 9 -6 -3 -10 0 -10 8 0 8 -10 19 -22 25 -13 6 -17 11 -10
11 10 1 10 5 -2 17 -9 8 -14 20 -11 25 4 5 1 9 -4 9 -6 0 -11 6 -11 14 0 8 -9
18 -20 21 -14 4 -20 15 -20 35 0 16 -4 31 -9 35 -6 3 -8 14 -6 25 2 11 -2 20
-8 20 -7 0 -6 4 3 10 18 11 10 21 -21 23 -13 1 -28 6 -34 12 -12 12 -15 55 -4
55 5 0 5 10 0 22 -6 16 -3 30 7 45 8 14 10 23 4 23 -6 0 -9 9 -7 20 2 11 -2
26 -10 34 -8 7 -11 17 -7 21 4 4 2 6 -3 5 -26 -6 -31 2 -29 48 5 77 13 156 17
177 2 11 -1 26 -7 34 -9 12 -8 13 3 6 11 -6 13 -4 8 8 -4 10 -1 17 6 18 9 0 9
2 -1 6 -6 2 -9 10 -5 16 12 20 14 49 2 45 -6 -2 -10 -7 -9 -12 1 -5 -4 -12
-10 -16 -13 -8 -50 20 -43 32 4 7 -37 23 -50 20 -5 -1 -6 2 -2 8 3 6 10 8 15
5 5 -3 20 0 32 7 13 7 25 13 28 13 3 0 16 7 29 14 21 12 26 11 38 -5 7 -10 13
-25 13 -33 0 -14 2 -14 10 -1 9 13 12 13 21 -3 10 -17 12 -17 35 -2 22 14 25
14 31 0 3 -11 8 -13 12 -6 4 6 21 14 39 17 27 5 32 4 32 -12 0 -28 35 -47 60
-34 15 8 20 8 20 -2 0 -10 2 -10 9 1 5 7 14 10 20 7 6 -4 11 0 11 8 0 9 7 17
15 18 8 0 21 1 28 2 6 1 15 6 19 11 5 6 8 6 8 -1 0 -6 10 -10 23 -9 12 1 28
-5 35 -14 8 -9 11 -10 7 -3 -4 7 0 12 9 12 9 0 16 5 16 11 0 5 5 7 10 4 6 -4
7 -11 4 -17 -4 -6 -2 -8 4 -5 14 9 43 -3 36 -14 -8 -14 12 -11 24 4 13 16 82
22 82 7 0 -5 5 -10 11 -10 5 0 8 4 5 8 -3 5 2 9 10 9 10 0 14 -7 11 -19 -3
-10 2 -22 11 -28 14 -7 14 -9 2 -10 -10 0 -9 -4 5 -13 24 -16 65 -20 65 -6 0
5 5 9 11 9 5 0 7 -6 3 -12 -4 -7 4 -3 18 10 24 22 25 22 46 4 12 -11 19 -22
15 -25 -3 -4 5 -4 17 -2 13 3 26 9 29 13 10 16 53 27 113 31 12 0 18 4 15 8
-4 3 1 12 11 19 13 9 19 9 24 1 5 -8 8 -7 8 4 0 9 7 16 15 16 8 0 15 -4 15 -8
0 -9 41 -6 58 5 7 4 13 2 13 -3 3 -26 4 -30 12 -37 4 -4 7 -3 7 3 0 6 9 9 20
6 18 -5 24 3 22 28 0 3 15 6 34 7 19 2 34 -2 34 -8 0 -5 6 -9 13 -7 6 1 11 -4
9 -11 -1 -9 6 -11 25 -8 16 2 32 5 36 5 5 1 5 6 2 11 -9 15 23 24 39 11 7 -6
16 -8 19 -4 4 3 15 0 24 -9 18 -14 67 -23 59 -10 -2 4 2 13 10 20 9 8 14 9 14
2 0 -6 5 -8 12 -4 16 10 69 11 75 1 3 -4 12 -2 21 5 12 10 16 10 19 0 3 -6 10
-9 16 -5 20 12 47 10 47 -4 0 -8 5 -11 10 -8 6 3 10 0 10 -8 0 -10 12 -14 39
-13 22 0 37 4 34 9 -3 5 3 7 13 5 13 -2 18 2 16 15 -2 9 2 18 8 18 43 5 59 2
85 -18 33 -24 78 -22 68 3 -7 18 39 37 49 20 5 -7 8 -7 8 3 0 8 7 11 20 8 11
-3 20 -1 20 4 0 4 7 6 15 3 8 -4 22 -1 30 6 10 8 15 9 15 2 0 -6 -8 -16 -17
-21 -10 -6 -14 -11 -10 -11 4 0 -1 -10 -12 -22 -27 -29 -18 -38 23 -24 33 12
89 60 80 69 -3 3 4 7 16 10 13 3 18 1 13 -6 -4 -7 1 -6 10 2 12 9 17 10 17 2
0 -7 4 -9 10 -6 11 7 42 -8 41 -18 -1 -4 2 -8 7 -9 4 0 13 -8 20 -17 8 -9 10
-10 7 -3 -4 8 -2 12 6 10 23 -5 78 34 71 50 -4 12 1 11 26 -4 18 -10 32 -22
32 -27 0 -4 5 -5 10 -2 6 4 18 1 27 -7 9 -7 14 -8 10 -2 -8 14 20 27 36 17 7
-4 6 1 -2 10 -11 15 -11 17 2 17 8 0 21 -8 28 -17 12 -14 12 -16 0 -8 -10 5
-12 4 -7 -3 4 -7 14 -12 22 -12 8 0 14 -4 14 -10 0 -15 37 -12 54 5 19 19 10
45 -15 45 -10 0 -19 5 -19 10 0 9 8 12 26 9 4 0 11 5 16 13 7 10 11 10 15 1 2
-7 9 -13 14 -13 6 0 7 5 4 10 -3 6 -1 11 4 11 26 3 30 4 37 12 4 4 12 3 18 -3
7 -7 4 -15 -10 -26z m-2940 -8 c-8 -27 -11 -29 -23 -21 -6 3 -9 11 -6 16 4 5
1 9 -4 9 -6 0 -11 5 -11 11 0 5 5 7 10 4 6 -3 10 -2 10 4 0 6 7 8 15 5 11 -4
13 -13 9 -28z m-2729 -46 c4 -6 1 -9 -7 -8 -7 2 -13 -5 -13 -14 0 -22 -12 -33
-12 -10 0 15 14 42 23 42 1 0 6 -5 9 -10z m4825 -11 c0 -6 -4 -7 -10 -4 -5 3
-10 11 -10 16 0 6 5 7 10 4 6 -3 10 -11 10 -16z m-2237 -14 c-3 -9 -8 -14 -10
-11 -3 3 -2 9 2 15 9 16 15 13 8 -4z m1061 -9 c-3 -9 -10 -16 -15 -16 -14 0
-11 28 4 33 16 6 19 3 11 -17z m-3724 -16 c0 -11 5 -20 10 -20 6 0 10 -5 10
-11 0 -8 -4 -9 -13 0 -8 6 -16 9 -18 6 -3 -2 -5 7 -5 20 0 14 4 25 8 25 4 0 8
-9 8 -20z m2660 -10 c0 -16 -17 -20 -28 -7 -8 10 -6 13 9 14 10 1 19 -2 19 -7z
m-2660 -40 c0 -5 -2 -10 -4 -10 -3 0 -8 5 -11 10 -3 6 -1 10 4 10 6 0 11 -4
11 -10z m-15 -71 c-7 -11 -3 -11 19 -3 9 3 13 10 10 15 -3 5 2 6 11 2 12 -4
13 -8 5 -13 -9 -5 -9 -9 -1 -14 14 -9 14 -26 0 -26 -5 0 -7 5 -4 10 3 6 1 10
-4 10 -6 0 -11 -5 -11 -11 0 -14 -34 20 -36 37 -1 8 2 12 7 8 5 -3 7 -10 4
-15z m2894 -41 c-2 -18 -7 -39 -12 -45 -6 -9 -5 -13 4 -13 11 0 11 -2 -1 -10
-11 -7 -11 -10 -2 -10 7 0 10 -5 6 -11 -9 -15 -21 6 -19 34 2 32 16 87 22 87
2 0 3 -15 2 -32z m-55 -33 c-4 -8 -11 -15 -16 -15 -6 0 -5 6 2 15 7 8 14 15
16 15 2 0 1 -7 -2 -15z m-627 -20 c0 -8 -4 -12 -9 -9 -5 3 -6 10 -3 15 9 13
12 11 12 -6z m617 -20 c-4 -8 -10 -12 -15 -9 -11 6 -2 24 11 24 5 0 7 -7 4
-15z m5706 -61 c0 -3 -6 -1 -14 5 -12 10 -13 8 -9 -11 4 -13 11 -26 17 -30 7
-5 7 -8 -2 -8 -7 0 -10 -4 -7 -10 3 -6 -1 -7 -9 -4 -9 3 -16 10 -16 16 0 5 5
6 12 2 7 -4 8 -3 4 5 -6 9 -11 9 -21 1 -11 -9 -10 -2 2 29 13 34 18 38 29 26
8 -7 14 -17 14 -21z m-8436 -56 c-3 -4 -14 -6 -24 -5 -31 5 -32 13 -1 12 16 0
27 -3 25 -7z m8476 -52 c0 -2 -7 -7 -16 -10 -8 -3 -12 -2 -9 4 6 10 25 14 25
6z m-8307 -92 c32 2 57 -19 26 -22 -42 -4 -48 -6 -43 -14 3 -5 11 -5 17 -2 8
5 8 3 0 -6 -7 -8 -20 -15 -28 -16 -12 -2 -14 3 -9 19 6 20 5 21 -11 7 -11 -9
-16 -10 -11 -2 4 7 2 12 -4 12 -6 0 -8 5 -5 10 4 6 11 8 16 5 5 -4 9 2 9 12 0
11 3 14 8 7 4 -6 20 -10 35 -10z m-53 -158 c0 -8 -7 -16 -15 -20 -13 -4 -14
-2 -5 14 13 23 20 26 20 6z m-47 -51 c-7 -21 -12 -19 -10 4 0 11 5 18 9 15 4
-3 5 -11 1 -19z m80 -8 c-4 -7 -8 -20 -9 -29 -2 -28 -3 -30 -14 -23 -8 5 -7
11 1 21 9 11 8 14 -2 14 -9 1 -8 4 4 11 9 6 14 15 11 21 -4 7 -2 8 5 4 6 -4 8
-13 4 -19z m-45 -12 c-8 -19 -14 -22 -20 -13 -5 8 -1 18 9 26 23 17 24 16 11
-13z m8209 -39 c-1 -6 5 -10 13 -8 10 1 9 -2 -4 -13 -11 -8 -25 -15 -30 -14
-6 0 -5 3 1 6 9 3 10 10 3 22 -6 13 -5 18 5 18 8 0 13 -5 12 -11z m20 -56 c1
-11 -1 -22 -5 -24 -4 -2 -8 7 -8 20 -1 13 1 24 5 24 4 0 7 -9 8 -20z m-8220
-80 c2 -11 -1 -20 -6 -20 -15 0 -23 18 -11 25 6 4 7 12 4 18 -4 7 -3 9 1 4 5
-4 10 -16 12 -27z m166 -6 c1 -4 -5 -8 -14 -9 -9 -2 -16 3 -16 11 0 7 4 11 9
8 4 -3 8 1 9 8 1 12 7 3 12 -18z m73 -6 c4 4 2 -1 -5 -10 -7 -10 -19 -18 -25
-17 -7 0 -6 2 2 6 6 2 9 9 6 15 -3 5 -15 2 -27 -9 l-22 -18 19 22 c13 16 23
20 31 13 6 -5 16 -6 21 -2z m-196 -158 c0 -5 -4 -10 -10 -10 -5 0 -10 5 -10
10 0 6 5 10 10 10 6 0 10 -4 10 -10z m3217 -36 c-3 -3 -12 -4 -19 -1 -8 3 -5
6 6 6 11 1 17 -2 13 -5z m5013 -148 c0 -2 -16 -20 -35 -40 -33 -35 -55 -40
-55 -13 0 7 4 6 10 -3 9 -15 11 -14 14 13 1 6 7 11 13 10 6 -1 19 7 28 17 17
19 25 24 25 16z m-75 -96 c-3 -5 -14 -8 -25 -7 -14 1 -16 5 -9 13 11 14 42 7
34 -6z m-30 -33 c-11 -6 -25 -17 -31 -25 -9 -12 -13 -13 -19 -2 -5 9 -4 11 3
6 10 -6 15 3 14 24 0 3 11 6 26 7 24 1 25 0 7 -10z m-7988 -3 c-3 -4 -2 -14 3
-24 16 -29 20 -71 7 -63 -7 3 -3 -4 8 -17 11 -13 15 -20 8 -17 -7 5 -11 1 -10
-12 1 -12 6 -17 15 -13 12 4 12 1 0 -19 -17 -31 -49 -60 -58 -54 -5 3 -10 -1
-13 -7 -3 -9 -9 -7 -20 7 -9 11 -12 24 -7 29 5 5 6 16 3 25 -4 14 -3 14 6 1 8
-11 11 -12 11 -2 0 8 5 10 13 6 9 -6 9 -5 0 7 -6 8 -12 19 -12 24 -1 6 -6 10
-13 10 -15 0 -22 22 -9 30 6 3 11 2 11 -4 0 -6 10 -16 23 -22 21 -12 21 -11 5
8 -20 22 -24 38 -7 27 8 -5 8 -1 0 14 -7 14 -8 23 -1 27 16 10 30 -4 24 -23
-5 -14 -4 -14 4 -2 6 8 7 19 3 25 -6 9 -7 21 -2 40 0 3 4 5 8 5 3 0 3 -3 0 -6z
m-11 -352 c-8 -16 -12 -33 -8 -38 4 -5 -1 -2 -10 5 -10 7 -18 20 -18 28 0 9
-5 11 -12 7 -9 -5 -9 -3 1 9 14 18 36 13 25 -5 -4 -7 -2 -8 5 -4 6 4 9 12 6
17 -3 5 0 15 7 23 20 22 23 -6 4 -42z m-34 -54 c-8 -8 -15 -9 -22 -2 -6 6 -8
19 -4 28 6 16 8 16 22 2 13 -12 14 -18 4 -28z m-16 -37 c1 -12 -1 -19 -4 -16
-3 2 -10 1 -16 -4 -7 -6 -16 -3 -25 6 -11 12 -10 14 5 11 13 -2 19 3 18 15 -1
10 3 16 10 14 6 -2 12 -14 12 -26z m7939 -111 c3 -6 -1 -7 -9 -4 -18 7 -21 14
-7 14 6 0 13 -4 16 -10z m-7788 -56 c0 -13 -18 -24 -44 -30 -8 -1 -6 6 4 20
19 25 40 30 40 10z m7773 -274 c0 -5 -5 -10 -11 -10 -5 0 -7 5 -4 10 3 6 8 10
11 10 2 0 4 -4 4 -10z m-7764 -132 c4 -7 3 -8 -4 -4 -7 4 -12 2 -12 -5 0 -7
-3 -10 -6 -6 -6 5 3 27 11 27 2 0 7 -5 11 -12z m-156 -1 c0 -2 -10 -12 -21
-23 -22 -19 -22 -19 -8 4 12 19 29 30 29 19z m104 -73 c3 -8 2 -12 -4 -9 -6 3
-10 10 -10 16 0 14 7 11 14 -7z m181 -33 c1 -19 -3 -27 -10 -25 -9 4 -12 36
-6 63 3 14 14 -13 16 -38z m7131 -108 c-2 -16 -4 -32 -5 -37 0 -4 -8 -6 -16
-2 -20 7 -19 1 3 -20 16 -16 16 -17 0 -11 -12 4 -15 2 -11 -9 3 -7 0 -14 -6
-14 -16 0 -27 33 -13 38 6 2 8 10 5 18 -3 8 0 14 6 14 6 0 10 3 9 8 -3 6 22
40 29 42 1 0 0 -12 -1 -27z m284 -73 c6 -11 7 -20 3 -19 -20 3 -23 -3 -12 -22
10 -20 9 -21 -15 -17 -15 3 -29 1 -32 -4 -9 -13 -23 0 -19 20 1 9 9 16 18 14
8 -1 19 3 23 9 5 8 3 9 -6 4 -8 -5 -11 -4 -6 3 4 6 13 9 21 5 11 -4 13 -1 9
11 -9 23 3 20 16 -4z m-317 -26 c9 -4 17 -11 17 -16 0 -6 -7 -8 -15 -4 -8 3
-14 0 -12 -7 1 -7 -4 -11 -12 -9 -11 2 -12 0 -2 -11 9 -12 7 -16 -9 -20 -11
-3 -20 -10 -20 -17 0 -6 4 -9 9 -5 5 3 13 0 17 -6 4 -8 3 -9 -4 -5 -7 4 -12 3
-12 -2 0 -6 -10 -7 -22 -4 -22 5 -22 5 -5 -13 15 -14 16 -20 5 -26 -7 -5 -9
-9 -4 -9 5 0 2 -8 -7 -18 -10 -10 -14 -22 -10 -25 3 -4 1 -7 -6 -7 -7 0 -10
-4 -7 -8 2 -4 0 -14 -5 -22 -7 -11 -8 -6 -4 15 9 44 10 49 16 60 3 6 5 24 4
42 -1 18 1 32 4 31 18 -2 21 4 11 22 -9 17 -8 20 12 20 19 0 20 2 8 10 -14 9
-7 15 14 11 5 -1 4 4 -2 12 -13 15 -4 30 12 22 6 -3 19 -8 29 -11z m311 -60
c9 -24 7 -31 -5 -11 -6 9 -15 14 -21 11 -7 -4 -8 -2 -4 4 10 17 23 15 30 -4z
m-7287 -257 c2 -24 -1 -27 -27 -25 -16 1 -27 5 -24 9 2 4 -1 9 -7 11 -17 6 20
40 40 36 9 -2 16 -15 18 -31z m113 -45 c0 -8 -5 -10 -12 -6 -8 5 -9 2 -5 -11
5 -11 1 -23 -10 -32 -10 -8 -12 -12 -6 -8 8 4 11 1 7 -9 -9 -24 -31 -7 -29 22
3 48 5 53 14 48 5 -3 11 4 15 17 5 18 8 20 16 7 5 -8 10 -21 10 -28z m-124
-68 c0 -26 -4 -28 -26 -14 -10 6 -11 10 -2 10 6 0 12 8 12 18 0 14 -2 15 -10
2 -7 -12 -9 -10 -8 6 3 31 34 10 34 -22z m1 -96 c21 -27 21 -46 2 -67 -11 -12
-18 -25 -15 -30 7 -10 -29 -44 -49 -47 -10 -2 -15 7 -15 24 l1 27 13 -24 c8
-15 16 -20 20 -12 4 6 2 11 -5 11 -6 0 -9 8 -6 19 4 15 1 18 -12 13 -14 -5
-14 -3 -2 11 7 9 11 23 8 31 -4 11 -1 13 10 9 11 -4 14 -2 9 5 -4 7 -2 12 3
12 6 0 11 7 11 15 0 18 14 20 27 3z m-86 -55 c13 -16 12 -17 -3 -4 -10 7 -18
15 -18 17 0 8 8 3 21 -13z m6649 -54 c0 -14 -17 -10 -23 5 -4 10 -1 13 9 9 7
-3 14 -9 14 -14z m333 -16 c-4 -11 -2 -14 5 -9 8 5 10 1 5 -10 -5 -13 -3 -15
7 -9 8 5 11 4 7 -3 -16 -24 -41 -5 -42 31 -2 29 1 35 11 26 7 -6 10 -18 7 -26z
m-246 -8 c4 -22 11 -49 13 -55 1 -3 2 -8 1 -12 0 -4 8 -10 19 -13 11 -4 18
-11 15 -16 -4 -5 -2 -9 4 -9 5 0 11 6 14 13 3 6 4 -2 3 -20 -1 -18 -5 -36 -9
-39 -4 -4 -1 -14 6 -22 9 -13 9 -14 0 -8 -8 4 -13 2 -13 -5 0 -20 -13 -1 -16
24 -1 12 -3 25 -3 30 -1 4 -8 7 -16 7 -9 0 -12 6 -9 15 4 8 -1 17 -10 21 -9 3
-13 10 -10 15 3 5 1 9 -3 9 -5 0 -9 9 -10 21 -1 15 2 19 14 15 12 -5 13 -3 6
6 -6 7 -10 21 -10 31 0 19 9 14 14 -8z m246 -62 c-5 -12 -3 -14 7 -8 9 5 11 4
6 -3 -11 -19 -26 -14 -26 8 0 11 4 20 10 20 5 0 6 -7 3 -17z m-7003 -134 c0
-10 -22 -17 -38 -11 -10 3 -10 7 -2 12 14 9 40 9 40 -1z m39 -26 c-9 -10 -15
-11 -23 -2 -8 8 -8 13 2 16 6 3 9 10 5 16 -4 7 1 6 10 -2 14 -11 15 -17 6 -28z
m6846 7 c3 -5 1 -10 -4 -10 -6 0 -11 5 -11 10 0 6 2 10 4 10 3 0 8 -4 11 -10z
m-532 -65 c-3 -9 -8 -14 -10 -11 -3 3 -2 9 2 15 9 16 15 13 8 -4z m-5526 -2
c-9 -2 -14 -9 -11 -15 4 -7 2 -8 -5 -4 -15 10 -4 26 17 25 15 -1 15 -2 -1 -6z
m5519 -32 c-4 -5 0 -11 6 -14 10 -3 10 -7 1 -17 -9 -10 -9 -19 -2 -33 9 -15 8
-18 -1 -12 -10 6 -11 -1 -6 -30 6 -29 4 -35 -6 -29 -11 6 -11 5 0 -8 8 -10 9
-19 3 -22 -5 -4 -8 -15 -6 -26 3 -14 -1 -17 -12 -13 -12 5 -14 3 -8 -7 5 -9 4
-11 -3 -6 -9 5 -9 13 -2 27 8 14 7 19 -2 19 -10 0 -10 2 1 9 10 6 10 10 1 16
-9 6 -9 9 1 15 7 5 13 17 15 27 1 10 5 27 8 38 5 14 2 12 -8 -5 l-16 -25 6 30
c3 17 7 37 9 45 2 8 4 18 4 23 1 4 6 7 12 7 5 0 8 -4 5 -9z m-6305 -18 c13
-16 12 -17 -3 -4 -10 7 -18 15 -18 17 0 8 8 3 21 -13z m823 -19 c-2 -29 0 -33
12 -23 10 8 14 8 14 0 0 -6 -5 -11 -11 -11 -5 0 -7 -6 -3 -12 6 -10 4 -10 -7
0 -16 15 -39 16 -39 1 0 -5 5 -7 12 -3 7 4 8 3 4 -5 -4 -6 -12 -9 -17 -6 -5 4
-9 0 -10 -7 0 -10 -2 -10 -6 0 -2 6 -10 9 -15 6 -7 -5 -8 -2 -2 7 5 8 7 22 6
32 -2 10 3 17 12 17 9 0 16 7 16 16 0 8 5 12 10 9 6 -3 10 -1 10 4 0 6 4 11 9
11 4 0 7 -16 5 -36z m6155 4 c-5 -10 -11 -18 -12 -18 -2 0 -3 8 -3 18 0 10 6
19 13 19 8 0 9 -6 2 -19z m-7025 -20 c4 4 6 0 4 -8 -1 -8 3 -14 10 -12 16 3
15 -3 -4 -18 -8 -8 -14 -9 -13 -4 4 21 -2 26 -18 13 -9 -8 -14 -9 -10 -2 4 6
2 13 -5 15 -6 2 -8 10 -4 17 6 8 11 9 20 2 7 -6 16 -7 20 -3z m134 -31 c6 2 9
-4 6 -12 -7 -16 -17 -19 -28 -7 -4 4 -11 7 -14 8 -23 3 -40 18 -35 31 5 12 7
12 14 1 7 -10 9 -11 9 0 0 7 5 10 10 7 6 -3 10 0 11 7 1 7 4 2 8 -12 4 -14 13
-24 19 -23z m-58 -28 c0 -5 -4 -9 -8 -9 -5 0 -9 7 -9 15 0 8 4 12 9 9 4 -3 8
-9 8 -15z m6740 11 c0 -5 -5 -10 -11 -10 -5 0 -7 5 -4 10 3 6 8 10 11 10 2 0
4 -4 4 -10z m-6717 -15 c-3 -9 -8 -14 -10 -11 -3 3 -2 9 2 15 9 16 15 13 8 -4z
m3 -190 c2 -11 -2 -13 -14 -6 -10 6 -24 5 -37 -1 -18 -10 -19 -10 -6 6 9 10
21 14 34 10 15 -5 18 -3 12 7 -5 8 -4 10 0 6 5 -4 10 -14 11 -22z m58 17 c3
-5 -1 -9 -9 -9 -8 0 -15 4 -15 9 0 4 4 8 9 8 6 0 12 -4 15 -8z m771 -23 c36 1
41 -1 42 -21 2 -18 0 -20 -7 -8 -9 13 -11 13 -20 0 -9 -13 -10 -13 -11 0 0 10
-3 8 -9 -5 l-9 -20 -1 20 c-1 18 -1 19 -11 3 -5 -10 -15 -18 -22 -18 -7 0 -6
4 3 10 8 5 12 12 8 15 -3 4 -19 -1 -35 -11 -15 -10 -25 -14 -21 -9 4 4 2 15
-5 23 -11 13 -9 14 13 2 22 -12 24 -12 12 2 -10 13 -10 17 0 21 7 2 17 2 22
-1 6 -3 28 -5 51 -3z m-1060 -72 c1 -7 6 -11 13 -9 7 1 12 -5 12 -15 0 -15 -1
-15 -18 0 -10 10 -19 24 -19 32 0 17 12 9 12 -8z m60 -6 c3 -5 0 -13 -6 -17
-7 -4 -9 -3 -5 4 3 5 0 13 -6 15 -9 4 -10 6 -1 6 6 1 14 -3 18 -8z m72 -7 c-3
-3 -12 -4 -19 -1 -8 3 -5 6 6 6 11 1 17 -2 13 -5z m5786 -19 c-3 -9 -8 -14
-10 -11 -3 3 -2 9 2 15 9 16 15 13 8 -4z m427 -1 c0 -8 -19 -13 -24 -6 -3 5 1
9 9 9 8 0 15 -2 15 -3z m-240 -24 c0 -5 -5 -10 -11 -10 -5 0 -7 5 -4 10 3 6 8
10 11 10 2 0 4 -4 4 -10z m-5280 -40 c0 -5 -5 -10 -11 -10 -5 0 -7 5 -4 10 3
6 8 10 11 10 2 0 4 -4 4 -10z m5075 -10 c-3 -5 -12 -10 -18 -10 -7 0 -6 4 3
10 19 12 23 12 15 0z m-5430 -91 c-4 -5 -12 -9 -18 -8 -9 0 -8 2 1 6 6 2 9 10
6 15 -4 7 -2 8 5 4 6 -4 9 -12 6 -17z m360 -143 c7 3 16 0 20 -5 3 -6 10 -9
15 -6 5 3 12 0 16 -6 5 -8 3 -9 -6 -4 -8 5 -11 3 -8 -6 3 -8 11 -13 17 -11 7
1 10 -2 6 -8 -4 -6 -12 -5 -25 2 -10 7 -17 15 -14 19 2 4 -3 9 -11 13 -8 3
-15 1 -15 -4 0 -6 -5 -10 -11 -10 -5 0 -7 5 -4 10 3 6 1 10 -5 10 -6 0 -8 5
-4 12 6 9 9 9 11 1 3 -7 10 -10 18 -7z m95 -31 c0 -12 -19 -12 -23 0 -4 9 -1
12 9 8 7 -3 14 -7 14 -8z m-74 -18 c2 -1 -7 -9 -19 -16 -12 -8 -19 -10 -15 -6
4 5 3 14 -3 21 -8 10 -6 12 11 9 13 -2 24 -6 26 -8z m74 -35 c8 -2 17 -8 18
-13 2 -5 8 -9 13 -9 6 0 8 4 5 8 -2 4 6 8 20 8 13 0 24 -5 24 -10 0 -6 5 -4
10 4 6 9 10 10 10 3 0 -6 12 -13 27 -15 29 -3 45 -28 19 -28 -9 0 -19 -7 -22
-15 -4 -10 -14 -13 -33 -9 -14 3 -32 6 -39 6 -8 1 -7 7 5 20 13 15 14 21 4 31
-10 9 -12 9 -9 -2 2 -8 -6 -14 -19 -16 -12 -1 -21 3 -20 9 1 5 -4 11 -10 12
-7 1 -16 3 -20 4 -5 1 -11 2 -15 1 -10 -1 -10 13 -1 22 4 4 9 4 12 0 3 -5 13
-9 21 -11z m1100 -31 c0 -14 -2 -14 -10 -1 -8 13 -10 12 -10 -4 0 -11 -3 -16
-7 -13 -3 4 -12 2 -20 -4 -9 -9 -13 -8 -13 0 0 6 5 11 11 11 5 0 7 5 4 10 -4
6 -1 9 7 8 7 -2 12 2 11 9 -2 7 4 10 12 7 8 -4 15 -14 15 -23z m-69 -18 c-8
-15 -10 -15 -11 -2 0 17 10 32 18 25 2 -3 -1 -13 -7 -23z m-638 -27 c-3 -5 -1
-6 5 -2 6 4 9 13 6 21 -6 14 19 16 32 2 10 -10 26 -9 20 1 -6 10 21 8 46 -3
14 -5 15 -10 5 -20 -7 -7 -16 -10 -22 -6 -5 4 -20 6 -32 5 -13 -1 -30 -2 -38
-3 -9 -1 -12 -7 -8 -18 4 -12 -1 -9 -14 7 -11 13 -18 30 -15 38 4 11 6 11 13
1 4 -7 5 -17 2 -23z m-318 -16 c3 -6 -1 -7 -9 -4 -18 7 -21 14 -7 14 6 0 13
-4 16 -10z m399 1 c-7 -8 -54 -9 -49 -1 2 3 15 6 29 6 14 0 23 -2 20 -5z
m4336 5 c0 -2 -7 -7 -16 -10 -8 -3 -12 -2 -9 4 6 10 25 14 25 6z m-2379 -89
c-10 -9 -11 -8 -5 6 3 10 9 15 12 12 3 -3 0 -11 -7 -18z m-511 -17 c0 -5 -5
-10 -11 -10 -5 0 -7 5 -4 10 3 6 8 10 11 10 2 0 4 -4 4 -10z m487 -12 c-3 -8
-6 -5 -6 6 -1 11 2 17 5 13 3 -3 4 -12 1 -19z m-1481 -12 c-4 -25 -18 -34 -44
-30 -15 3 -31 9 -36 15 -13 12 0 12 24 -1 15 -8 20 -6 24 8 7 20 35 26 32 8z
m242 -49 c-6 -13 -16 -16 -31 -11 -22 6 -22 6 -2 -11 18 -15 18 -16 1 -11 -14
5 -17 2 -12 -11 6 -14 5 -15 -5 -6 -20 20 -19 45 1 50 10 3 21 14 23 25 5 17
8 18 20 7 11 -10 12 -19 5 -32z m3272 39 c0 -3 -4 -8 -10 -11 -5 -3 -10 -1
-10 4 0 6 5 11 10 11 6 0 10 -2 10 -4z m223 -41 c-3 -9 -8 -14 -10 -11 -3 3
-2 9 2 15 9 16 15 13 8 -4z m-3566 -30 c0 -9 -6 -14 -13 -11 -8 3 -10 -3 -7
-17 4 -18 3 -19 -6 -7 -7 10 -11 11 -11 3 0 -7 -4 -13 -10 -13 -13 0 -9 19 10
42 18 22 37 23 37 3z m3548 5 c3 -5 1 -10 -4 -10 -6 0 -11 5 -11 10 0 6 2 10
4 10 3 0 8 -4 11 -10z m109 -22 c-3 -4 0 -8 6 -8 7 0 5 -7 -4 -16 -9 -8 -16
-23 -16 -32 0 -15 -2 -15 -10 -2 -7 11 -10 11 -10 2 0 -7 -8 -22 -19 -33 -18
-19 -19 -19 -36 -3 -16 17 -16 18 0 24 9 3 16 9 16 13 -3 23 1 29 14 23 8 -3
14 -2 14 2 -3 20 2 32 12 27 6 -4 13 3 16 15 4 16 8 18 14 9 4 -7 5 -17 3 -21z
m-2292 -43 c18 7 34 -10 18 -20 -6 -4 -8 -11 -5 -16 3 -5 -1 -6 -9 -3 -9 3
-13 10 -10 15 10 17 -3 9 -22 -13 -10 -12 -13 -18 -6 -14 6 4 12 2 12 -3 0 -6
-6 -11 -13 -11 -8 0 -14 12 -14 30 0 16 4 27 9 24 4 -3 8 3 8 13 0 13 3 15 8
5 5 -7 16 -10 24 -7z m-1805 -60 c0 -8 -4 -12 -9 -9 -5 3 -6 10 -3 15 9 13 12
11 12 -6z m1089 -61 c-9 -9 -14 -19 -11 -24 3 -4 -1 -10 -9 -13 -10 -4 -13 3
-12 22 0 21 6 27 24 29 21 2 22 0 8 -14z m541 0 c0 -7 -4 -11 -9 -8 -4 3 -8
-2 -8 -10 0 -9 -4 -16 -9 -16 -4 0 -6 11 -4 23 5 25 30 33 30 11z m1719 -132
c1 -7 0 -8 -3 -2 -2 5 -9 10 -14 10 -6 0 -7 -4 -4 -10 3 -6 -1 -7 -10 -3 -13
5 -14 7 -3 14 16 11 31 7 34 -9z m-3376 -7 c11 -13 10 -14 -4 -9 -9 3 -16 10
-16 15 0 13 6 11 20 -6z m3345 -15 c3 -6 -1 -7 -9 -4 -18 7 -21 14 -7 14 6 0
13 -4 16 -10z m-2312 -7 c-7 -3 -13 -14 -13 -26 0 -20 0 -20 -14 -2 -13 18
-14 17 -9 -10 3 -23 2 -27 -6 -15 -9 13 -11 13 -11 -1 0 -9 -11 -24 -24 -35
-14 -10 -23 -21 -20 -26 3 -4 -2 -5 -11 -2 -10 4 -14 1 -12 -7 2 -8 2 -10 -1
-5 -2 4 -8 2 -12 -5 -12 -18 -40 -20 -40 -2 0 13 2 13 17 2 15 -12 16 -12 10
3 -4 11 -2 17 5 15 5 -1 12 6 13 16 2 9 -1 15 -6 11 -5 -3 -9 1 -9 8 0 8 -13
15 -29 16 -25 2 -29 -1 -26 -19 3 -17 1 -19 -10 -9 -10 8 -15 8 -20 0 -4 -6
-13 -9 -21 -6 -8 3 -14 1 -14 -4 0 -6 -3 -9 -7 -9 -5 1 -17 1 -28 0 -16 -1
-17 -3 -5 -11 8 -5 12 -11 9 -15 -3 -3 -14 4 -25 16 -10 11 -14 20 -9 19 21
-4 36 0 31 9 -3 5 2 12 12 16 27 12 43 14 37 4 -8 -12 26 1 46 18 9 7 19 10
22 6 4 -3 7 -1 7 5 0 6 7 9 17 5 10 -4 14 -2 10 4 -3 5 0 10 8 10 8 0 11 -5 8
-11 -4 -5 9 1 27 14 18 13 30 19 26 12 -5 -8 0 -8 17 1 13 7 35 13 48 14 13 0
18 -1 12 -4z m-713 -17 c-7 -7 -14 -6 -21 1 -9 9 -7 12 9 10 14 -1 18 -5 12
-11z m2325 -75 c-1 -9 -9 -16 -18 -15 -53 2 -58 5 -55 22 2 9 10 16 16 15 7
-2 11 0 11 5 -1 4 -1 16 0 26 1 17 4 16 25 -9 13 -15 23 -35 21 -44z m-105 49
c-8 -5 -15 -15 -15 -21 0 -7 -7 -14 -15 -16 -13 -4 -13 -3 0 6 8 6 11 11 6 11
-5 0 -3 7 4 15 7 8 18 15 24 15 6 0 4 -5 -4 -10z m-1852 -75 c0 -14 -4 -28 -9
-31 -5 -3 -6 1 -4 8 4 9 -2 14 -15 15 -11 1 -18 -2 -15 -7 3 -5 1 -12 -5 -15
-6 -4 -10 -3 -9 2 4 21 -2 24 -18 12 -16 -13 -17 -12 -4 3 7 10 16 16 20 14 3
-2 17 2 31 10 14 7 26 13 26 14 1 0 2 -11 2 -25z m334 -3 c-7 -2 -10 -8 -6
-13 3 -5 0 -9 -5 -9 -12 0 -15 23 -5 33 4 4 12 4 17 0 8 -5 7 -8 -1 -11z
m1600 -9 c-6 -2 -9 -10 -6 -15 4 -7 2 -8 -5 -4 -13 9 -5 26 12 25 9 0 8 -2 -1
-6z m323 -3 c-3 -5 -12 -10 -18 -10 -7 0 -6 4 3 10 19 12 23 12 15 0z m81 -82
c-7 -5 -3 -8 9 -8 15 0 17 -3 7 -9 -8 -4 -13 -11 -13 -15 1 -3 -2 -6 -5 -5 -4
0 -10 -5 -14 -11 -4 -7 -19 -14 -33 -15 -14 -2 -32 -7 -39 -11 -7 -4 -10 -4
-6 1 4 4 2 15 -5 23 -9 13 -9 14 1 8 7 -4 12 -2 12 4 0 6 4 9 9 5 5 -3 18 6
29 20 11 13 22 21 26 18 3 -3 6 1 6 11 0 14 2 15 14 4 10 -9 11 -15 2 -20z
m-1062 -4 c3 -8 2 -12 -4 -9 -6 3 -10 10 -10 16 0 14 7 11 14 -7z m1011 -4
c-3 -5 -12 -10 -18 -10 -7 0 -6 4 3 10 19 12 23 12 15 0z"/>
<path d="M1035 7980 c-3 -5 -2 -10 4 -10 5 0 13 5 16 10 3 6 2 10 -4 10 -5 0
-13 -4 -16 -10z"/>
<path d="M1645 4070 c-8 -13 9 -20 24 -11 10 6 9 10 -3 14 -8 3 -18 2 -21 -3z"/>
<path d="M9043 3015 c0 -8 4 -12 9 -9 4 3 8 9 8 15 0 5 -4 9 -8 9 -5 0 -9 -7
-9 -15z"/>
<path d="M2017 2633 c-9 -8 12 -33 27 -33 6 0 3 5 -7 11 -9 6 -15 14 -12 20 7
10 2 12 -8 2z"/>
<path d="M2125 2549 c-4 -6 -5 -12 -2 -15 2 -3 7 2 10 11 7 17 1 20 -8 4z"/>
<path d="M8273 1935 c0 -8 4 -12 9 -9 5 3 6 10 3 15 -9 13 -12 11 -12 -6z"/>
<path d="M2800 1105 c-9 -10 -9 -15 -1 -16 36 -4 45 -3 49 10 3 8 0 11 -7 7
-6 -4 -11 -2 -11 3 0 16 -16 13 -30 -4z"/>
<path d="M1000 7809 c6 -8 5 -19 -1 -32 -8 -13 -8 -22 0 -28 6 -5 9 -6 6 -3
-2 4 0 16 6 26 9 16 7 23 -5 34 -9 8 -12 9 -6 3z"/>
<path d="M1061 6775 c-19 -20 -32 -36 -30 -38 2 -1 13 -9 23 -17 11 -8 17 -10
13 -3 -4 7 1 14 13 18 16 5 18 10 10 25 -14 27 -12 37 3 16 12 -16 14 -16 14
-2 0 9 -4 16 -9 16 -5 0 -6 5 -3 10 11 18 0 10 -34 -25z m16 -20 c0 -8 -4 -12
-9 -9 -4 3 -8 0 -8 -7 0 -7 -3 -9 -6 -6 -4 4 -1 13 6 22 15 19 17 19 17 0z"/>
<path d="M7395 6770 c-3 -5 -1 -10 4 -10 6 0 11 5 11 10 0 6 -2 10 -4 10 -3 0
-8 -4 -11 -10z"/>
<path d="M1125 6700 c-4 -6 -11 -8 -16 -5 -5 3 -6 -1 -3 -9 3 -9 11 -16 17
-16 6 0 7 3 4 7 -4 3 -2 12 4 20 6 7 9 13 6 13 -3 0 -9 -5 -12 -10z"/>
<path d="M3375 6700 c-3 -5 -1 -10 4 -10 6 0 11 5 11 10 0 6 -2 10 -4 10 -3 0
-8 -4 -11 -10z"/>
<path d="M1167 6625 c3 -8 9 -12 14 -9 12 7 11 11 -5 17 -10 4 -13 1 -9 -8z"/>
<path d="M1250 6196 c0 -2 7 -6 15 -10 8 -3 15 -1 15 4 0 6 -7 10 -15 10 -8 0
-15 -2 -15 -4z"/>
<path d="M1287 5463 c3 -13 9 -23 14 -23 5 0 9 -6 9 -14 0 -15 16 -16 38 -3
17 11 4 30 -16 22 -10 -4 -23 3 -34 17 l-17 23 6 -22z m63 -27 c0 -3 -4 -8
-10 -11 -5 -3 -10 -1 -10 4 0 6 5 11 10 11 6 0 10 -2 10 -4z"/>
<path d="M1515 4620 c6 -30 16 -40 12 -12 -2 12 -6 24 -10 28 -3 4 -4 -4 -2
-16z"/>
<path d="M1630 4589 c0 -5 5 -7 10 -4 6 3 10 8 10 11 0 2 -4 4 -10 4 -5 0 -10
-5 -10 -11z"/>
<path d="M1631 4476 c-10 -12 -8 -17 9 -26 20 -10 21 -10 11 8 -6 11 -7 22 -4
26 3 3 4 6 1 6 -3 0 -11 -6 -17 -14z"/>
<path d="M1590 4343 c0 -21 45 -39 56 -22 5 8 -10 13 -30 10 -5 -1 -13 4 -17
11 -6 9 -9 9 -9 1z"/>
<path d="M1792 2021 c1 -16 6 -27 10 -25 4 3 8 0 8 -6 0 -14 26 -41 33 -34 3
3 8 1 11 -5 4 -6 -2 -8 -14 -6 -17 3 -20 0 -15 -15 4 -12 2 -20 -5 -20 -6 0
-8 5 -4 12 5 7 3 8 -5 3 -10 -6 -11 -3 -2 13 9 16 7 21 -8 25 -10 2 -25 1 -32
-4 -11 -7 -10 -9 4 -9 9 0 17 -6 17 -12 0 -7 10 -24 21 -38 11 -14 18 -18 14
-10 -4 8 1 6 9 -4 9 -11 19 -16 23 -13 3 4 3 7 -2 7 -4 0 -1 8 6 17 12 14 12
16 -2 11 -9 -4 -16 -1 -16 7 0 7 6 11 13 8 17 -6 11 27 -8 41 -23 17 -40 54
-28 61 17 10 11 25 -10 25 -16 0 -20 -6 -18 -29z"/>
<path d="M1736 1971 c-4 -5 3 -7 14 -4 23 6 26 13 6 13 -8 0 -17 -4 -20 -9z"/>
<path d="M7764 1268 c-19 -23 -19 -23 2 -5 11 9 24 14 29 10 4 -5 5 -2 1 5 -9
16 -10 16 -32 -10z"/>
<path d="M3440 769 c0 -5 5 -7 10 -4 6 3 10 8 10 11 0 2 -4 4 -10 4 -5 0 -10
-5 -10 -11z"/>
</g>
</svg>
