<svg xmlns:dc="http://purl.org/dc/elements/1.1/" xmlns:cc="http://creativecommons.org/ns#" xmlns:rdf="http://www.w3.org/1999/02/22-rdf-syntax-ns#" xmlns:svg="http://www.w3.org/2000/svg" xmlns="http://www.w3.org/2000/svg" xmlns:sodipodi="http://sodipodi.sourceforge.net/DTD/sodipodi-0.dtd" xmlns:inkscape="http://www.inkscape.org/namespaces/inkscape" width="707.11127" height="767.87543" id="svg2" version="1.1" inkscape:version="0.48.0 r9654" style="display:inline" sodipodi:docname="New document 1">
    <defs id="defs4" />
    <sodipodi:namedview id="base" pagecolor="#ffffff" bordercolor="#666666" borderopacity="1.0" inkscape:pageopacity="0.0" inkscape:pageshadow="2" inkscape:zoom="0.98994949" inkscape:cx="544.3926" inkscape:cy="370.62072" inkscape:document-units="px" inkscape:current-layer="layer2" showgrid="false" showguides="true" inkscape:guide-bbox="true" fit-margin-top="0" fit-margin-left="0" fit-margin-right="0" fit-margin-bottom="0" inkscape:window-width="1920" inkscape:window-height="1018" inkscape:window-x="-8" inkscape:window-y="-8" inkscape:window-maximized="1" />
    <metadata id="metadata7">
        <rdf:RDF>
            <cc:Work rdf:about="">
                <dc:format>image/svg+xml</dc:format>
                <dc:type rdf:resource="http://purl.org/dc/dcmitype/StillImage" />
                <dc:title />
            </cc:Work>
        </rdf:RDF>
    </metadata>
    <g inkscape:groupmode="layer" id="layer2" inkscape:label="lines" sodipodi:insensitive="true" transform="translate(-53.834248,-133.12424)">
        <path style="fill:#000000;fill-opacity:1;fill-rule:nonzero;stroke:#000000;stroke-width:0.05;stroke-linejoin:miter;stroke-miterlimit:4;stroke-opacity:0.3529416;stroke-dasharray:none" d="m 428.60247,311.45129 c 15.93002,-18.94952 37.45169,-32.00941 55.20298,-49.17172 28.89448,-22.78666 67.84,-46.95208 105.30594,-29.54846 24.55583,13.54651 38.86804,42.797 35.60228,70.63568 -2.12364,32.89095 -22.21405,60.6642 -38.23861,88.22522 -17.42157,20.62891 -33.75524,47.75233 -33.17983,74.53429 11.6133,4.77155 23.81739,-5.7803 34.08709,-10.89484 2.90902,-2.54749 42.03811,-14.61528 56.47689,-25.25295 26.32735,-17.90552 55.24339,-31.53821 86.53335,-37.83799 9.14935,-1.34426 27.11831,-7.98979 30.49047,5.07839 -5.611,25.15664 -25.44605,45.93686 -36.20892,69.54061 -15.48698,30.79298 -23.33285,72.77539 -60.23106,85.47578 -12.1159,7.01228 -43.2706,3.94745 -47.75401,6.36982 -5.13933,16.37422 20.46382,25.43512 10.85394,41.78776 -19.87545,16.06053 -48.51251,15.92742 -72.86932,20.94441 -13.60369,4.02402 -50.82465,-1.60921 -25.5707,12.98381 23.62509,17.38922 13.44986,51.67846 -17.1584,51.20656 -25.88579,7.88267 -46.38781,29.20668 -51.56846,55.89917 -7.96556,30.01663 -34.92033,48.5411 -58.52006,65.78112 -1.46724,22.25865 -31.74795,26.16877 -43.82297,43.00254 -11.8451,14.93967 -28.96803,27.68429 -47.73236,31.94584 -24.51773,-1.90977 0.73269,-14.25072 9.18225,-14.37295 20.15313,-9.29612 28.89538,-25.44662 46.87771,-38.94034 25.75326,-10.34843 26.66584,-35.9608 51.93385,-47.86803 17.79592,-13.13463 30.81562,-32.05697 34.86692,-54.01593 10.31382,-32.26155 42.05048,-49.77756 73.00809,-57.76237 19.09442,-12.87383 -15.88928,-30.89153 -15.8409,-44.57589 11.92626,-21.16712 47.98725,-9.37606 68.90007,-18.35434 10.00938,-6.46779 37.42077,-1.1256 38.80521,-15.84248 -8.46472,-10.45872 -16.41105,-23.14641 -11.38892,-37.17101 14.85961,-14.63472 39.56319,-1.15854 56.85882,-12.53531 35.43921,-15.94029 37.44508,-60.05375 56.98546,-89.08136 8.77996,-15.04647 24.63913,-41.88811 29.79022,-52.61144 7.27547,3.68295 -11.73984,0.0949 -17.25551,3.99559 -30.30767,5.93935 -58.08882,19.45177 -83.53408,36.73567 -15.45806,11.88253 -50.26846,20.59332 -56.5002,25.33348 -14.25064,7.33613 -33.54098,20.94869 -48.43573,7.65535 -6.28655,-15.528 1.96742,-33.52527 7.54294,-48.34007 12.10547,-26.52686 34.55905,-46.53754 45.33095,-73.93112 18.54468,-28.29661 25.7519,-70.75657 0.38317,-97.31568 -19.69964,-23.88835 -56.15035,-17.22642 -79.1305,-1.86389 -28.0707,15.13087 -49.53081,39.23673 -74.80628,58.17939 -5.23721,6.13026 -10.27706,14.24443 -15.27178,1.97769 z" id="path3448" inkscape:connector-curvature="0" />
        <path style="fill:#000000;fill-opacity:1;fill-rule:nonzero;stroke:#000000;stroke-width:0.05;stroke-linejoin:miter;stroke-miterlimit:4;stroke-opacity:0.3529416;stroke-dasharray:none" d="m 437.24294,316.93794 c -9.40521,5.21533 -21.34082,-0.68609 -21.73539,-6.6784 -5.32726,-20.66907 9.76107,-40.30768 9.71622,-61.10147 7.43531,-24.76504 11.17379,-53.89266 -6.30436,-75.69264 -14.70293,-19.89072 -41.00709,-29.81596 -65.10871,-29.10536 -11.51444,4.12814 -28.95296,19.40724 -34.98397,23.15649 -3.67301,2.69857 17.85735,9.69646 21.46349,20.66856 13.99217,18.11713 27.88357,44.97893 14.86865,66.80743 -10.06485,11.45567 -36.65371,-2.85603 -38.42185,16.45421 -7.16542,25.26692 23.94361,46.4897 12.97764,71.49806 -14.80404,20.67867 -60.58045,24.14399 -46.28246,58.99237 7.17388,21.12245 4.77489,49.23507 -11.4173,65.25077 -19.73246,20.35761 -40.36659,42.28231 -39.71693,72.77202 -6.16879,28.84459 7.1091,58.58605 -5.14099,86.67199 -12.44805,33.50051 -25.30624,68.4471 -48.6118,95.98797 -21.59845,15.84175 -42.63229,34.8409 -42.05858,64.08117 -13.6002,37.8026 -45.812178,63.34807 -69.429773,94.44894 -11.832031,14.47158 26.52856,6.656 37.376203,4.00463 44.97669,-9.16707 89.85184,-20.78075 136.17411,-18.89754 22.86263,2.02296 48.08649,-5.14163 69.0896,6.77792 6.72578,16.73166 -11.87558,6.2278 -20.09254,4.49601 -51.47925,-0.75143 -103.56865,-1.34019 -153.63153,12.51555 -25.82032,0.98995 -62.020794,24.28992 -82.075922,-0.45111 1.997305,-23.76539 26.578338,-36.37437 38.074048,-55.41691 24.139184,-20.95551 34.820574,-51.58322 41.434224,-81.42265 12.53677,-26.29656 46.28257,-35.11033 54.74257,-64.85143 17.50234,-35.39187 40.21502,-74.18468 31.31975,-115.14218 -0.29259,-33.7363 2.23333,-72.21061 29.00157,-96.30864 16.63389,-13.9827 28.83917,-31.25089 28.02405,-53.90982 -7.29338,-24.44308 -12.06089,-58.05886 18.47625,-68.71697 17.71395,-4.19211 34.72646,-20.10963 21.33317,-37.91663 -9.48201,-18.17995 -18.69968,-42.16196 -4.14253,-60.25879 8.29243,-14.21805 38.28653,3.52876 36.7855,-17.14481 -0.0205,-22.30766 -14.14901,-43.33901 -31.04991,-56.76176 -15.7219,-4.4104 -11.34581,-23.36775 1.06705,-28.67852 20.33586,-19.91129 49.38957,-26.60577 74.9769,-12.02271 39.77257,13.45034 58.9491,62.44856 43.84135,100.56072 -1.44995,21.21075 -10.98183,41.17749 -12.66925,62.07694 -0.74313,3.65818 4.08389,5.18136 -0.19238,4.2975 8.37175,-2.59087 16.71875,-2.1038 12.32383,8.95909 z" id="path3450" inkscape:connector-curvature="0" />
        <path style="fill:#000000;fill-opacity:1;fill-rule:nonzero;stroke:#000000;stroke-width:0.05;stroke-linejoin:miter;stroke-miterlimit:4;stroke-opacity:0.3529416;stroke-dasharray:none" d="m 464.41247,313.48596 c 5.27353,-4.04721 12.33756,-4.44036 18.29246,-7.31588 6.00133,-3.43664 11.39644,-8.04157 15.60394,-13.52998 1.62983,-4.40489 5.49976,-6.96268 8.79713,-10.02501 3.21164,-4.49067 8.28841,-7.73243 13.86712,-8.05149 5.18388,-1.25101 10.55741,-0.92443 15.8378,-0.77397 5.64155,2.06773 7.91106,8.55159 8.29209,14.07782 0.7343,4.51877 0.82514,10.43363 -4.00921,12.75873 -6.60337,3.85412 -15.15495,3.80143 -20.87423,9.25282 -3.3124,5.07233 -8.77852,9.84563 -15.24599,9.08565 -3.49127,-0.62214 -6.74079,2.17505 -10.08489,0.40232 -0.1899,2.43915 -5.06181,6.79884 -8.5007,4.32248 -4.55383,-0.78586 -7.87546,3.33355 -11.44179,5.44133 -3.85947,2.70086 -9.72445,2.72442 -13.35527,-0.36317 -1.63138,-1.0873 -1.52839,-5.14715 0.17058,-1.76932 -2.3754,0.0482 -7.74392,1.48119 -9.63654,-1.59106 -0.93073,-4.61249 3.60544,-8.01522 7.17843,-9.9897 3.65481,-1.52866 8.56689,-5.10989 12.34143,-3.06043 1.33877,4.33756 -4.00001,3.10598 -6.37241,4.60109 -3.11485,1.17411 -6.87993,3.50782 -8.62563,5.795 -0.31365,3.02176 -3.1355,-0.54516 0.10786,0.25912 3.48387,-0.21413 7.09932,-0.006 8.69825,3.58086 4.6388,1.81375 8.59442,-1.94689 12.15047,-4.36393 3.24522,-3.33611 8.16846,-3.03594 12.34007,-1.96922 -2.72805,1.87695 2.1604,-2.96044 2.80329,-3.99527 3.11628,-1.53964 6.82155,-0.10662 10.02622,-1.40465 3.73208,0.29633 7.81887,-0.11078 10.49403,-3.0622 2.76142,-2.53515 4.40605,-6.19798 7.98214,-7.79894 5.69678,-3.46194 12.71348,-3.7646 18.36103,-7.27127 3.50715,-3.34941 1.13317,-8.92166 0.81168,-13.13349 -1.16946,-5.42611 -6.76412,-7.05742 -11.56915,-5.9891 -4.61727,0.50938 -9.64369,0.56306 -13.79144,2.85034 -3.71626,2.5051 -5.92837,6.71461 -9.87675,8.94223 -2.5282,2.86921 -3.76445,6.71162 -6.74904,9.23573 -5.89564,6.36057 -13.21086,11.25907 -21.18691,14.62401 -3.62784,1.23108 -8.19051,3.51209 -11.64172,3.07166 -0.67977,-0.66738 -1.4462,-1.81527 -1.19435,-2.84311 z" id="path4328" inkscape:connector-curvature="0" sodipodi:nodetypes="ccccccccccccccccccccccccccccccccccccc" />
        <path style="fill:#000000;fill-opacity:1;fill-rule:nonzero;stroke:#000000;stroke-width:0.05;stroke-linejoin:miter;stroke-miterlimit:4;stroke-opacity:0.3529416;stroke-dasharray:none" d="m 558.85955,310.94786 c 4.81789,-3.27303 9.37575,-7.0014 14.45301,-9.84962 3.87771,-1.4127 8.63309,-0.75107 11.92871,1.75621 2.46489,2.81953 1.55646,7.16514 1.15534,10.56439 -1.23106,3.80287 -4.31082,6.64942 -7.46448,8.93268 -1.93511,3.75436 -2.40945,8.08292 -2.61901,12.24442 -0.0418,4.00061 0.20938,8.16991 -1.65029,11.8565 -0.99596,4.11938 -1.28891,8.52297 0.004,12.61213 1.20614,5.7747 -3.27956,10.42805 -6.75332,14.41432 -2.46898,3.60044 -3.95023,7.73499 -5.68765,11.68756 -0.99011,3.39108 -0.99134,7.91115 -5.33648,8.6359 -3.83837,2.49045 -6.73295,-2.61042 -9.00066,-5.04396 -2.78593,-3.16767 -2.19508,-7.70843 -1.84751,-11.58699 0.78125,-6.463 4.32985,-12.05303 7.64292,-17.49091 0.90157,-1.56777 2.91576,-2.1998 2.16265,-2.72656 0.97189,-3.49294 -1.6537,-6.01961 -3.55669,-8.54723 -2.21698,-2.80515 -3.81902,-6.03846 -6.22738,-8.70792 -2.21409,-3.19344 -0.27878,-7.1199 0.5468,-10.43433 1.39927,-3.44382 4.16112,-6.18264 5.61183,-9.50163 -0.31574,-3.47551 0.58942,-6.88311 3.17957,-9.33632 2.14992,-2.71269 5.83564,-2.40833 8.96988,-3.33289 2.78668,1.96908 4.5292,3.05238 1.59998,3.07789 -3.96726,0.63374 -10.18409,5.51483 -9.56844,9.38343 -0.0308,3.92777 -3.72643,6.3388 -5.12189,9.75339 -1.35065,3.0032 -3.57576,7.32604 -0.31452,9.88692 2.42249,3.29238 4.46031,6.8411 7.12285,9.96353 2.41448,2.75141 2.19038,6.55899 1.63546,9.90795 -2.61407,2.81174 -4.75641,6.02887 -6.38971,9.54652 -2.8781,4.7919 -4.05023,10.6857 -3.09912,16.18527 0.50733,1.95943 5.23653,5.2782 4.3217,5.69124 -1.47852,0.6396 5.31102,-3.11204 2.2692,-0.66619 0.78813,-3.56779 1.66215,-7.16077 3.43748,-10.37288 1.72342,-4.80521 4.56471,-9.10988 8.08503,-12.78167 3.00454,-3.05794 2.55623,-7.26331 1.46118,-11.01681 -0.24769,-4.52731 0.23839,-9.18004 2.05163,-13.37215 0.76562,-4.98041 -0.0644,-10.1238 1.26544,-15.05081 0.51575,-4.02036 2.19825,-8.13706 5.94839,-10.1349 3.0635,-2.43392 4.30461,-6.23916 3.67229,-10.05891 -0.13275,-2.90481 -4.56825,-2.5473 -6.72266,-2.60944 -3.56237,1.17444 -5.90117,3.91342 -9.07642,5.84003 -3.33305,0.66252 -7.1105,3.57683 -8.66928,-1.39662 -0.0102,-0.003 0.31647,2.14118 0.58045,2.07846 z" id="path3454" inkscape:connector-curvature="0" sodipodi:nodetypes="ccccccccccccccccccccccccccccccccccccccccccc" />
        <path style="fill:#000000;fill-opacity:1;fill-rule:nonzero;stroke:#000000;stroke-width:0.05;stroke-linejoin:miter;stroke-miterlimit:4;stroke-opacity:0.3529416;stroke-dasharray:none" id="path3456" d="m 437.17723,363.04897 c -2.0433,0.61704 -4.0816,1.2525 -6.086,1.98716 -1.15836,0.41665 -2.23329,1.01292 -3.26025,1.68443 -0.63392,0.43077 -1.22521,0.91879 -1.79247,1.43305 -0.25845,0.23306 -0.50773,0.47527 -0.7508,0.72413 -0.1646,0.24033 0.0487,-0.14502 -0.0192,0.0573 -0.13334,0.29994 -0.29753,0.5838 -0.46422,0.86594 -0.0379,0.0423 0.058,-0.0976 0.0872,-0.14639 -0.0301,0.16071 -0.0282,0.4569 -0.0255,0.55309 0.0713,0.20824 0.15071,0.41269 0.24238,0.61288 0.0754,0.18944 0.19226,0.33896 0.33035,0.48217 0.20302,0.2039 0.44131,0.35883 0.69209,0.49628 0.37161,0.21156 0.78686,0.31673 1.20086,0.40836 0.69506,0.13983 1.40281,0.19794 2.10866,0.2518 0.6762,0.0484 1.35376,0.0714 2.03111,0.0964 0.66416,0.0227 1.32814,0.031 1.99203,-8.6e-4 0.9231,-0.069 1.83234,-0.26042 2.73662,-0.45072 0.90862,-0.18908 1.80252,-0.43927 2.68042,-0.739 0.60106,-0.18831 1.10924,-0.55033 1.60154,-0.93077 0.41026,-0.33898 0.81447,-0.68616 1.20366,-1.04927 0.51103,-0.44624 1.06166,-0.8453 1.60225,-1.25467 0.66376,-0.5071 1.33881,-0.99916 2.02334,-1.47779 0.50873,-0.37871 1.08297,-0.63848 1.66983,-0.86835 0.57362,-0.21825 1.15265,-0.42206 1.73421,-0.61803 0.63406,-0.21559 1.27644,-0.40584 1.92209,-0.58337 0.58806,-0.15197 1.17457,-0.30985 1.76176,-0.46521 0.74894,-0.20662 1.50588,-0.38228 2.26724,-0.5363 0.46339,-0.0923 0.92709,-0.18398 1.39277,-0.26414 0.54367,-0.11147 1.08467,-0.10309 1.63338,-0.0402 0.86957,0.15838 1.62634,0.61303 2.37839,1.051 0.43212,0.27338 0.90153,0.46905 1.38048,0.64205 0.43325,0.15171 0.87433,0.28187 1.32183,0.38418 0.47069,0.10028 0.9509,0.14144 1.42978,0.17955 0.49293,0.0704 0.96111,-0.0276 1.43385,-0.15402 0.41451,-0.0999 0.79693,-0.28253 1.17309,-0.47745 0.44092,-0.24215 0.85468,-0.52922 1.27032,-0.81151 0.61889,-0.42989 1.24441,-0.84986 1.87313,-1.2652 0.7725,-0.49602 1.52276,-1.02532 2.2685,-1.56037 0.70151,-0.50472 1.40631,-1.0043 2.08716,-1.53676 0.75228,-0.58762 1.45989,-1.22807 2.15641,-1.87985 0.36416,-0.34819 0.7341,-0.69022 1.10402,-1.03226 0.44977,-0.45241 0.9789,-0.80734 1.51867,-1.14156 0.61668,-0.35789 1.24705,-0.69202 1.8806,-1.01895 0.31885,-0.16378 0.63637,-0.33013 0.9547,-0.49491 0.42007,-0.23321 0.8851,-0.33134 1.35636,-0.39197 0.4249,-0.0454 0.8522,-0.0604 1.27909,-0.073 0.46589,-0.0205 0.92955,-0.0184 1.39403,0.0225 0.63307,0.1223 1.26366,0.2443 1.9038,0.32511 0.88643,0.0786 1.75802,0.21264 2.60208,0.49708 1.09137,0.42909 1.69726,1.32537 2.11954,2.36773 0.18418,0.4609 0.37039,0.92082 0.53245,1.39011 0.0447,0.14794 0.28581,0.80606 0.0941,0.32292 -0.11873,-0.23002 -0.30559,-0.37195 -0.50769,-0.52686 0.52328,0.29841 0.88873,0.77656 1.23216,1.25772 0.3366,0.4729 0.67481,0.94454 0.99613,1.42802 0.30616,0.46356 0.60311,0.93294 0.88144,1.41373 0.34201,0.57753 0.6213,1.18783 0.90241,1.7963 0.16654,0.38914 0.38662,0.75008 0.60791,1.10947 0.15429,0.31853 0.44284,0.5662 -0.0244,0.0931 -0.49859,-0.29075 -0.30243,-0.21649 0.10962,-0.13123 0.45453,0.0901 0.87561,0.27965 1.29095,0.47779 0.3353,0.15496 0.65584,0.33328 0.95721,0.54663 0.21107,0.16786 0.39741,0.36161 0.60408,0.53447 0.33225,0.24088 0.64881,0.50047 0.95406,0.77455 0.28412,0.27645 0.57176,0.54754 0.88466,0.79125 0.3269,0.24712 0.66747,0.47522 0.99894,0.71607 0.52956,0.37739 0.89579,0.9089 1.23421,1.45293 0.63463,0.99569 0.88214,2.14661 1.08128,3.2926 0.17664,1.1471 0.27327,2.30435 0.35795,3.46123 0.0454,0.63777 0.0849,1.276 0.11774,1.91455 0.0135,0.25362 0.0254,0.50727 0.0358,0.76102 0.021,0.66326 -0.27426,1.22753 -0.55314,1.80277 -0.0941,0.19023 -0.18591,0.38157 -0.28002,0.57178 -0.009,0.0195 -0.0189,0.0389 -0.0284,0.0583 0.16212,-0.73305 0.10203,-0.1706 0.098,0.24109 -0.008,0.69421 -0.0111,1.38846 -0.0136,2.08271 -0.006,0.36611 -0.009,0.73001 0.032,1.09387 0.0858,0.67307 0.237,1.3339 0.40971,1.98919 0.17295,0.61736 0.35504,1.23221 0.54325,1.84509 0.14647,0.51031 0.33506,1.00549 0.5424,1.49363 0.12478,0.28271 0.27121,0.55508 0.4142,0.82882 0.18379,0.36534 0.12028,0.20841 -0.0843,-0.0536 -0.0381,-0.0458 -0.1012,-0.0994 -0.14165,-0.1392 0.24655,0.18744 0.19243,0.0856 -0.80888,-0.32536 1.26881,0.0657 1.92478,1.236 2.30869,2.26433 0.14313,0.37385 0.30251,0.74104 0.44839,1.1138 0.17306,0.4326 0.25776,0.8905 0.3252,1.34921 0.0604,0.45128 0.0754,0.90645 0.0861,1.36107 0.0143,0.65681 0.0208,1.31377 0.0231,1.97073 -4.9e-4,0.67455 9.5e-4,1.34816 0.0444,2.02147 0.0595,0.73582 0.10128,1.47259 0.13295,2.21007 0.0263,0.77743 0.0436,1.55509 0.0534,2.33289 0.007,0.5638 0.0152,1.12762 0.0169,1.69147 0.005,0.52339 0.006,1.04681 0.007,1.57023 -7.4e-4,0.56164 4.8e-4,1.12329 8.3e-4,1.68494 0.0158,0.57213 0.0593,1.14303 0.0892,1.71453 0.0316,0.61072 0.0502,1.22204 0.066,1.83334 0.0111,0.34668 0.0188,0.69339 0.0211,1.04023 0.005,0.43463 0.007,0.8693 0.008,1.30396 2e-4,0.64551 0.004,1.29103 2.2e-4,1.93653 -0.004,0.35136 -0.0139,0.71636 0.0323,1.05618 -0.087,-0.33496 0.18474,-0.0167 0.31627,0.0809 0.57552,0.39897 1.18476,0.74686 1.79699,1.08569 0.69909,0.37514 1.42662,0.69281 2.14304,1.03258 0.53379,0.239 1.03765,0.53368 1.52499,0.85536 0.58503,0.38394 1.00728,0.90916 1.34431,1.5139 0.2853,0.61081 0.47253,1.26167 0.66837,1.9052 0.2034,0.60995 0.37757,1.22881 0.51229,1.85744 0.12443,0.60356 0.17789,1.21821 0.22261,1.83184 0.0259,0.38656 0.0456,0.77348 0.0618,1.16056 0.0852,0.50828 -0.2725,-0.63436 -0.35409,-0.84095 0.25448,0.16146 0.53544,0.26419 0.82046,0.35632 0.30906,0.0964 0.6275,0.14875 0.949,0.17869 0.6188,0.0185 1.22378,-0.27178 1.79238,-0.48798 0.73955,-0.29641 1.46657,-0.6227 2.19269,-0.95025 0.27661,-0.21369 -0.13262,0.21058 0.17029,-0.37426 0.35315,-0.708 0.60043,-1.45971 0.80655,-2.22149 0.17333,-0.65868 0.29171,-1.32969 0.38199,-2.00424 0.0817,-0.66147 0.10772,-1.32794 0.13283,-1.99342 0.026,-0.63379 0.008,-1.26697 -0.0182,-1.90025 -0.0278,-0.67127 -0.0468,-1.34286 -0.061,-2.01454 -0.0135,-0.72597 -0.019,-1.45202 -0.0233,-2.17809 -0.003,-0.78362 -0.006,-1.56724 -0.008,-2.35087 -0.0106,-0.58308 0.0129,-1.16692 -0.0109,-1.7497 -0.0279,-0.55584 -0.11458,-1.10646 -0.18996,-1.65726 -0.12443,-0.91348 -0.24188,-1.82765 -0.33984,-2.74436 -0.0949,-0.99569 -0.16753,-1.99333 -0.2514,-2.98998 -0.0769,-0.86805 -0.12636,-1.73808 -0.1648,-2.60858 -0.0308,-0.76743 -0.0476,-1.53528 -0.0597,-2.3032 -0.0458,-1.04027 0.10114,-2.06895 0.32542,-3.0813 0.2153,-0.8791 0.54132,-1.72472 0.8528,-2.57276 0.24529,-0.64087 0.49147,-1.2814 0.73854,-1.92159 0.28009,-0.64226 0.44867,-1.31967 0.58511,-2.00421 0.1399,-0.78437 0.20925,-1.57881 0.26699,-2.37272 0.0262,-0.58617 0.13345,-1.1817 -0.0428,-1.75259 -0.31291,-0.70391 -0.68463,-1.38025 -1.0356,-2.06565 -0.56581,-1.11996 -1.09856,-2.25607 -1.66318,-3.37661 -0.4212,-0.8221 -0.88487,-1.62095 -1.29982,-2.4463 -0.41378,-0.82138 -0.7079,-1.68948 -0.9337,-2.5787 -0.22855,-0.99546 -0.32328,-2.01383 -0.40129,-3.03006 -0.0746,-1.07021 -0.11131,-2.14276 -0.11117,-3.21545 0.0122,-1.55194 0.35326,-3.0676 0.74004,-4.56185 0.29566,-1.12789 0.6328,-2.24401 0.98641,-3.35486 0.20584,-0.71907 0.49846,-1.40335 0.8383,-2.06793 0.40439,-0.78883 0.91649,-1.5086 1.47413,-2.19465 0.57115,-0.67397 1.22514,-1.26909 1.88116,-1.85809 0.39613,-0.33842 0.74857,-0.72077 1.0673,-1.13186 0.40125,-0.56361 0.82742,-1.10608 1.28715,-1.62301 0.36524,-0.40651 0.77538,-0.76821 1.17619,-1.13849 0.0947,-0.0808 0.16515,-0.18088 0.24208,-0.27663 0.15053,-0.2326 0.29558,-0.46873 0.44273,-0.70349 0.20461,-0.34536 0.36767,-0.71156 0.50189,-1.08924 0.14141,-0.4212 0.21757,-0.85846 0.27933,-1.29708 0.0674,-0.58363 0.0927,-1.17088 0.11603,-1.75757 0.0186,-0.55478 0.033,-1.10975 0.0409,-1.6648 0.008,-0.40814 0.0114,-0.8164 0.014,-1.22462 0.0313,-0.32506 -0.0562,-0.62083 -0.16341,-0.92251 -0.15524,-0.38096 -0.36974,-0.73486 -0.58305,-1.08551 -0.22317,-0.35493 -0.49914,-0.67257 -0.78373,-0.97899 -0.30029,-0.31948 -0.6399,-0.59613 -0.98401,-0.86614 -0.4267,-0.31597 -0.88518,-0.58501 -1.34985,-0.84046 -0.58848,-0.3098 -1.21277,-0.54293 -1.83385,-0.77747 -0.67942,-0.25663 -1.35455,-0.52434 -2.0335,-0.78219 -0.59491,-0.22802 -1.19406,-0.44461 -1.79609,-0.65302 -0.65114,-0.21839 -1.30764,-0.42054 -1.9651,-0.61898 -0.60828,-0.17786 -1.20886,-0.37974 -1.81195,-0.574 -0.4373,-0.14111 -0.88542,-0.24256 -1.33783,-0.32049 -0.52581,-0.0821 -1.05001,-0.17382 -1.5749,-0.26154 -0.49611,-0.0923 -0.99507,-0.16297 -1.49726,-0.21128 -0.55926,-0.0496 -1.12043,-0.0708 -1.6814,-0.0894 -0.61072,-0.0181 -1.22164,-0.0281 -1.8326,-0.0323 -0.72,-0.008 -1.44006,-0.009 -2.1601,-0.0107 -0.68734,-0.003 -1.3747,-0.002 -2.06205,-0.005 -0.45591,-0.008 -0.9108,0.005 -1.36481,0.046 -0.43898,0.041 -0.8711,0.12964 -1.29991,0.22931 -0.55753,0.13477 -1.1091,0.29257 -1.66213,0.44443 -0.63222,0.16538 -1.24712,0.38473 -1.8527,0.62866 -0.63349,0.26871 -1.23275,0.60906 -1.83068,0.94759 -0.3673,0.20829 -0.73406,0.4175 -1.10138,0.62575 -0.13783,0.0806 -0.14016,0.10533 -0.32451,0.26536 -0.32486,0.29045 -0.67001,0.55684 -1.01829,0.8183 -0.2333,0.17606 -0.46845,0.34967 -0.70528,0.52096 -0.20774,0.1857 -0.41142,0.37611 -0.61616,0.56519 -0.25328,0.23133 -0.50972,0.45878 -0.78242,0.66704 -0.2822,0.22103 -0.61035,0.36176 -0.93922,0.49609 -0.16985,0.0802 -0.32436,0.18594 -0.47774,0.29305 -0.2585,0.18613 -0.49408,0.4011 -0.73414,0.60979 -0.5175,0.44504 -1.10339,0.79594 -1.69694,1.12798 -0.656,0.36387 -1.32632,0.70117 -2.00148,1.02784 -0.66423,0.33285 -1.36846,0.57177 -2.07389,0.79943 -0.80482,0.26358 -1.62404,0.4776 -2.44863,0.6689 -0.76042,0.18417 -1.53467,0.29314 -2.31265,0.36689 -0.80272,0.0713 -1.60853,0.0955 -2.41373,0.11976 -0.62915,0.0177 -1.25833,0.0324 -1.88775,0.0281 -0.58458,-0.005 -1.16374,-0.0841 -1.74097,-0.16858 -0.44161,-0.0753 -0.88028,-0.16464 -1.32475,-0.22204 -0.37221,-0.043 -0.74617,-0.0668 -1.12,-0.0904 -0.21255,-0.0136 -0.42526,-0.0224 -0.63812,-0.0288 -0.29467,-0.006 -0.58938,-0.009 -0.88409,-0.0115 -0.27949,-0.004 -0.55898,-0.006 -0.83849,-0.007 -0.57988,-0.0332 -0.76347,0.0889 0.0487,-0.13311 0.96923,-0.83259 0.26774,0.27134 0.0788,0.75156 -0.2651,0.704 -0.55915,1.39663 -0.85444,2.08836 -0.23992,0.56978 -0.5856,1.08325 -0.93401,1.59055 -0.4319,0.60928 -0.87929,1.20696 -1.33858,1.79577 -0.34962,0.44826 -0.71336,0.88474 -1.1054,1.29639 -0.70011,0.73027 -1.57399,1.22979 -2.46726,1.68275 -1.17491,0.5669 -2.41554,0.97977 -3.65725,1.37198 -1.10545,0.35738 -2.24488,0.5883 -3.38812,0.78478 -0.78971,0.13683 -1.58623,0.22382 -2.38471,0.28793 -0.69493,0.0501 -1.39135,0.0743 -2.08773,0.0928 -0.65937,0.0159 -1.31893,0.0234 -1.97847,0.0268 -0.64403,-0.0255 -1.27661,0.0659 -1.89886,0.22365 -0.64182,0.16866 -1.24816,0.44016 -1.85168,0.71079 -0.57483,0.26429 -1.1259,0.57568 -1.68961,0.86204 -0.38306,0.18135 -0.76322,0.3657 -1.12611,0.58481 -0.344,0.20596 -0.66332,0.44725 -0.97115,0.70314 -0.38537,0.32165 -0.76225,0.65345 -1.14099,0.98289 -0.4708,0.42391 -0.93146,0.858 -1.42154,1.25987 -0.65609,0.54529 -1.4468,0.86297 -2.24068,1.14716 -1.23976,0.43171 -1.54523,0.71159 -2.79639,0.0403 -0.48019,0.14587 -1.16779,-2.1178 -0.68759,-2.26366 l 0,0 c 0.44188,-1.24481 0.92178,-1.21402 2.07707,-1.62699 0.35839,-0.13492 0.73652,-0.25599 1.04531,-0.48859 0.45901,-0.37083 0.87954,-0.78448 1.32257,-1.17379 0.4043,-0.35164 0.80674,-0.70566 1.21847,-1.0486 0.46452,-0.38304 0.94618,-0.74538 1.46449,-1.05356 0.45051,-0.27284 0.91646,-0.51499 1.39451,-0.73615 0.61918,-0.31305 1.22469,-0.65338 1.85712,-0.93997 0.83475,-0.37955 1.68279,-0.73666 2.5745,-0.96158 0.93099,-0.22025 1.87635,-0.37193 2.83684,-0.34398 0.63427,-0.007 1.26856,-0.0134 1.90268,-0.0297 0.6234,-0.0165 1.24707,-0.0337 1.86906,-0.0812 0.67502,-0.0534 1.34856,-0.12605 2.01642,-0.23968 0.95973,-0.16382 1.91771,-0.34818 2.84563,-0.64914 1.03279,-0.32497 2.06461,-0.6656 3.04711,-1.12444 0.48019,-0.2377 0.96892,-0.47785 1.35455,-0.85901 0.3023,-0.30419 0.56077,-0.64793 0.83034,-0.98068 0.40975,-0.51751 0.80192,-1.0481 1.18605,-1.58488 0.19419,-0.28169 0.40014,-0.55997 0.53978,-0.87408 0.28017,-0.65627 0.56576,-1.31062 0.81438,-1.97974 0.44072,-1.11696 0.83219,-2.24357 1.90298,-2.9189 0.6066,-0.21835 1.16117,-0.36867 1.80299,-0.31529 0.28638,6.9e-4 0.57274,3e-5 0.85912,5.3e-4 0.32174,0.002 0.64351,0.003 0.96518,0.0108 0.26231,0.007 0.52432,0.0197 0.786,0.0397 0.46005,0.029 0.92028,0.0595 1.37829,0.11271 0.47779,0.0595 0.95115,0.14221 1.42416,0.2316 0.38222,0.06 0.76611,0.11123 1.15324,0.12445 0.57831,0.004 1.15639,-0.0108 1.73447,-0.0264 0.7145,-0.0214 1.42918,-0.0474 2.142,-0.10263 0.59763,-0.0586 1.19329,-0.13549 1.77867,-0.27348 0.71213,-0.16419 1.4194,-0.34882 2.1142,-0.57655 0.52392,-0.1682 1.05068,-0.33735 1.54375,-0.58489 0.60061,-0.29005 1.19587,-0.59129 1.78143,-0.91077 0.35399,-0.19884 0.70994,-0.39914 1.02478,-0.6577 0.34141,-0.28977 0.67479,-0.58982 1.04076,-0.84923 0.41284,-0.28797 0.84109,-0.55658 1.30787,-0.74953 0.20724,-0.0836 0.1339,-0.0621 0.0161,0.0282 0.15992,-0.12522 0.31381,-0.25822 0.46209,-0.39749 0.32557,-0.30033 0.64333,-0.61089 0.99664,-0.87902 0.2153,-0.15849 0.43147,-0.31579 0.64631,-0.47494 0.2641,-0.19804 0.526,-0.39927 0.77411,-0.6173 0.31563,-0.27953 0.63954,-0.55175 1.01081,-0.75572 0.36761,-0.20841 0.73304,-0.42062 1.10221,-0.62623 0.75507,-0.42732 1.51522,-0.85033 2.31812,-1.18264 0.75242,-0.30409 1.51698,-0.57755 2.30232,-0.78497 0.6033,-0.16566 1.20513,-0.33742 1.81373,-0.48297 0.61858,-0.14564 1.24404,-0.26648 1.87765,-0.32407 0.57589,-0.0497 1.15346,-0.073 1.73159,-0.0598 0.68987,-0.002 1.37973,0.002 2.0696,0.002 0.72966,0.002 1.45929,0.007 2.18893,0.0109 0.64314,0.008 1.28639,0.0134 1.92929,0.0344 0.64865,0.0218 1.2973,0.0508 1.94388,0.1087 0.5956,0.0587 1.18861,0.13536 1.77703,0.24614 0.53546,0.0895 1.07052,0.18126 1.60592,0.2711 0.64435,0.11417 1.28455,0.25218 1.90673,0.45809 0.5725,0.18917 1.14439,0.38018 1.72292,0.55043 0.70633,0.21326 1.41102,0.43224 2.11023,0.66795 0.64949,0.2209 1.29267,0.45977 1.93333,0.70505 0.67506,0.26106 1.34788,0.52775 2.02276,0.78929 0.7993,0.30727 1.59859,0.62053 2.35264,1.02979 0.66066,0.36668 1.31174,0.75374 1.91075,1.21652 0.50881,0.4065 1.00518,0.82858 1.44769,1.30822 0.46925,0.51293 0.91903,1.04739 1.27888,1.64456 0.36179,0.60937 0.71796,1.22693 0.95222,1.89896 0.23399,0.72436 0.40467,1.46827 0.36748,2.23562 -0.003,0.42522 -0.007,0.85039 -0.0147,1.27555 -0.0137,0.58338 -0.0243,1.16685 -0.0476,1.74996 -0.0289,0.72117 -0.0611,1.44342 -0.15424,2.15972 -0.10111,0.7239 -0.24498,1.44269 -0.49284,2.13234 -0.23862,0.63967 -0.51889,1.26283 -0.87727,1.84554 -0.22684,0.36189 -0.44395,0.73137 -0.703,1.07161 -0.2064,0.25903 -0.42057,0.51167 -0.66978,0.73142 -0.30317,0.28001 -0.61788,0.54909 -0.89546,0.85532 -0.40586,0.45682 -0.76627,0.94833 -1.12683,1.44124 -0.46854,0.58977 -0.97417,1.14917 -1.54847,1.63898 -0.50174,0.45017 -1.00641,0.90044 -1.44832,1.41117 -0.38264,0.46236 -0.73034,0.95056 -1.00579,1.48561 -0.24262,0.46264 -0.44013,0.94125 -0.57596,1.44716 -0.33588,1.03619 -0.64169,2.08197 -0.92243,3.13444 -0.30333,1.16106 -0.5912,2.33655 -0.61121,3.54338 -0.003,0.96766 0.0365,1.93496 0.0994,2.90054 0.0598,0.78998 0.12687,1.58216 0.29296,2.35827 0.14391,0.6007 0.35179,1.18176 0.62472,1.73673 0.41101,0.82404 0.88514,1.61449 1.29602,2.43873 0.56129,1.115 1.09168,2.24507 1.65443,3.35933 0.49142,0.96928 1.05308,1.91483 1.36645,2.96176 0.21983,0.99416 0.25924,1.98844 0.14904,3.0018 -0.0708,0.96199 -0.15883,1.92415 -0.33714,2.87318 -0.18334,0.91611 -0.41993,1.82029 -0.78352,2.6835 -0.24286,0.61828 -0.47646,1.24021 -0.71322,1.86084 -0.25243,0.67448 -0.51193,1.34855 -0.69888,2.04483 -0.15845,0.69942 -0.26822,1.40836 -0.22784,2.1285 0.0115,0.72962 0.0257,1.45931 0.0584,2.18835 0.0359,0.81636 0.0821,1.63228 0.15441,2.44633 0.0813,0.9665 0.15312,1.93381 0.24278,2.89957 0.0932,0.8765 0.20489,1.7507 0.32726,2.6236 0.0946,0.69158 0.19898,1.38344 0.22558,2.08192 0.0159,0.62295 0.008,1.24622 0.0108,1.86933 0.002,0.77837 0.003,1.55673 0.008,2.33509 0.004,0.70552 0.008,1.41111 0.0225,2.11651 0.0135,0.64434 0.029,1.28865 0.0584,1.9325 0.0305,0.74055 0.0483,1.48127 0.0187,2.22233 -0.0303,0.79685 -0.0634,1.59494 -0.16473,2.38657 -0.11708,0.85569 -0.27565,1.70546 -0.49624,2.541 -0.29542,1.05328 -0.64384,2.09344 -1.15044,3.06675 -0.4971,0.90487 -1.08816,1.74043 -2.08669,2.13581 -0.80666,0.36382 -1.61591,0.72286 -2.44013,1.04545 -1.16557,0.43115 -2.37381,0.84264 -3.63651,0.70518 -0.60216,-0.0687 -1.20076,-0.16793 -1.77736,-0.36104 -0.7096,-0.23491 -1.39902,-0.53188 -2.00612,-0.97548 -0.67061,-0.53998 -1.25097,-1.25005 -1.23069,-2.16523 -0.0203,-0.35506 -0.0371,-0.7103 -0.0602,-1.0652 -0.0309,-0.43151 -0.0649,-0.86377 -0.144,-1.28968 -0.1054,-0.5113 -0.2555,-1.01044 -0.41719,-1.50665 -0.12901,-0.41482 -0.25365,-0.83133 -0.39742,-1.24128 -0.002,-0.006 -10e-4,-0.0129 -0.006,-0.0169 -0.31896,-0.21901 -0.65557,-0.40786 -1.00964,-0.56498 -0.79567,-0.37789 -1.60246,-0.73364 -2.37756,-1.15345 -0.78347,-0.43972 -1.56651,-0.88603 -2.29254,-1.41741 -0.81476,-0.63961 -1.53767,-1.36909 -1.78945,-2.4119 -0.12166,-0.63113 -0.14853,-1.26278 -0.12983,-1.90494 -0.005,-0.64324 -0.002,-1.28652 -0.004,-1.92978 -10e-4,-0.41575 3.4e-4,-0.83152 -0.006,-1.24724 -0.01,-0.33432 -0.0157,-0.66871 -0.0224,-1.00312 -0.0148,-0.57575 -0.0303,-1.1515 -0.0576,-1.72682 -0.0334,-0.64062 -0.0811,-1.28058 -0.0926,-1.92215 -3.6e-4,-0.55962 5e-5,-1.11924 -0.003,-1.67885 -10e-4,-0.51682 -0.003,-1.03363 -0.005,-1.55044 -0.006,-0.55246 -0.009,-1.10496 -0.0186,-1.65739 -0.0138,-0.74468 -0.0234,-1.48954 -0.0528,-2.23381 -0.0262,-0.70705 -0.0685,-1.4132 -0.12404,-2.11858 -0.0463,-0.74864 -0.0565,-1.49771 -0.0523,-2.24772 -0.006,-0.62973 -0.008,-1.25951 -0.0217,-1.88915 -0.009,-0.30549 -0.0125,-0.61246 -0.0515,-0.91597 -0.0204,-0.14804 -0.0316,-0.29972 -0.0821,-0.44129 -0.15405,-0.38723 -0.31696,-0.77095 -0.46419,-1.16089 -0.42749,-1.12538 0.91013,0.43793 1.10271,0.32385 -0.85291,-0.27923 -0.82264,-0.16224 -1.20305,-0.42641 -0.15996,-0.12389 -0.32012,-0.24824 -0.4574,-0.39809 -0.20862,-0.25243 -0.39536,-0.51559 -0.52776,-0.81641 -0.19002,-0.36366 -0.3816,-0.72702 -0.54345,-1.10442 -0.26009,-0.6154 -0.49989,-1.23885 -0.68579,-1.88124 -0.20442,-0.66621 -0.39921,-1.33544 -0.58697,-2.00652 -0.22239,-0.85286 -0.41859,-1.71395 -0.51926,-2.59085 -0.0507,-0.50764 -0.0663,-1.01533 -0.0516,-1.52541 0.003,-0.7027 0.004,-1.40541 0.007,-2.10811 0.005,-0.54662 -0.0251,-1.10961 0.16266,-1.63239 0.0521,-0.13119 0.10269,-0.26301 0.16864,-0.38815 0.0908,-0.1903 0.18395,-0.3795 0.27449,-0.56995 0.25393,-0.52376 0.20768,-0.5005 0.15993,0.14539 -0.0132,-0.24781 -0.0251,-0.49566 -0.037,-0.74355 -0.0313,-0.60957 -0.0634,-1.21911 -0.10608,-1.82801 -0.075,-1.02823 -0.15911,-2.05684 -0.3112,-3.07703 -0.10617,-0.6362 -0.18928,-1.30113 -0.5339,-1.86068 -0.0624,-0.10241 -0.187,-0.31142 -0.1831,-0.31753 -0.37555,-0.26638 -0.75472,-0.52821 -1.12039,-0.80822 -0.37866,-0.30101 -0.74299,-0.61808 -1.08517,-0.96037 -0.26748,-0.23953 -0.55079,-0.45775 -0.83773,-0.67372 -0.0482,-0.0405 -0.64459,-0.53916 -0.41813,-0.38848 -0.0999,-0.0515 -0.2006,-0.10117 -0.30055,-0.15245 -0.12535,-0.0598 -0.24764,-0.12847 -0.37989,-0.17068 -0.60827,-0.12753 -1.22293,-0.22585 -1.73525,-0.61364 -0.37958,-0.34211 -0.7046,-0.70079 -0.94051,-1.15665 -0.31309,-0.49823 -0.60467,-1.01057 -0.84483,-1.54845 -0.22784,-0.49321 -0.45351,-0.98793 -0.72643,-1.45846 -0.24214,-0.41214 -0.49338,-0.81855 -0.75863,-1.21635 -0.29709,-0.44929 -0.61407,-0.88475 -0.92508,-1.32443 -0.1574,-0.22438 -0.21369,-0.2739 0.0363,-0.10498 -0.39653,-0.27355 -0.76315,-0.54842 -0.99177,-0.98763 -0.1557,-0.30921 -0.27859,-0.62762 -0.37626,-0.9597 -0.14587,-0.41035 -0.30739,-0.81442 -0.46827,-1.21909 -0.16372,-0.41542 -0.006,-0.12727 0.26642,-0.0772 -0.57457,-0.17572 -1.17875,-0.21904 -1.77511,-0.28958 -0.61495,-0.0797 -1.22913,-0.17119 -1.83251,-0.31663 -0.27416,-0.0105 -0.55772,-0.0108 -0.83555,0.002 -0.3049,0.009 -0.61001,0.0184 -0.91394,0.0457 0.0106,-0.0102 0.0433,-0.0397 0.0318,-0.0306 -0.32858,0.17351 -0.65811,0.34524 -0.98872,0.51486 -0.54443,0.27469 -1.0797,0.568 -1.61067,0.86773 -0.31748,0.18993 -0.62854,0.3909 -0.88283,0.66321 -0.36431,0.33683 -0.72633,0.67615 -1.08579,1.01817 -0.78469,0.73341 -1.58279,1.45364 -2.43189,2.11259 -0.72483,0.56462 -1.47105,1.09967 -2.21793,1.63463 -0.78795,0.56505 -1.5807,1.12396 -2.39645,1.64846 -0.61435,0.40584 -1.22546,0.81633 -1.83018,1.23643 -0.55005,0.37354 -1.10084,0.74867 -1.6892,1.06047 -0.64472,0.33105 -1.30881,0.62092 -2.01429,0.79821 -0.90226,0.22816 -1.82044,0.37428 -2.75346,0.26833 -0.6844,-0.0511 -1.36906,-0.12085 -2.03981,-0.27161 -0.60382,-0.14302 -1.20231,-0.31046 -1.78592,-0.52244 -0.70283,-0.25775 -1.39256,-0.55055 -2.03147,-0.94498 -0.28884,-0.16823 -0.7069,-0.39354 -0.93656,-0.54538 -0.10961,0.003 -0.22068,0.002 -0.32804,0.0248 -0.43146,0.0795 -0.86241,0.16163 -1.29274,0.24707 -0.68158,0.14159 -1.36025,0.29528 -2.03151,0.48063 -0.57367,0.15575 -1.14882,0.30592 -1.72427,0.45497 -0.57143,0.16123 -1.14166,0.3268 -1.70457,0.51617 -0.52341,0.1797 -1.04584,0.36191 -1.56414,0.55594 -0.29076,0.11319 -0.57722,0.21616 -0.82166,0.41942 -0.64251,0.44856 -1.27521,0.911 -1.89799,1.38658 -0.43237,0.32738 -0.8696,0.64965 -1.28986,0.99238 -0.48649,0.45089 -0.98728,0.88687 -1.50686,1.29933 -0.84531,0.6396 -1.73964,1.21277 -2.75799,1.53764 -1.03462,0.35001 -2.08763,0.64363 -3.15723,0.8669 -1.11613,0.22989 -2.23804,0.45862 -3.37802,0.52716 -0.76933,0.033 -1.53903,0.0318 -2.30854,5.9e-4 -0.73919,-0.0225 -1.47805,-0.0587 -2.21545,-0.11519 -0.90643,-0.0748 -1.81364,-0.16646 -2.70384,-0.35947 -0.7888,-0.19083 -1.5694,-0.42709 -2.27642,-0.83629 -0.58256,-0.34049 -1.14022,-0.72096 -1.60641,-1.21423 -0.44267,-0.47788 -0.8217,-1.00291 -1.0817,-1.60404 -0.26009,-0.58823 -0.49042,-1.19462 -0.5705,-1.8372 -0.0363,-0.48469 -0.0277,-0.96668 0.0316,-1.44973 0.0621,-0.50187 0.16756,-0.99814 0.44875,-1.42894 0.11283,-0.18982 0.2269,-0.37918 0.31439,-0.58259 0.1975,-0.38788 0.4211,-0.76091 0.73792,-1.06482 0.30671,-0.31606 0.62646,-0.61895 0.95383,-0.91356 0.72577,-0.64656 1.47569,-1.26707 2.28729,-1.8045 1.28318,-0.83065 2.63163,-1.55431 4.07325,-2.07411 2.08502,-0.75689 4.20044,-1.42366 6.32471,-2.0614 0.80808,-0.23832 1.93153,3.57102 1.12345,3.80934 z" inkscape:connector-curvature="0" />
        <path style="fill:#000000;fill-opacity:1;fill-rule:nonzero;stroke:#000000;stroke-width:0;stroke-linejoin:miter;stroke-miterlimit:4;stroke-opacity:0.3529416;stroke-dasharray:none" d="m 526.18767,277.22127 c -4.99934,0.56146 -10.35209,1.17772 -14.00008,5.03498 -5.40662,4.36185 -9.61753,9.94921 -13.8214,15.33439 -8.52648,9.42098 -20.28452,15.92184 -32.67718,18.48994 -3.36705,1.4939 -6.88663,3.30138 -9.29656,6.0767 1.50364,2.46459 5.81057,0.8467 7.56036,3.48818 2.91849,3.86289 8.33112,1.09765 11.38987,-1.14827 3.13082,-1.86929 5.83318,-5.06136 9.82333,-3.96563 2.74882,0.41184 5.466,0.23508 6.92901,-2.46224 3.4627,-2.96289 8.61812,-1.79654 12.84515,-2.57787 3.41206,-0.10454 6.83633,-1.00164 9.01667,-3.83268 3.71035,-4.35434 8.21383,-8.18281 13.84076,-9.68876 4.44648,-1.99977 10.40687,-2.25905 13.43188,-6.53442 1.33235,-4.333 0.56944,-9.19793 -0.8681,-13.41609 -1.82602,-3.85659 -6.54397,-6.45703 -10.74184,-5.18821 -1.14395,0.12999 -2.28791,0.25999 -3.43187,0.38998 z" id="path4364" inkscape:connector-curvature="0" />
        <path style="fill:#000000;fill-opacity:1;fill-rule:nonzero;stroke:#000000;stroke-width:0;stroke-linejoin:miter;stroke-miterlimit:4;stroke-opacity:0.3529416;stroke-dasharray:none" d="m 508.47844,334.21597 c -7.50639,-0.64306 -13.11597,4.96197 -18.94068,8.68693 -5.35563,2.75422 -11.60176,2.60079 -17.43271,1.98337 -3.5008,2.57565 -4.46425,8.77995 -9.86332,9.76825 -6.35207,2.63905 -14.25423,0.60142 -19.62476,5.59901 -3.7685,4.21745 -9.88366,2.14698 -14.13545,5.4794 -4.07672,1.043 -6.00222,7.37723 -0.25472,7.0985 6.86617,1.53111 13.11877,-1.7576 18.26519,-5.89878 4.91856,-2.48299 10.6762,-3.83816 15.74767,-1.258 5.87215,1.04145 10.24276,-4.04173 14.4616,-7.27738 3.64794,-3.47232 9.3511,-5.33036 13.97402,-2.70622 3.30934,3.83372 4.79068,9.62212 9.80187,11.94506 5.48196,2.9908 4.25701,9.80982 4.33437,15.00388 -0.73133,7.13793 5.17201,12.68089 3.74525,19.97584 0.74866,5.68951 -0.54357,11.6894 1.42516,17.16601 3.27296,2.95732 7.93041,4.93766 7.76695,10.2769 5.06104,4.59158 9.43707,-4.66523 7.98743,-9.36098 0.12896,-7.7092 -1.28826,-15.45922 -0.52814,-23.1301 2.0851,-5.61693 3.12009,-12.06618 -0.78888,-17.17884 -4.33659,-8.6903 -2.27105,-20.32053 5.39625,-26.5046 3.32883,-3.39342 4.82285,-9.69826 1.37031,-13.45019 -6.4375,-4.66756 -14.84031,-6.4649 -22.70741,-6.21806 z" id="path4366" inkscape:connector-curvature="0" />
        <path style="fill:#000000;fill-opacity:1;fill-rule:nonzero;stroke:#000000;stroke-width:0;stroke-linejoin:miter;stroke-miterlimit:4;stroke-opacity:0.3529416;stroke-dasharray:none" d="m 576.97941,303.89561 c -5.19229,0.8763 -8.79069,5.59443 -13.84225,6.89745 -3.63814,1.82463 -7.52198,4.88088 -7.56036,9.29656 -1.8743,5.63311 -7.03497,10.35989 -6.8501,16.5886 1.90128,4.6873 6.06202,8.20461 8.5863,12.62691 2.59222,3.67794 2.84933,9.39481 -0.61556,12.65847 -4.21421,6.48496 -8.61464,14.17785 -7.02372,22.19179 0.86711,2.65545 2.79763,4.91274 5.03498,6.48707 3.46562,-0.13139 3.4541,-4.69768 4.60882,-7.1342 2.39609,-6.73124 6.34428,-12.71087 10.65395,-18.3248 2.74223,-5.16261 -0.4178,-11.1458 0.9628,-16.63595 1.24171,-5.30246 2.15733,-10.66482 2.27206,-16.1445 0.34729,-5.90993 1.79818,-12.16663 6.96137,-15.72265 2.85864,-2.87248 4.65138,-8.30829 1.81512,-11.71146 -1.36973,-1.14861 -3.31701,-1.09989 -5.00341,-1.07329 z" id="path4368" inkscape:connector-curvature="0" />
        <path style="fill:#000000;fill-opacity:1;fill-rule:nonzero;stroke:#000000;stroke-width:0;stroke-linejoin:miter;stroke-miterlimit:4;stroke-opacity:0.3529416;stroke-dasharray:none" d="m 456.66059,321.78576 c -0.81881,0.0435 -1.28469,1.13416 -0.7186,1.73882 0.50645,0.60802 1.76184,0.4933 1.96793,-0.37466 0.20142,-0.73707 -0.52158,-1.44704 -1.24933,-1.36416 z" id="path4370" inkscape:connector-curvature="0" />
        <path style="fill:#000000;fill-opacity:1;fill-rule:nonzero;stroke:#000000;stroke-width:0;stroke-linejoin:miter;stroke-miterlimit:4;stroke-opacity:0.3529416;stroke-dasharray:none" d="m 558.14105,308.89509 c -0.55915,0.25376 -0.70977,0.93991 -0.50507,1.47577 0.11924,0.60122 0.41946,1.36912 1.11327,1.42082 0.89175,0.18002 1.64954,-0.98573 1.11697,-1.72399 -0.33519,-0.46576 -0.52391,-1.18577 -1.20571,-1.23511 -0.1739,-0.0544 -0.34672,0.0439 -0.51946,0.0625 z" id="path4372" inkscape:connector-curvature="0" />
        <path style="fill:#000000;fill-opacity:1;fill-rule:nonzero;stroke:#000000;stroke-width:0;stroke-linejoin:miter;stroke-miterlimit:4;stroke-opacity:0.3529416;stroke-dasharray:none" d="m 509.56698,418.23186 c -0.39359,0.0625 -0.73318,0.38245 -0.80348,0.77685 -0.0411,0.23576 -0.0401,0.49985 0.0123,0.73493 0.0843,0.37969 0.40815,0.64983 0.74775,0.80447 0.40053,0.16764 0.90055,0.0363 1.15809,-0.31557 0.24076,-0.30557 0.25382,-0.74263 0.0825,-1.08441 -0.10656,-0.24381 -0.18327,-0.51722 -0.40293,-0.68881 -0.21397,-0.18943 -0.51285,-0.26936 -0.79428,-0.22746 z" id="path4376" inkscape:connector-curvature="0" />
        <path style="fill:#000000;fill-opacity:1;fill-rule:nonzero;stroke:#000000;stroke-width:0;stroke-linejoin:miter;stroke-miterlimit:4;stroke-opacity:0.3529416;stroke-dasharray:none" d="m 452.94866,726.68068 c 2.32317,-12.29137 7.39999,-23.81747 10.59184,-35.8754 2.05294,-6.79295 4.60307,-13.41678 7.50704,-19.88568 3.00938,-7.53541 6.21215,-15.07636 8.06137,-22.98724 1.73186,-2.85489 8.65044,-0.7016 6.95076,2.92252 -2.98096,10.98325 -7.61281,21.41468 -11.98826,31.89105 -3.57937,9.45903 -5.88647,19.3369 -9.39984,28.82162 -1.82751,5.3822 -3.57379,10.81244 -4.66212,16.39991 -2.12276,1.34292 -5.54825,0.71865 -7.06079,-1.28678 z" id="path4500" inkscape:connector-curvature="0" />
        <path style="fill:#000000;fill-opacity:1;fill-rule:nonzero;stroke:#000000;stroke-width:0;stroke-linejoin:miter;stroke-miterlimit:4;stroke-opacity:0.3529416;stroke-dasharray:none" d="m 413.73465,729.97908 c -5.83316,15.05865 -11.72919,30.11567 -18.85222,44.62335 -4.01018,7.87773 -6.52945,16.38575 -10.2477,24.39373 -2.09011,4.43713 -3.22831,9.33612 -5.92357,13.46486 -3.32342,0.72236 -7.36118,-2.12812 -4.78034,-5.67267 3.3709,-9.10252 7.59081,-17.86317 10.86892,-27.00334 4.52853,-10.35705 9.73489,-20.41379 13.94612,-30.91416 2.98157,-7.14697 5.79196,-14.39527 8.70065,-21.55269 1.98099,-0.4518 5.60682,0.62811 6.28814,2.66092 z" id="path4502" inkscape:connector-curvature="0" />
        <path style="fill:#000000;fill-opacity:1;fill-rule:nonzero;stroke:#000000;stroke-width:0;stroke-linejoin:miter;stroke-miterlimit:4;stroke-opacity:0.3529416;stroke-dasharray:none" d="m 358.55663,702.0914 c -11.00903,16.75848 -19.2302,35.10548 -27.29464,53.39836 -3.90196,9.60972 -7.35357,19.39891 -12.29389,28.54967 -7.02007,14.52276 -14.44714,28.86519 -22.6048,42.78469 -4.60042,7.03277 -8.7006,14.37726 -13.30085,21.40968 -6.93933,4.34345 -5.78428,-7.77173 -1.74434,-10.28259 7.55882,-12.56829 15.44126,-24.97673 21.85763,-38.18156 5.61351,-10.40375 10.65915,-21.13115 15.61629,-31.84735 5.21444,-14.25829 11.5623,-28.03774 18.21795,-41.66935 4.35383,-9.25355 9.47261,-18.16483 15.06383,-26.69015 2.36857,-3.16409 5.51775,0.0358 6.48282,2.5286 z" id="path4504" inkscape:connector-curvature="0" />
        <path style="fill:#000000;fill-opacity:1;fill-rule:nonzero;stroke:#000000;stroke-width:0;stroke-linejoin:miter;stroke-miterlimit:4;stroke-opacity:0.3529416;stroke-dasharray:none" d="m 193.37162,793.7892 c -11.39708,14.80396 -24.56701,28.09209 -36.85006,42.13766 -9.4301,10.50603 -19.73601,20.19319 -30.73179,29.04353 -3.30311,2.44821 -5.92554,6.18475 -9.72679,7.73116 -5.99921,1.20449 -3.08724,-6.6702 0.18502,-8.22542 10.71673,-9.63104 22.20215,-18.44068 32.07526,-28.98739 10.61184,-11.71413 21.58527,-23.10276 32.00645,-34.98902 2.9849,-3.43101 5.72311,-7.08821 8.9708,-10.28314 1.57839,-0.23355 4.09489,1.97442 4.07111,3.57262 z" id="path4508" inkscape:connector-curvature="0" />
        <path style="fill:#000000;fill-opacity:1;fill-rule:nonzero;stroke:#000000;stroke-width:0;stroke-linejoin:miter;stroke-miterlimit:4;stroke-opacity:0.3529416;stroke-dasharray:none" d="m 238.36629,597.30368 c 4.62674,-9.77177 13.29392,-16.76557 18.77711,-25.9866 11.85706,-15.89131 23.81461,-31.70727 35.69796,-47.57888 -1.08219,-5.19261 9.8341,-5.85247 7.15804,-0.10063 -1.89554,4.29651 -6.24075,6.84008 -8.3026,11.05437 -14.44029,21.13889 -30.49661,41.10522 -45.35291,61.94466 -0.83579,3.78254 -4.76379,9.46571 -9.02674,6.53063 -1.04525,-1.91551 1.21331,-4.41084 1.04914,-5.86355 z" id="path4510" inkscape:connector-curvature="0" />
        <path style="fill:#000000;fill-opacity:1;fill-rule:nonzero;stroke:#000000;stroke-width:0;stroke-linejoin:miter;stroke-miterlimit:4;stroke-opacity:0.3529416;stroke-dasharray:none" d="m 269.10447,458.59306 c 5.05203,-4.35642 10.78196,-7.84407 16.42632,-11.36544 7.5919,-3.95734 14.04313,-9.63925 20.51213,-15.15863 5.15196,-3.89674 10.40318,-7.75459 16.13367,-10.76197 2.54285,-1.78082 4.31397,2.38309 4.68171,4.3408 -1.28844,1.83219 -3.58424,2.84516 -5.37405,4.21028 -5.42381,3.68372 -10.83264,7.41857 -15.69762,11.83305 -5.49145,4.74208 -11.4563,8.92406 -17.85266,12.35515 -4.92675,3.15139 -9.96887,6.20082 -14.52785,9.85935 -2.13119,-0.59737 -3.78137,-2.7205 -4.46834,-4.77262 l 0.0238,-0.31202 0.14289,-0.22795 0,0 z" id="path4512" inkscape:connector-curvature="0" />
        <path style="fill:#000000;fill-opacity:1;fill-rule:nonzero;stroke:#000000;stroke-width:0;stroke-linejoin:miter;stroke-miterlimit:4;stroke-opacity:0.3529416;stroke-dasharray:none" d="m 312.13641,695.94859 c -6.50232,10.93726 -10.26873,23.21387 -16.17216,34.46183 -9.33954,18.32612 -21.33782,35.35013 -35.71686,50.06633 -1.71895,2.57009 -4.49909,-0.1958 -5.68467,-1.95268 -0.85693,-1.98434 1.92621,-3.49352 2.80547,-5.05865 15.15479,-16.5441 27.82053,-35.42108 36.85654,-55.97962 3.93863,-8.61991 7.04233,-17.76435 12.29163,-25.68411 1.99644,-0.0288 5.5061,2.03366 5.62005,4.1469 z" id="path4536" inkscape:connector-curvature="0" />
        <path style="fill:#000000;fill-opacity:1;fill-rule:nonzero;stroke:#000000;stroke-width:0;stroke-linejoin:miter;stroke-miterlimit:4;stroke-opacity:0.3529416;stroke-dasharray:none" d="m 252.01252,796.41651 c -14.84777,17.53299 -30.12595,34.70485 -45.73518,51.56134 -4.12343,4.18037 -8.22333,8.59839 -13.21104,11.71954 -4.89674,0.72922 -3.02908,-5.95046 -0.2181,-7.4573 6.123,-6.98038 12.88493,-13.3735 19.04582,-20.32456 11.75276,-13.09491 23.31411,-26.36192 34.81505,-39.67815 2.59023,-0.75593 4.85531,1.8711 5.30345,4.17913 z" id="path4538" inkscape:connector-curvature="0" />
        <path style="fill:#000000;fill-opacity:1;fill-rule:nonzero;stroke:#000000;stroke-width:0;stroke-linejoin:miter;stroke-miterlimit:4;stroke-opacity:0.3529416;stroke-dasharray:none" id="path4540" d="m 558.69814,250.38655 c -1.6887,0.0723 -3.3784,0.11626 -5.06674,0.19657 -1.13402,0.05 -2.26267,0.1724 -3.3908,0.2927 -0.71295,0.0609 -1.41678,0.18756 -2.12207,0.30321 -0.64963,0.11285 -1.30275,0.20319 -1.95537,0.29641 -0.53313,0.0784 -1.063,0.17847 -1.58933,0.29373 -0.48158,0.10963 -0.95773,0.24069 -1.43102,0.38151 -0.56946,0.18521 -1.12453,0.4103 -1.68228,0.62735 -0.56499,0.22675 -1.11899,0.47948 -1.65788,0.76257 -0.63836,0.3364 -1.30383,0.61453 -1.97067,0.88806 -0.62577,0.24338 -1.23297,0.53042 -1.84963,0.79517 -0.88982,0.35762 -1.76726,0.74438 -2.64483,1.13081 -1.17142,0.5278 -2.36965,0.99074 -3.56736,1.45439 -1.36103,0.48397 -2.65206,1.12377 -3.91543,1.81834 -1.60372,0.88686 -3.07719,1.97462 -4.53455,3.07901 -1.52689,1.1089 -2.88257,2.43733 -4.66243,3.11994 -0.89922,0.79217 -4.63356,-3.44676 -3.73435,-4.23893 l 0,0 c 1.03607,-1.80267 2.72873,-2.95147 4.32541,-4.23605 1.71171,-1.30528 3.44596,-2.59188 5.31019,-3.67417 1.53551,-0.85554 3.1121,-1.63541 4.76666,-2.23681 1.10534,-0.4205 2.20676,-0.8522 3.28822,-1.3315 0.89321,-0.38551 1.78001,-0.78583 2.6834,-1.14748 0.65028,-0.27835 1.297,-0.56494 1.9514,-0.83357 0.4985,-0.20427 0.99944,-0.40563 1.47638,-0.65754 0.73421,-0.36213 1.46972,-0.72392 2.23474,-1.01783 0.72678,-0.29112 1.46102,-0.56532 2.20489,-0.80974 0.64824,-0.19976 1.3032,-0.37871 1.9667,-0.5208 0.68616,-0.14796 1.37485,-0.28628 2.07022,-0.3841 0.61875,-0.0882 1.23827,-0.17094 1.85668,-0.26161 0.81999,-0.12441 1.63918,-0.25629 2.46511,-0.33664 1.26551,-0.13455 2.53445,-0.23386 3.80608,-0.2885 1.69753,-0.0718 3.39605,-0.11659 5.09369,-0.18587 1.42582,-0.0583 1.70079,6.66304 0.27497,6.72137 z" inkscape:connector-curvature="0" />
        <path style="fill:#000000;fill-opacity:1;fill-rule:nonzero;stroke:#000000;stroke-width:0;stroke-linejoin:miter;stroke-miterlimit:4;stroke-opacity:0.3529416;stroke-dasharray:none" id="path4542" d="m 559.94352,261.10463 c -1.93749,-0.30093 -3.88667,-0.24832 -5.83323,-0.10007 -2.0476,0.27088 -4.04836,0.50831 -6.10141,0.22311 -1.22158,0.13035 -1.83605,-5.62825 -0.61447,-5.7586 l 0,0 c 2.00039,-0.76064 4.09249,-1.0049 6.22093,-1.16535 2.40888,-0.17345 4.83144,-0.21598 7.22458,0.17373 1.40584,0.19016 0.50943,6.81734 -0.8964,6.62718 z" inkscape:connector-curvature="0" />
        <path style="fill:#000000;fill-opacity:1;fill-rule:nonzero;stroke:#000000;stroke-width:0;stroke-linejoin:miter;stroke-miterlimit:4;stroke-opacity:0.3529416;stroke-dasharray:none" id="path4556" d="m 444.3428,332.27229 c -1.68998,0.6615 -3.275,1.54798 -4.84645,2.44744 -1.63658,0.90057 -3.14956,1.98255 -4.58969,3.16665 -1.90544,1.62696 -3.72947,3.34487 -5.59467,5.01743 -2.0719,2.10386 -4.20381,4.14109 -6.42444,6.08699 -0.98474,0.92894 -2.00841,1.63374 -3.22364,2.20775 -0.87386,0.66737 -4.01987,-3.45207 -3.146,-4.11944 l 0,0 c 0.77783,-0.94059 1.63675,-1.69118 2.61594,-2.42559 2.12898,-1.81743 4.14546,-3.76075 6.07065,-5.79301 1.78529,-2.05285 3.58273,-4.1091 5.63973,-5.89806 1.716,-1.41964 3.52459,-2.71648 5.48381,-3.78439 1.86446,-1.06488 3.7642,-2.07834 5.77414,-2.84511 1.25992,-0.47531 3.50054,5.46404 2.24062,5.93934 z" inkscape:connector-curvature="0" />
        <path style="fill:#000000;fill-opacity:1;fill-rule:nonzero;stroke:#000000;stroke-width:0;stroke-linejoin:miter;stroke-miterlimit:4;stroke-opacity:0.3529416;stroke-dasharray:none" id="path4558" d="m 451.01877,336.14789 c -2.38344,1.21865 -4.6147,2.71025 -6.83705,4.19588 -1.23616,0.53008 -4.03241,3.28337 -5.27421,3.33194 -0.63098,0.0247 -1.21741,-0.33596 -1.82612,-0.50394 -0.42217,0.2979 -1.82645,-1.69221 -1.40429,-1.99011 l 0,0 c 0.0482,-0.63148 -0.0942,-1.30782 0.14448,-1.89445 0.47355,-1.16399 4.12647,-2.93244 5.09236,-3.85797 2.47545,-1.63755 4.95533,-3.29123 7.62079,-4.6088 1.13012,-0.52694 3.61416,4.8005 2.48404,5.32745 z" inkscape:connector-curvature="0" />
        <path style="fill:#000000;fill-opacity:1;fill-rule:nonzero;stroke:#000000;stroke-width:0;stroke-linejoin:miter;stroke-miterlimit:4;stroke-opacity:0.3529416;stroke-dasharray:none" d="m 347.48261,249.9448 c 4.29733,-0.67083 8.53018,-1.8366 12.33675,-3.98494 3.19412,-1.58107 6.08306,-3.66487 8.9136,-5.80006 4.15655,-2.56879 7.96526,-5.63853 11.80715,-8.64022 2.03006,-1.02983 4.75279,-3.64656 6.94909,-1.95116 2.09871,2.11211 2.73822,5.93631 -0.83985,6.82205 -3.54475,1.82434 -6.25707,4.8551 -9.62597,6.96228 -2.46128,1.76937 -5.07431,3.30401 -7.4244,5.2224 -5.39717,3.60282 -11.28419,6.72197 -17.72902,7.89035 -2.11718,0.83906 -4.68341,0.84907 -4.73775,-2.09447 -0.17755,-1.32081 -0.8741,-3.49453 0.3504,-4.42623 z" id="path4570" inkscape:connector-curvature="0" />
        <path style="fill:#000000;fill-opacity:1;fill-rule:nonzero;stroke:#000000;stroke-width:0;stroke-linejoin:miter;stroke-miterlimit:4;stroke-opacity:0.3529416;stroke-dasharray:none" d="m 318.29313,344.80883 c 3.5688,-2.06276 7.41452,-3.97406 9.90171,-7.39314 2.45855,-3.05404 5.16472,-5.90307 7.39682,-9.13678 2.3895,-3.11415 4.86004,-6.16916 6.97095,-9.48648 2.54702,-3.53349 4.96317,-7.22608 8.08154,-10.29172 1.61261,-1.42907 3.59657,0.90525 4.82095,1.94783 1.92985,1.43455 -0.0491,3.28462 -1.00768,4.61278 -4.41638,5.14264 -7.79606,11.06974 -12.15762,16.25577 -2.11605,2.88937 -4.30752,5.72117 -6.73022,8.36163 -2.55486,3.29866 -5.47025,6.4238 -9.18793,8.42038 -1.63013,0.91238 -3.19155,2.00537 -4.89087,2.76033 -1.7672,-0.74017 -2.62498,-2.76731 -3.30101,-4.4508 -0.12144,-0.49787 -0.38348,-1.21616 0.10336,-1.5998 z" id="path4572" inkscape:connector-curvature="0" />
        <path style="fill:#000000;fill-opacity:1;fill-rule:nonzero;stroke:#000000;stroke-width:0;stroke-linejoin:miter;stroke-miterlimit:4;stroke-opacity:0.3529416;stroke-dasharray:none" d="m 510.40784,624.50011 c 2.79904,-6.24766 6.75093,-12.32613 10.6793,-17.89921 4.66566,-6.12545 9.03509,-12.46267 13.38327,-18.8148 2.43831,-3.52489 5.0369,-6.93448 7.39311,-10.51151 1.22407,-2.08253 3.79375,-2.77469 5.47292,-0.80628 2.55815,1.26491 1.33182,4.1617 -0.1278,5.77701 -2.28608,2.79372 -4.17671,5.88154 -6.34367,8.77122 -3.83685,5.38005 -7.44676,10.92107 -11.51657,16.13201 -3.90611,5.19624 -7.71048,10.50122 -10.9273,16.15634 -1.12825,1.3412 -1.19203,4.70311 -3.62861,3.77917 -1.55038,-0.56234 -4.04073,-0.78013 -4.38465,-2.58395 z" id="path4594" inkscape:connector-curvature="0" sodipodi:nodetypes="ccccccccccc" />
        <path style="fill:#000000;fill-opacity:1;fill-rule:nonzero;stroke:#000000;stroke-width:0;stroke-linejoin:miter;stroke-miterlimit:4;stroke-opacity:0.3529416;stroke-dasharray:none" d="m 607.8203,549.05016 c 2.89343,-4.57347 6.3672,-8.73533 10.03069,-12.70612 5.94128,-6.81094 11.83937,-13.67663 17.14266,-21.00321 0.96465,-1.14716 1.97716,-2.45742 3.26602,-3.16909 0.89532,0.1848 1.84001,0.31816 2.69832,0.50534 0.7496,0.47458 0.89645,1.45033 1.40026,2.16596 0.79497,1.09158 -0.59494,2.31853 -0.96673,3.36376 -2.5038,3.86842 -5.45561,7.42934 -8.33043,11.02486 -4.83821,5.9265 -10.06132,11.52205 -15.02783,17.33681 -1.71072,2.03745 -3.10954,4.33569 -4.70923,6.43637 -1.89336,0.1231 -3.54794,-1.29602 -4.88982,-2.49059 -0.32725,-0.38789 -0.87638,-0.90921 -0.61391,-1.46409 z" id="path4596" inkscape:connector-curvature="0" />
        <path style="fill:#000000;fill-opacity:1;fill-rule:nonzero;stroke:#000000;stroke-width:0;stroke-linejoin:miter;stroke-miterlimit:4;stroke-opacity:0.3529416;stroke-dasharray:none" id="path4598" d="m 614.21559,550.90806 c -0.87187,1.54951 -1.3466,2.51566 -3.02716,3.25948 -0.2571,0.61954 -3.17761,-0.59243 -2.92051,-1.21197 l 0,0 c -0.63946,-1.90946 -0.18185,-2.80793 0.48646,-4.61866 0.54542,-1.1585 6.00663,1.41265 5.46121,2.57115 z" inkscape:connector-curvature="0" />
        <path style="fill:#000000;fill-opacity:1;fill-rule:nonzero;stroke:#000000;stroke-width:0;stroke-linejoin:miter;stroke-miterlimit:4;stroke-opacity:0.3529416;stroke-dasharray:none" id="path4600" d="m 613.81763,551.4345 c -0.78732,1.52517 -1.56525,3.05538 -2.29678,4.60818 -0.4678,1.00804 -0.91049,2.03041 -1.22595,3.09724 -0.16702,0.59217 6.4e-4,1.09406 -0.29651,1.64512 -0.82868,0.39726 -1.65737,0.79453 -2.48605,1.19179 0.0106,0.0326 -0.14306,0.0827 -0.15368,0.0501 l 0,0 c -0.94438,0.0422 -1.88876,0.0843 -2.83314,0.12647 -0.95679,-1.48957 -0.83939,-3.18095 -0.35842,-4.84366 0.4189,-1.39433 0.9771,-2.73254 1.64585,-4.02672 0.81628,-1.64936 1.66003,-3.28534 2.58036,-4.87959 0.64299,-1.15067 6.06732,1.88043 5.42432,3.0311 z" inkscape:connector-curvature="0" />
        <path style="fill:#000000;fill-opacity:1;fill-rule:nonzero;stroke:#000000;stroke-width:0;stroke-linejoin:miter;stroke-miterlimit:4;stroke-opacity:0.3529416;stroke-dasharray:none" id="path4602" d="m 612.61466,553.76332 c -0.73917,0.85947 -0.26681,0.44372 -1.51469,1.12674 -0.38502,0.90553 -4.65374,-0.90949 -4.26871,-1.81502 l 0,0 c -0.22586,-1.79318 -0.31505,-0.97213 0.12059,-2.4747 0.67096,-1.20126 6.33378,1.96171 5.66281,3.16298 z" inkscape:connector-curvature="0" />
        <path style="fill:#000000;fill-opacity:1;fill-rule:nonzero;stroke:#000000;stroke-width:0;stroke-linejoin:miter;stroke-miterlimit:4;stroke-opacity:0.3529416;stroke-dasharray:none" id="path4604" d="m 613.3065,553.0909 c -0.68074,1.22498 -1.35665,2.45308 -1.99281,3.70193 -0.31014,0.55573 -0.51388,1.15011 -0.65594,1.76716 -0.0924,0.44949 -0.16934,0.90297 -0.18522,1.36218 -0.005,0.25713 0.007,0.51407 0.0187,0.77064 0.0231,0.16107 0.0634,0.31903 0.097,0.47853 0.0462,0.23703 0.0818,0.47661 0.10351,0.71713 0.019,0.13564 0.046,0.26795 0.0765,0.40143 0.0434,0.19525 0.10872,0.38413 0.17705,0.57178 0.089,0.26171 0.22866,0.5021 0.3555,0.7465 0.30818,0.53836 0.6494,1.05719 0.97469,1.58532 0.40111,0.55354 0.60006,1.03716 0.54206,1.71476 0.76626,1.01647 -4.02543,4.62864 -4.79169,3.61217 l 0,0 c -0.7636,-0.40449 -1.32474,-0.86706 -1.71872,-1.65507 -0.40425,-0.65802 -0.83327,-1.30166 -1.19733,-1.98355 -0.29692,-0.55458 -0.57166,-1.12181 -0.78212,-1.71559 -0.14854,-0.44198 -0.30474,-0.88268 -0.39662,-1.34114 -0.0869,-0.39024 -0.16945,-0.78291 -0.20179,-1.18212 -0.0179,-0.16345 -0.0311,-0.32635 -0.0394,-0.49063 -0.0299,-0.39503 -0.0786,-0.78882 -0.0899,-1.18528 -0.009,-0.4831 -0.0198,-0.96681 0.004,-1.44967 0.0598,-0.86642 0.17001,-1.72889 0.3741,-2.57436 0.2832,-1.14292 0.67014,-2.2523 1.22466,-3.29491 0.68985,-1.32904 1.40862,-2.64289 2.14022,-3.94937 0.71959,-1.26514 6.68354,2.12701 5.96396,3.39216 z" inkscape:connector-curvature="0" />
    </g>
</svg>