<?xml version="1.0" encoding="utf-8"?>
<svg version="1.1" id="Layer_1" xmlns="http://www.w3.org/2000/svg" xmlns:xlink="http://www.w3.org/1999/xlink" x="0px" y="0px" viewBox="0 0 864 864" style="enable-background:new 0 0 864 864;" xml:space="preserve">
	<style type="text/css">.st0{fill:#000000;}</style>
	<g>
		<path class="st0" d="M814.7,414.3c-1-21-3.3-41.9-7.3-62.7c-4.4-22.3-11-43.9-20.6-64.5c-19.7-42.1-51.3-71.2-94.2-88.4
		c-19-7.6-38.6-10.3-58.9-8.4c-21.3,2.1-41,9.2-58.7,21.5c-1.2,0.8-2.6,1.5-3.7,2.3c-35.6-19.1-74.1-19.3-109.1-4.5v-0.1
		c-4.3-23.1,13.2-42.6,30-61.5c6.3-7,12.2-13.8,16.9-20.5c5.2-7.7,6.9-15.8,4.7-24.3c-4.4-17.3-23.7-30.8-33.1-35.6
		c-15.1-7.8-43.9,7.4-62.6,42.8c-16.1,30.8-11,76.6-9.5,87.3c-10.3-3.3-20.9-5-31.6-5c-2.9,0-5.6-0.4-8.3-1.7
		c-20.5-8.5-41.8-13.3-63.8-15.3c-15.8-1.5-31.6-1.2-47.3,0.7c-16.9,2.2-33.3,6.2-49.1,12.4c-20.5,8-39.1,19-55.3,34
		c-15.4,14.2-28.1,30.3-38.5,48.3C89,315.3,76.9,363.5,73.8,414.1c-0.6,10-0.8,20.2-0.4,30.3c0.6,12.9,1.2,26,3.4,38.8
		c4.8,29.4,12.7,57.9,24.6,85.3c11.7,26.8,26.8,51.4,47.9,72.1c24.9,24.2,54.5,39.1,88.7,44.3c5.6,0.8,11.3,1.5,17.1,2.1
		c1.9,0.1,3.3,1,4.4,2.5c2.2,2.8,4.4,5.5,6.6,8.3c14.7,17.1,31.8,30.9,52.1,40.7c18.8,9.1,38.8,14,59.8,13.9
		c6.2,0,12.2-0.4,18.4-1.2c16.5-2.2,32-7.3,46.9-14.9c1.8-0.8,3.3-2.2,4.8-3.4c1-0.7,1.8-1.7,2.3-2.3c5.8,3.4,10.9,6.9,16.2,9.6
		c20.9,10.7,43.3,15.3,66.7,16c8.9,0.3,18,0,27-1c19.1-2.2,37.5-6.9,54.9-15.4c19.1-9.4,35.1-22.6,46.1-41.1c0.3-0.5,0.8-1,0.8-1.1
		c8.7-2.6,17.1-4.7,25-7.6c24.2-8.7,45.4-22.1,63.5-40.3c18-18.3,31.1-39.7,39.9-63.8c12.4-33.7,19-68.6,22.3-104.1
		C815.1,459.2,815.5,436.8,814.7,414.3z M497.6,206.5c20.9-2.8,40.8,0.3,60,8.4c12.9,5.5,23.7,14.3,33.1,24.6
		c12.1,13.2,21.5,28.3,29.7,44.3c12,23.1,20.9,47.4,28.7,72.2c4.8,15.1,9.2,30.3,13.3,45.5c3.7,13.8,5.9,27.9,7.8,42.1
		c1.2,8.9,2.3,17.9,3.4,26.8c0.4,3,0.4,6.1,0.7,9.5c-30.3,14.6-61.5,26.1-93.9,35.2c-1.9,4.7-1,9.5-1.4,14.3
		c-0.3,4.5,0.1,9.2-1,13.9c-8.1,1.1-15.8-0.4-23.9-0.8c-0.1-1.4-0.6-2.6-0.6-3.9c0.1-5.5,0.6-11,0.1-16.9c-9.9,1.2-19.1,3.7-28.6,5
		c-9.6,1.2-19.1,2.9-28.7,3.7c-9.6,1-19.1,2.3-28.9,1.4c-1.1-2.5-0.7-5-0.7-7.3c0-26.1,0.3-52.4,0.1-78.5c0-16.8-0.4-33.4-0.8-50.2
		c-0.6-17.7-1.2-35.6-2.2-53.4c-1.1-19.1-2.5-38.2-4.7-57.2c-1.7-14.6-3.6-29.3-6.7-43.6c-1-4.3-2.3-8.5-3.4-12.7
		c-0.3-1.2-0.7-2.5-1.1-4.1c1.5-1.1,2.8-2.2,4.3-3C466.5,213.9,481.5,208.7,497.6,206.5z M425.4,114c16.6-31.6,41.5-44.4,51.4-39.3
		c9.8,4.8,25.4,16.9,28.9,30.3c1.5,6.2,0.4,11.8-3.4,17.6c-4.3,6.3-10.2,12.8-16.2,19.7c-16.6,18.7-35.5,39.9-32.5,65.6l-11.1,6.2
		l-25.6-17.3C415.5,187.3,410.4,142.5,425.4,114z M414.1,206.7c8.1,3.4,15.4,8.4,22.1,14.2c2.9,2.5,5,5.5,6.2,9.2
		c2.8,8,4.5,16.1,5.9,24.3c3.4,19.7,5.6,39.6,6.9,59.6c1.2,19.8,2.6,39.5,3.6,59.3c1.4,30.9,1.9,62,1.8,93
		c-0.1,21.7-0.1,43.6-0.3,65.3c-0.1,9.6-0.4,19.4-0.7,29c0,2.2-0.4,4.3-0.6,6.3c-6.9,1-28.1,0.4-38.9-1.2
		c0.3-10.9,0.6-21.7,0.8-32.9c-5.4-1.4-10.7-1.1-15.8-1.9c-5.2-0.8-10.5-1-15.7-1.7c-5-0.7-10-1.5-15-2.3
		c-5.2-0.8-10.3-1.9-15.5-2.8c-5.1-0.7-10.2-2.5-15.7-2.9c-1.2,8.3-0.4,16.2-1.8,23.8c-4.1,0.5-23.9,0-29.3-0.7
		c-1.2-2.1-0.7-4.5-0.6-6.9c0.3-6.7,0.7-13.6,0.8-20.4c0-1.2-0.1-2.6-0.3-4.1c-12.2-4.4-24.6-8.4-36.6-13.1
		c-12-4.8-23.8-10-35.6-15.5c-11.7-5.5-23.2-11.4-34.4-18.6c-0.1-2.2-0.3-4.4-0.3-6.6c-0.1-18.4,0-37,1.7-55.4
		c2.3-26.5,6.3-52.8,14.2-78.3c6.6-21.2,15.5-41.1,28.5-59.1c17.9-24.9,41.4-42.8,69.7-54.5c12-5,24.3-8.9,37.1-11.1
		C376.4,197.4,395.5,198.9,414.1,206.7z M245.2,679.4c-10.7-1.5-21.2-3.6-31.5-6.9c-29.8-9.8-54.3-27.5-74-51.8
		c-14.6-17.9-25.6-37.8-34.4-59.1c-9.5-23-16.4-46.9-20.9-71.4c-2.9-15.1-4.5-30.4-4.5-45.9c0-8.5-0.1-17.2,0.1-25.7
		c0.7-20.9,3.7-41.5,8.4-62c5-21.7,12-42.8,21.6-62.9c10.3-21.6,23.2-41.4,39.7-58.7c16.4-17.1,35.6-29.8,57.5-38.8
		c16.5-6.7,33.7-11.3,51.4-13.5c14-1.8,28.1-1.9,42.1-1c17.3,1.2,34.4,4.5,50.9,10c1,0.3,1.8,0.8,2.8,1.1c-0.7,2.1-2.1,1.8-3.3,2.1
		c-21.5,4.5-41.7,12.4-60.4,23.9c-23.7,14.6-42.1,34.4-56.1,58.3c-11.7,20.1-19.5,41.8-24.9,64.2c-5.2,21.9-8.3,44-9.8,66.4
		c-1.1,15-1.2,29.8-1.2,44.8c0,2.3,0,4.8,0,7.7c-1.5-0.5-2.6-0.7-3.4-1.2c-6.1-4-12-8.1-18-12.1c-1.2-0.8-2.5-1.7-3.7-2.5
		c-1.2,1.4,0,2.2,0.6,2.9c7.2,8.9,14.3,17.9,21.6,26.5c2.2,2.6,3.4,5.2,3.6,8.8c0.6,12.2,1.4,24.6,2.5,36.9
		c3.7,44.1,12.7,86.9,31.6,127.2c4.4,9.4,9.5,18.4,15,27.1c1,1.4,1.8,2.9,2.9,4.7C249.1,680.3,247,679.7,245.2,679.4z M446,719.6
		c-0.1,0.7-0.3,1.2-0.4,1.9c-1.2,4.7-3.7,8-8.4,10.2c-13.6,6.3-27.8,10.9-42.6,12.8c-36.6,4.7-69.2-5.5-98.3-27.4
		c-18.2-13.6-32.6-30.8-44.4-50.1c-14.7-23.8-24.6-49.5-31.6-76.5c-4.3-16.6-7.4-33.4-9.6-50.5c-2.1-16.1-3.6-32.3-4-48.7
		c0-0.8,0-1.7,0-2.5c0.4-0.1,0.8-0.3,1.2-0.4c4.3,4.7,8.7,9.4,12.9,13.9c30.4,31.8,63.5,60.1,102,81.8c7.8,4.4,16,8.3,24.1,12.2
		c1.4,0.7,2.8,1,4.7,1.7c1.2-8.9,1.1-17.3,1.9-26.1c6.3-1,12.4,0.4,18.4,0.5c5.9,0.1,11.8-0.3,17.9,0.8c1,6.6-0.1,12.9-0.3,19.3
		c-0.1,6.2-0.4,12.2-0.7,18.7c7.3,3,14.9,4.1,22.4,5.4c7.4,1.2,14.7,2.2,22.3,2.9c7.6,0.7,15.3,0.7,23.1,1
		c0.1,6.7-0.1,13.1-0.7,19.4c-1.1,13.3-2.2,26.7-3.6,40C451.1,693.3,449.6,706.7,446,719.6z M656.8,692.5
		c-9.1,17.1-22.8,29.3-39.6,38.5c-15.1,8.3-31.4,13.5-48.4,16.2c-11.8,1.9-23.5,2.9-35.5,2.3c-22.4-0.8-44-5.2-64.1-15.5
		c-5.9-3-11.4-6.5-16.6-11.1c7.4-33.7,9.1-68.1,11.4-102.3c5.4-2.3,10.7-1.2,16-2.3c5-1.1,9.9-1.7,15.8-2.6
		c0.7-13.6,0.7-26.8,1.9-40.3c13.6-0.5,26.8,0.7,40.6,1.4c0.7,8.5-0.8,16.8-0.8,24.9c3.2,0.7,5.2-1,7.4-1.8
		c19.9-8.4,38.6-19,56.4-31.2c26-17.9,49.2-38.9,70.8-62c1.1-1.2,2.5-2.3,4.1-4c0.4,1.4,0.8,2.1,0.8,2.9c1.9,27.6,2.2,55.3,1.1,83.1
		c-1.1,25-3.7,49.9-10.2,74.3C665.1,673.1,661.8,683.1,656.8,692.5z M808.1,445.4c-1,40.4-6.3,80.2-17.7,119
		c-5.2,17.7-12,34.9-21.6,50.7c-19.8,32.3-47.7,54.7-83.1,68.2c-5.1,1.9-10.5,3.4-15.7,5c-1,0.3-2.1,0.3-4,0.5
		c6.3-15.4,10.2-30.3,12.8-45.4c2.1-12,3.6-23.9,4.5-36c2.3-27.9,1.9-55.8,1.1-83.8c-0.3-8.4-0.8-16.6-1.5-25
		c-0.3-3,0.6-5.5,2.5-7.8c5.5-6.6,10.6-13.5,16-20.2c1.1-1.4,2.1-2.9,2.9-4.3c-1.1-1.5-2.1-0.5-2.9-0.1c-5.2,2.8-10.6,5.5-15.8,8.1
		c-1.4,0.7-2.8,1.1-4.4,1.7c-1-8-1.9-15.7-2.9-23.2c-3.2-26-8-51.6-15.8-76.7c-7.7-24.5-15.3-49.1-25.4-72.8
		c-6.9-16.2-14.7-31.9-24.6-46.6c-9.1-13.6-19.5-26-32.5-36.2c-0.8-0.7-1.5-1.5-2.3-2.3c0.7-0.7,1-1.2,1.5-1.7
		c14.6-9.9,30.5-16.2,48-19.1c24.3-4,47.7,0.1,70.1,10c18,8.1,34.2,18.8,48.5,32.5c14.3,13.5,24.9,29.6,33.4,47
		c11.4,23.2,18.3,48,22.8,73.4C807.3,388.7,808.8,417,808.1,445.4z" />
		<path class="st0" d="M254.3,336.2c-11.7,11.8-19.5,25.9-24.8,41.5c-0.4,1.4-0.8,2.9-1.2,4.4c4.1,2.3,8.7,2.8,12.8,3.7
		c4.4,1.1,8.7,2.6,13.5,2.9c0.8-2.1,1.5-3.9,2.2-5.8c3-7.8,6.9-15.3,12.1-21.9c8.8-11,19.5-18.8,33.7-21.6
		c5.6-1.1,11.4-1.1,17.1-0.8c15.4,1,27.1,8.1,34.4,21.9c4.1,7.7,6.2,16,7.3,24.5c0.1,1.5,0.4,2.9,0.6,4.3c5.9,1.1,21.3,1.1,26.7,0
		c0.1-1.4,0.3-2.9,0.3-4.4c-1.4-15.5-5.5-30.3-14.2-43.5c-8.5-12.9-20.1-22-34.9-26.7c-7.8-2.5-15.8-3.7-23.9-3.9
		C291.8,310.7,271.2,319,254.3,336.2z" />
		<path class="st0" d="M503.3,390.2c1.8-2.3,1.5-4.7,1.8-6.9c1.5-10.3,4.5-20.1,10.9-28.6c4.7-6.3,10.7-10.7,18.3-13.5
		c5.2-1.9,10.7-2.5,16.2-2.6c16.8-0.4,30.9,5.1,42.5,17.3c7.2,7.6,12.4,16.5,16.2,26.1c1,2.2,1.8,4.4,2.8,7
		c8.7-2.3,17.2-3.9,26.3-6.9c-5.2-17.6-13.3-32.7-25.6-45.5c-7-7.4-15.1-13.3-24.3-17.7c-18.4-8.7-37.5-10-57.2-5.4
		c-13.5,3.2-24.8,10-33.8,20.5c-13.2,15.5-19.1,33.8-19.9,53.9c0,0.5,0.4,1.1,0.8,2.1C486.8,390.3,495.2,390.3,503.3,390.2z" />
	</g>
</svg>